<?xml version="1.0" encoding="utf-8" standalone="no"?>
<!DOCTYPE svg PUBLIC "-//W3C//DTD SVG 1.1//EN"
  "http://www.w3.org/Graphics/SVG/1.1/DTD/svg11.dtd">
<svg xmlns:xlink="http://www.w3.org/1999/xlink" width="243.240142pt" height="202.668359pt" viewBox="0 0 243.240142 202.668359" xmlns="http://www.w3.org/2000/svg" version="1.1">
 <metadata>
  <rdf:RDF xmlns:dc="http://purl.org/dc/elements/1.1/" xmlns:cc="http://creativecommons.org/ns#" xmlns:rdf="http://www.w3.org/1999/02/22-rdf-syntax-ns#">
   <cc:Work>
    <dc:type rdf:resource="http://purl.org/dc/dcmitype/StillImage"/>
    <dc:date>2026-04-21T13:41:54.906495</dc:date>
    <dc:format>image/svg+xml</dc:format>
    <dc:creator>
     <cc:Agent>
      <dc:title>Matplotlib v3.10.3, https://matplotlib.org/</dc:title>
     </cc:Agent>
    </dc:creator>
   </cc:Work>
  </rdf:RDF>
 </metadata>
 <defs>
  <style type="text/css">*{stroke-linejoin: round; stroke-linecap: butt}</style>
 </defs>
 <g id="figure_1">
  <g id="patch_1">
   <path d="M 0 202.668359 
L 243.240142 202.668359 
L 243.240142 0 
L 0 0 
z
" style="fill: #ffffff"/>
  </g>
  <g id="axes_1">
   <g id="patch_2">
    <path d="M 42.210313 168.918359 
L 236.040142 168.918359 
L 236.040142 10.273359 
L 42.210313 10.273359 
z
" style="fill: #ffffff"/>
   </g>
   <g id="matplotlib.axis_1">
    <g id="xtick_1">
     <g id="line2d_1">
      <defs>
       <path id="m72140e40dc" d="M 0 0 
L 0 -4 
" style="stroke: #000000; stroke-width: 0.8"/>
      </defs>
      <g>
       <use xlink:href="#m72140e40dc" x="67.749827" y="168.918359" style="stroke: #000000; stroke-width: 0.8"/>
      </g>
     </g>
     <g id="line2d_2">
      <defs>
       <path id="meb63ae6289" d="M 0 0 
L 0 4 
" style="stroke: #000000; stroke-width: 0.8"/>
      </defs>
      <g>
       <use xlink:href="#meb63ae6289" x="67.749827" y="10.273359" style="stroke: #000000; stroke-width: 0.8"/>
      </g>
     </g>
     <g id="text_1">
      <!-- 50 -->
      <g transform="translate(63.249827 179.065078) scale(0.09 -0.09)">
       <defs>
        <path id="STIXGeneral-Regular-35" d="M 2803 4358 
L 2573 3814 
Q 2534 3731 2400 3731 
L 1158 3731 
L 902 3187 
Q 1606 3053 1920 2896 
Q 2234 2739 2502 2368 
Q 2726 2061 2726 1555 
Q 2726 1094 2576 780 
Q 2426 467 2099 224 
Q 1664 -90 1011 -90 
Q 646 -90 422 19 
Q 198 128 198 307 
Q 198 550 486 550 
Q 717 550 960 352 
Q 1210 147 1414 147 
Q 1747 147 2012 480 
Q 2278 813 2278 1229 
Q 2278 1843 1850 2189 
Q 1293 2637 486 2637 
Q 410 2637 410 2688 
L 416 2720 
L 1114 4237 
L 2438 4237 
Q 2547 4237 2608 4269 
Q 2669 4301 2746 4403 
L 2803 4358 
z
" transform="scale(0.015625)"/>
        <path id="STIXGeneral-Regular-30" d="M 3046 2112 
Q 3046 1683 2963 1302 
Q 2880 922 2717 602 
Q 2554 282 2266 96 
Q 1978 -90 1600 -90 
Q 1210 -90 915 108 
Q 621 307 461 640 
Q 301 973 227 1350 
Q 154 1728 154 2150 
Q 154 2746 301 3222 
Q 448 3699 790 4012 
Q 1133 4326 1626 4326 
Q 2253 4326 2649 3712 
Q 3046 3098 3046 2112 
z
M 2432 2080 
Q 2432 3091 2217 3625 
Q 2003 4160 1587 4160 
Q 1190 4160 979 3622 
Q 768 3085 768 2106 
Q 768 1120 979 598 
Q 1190 77 1600 77 
Q 2003 77 2217 598 
Q 2432 1120 2432 2080 
z
" transform="scale(0.015625)"/>
       </defs>
       <use xlink:href="#STIXGeneral-Regular-35"/>
       <use xlink:href="#STIXGeneral-Regular-30" transform="translate(49.999985 0)"/>
      </g>
     </g>
    </g>
    <g id="xtick_2">
     <g id="line2d_3">
      <g>
       <use xlink:href="#m72140e40dc" x="118.576611" y="168.918359" style="stroke: #000000; stroke-width: 0.8"/>
      </g>
     </g>
     <g id="line2d_4">
      <g>
       <use xlink:href="#meb63ae6289" x="118.576611" y="10.273359" style="stroke: #000000; stroke-width: 0.8"/>
      </g>
     </g>
     <g id="text_2">
      <!-- 100 -->
      <g transform="translate(111.826611 179.065078) scale(0.09 -0.09)">
       <defs>
        <path id="STIXGeneral-Regular-31" d="M 2522 0 
L 755 0 
L 755 96 
Q 1107 115 1235 227 
Q 1363 339 1363 608 
L 1363 3482 
Q 1363 3795 1171 3795 
Q 1082 3795 883 3718 
L 710 3654 
L 710 3744 
L 1856 4326 
L 1914 4307 
L 1914 486 
Q 1914 275 2042 185 
Q 2170 96 2522 96 
L 2522 0 
z
" transform="scale(0.015625)"/>
       </defs>
       <use xlink:href="#STIXGeneral-Regular-31"/>
       <use xlink:href="#STIXGeneral-Regular-30" transform="translate(49.999985 0)"/>
       <use xlink:href="#STIXGeneral-Regular-30" transform="translate(99.999969 0)"/>
      </g>
     </g>
    </g>
    <g id="xtick_3">
     <g id="line2d_5">
      <g>
       <use xlink:href="#m72140e40dc" x="169.403395" y="168.918359" style="stroke: #000000; stroke-width: 0.8"/>
      </g>
     </g>
     <g id="line2d_6">
      <g>
       <use xlink:href="#meb63ae6289" x="169.403395" y="10.273359" style="stroke: #000000; stroke-width: 0.8"/>
      </g>
     </g>
     <g id="text_3">
      <!-- 150 -->
      <g transform="translate(162.653395 179.065078) scale(0.09 -0.09)">
       <use xlink:href="#STIXGeneral-Regular-31"/>
       <use xlink:href="#STIXGeneral-Regular-35" transform="translate(49.999985 0)"/>
       <use xlink:href="#STIXGeneral-Regular-30" transform="translate(99.999969 0)"/>
      </g>
     </g>
    </g>
    <g id="xtick_4">
     <g id="line2d_7">
      <g>
       <use xlink:href="#m72140e40dc" x="220.23018" y="168.918359" style="stroke: #000000; stroke-width: 0.8"/>
      </g>
     </g>
     <g id="line2d_8">
      <g>
       <use xlink:href="#meb63ae6289" x="220.23018" y="10.273359" style="stroke: #000000; stroke-width: 0.8"/>
      </g>
     </g>
     <g id="text_4">
      <!-- 200 -->
      <g transform="translate(213.48018 179.065078) scale(0.09 -0.09)">
       <defs>
        <path id="STIXGeneral-Regular-32" d="M 3034 877 
L 2688 0 
L 186 0 
L 186 77 
L 1325 1286 
Q 1773 1754 1965 2144 
Q 2157 2534 2157 2950 
Q 2157 3379 1920 3616 
Q 1683 3853 1267 3853 
Q 922 3853 720 3673 
Q 518 3494 326 3021 
L 192 3053 
Q 301 3648 630 3987 
Q 960 4326 1523 4326 
Q 2054 4326 2380 4006 
Q 2707 3686 2707 3200 
Q 2707 2477 1888 1613 
L 832 486 
L 2330 486 
Q 2541 486 2665 569 
Q 2790 653 2944 915 
L 3034 877 
z
" transform="scale(0.015625)"/>
       </defs>
       <use xlink:href="#STIXGeneral-Regular-32"/>
       <use xlink:href="#STIXGeneral-Regular-30" transform="translate(49.999985 0)"/>
       <use xlink:href="#STIXGeneral-Regular-30" transform="translate(99.999969 0)"/>
      </g>
     </g>
    </g>
    <g id="text_5">
     <!-- $t_g$ [ns] -->
     <g transform="translate(125.485227 192.388359) scale(0.11 -0.11)">
      <defs>
       <path id="STIXGeneral-Italic-74" d="M 1894 2739 
L 1862 2534 
L 1325 2534 
L 768 435 
Q 755 384 755 346 
Q 755 243 851 243 
Q 928 243 1030 342 
Q 1133 442 1370 749 
L 1453 704 
Q 1158 256 969 93 
Q 781 -70 538 -70 
Q 243 -70 243 166 
Q 243 230 346 640 
L 845 2534 
L 365 2534 
L 358 2573 
Q 358 2688 570 2733 
Q 730 2771 992 2979 
Q 1254 3187 1421 3437 
Q 1459 3494 1510 3494 
Q 1568 3494 1568 3443 
Q 1568 3411 1562 3398 
L 1382 2739 
L 1894 2739 
z
" transform="scale(0.015625)"/>
       <path id="STIXGeneral-Italic-67" d="M 3014 2342 
L 2701 2342 
Q 2758 2227 2758 2016 
Q 2758 1613 2390 1289 
Q 2022 966 1574 966 
Q 1459 966 1376 986 
Q 1357 992 1331 992 
Q 1248 992 1174 909 
Q 1101 826 1101 730 
Q 1101 576 1555 461 
Q 2464 243 2464 -352 
Q 2464 -781 2105 -1049 
Q 1747 -1318 1120 -1318 
Q 621 -1318 336 -1142 
Q 51 -966 51 -627 
Q 51 -378 195 -202 
Q 339 -26 800 250 
Q 627 352 627 499 
Q 627 806 1120 1037 
Q 614 1216 614 1728 
Q 614 2202 1004 2512 
Q 1395 2822 1901 2822 
Q 2272 2822 2528 2643 
Q 2598 2592 2630 2592 
L 3014 2592 
L 3014 2342 
z
M 2253 2227 
Q 2253 2477 2166 2579 
Q 2080 2682 1894 2682 
Q 1587 2682 1350 2362 
Q 1114 2042 1114 1581 
Q 1114 1357 1216 1229 
Q 1318 1101 1498 1101 
Q 1818 1101 2042 1478 
Q 2253 1837 2253 2227 
z
M 2080 -576 
Q 2080 -352 1878 -201 
Q 1677 -51 1165 109 
Q 1011 154 947 179 
Q 902 179 752 57 
Q 602 -64 531 -154 
Q 403 -314 403 -525 
Q 403 -1178 1216 -1178 
Q 1594 -1178 1837 -1002 
Q 2080 -826 2080 -576 
z
" transform="scale(0.015625)"/>
       <path id="STIXGeneral-Regular-20" transform="scale(0.015625)"/>
       <path id="STIXGeneral-Regular-5b" d="M 1914 -998 
L 563 -998 
L 563 4237 
L 1914 4237 
L 1914 4077 
L 1382 4077 
Q 1216 4077 1133 4006 
Q 1050 3936 1050 3770 
L 1050 -493 
Q 1050 -838 1382 -838 
L 1914 -838 
L 1914 -998 
z
" transform="scale(0.015625)"/>
       <path id="STIXGeneral-Regular-6e" d="M 3104 0 
L 1773 0 
L 1779 96 
Q 2016 115 2096 233 
Q 2176 352 2176 672 
L 2176 1946 
Q 2176 2592 1709 2592 
Q 1549 2592 1408 2515 
Q 1267 2438 1050 2227 
L 1050 461 
Q 1050 269 1136 192 
Q 1222 115 1466 96 
L 1466 0 
L 115 0 
L 115 96 
Q 358 115 435 214 
Q 512 314 512 602 
L 512 2157 
Q 512 2394 467 2483 
Q 422 2573 288 2573 
Q 160 2573 102 2547 
L 102 2656 
Q 550 2784 979 2944 
L 1030 2925 
L 1030 2426 
L 1037 2426 
Q 1491 2944 1958 2944 
Q 2323 2944 2518 2688 
Q 2714 2432 2714 1958 
L 2714 544 
Q 2714 288 2790 205 
Q 2867 122 3104 96 
L 3104 0 
z
" transform="scale(0.015625)"/>
       <path id="STIXGeneral-Regular-73" d="M 998 1926 
L 1664 1523 
Q 1984 1331 2105 1164 
Q 2227 998 2227 736 
Q 2227 416 1961 176 
Q 1696 -64 1331 -64 
Q 1030 -64 864 -6 
Q 691 51 570 51 
Q 461 51 416 -26 
L 333 -26 
L 333 979 
L 435 979 
Q 538 512 730 294 
Q 922 77 1248 77 
Q 1485 77 1632 211 
Q 1779 346 1779 550 
Q 1779 845 1440 1030 
L 1094 1222 
Q 326 1651 326 2150 
Q 326 2522 566 2730 
Q 806 2938 1210 2938 
Q 1491 2938 1638 2867 
Q 1754 2816 1818 2816 
Q 1862 2816 1920 2880 
L 1990 2880 
L 2022 2010 
L 1926 2010 
Q 1818 2445 1654 2621 
Q 1491 2797 1203 2797 
Q 986 2797 854 2688 
Q 723 2579 723 2362 
Q 723 2253 796 2128 
Q 870 2003 998 1926 
z
" transform="scale(0.015625)"/>
       <path id="STIXGeneral-Regular-5d" d="M 1568 -998 
L 218 -998 
L 218 -838 
L 781 -838 
Q 947 -838 1014 -768 
Q 1082 -698 1082 -544 
L 1082 3731 
Q 1082 4077 755 4077 
L 218 4077 
L 218 4237 
L 1568 4237 
L 1568 -998 
z
" transform="scale(0.015625)"/>
      </defs>
      <use xlink:href="#STIXGeneral-Italic-74" transform="translate(0 0.796875)"/>
      <use xlink:href="#STIXGeneral-Italic-67" transform="translate(27.799988 -12.43125) scale(0.7)"/>
      <use xlink:href="#STIXGeneral-Regular-20" transform="translate(67.209352 0.796875)"/>
      <use xlink:href="#STIXGeneral-Regular-5b" transform="translate(92.209337 0.796875)"/>
      <use xlink:href="#STIXGeneral-Regular-6e" transform="translate(125.509325 0.796875)"/>
      <use xlink:href="#STIXGeneral-Regular-73" transform="translate(175.509309 0.796875)"/>
      <use xlink:href="#STIXGeneral-Regular-5d" transform="translate(214.409303 0.796875)"/>
     </g>
    </g>
   </g>
   <g id="matplotlib.axis_2">
    <g id="ytick_1">
     <g id="line2d_9">
      <defs>
       <path id="m711592ca1e" d="M 0 0 
L 4 0 
" style="stroke: #000000; stroke-width: 0.8"/>
      </defs>
      <g>
       <use xlink:href="#m711592ca1e" x="42.210313" y="168.918359" style="stroke: #000000; stroke-width: 0.8"/>
      </g>
     </g>
     <g id="line2d_10">
      <defs>
       <path id="me240a0c21c" d="M 0 0 
L -4 0 
" style="stroke: #000000; stroke-width: 0.8"/>
      </defs>
      <g>
       <use xlink:href="#me240a0c21c" x="236.040142" y="168.918359" style="stroke: #000000; stroke-width: 0.8"/>
      </g>
     </g>
     <g id="text_6">
      <!-- $\mathdefault{10^{-6}}$ -->
      <g transform="translate(21.110313 171.991719) scale(0.09 -0.09)">
       <defs>
        <path id="STIXGeneral-Regular-2212" d="M 3974 1408 
L 410 1408 
L 410 1830 
L 3974 1830 
L 3974 1408 
z
" transform="scale(0.015625)"/>
        <path id="STIXGeneral-Regular-36" d="M 2854 4378 
L 2867 4275 
Q 2112 4154 1606 3664 
Q 1101 3174 973 2451 
Q 1344 2739 1786 2739 
Q 2349 2739 2672 2380 
Q 2995 2022 2995 1402 
Q 2995 774 2669 378 
Q 2291 -90 1651 -90 
Q 870 -90 518 557 
Q 218 1107 218 1786 
Q 218 2835 915 3552 
Q 1312 3962 1731 4131 
Q 2150 4301 2854 4378 
z
M 2419 1203 
Q 2419 2445 1555 2445 
Q 1235 2445 1024 2275 
Q 813 2106 813 1702 
Q 813 954 1046 522 
Q 1280 90 1722 90 
Q 2061 90 2240 394 
Q 2419 698 2419 1203 
z
" transform="scale(0.015625)"/>
       </defs>
       <use xlink:href="#STIXGeneral-Regular-31" transform="translate(0 0.115625)"/>
       <use xlink:href="#STIXGeneral-Regular-30" transform="translate(49.999985 0.115625)"/>
       <use xlink:href="#STIXGeneral-Regular-2212" transform="translate(101.574969 36.115625) scale(0.7)"/>
       <use xlink:href="#STIXGeneral-Regular-36" transform="translate(149.524959 36.115625) scale(0.7)"/>
      </g>
     </g>
    </g>
    <g id="ytick_2">
     <g id="line2d_11">
      <g>
       <use xlink:href="#m711592ca1e" x="42.210313" y="89.595859" style="stroke: #000000; stroke-width: 0.8"/>
      </g>
     </g>
     <g id="line2d_12">
      <g>
       <use xlink:href="#me240a0c21c" x="236.040142" y="89.595859" style="stroke: #000000; stroke-width: 0.8"/>
      </g>
     </g>
     <g id="text_7">
      <!-- $\mathdefault{10^{-5}}$ -->
      <g transform="translate(21.110313 92.669219) scale(0.09 -0.09)">
       <use xlink:href="#STIXGeneral-Regular-31" transform="translate(0 0.842187)"/>
       <use xlink:href="#STIXGeneral-Regular-30" transform="translate(49.999985 0.842187)"/>
       <use xlink:href="#STIXGeneral-Regular-2212" transform="translate(101.574969 36.842187) scale(0.7)"/>
       <use xlink:href="#STIXGeneral-Regular-35" transform="translate(149.524959 36.842187) scale(0.7)"/>
      </g>
     </g>
    </g>
    <g id="ytick_3">
     <g id="line2d_13">
      <g>
       <use xlink:href="#m711592ca1e" x="42.210313" y="10.273359" style="stroke: #000000; stroke-width: 0.8"/>
      </g>
     </g>
     <g id="line2d_14">
      <g>
       <use xlink:href="#me240a0c21c" x="236.040142" y="10.273359" style="stroke: #000000; stroke-width: 0.8"/>
      </g>
     </g>
     <g id="text_8">
      <!-- $\mathdefault{10^{-4}}$ -->
      <g transform="translate(21.110313 13.346719) scale(0.09 -0.09)">
       <defs>
        <path id="STIXGeneral-Regular-34" d="M 3027 1069 
L 2368 1069 
L 2368 0 
L 1869 0 
L 1869 1069 
L 77 1069 
L 77 1478 
L 2086 4326 
L 2368 4326 
L 2368 1478 
L 3027 1478 
L 3027 1069 
z
M 1869 1478 
L 1869 3674 
L 333 1478 
L 1869 1478 
z
" transform="scale(0.015625)"/>
       </defs>
       <use xlink:href="#STIXGeneral-Regular-31" transform="translate(0 0.684375)"/>
       <use xlink:href="#STIXGeneral-Regular-30" transform="translate(49.999985 0.684375)"/>
       <use xlink:href="#STIXGeneral-Regular-2212" transform="translate(101.574969 36.684375) scale(0.7)"/>
       <use xlink:href="#STIXGeneral-Regular-34" transform="translate(149.524959 36.684375) scale(0.7)"/>
      </g>
     </g>
    </g>
    <g id="ytick_4">
     <g id="line2d_15">
      <defs>
       <path id="mcf71050c89" d="M 0 0 
L 2 0 
" style="stroke: #000000; stroke-width: 0.6"/>
      </defs>
      <g>
       <use xlink:href="#mcf71050c89" x="42.210313" y="145.039908" style="stroke: #000000; stroke-width: 0.6"/>
      </g>
     </g>
     <g id="line2d_16">
      <defs>
       <path id="mcd2820d673" d="M 0 0 
L -2 0 
" style="stroke: #000000; stroke-width: 0.6"/>
      </defs>
      <g>
       <use xlink:href="#mcd2820d673" x="236.040142" y="145.039908" style="stroke: #000000; stroke-width: 0.6"/>
      </g>
     </g>
    </g>
    <g id="ytick_5">
     <g id="line2d_17">
      <g>
       <use xlink:href="#mcf71050c89" x="42.210313" y="131.071909" style="stroke: #000000; stroke-width: 0.6"/>
      </g>
     </g>
     <g id="line2d_18">
      <g>
       <use xlink:href="#mcd2820d673" x="236.040142" y="131.071909" style="stroke: #000000; stroke-width: 0.6"/>
      </g>
     </g>
    </g>
    <g id="ytick_6">
     <g id="line2d_19">
      <g>
       <use xlink:href="#mcf71050c89" x="42.210313" y="121.161456" style="stroke: #000000; stroke-width: 0.6"/>
      </g>
     </g>
     <g id="line2d_20">
      <g>
       <use xlink:href="#mcd2820d673" x="236.040142" y="121.161456" style="stroke: #000000; stroke-width: 0.6"/>
      </g>
     </g>
    </g>
    <g id="ytick_7">
     <g id="line2d_21">
      <g>
       <use xlink:href="#mcf71050c89" x="42.210313" y="113.474311" style="stroke: #000000; stroke-width: 0.6"/>
      </g>
     </g>
     <g id="line2d_22">
      <g>
       <use xlink:href="#mcd2820d673" x="236.040142" y="113.474311" style="stroke: #000000; stroke-width: 0.6"/>
      </g>
     </g>
    </g>
    <g id="ytick_8">
     <g id="line2d_23">
      <g>
       <use xlink:href="#mcf71050c89" x="42.210313" y="107.193457" style="stroke: #000000; stroke-width: 0.6"/>
      </g>
     </g>
     <g id="line2d_24">
      <g>
       <use xlink:href="#mcd2820d673" x="236.040142" y="107.193457" style="stroke: #000000; stroke-width: 0.6"/>
      </g>
     </g>
    </g>
    <g id="ytick_9">
     <g id="line2d_25">
      <g>
       <use xlink:href="#mcf71050c89" x="42.210313" y="101.88307" style="stroke: #000000; stroke-width: 0.6"/>
      </g>
     </g>
     <g id="line2d_26">
      <g>
       <use xlink:href="#mcd2820d673" x="236.040142" y="101.88307" style="stroke: #000000; stroke-width: 0.6"/>
      </g>
     </g>
    </g>
    <g id="ytick_10">
     <g id="line2d_27">
      <g>
       <use xlink:href="#mcf71050c89" x="42.210313" y="97.283004" style="stroke: #000000; stroke-width: 0.6"/>
      </g>
     </g>
     <g id="line2d_28">
      <g>
       <use xlink:href="#mcd2820d673" x="236.040142" y="97.283004" style="stroke: #000000; stroke-width: 0.6"/>
      </g>
     </g>
    </g>
    <g id="ytick_11">
     <g id="line2d_29">
      <g>
       <use xlink:href="#mcf71050c89" x="42.210313" y="93.225458" style="stroke: #000000; stroke-width: 0.6"/>
      </g>
     </g>
     <g id="line2d_30">
      <g>
       <use xlink:href="#mcd2820d673" x="236.040142" y="93.225458" style="stroke: #000000; stroke-width: 0.6"/>
      </g>
     </g>
    </g>
    <g id="ytick_12">
     <g id="line2d_31">
      <g>
       <use xlink:href="#mcf71050c89" x="42.210313" y="65.717408" style="stroke: #000000; stroke-width: 0.6"/>
      </g>
     </g>
     <g id="line2d_32">
      <g>
       <use xlink:href="#mcd2820d673" x="236.040142" y="65.717408" style="stroke: #000000; stroke-width: 0.6"/>
      </g>
     </g>
    </g>
    <g id="ytick_13">
     <g id="line2d_33">
      <g>
       <use xlink:href="#mcf71050c89" x="42.210313" y="51.749409" style="stroke: #000000; stroke-width: 0.6"/>
      </g>
     </g>
     <g id="line2d_34">
      <g>
       <use xlink:href="#mcd2820d673" x="236.040142" y="51.749409" style="stroke: #000000; stroke-width: 0.6"/>
      </g>
     </g>
    </g>
    <g id="ytick_14">
     <g id="line2d_35">
      <g>
       <use xlink:href="#mcf71050c89" x="42.210313" y="41.838956" style="stroke: #000000; stroke-width: 0.6"/>
      </g>
     </g>
     <g id="line2d_36">
      <g>
       <use xlink:href="#mcd2820d673" x="236.040142" y="41.838956" style="stroke: #000000; stroke-width: 0.6"/>
      </g>
     </g>
    </g>
    <g id="ytick_15">
     <g id="line2d_37">
      <g>
       <use xlink:href="#mcf71050c89" x="42.210313" y="34.151811" style="stroke: #000000; stroke-width: 0.6"/>
      </g>
     </g>
     <g id="line2d_38">
      <g>
       <use xlink:href="#mcd2820d673" x="236.040142" y="34.151811" style="stroke: #000000; stroke-width: 0.6"/>
      </g>
     </g>
    </g>
    <g id="ytick_16">
     <g id="line2d_39">
      <g>
       <use xlink:href="#mcf71050c89" x="42.210313" y="27.870957" style="stroke: #000000; stroke-width: 0.6"/>
      </g>
     </g>
     <g id="line2d_40">
      <g>
       <use xlink:href="#mcd2820d673" x="236.040142" y="27.870957" style="stroke: #000000; stroke-width: 0.6"/>
      </g>
     </g>
    </g>
    <g id="ytick_17">
     <g id="line2d_41">
      <g>
       <use xlink:href="#mcf71050c89" x="42.210313" y="22.56057" style="stroke: #000000; stroke-width: 0.6"/>
      </g>
     </g>
     <g id="line2d_42">
      <g>
       <use xlink:href="#mcd2820d673" x="236.040142" y="22.56057" style="stroke: #000000; stroke-width: 0.6"/>
      </g>
     </g>
    </g>
    <g id="ytick_18">
     <g id="line2d_43">
      <g>
       <use xlink:href="#mcf71050c89" x="42.210313" y="17.960504" style="stroke: #000000; stroke-width: 0.6"/>
      </g>
     </g>
     <g id="line2d_44">
      <g>
       <use xlink:href="#mcd2820d673" x="236.040142" y="17.960504" style="stroke: #000000; stroke-width: 0.6"/>
      </g>
     </g>
    </g>
    <g id="ytick_19">
     <g id="line2d_45">
      <g>
       <use xlink:href="#mcf71050c89" x="42.210313" y="13.902958" style="stroke: #000000; stroke-width: 0.6"/>
      </g>
     </g>
     <g id="line2d_46">
      <g>
       <use xlink:href="#mcd2820d673" x="236.040142" y="13.902958" style="stroke: #000000; stroke-width: 0.6"/>
      </g>
     </g>
    </g>
    <g id="text_9">
     <!-- Gate infidelity -->
     <g transform="translate(14.712656 121.523359) rotate(-90) scale(0.11 -0.11)">
      <defs>
       <path id="STIXGeneral-Regular-47" d="M 4538 2266 
L 4538 2150 
Q 4256 2125 4173 2035 
Q 4090 1946 4090 1638 
L 4090 358 
Q 3539 -90 2464 -90 
Q 1965 -90 1507 89 
Q 1050 269 736 595 
Q 205 1152 205 2093 
Q 205 3155 890 3776 
Q 1491 4326 2419 4326 
Q 2829 4326 3270 4179 
Q 3443 4115 3552 4115 
Q 3654 4115 3731 4176 
Q 3808 4237 3840 4326 
L 3981 4326 
L 4032 2976 
L 3885 2976 
Q 3680 3475 3430 3718 
Q 3059 4070 2496 4070 
Q 1856 4070 1427 3629 
Q 934 3136 934 2074 
Q 934 1190 1395 678 
Q 1856 166 2618 166 
Q 2982 166 3225 281 
Q 3469 397 3469 557 
L 3469 1562 
Q 3469 1933 3376 2025 
Q 3283 2118 2899 2150 
L 2899 2266 
L 4538 2266 
z
" transform="scale(0.015625)"/>
       <path id="STIXGeneral-Regular-61" d="M 2829 422 
L 2829 243 
Q 2586 -64 2253 -64 
Q 1888 -64 1843 403 
L 1837 403 
Q 1427 -64 909 -64 
Q 608 -64 422 112 
Q 237 288 237 602 
Q 237 1050 685 1350 
Q 992 1555 1837 1869 
L 1837 2214 
Q 1837 2502 1699 2646 
Q 1562 2790 1338 2790 
Q 1146 2790 1018 2697 
Q 890 2605 890 2477 
Q 890 2419 909 2348 
Q 928 2278 928 2208 
Q 928 2112 841 2029 
Q 755 1946 634 1946 
Q 525 1946 441 2029 
Q 358 2112 358 2240 
Q 358 2547 685 2752 
Q 986 2944 1421 2944 
Q 1939 2944 2176 2656 
Q 2291 2522 2323 2384 
Q 2355 2246 2355 1946 
L 2355 723 
Q 2355 301 2554 301 
Q 2682 301 2829 422 
z
M 1837 813 
L 1837 1715 
Q 1248 1510 1018 1293 
Q 800 1094 800 800 
Q 800 557 921 432 
Q 1043 307 1242 307 
Q 1453 307 1613 410 
Q 1747 506 1792 589 
Q 1837 672 1837 813 
z
" transform="scale(0.015625)"/>
       <path id="STIXGeneral-Regular-74" d="M 1702 493 
L 1786 422 
Q 1478 -64 1011 -64 
Q 448 -64 448 749 
L 448 2675 
L 109 2675 
Q 83 2694 83 2720 
Q 83 2771 192 2842 
Q 435 2982 813 3526 
Q 826 3546 874 3606 
Q 922 3667 941 3706 
Q 986 3706 986 3622 
L 986 2880 
L 1632 2880 
L 1632 2675 
L 986 2675 
L 986 845 
Q 986 538 1062 403 
Q 1139 269 1318 269 
Q 1510 269 1702 493 
z
" transform="scale(0.015625)"/>
       <path id="STIXGeneral-Regular-65" d="M 2611 1050 
L 2714 1005 
Q 2330 -64 1376 -64 
Q 813 -64 486 329 
Q 160 723 160 1389 
Q 160 2074 525 2509 
Q 890 2944 1485 2944 
Q 2061 2944 2374 2502 
Q 2560 2246 2592 1773 
L 621 1773 
Q 646 1370 700 1158 
Q 755 947 915 730 
Q 1184 378 1626 378 
Q 1939 378 2153 531 
Q 2368 685 2611 1050 
z
M 634 1978 
L 1939 1978 
Q 1882 2381 1750 2547 
Q 1619 2714 1312 2714 
Q 1043 2714 864 2525 
Q 685 2336 634 1978 
z
" transform="scale(0.015625)"/>
       <path id="STIXGeneral-Regular-69" d="M 1152 4045 
Q 1152 3904 1056 3811 
Q 960 3718 819 3718 
Q 685 3718 592 3811 
Q 499 3904 499 4045 
Q 499 4179 595 4275 
Q 691 4371 826 4371 
Q 966 4371 1059 4275 
Q 1152 4179 1152 4045 
z
M 1619 0 
L 102 0 
L 102 96 
Q 435 115 521 211 
Q 608 307 608 666 
L 608 2118 
Q 608 2342 563 2432 
Q 518 2522 397 2522 
Q 243 2522 128 2490 
L 128 2592 
L 1120 2944 
L 1146 2918 
L 1146 672 
Q 1146 314 1226 218 
Q 1306 122 1619 96 
L 1619 0 
z
" transform="scale(0.015625)"/>
       <path id="STIXGeneral-Regular-66" d="M 134 2880 
L 659 2880 
Q 666 3264 710 3478 
Q 755 3693 883 3910 
Q 1152 4371 1786 4371 
Q 2074 4371 2262 4259 
Q 2451 4147 2451 3974 
Q 2451 3866 2374 3789 
Q 2298 3712 2182 3712 
Q 2029 3712 1894 3942 
Q 1741 4192 1555 4192 
Q 1197 4192 1197 3622 
L 1197 2880 
L 1978 2880 
L 1978 2675 
L 1197 2675 
L 1197 666 
Q 1197 307 1299 208 
Q 1402 109 1792 96 
L 1792 0 
L 128 0 
L 128 96 
Q 474 115 566 214 
Q 659 314 659 666 
L 659 2675 
L 134 2675 
L 134 2880 
z
" transform="scale(0.015625)"/>
       <path id="STIXGeneral-Regular-64" d="M 3142 269 
L 2202 -64 
L 2176 -45 
L 2176 365 
Q 1869 -64 1357 -64 
Q 826 -64 499 317 
Q 173 698 173 1312 
Q 173 1990 563 2467 
Q 954 2944 1504 2944 
Q 1850 2944 2176 2669 
L 2176 3667 
Q 2176 3866 2118 3930 
Q 2061 3994 1882 3994 
Q 1792 3994 1741 3987 
L 1741 4090 
Q 2323 4243 2682 4371 
L 2714 4358 
L 2714 730 
Q 2714 506 2768 435 
Q 2822 365 2995 365 
Q 3034 365 3142 371 
L 3142 269 
z
M 2176 653 
L 2176 2125 
Q 2176 2381 1981 2573 
Q 1786 2765 1523 2765 
Q 1158 2765 940 2438 
Q 723 2112 723 1568 
Q 723 979 963 624 
Q 1203 269 1606 269 
Q 1907 269 2080 474 
Q 2176 582 2176 653 
z
" transform="scale(0.015625)"/>
       <path id="STIXGeneral-Regular-6c" d="M 1645 0 
L 134 0 
L 134 96 
Q 435 122 531 221 
Q 627 320 627 589 
L 627 3590 
Q 627 3821 569 3910 
Q 512 4000 358 4000 
Q 224 4000 122 3987 
L 122 4090 
Q 730 4237 1133 4371 
L 1165 4346 
L 1165 557 
Q 1165 288 1254 201 
Q 1344 115 1645 96 
L 1645 0 
z
" transform="scale(0.015625)"/>
       <path id="STIXGeneral-Regular-79" d="M 3040 2880 
L 3040 2784 
Q 2925 2771 2854 2700 
Q 2784 2630 2720 2458 
L 1760 -160 
Q 1510 -838 1257 -1116 
Q 1005 -1395 640 -1395 
Q 435 -1395 313 -1289 
Q 192 -1184 192 -1024 
Q 192 -902 272 -816 
Q 352 -730 467 -730 
Q 653 -730 800 -813 
Q 883 -858 966 -858 
Q 1101 -858 1286 -576 
Q 1376 -448 1459 -211 
Q 1542 26 1542 115 
Q 1542 198 1274 762 
L 429 2566 
Q 346 2752 90 2790 
L 90 2880 
L 1402 2880 
L 1402 2784 
Q 1197 2778 1117 2739 
Q 1037 2701 1037 2611 
Q 1037 2541 1120 2349 
L 1837 749 
L 2458 2515 
Q 2483 2573 2483 2630 
Q 2483 2784 2189 2784 
L 2189 2880 
L 3040 2880 
z
" transform="scale(0.015625)"/>
      </defs>
      <use xlink:href="#STIXGeneral-Regular-47"/>
      <use xlink:href="#STIXGeneral-Regular-61" transform="translate(72.199982 0)"/>
      <use xlink:href="#STIXGeneral-Regular-74" transform="translate(116.599976 0)"/>
      <use xlink:href="#STIXGeneral-Regular-65" transform="translate(144.399963 0)"/>
      <use xlink:href="#STIXGeneral-Regular-20" transform="translate(188.799957 0)"/>
      <use xlink:href="#STIXGeneral-Regular-69" transform="translate(213.799942 0)"/>
      <use xlink:href="#STIXGeneral-Regular-6e" transform="translate(241.59993 0)"/>
      <use xlink:href="#STIXGeneral-Regular-66" transform="translate(291.599915 0)"/>
      <use xlink:href="#STIXGeneral-Regular-69" transform="translate(324.899902 0)"/>
      <use xlink:href="#STIXGeneral-Regular-64" transform="translate(352.69989 0)"/>
      <use xlink:href="#STIXGeneral-Regular-65" transform="translate(402.699875 0)"/>
      <use xlink:href="#STIXGeneral-Regular-6c" transform="translate(447.099869 0)"/>
      <use xlink:href="#STIXGeneral-Regular-69" transform="translate(474.899857 0)"/>
      <use xlink:href="#STIXGeneral-Regular-74" transform="translate(502.699844 0)"/>
      <use xlink:href="#STIXGeneral-Regular-79" transform="translate(530.499832 0)"/>
     </g>
    </g>
   </g>
   <g id="line2d_47">
    <path d="M 42.210313 97.60015 
L 42.241647 98.127754 
L 42.367763 92.255985 
L 42.463172 98.488907 
L 42.495134 95.753312 
L 42.559297 92.105558 
L 42.591498 93.275621 
L 42.688588 99.975539 
L 42.721114 91.08578 
L 42.786411 98.461192 
L 42.819183 100.079841 
L 42.884976 92.424763 
L 42.917997 98.548634 
L 42.951102 98.850579 
L 42.984291 98.182406 
L 43.084364 88.881394 
L 43.151505 96.877529 
L 43.185205 93.718192 
L 43.21899 92.729295 
L 43.320868 96.614313 
L 43.389224 93.855326 
L 43.457933 98.718818 
L 43.49242 95.04823 
L 43.526997 91.503269 
L 43.561663 93.379095 
L 43.666204 99.770207 
L 43.631267 92.136867 
L 43.701232 98.007345 
L 43.736352 94.685212 
L 43.771564 100.146366 
L 43.806867 95.948206 
L 43.842263 98.685245 
L 43.913334 96.019823 
L 43.949009 96.479617 
L 43.984779 101.369878 
L 44.020642 91.509245 
L 44.128802 99.398592 
L 44.165047 89.679375 
L 44.201387 101.045698 
L 44.237824 99.544962 
L 44.347719 88.70359 
L 44.384546 95.107318 
L 44.421471 100.141816 
L 44.458495 96.818156 
L 44.495619 93.979387 
L 44.532842 98.124754 
L 44.570165 96.278918 
L 44.607589 94.395023 
L 44.645113 99.483182 
L 44.720466 94.717982 
L 44.758296 98.063018 
L 44.796228 97.194097 
L 44.948988 90.837884 
L 45.025995 99.939082 
L 45.064655 95.704218 
L 45.103422 89.115008 
L 45.142295 97.683453 
L 45.29886 93.336154 
L 45.338271 100.642483 
L 45.41742 98.62802 
L 45.457159 90.311116 
L 45.497009 100.184474 
L 45.536969 96.3173 
L 45.577041 93.00544 
L 45.617224 96.910926 
L 45.657519 93.487157 
L 45.697927 99.699552 
L 45.738448 96.118474 
L 45.779083 91.14251 
L 45.819831 98.07381 
L 45.860694 96.791488 
L 45.901672 102.359569 
L 45.942766 94.986811 
L 46.066744 100.249381 
L 46.149982 87.712935 
L 46.233693 93.864841 
L 46.275728 92.662043 
L 46.317883 100.461682 
L 46.360158 93.677146 
L 46.402554 89.228844 
L 46.445072 94.615223 
L 46.487711 91.174893 
L 46.616367 98.804918 
L 46.789647 91.597409 
L 46.920931 97.92173 
L 47.009092 95.237033 
L 47.097769 94.051628 
L 47.186967 98.544367 
L 47.27669 99.360303 
L 47.32175 90.352553 
L 47.412269 98.516717 
L 47.503324 92.618989 
L 47.549055 94.991856 
L 47.640925 96.412496 
L 47.733343 88.953348 
L 47.873011 97.612724 
L 47.919846 97.119704 
L 47.966823 91.183281 
L 48.01394 93.052003 
L 48.20384 98.56839 
L 48.251675 87.815769 
L 48.299655 98.412128 
L 48.347782 98.18172 
L 48.396055 91.0004 
L 48.444476 96.387561 
L 48.493044 100.890397 
L 48.639645 91.385589 
L 48.688813 90.633436 
L 48.787603 99.131661 
L 48.936937 98.586007 
L 49.138222 88.246075 
L 49.239808 98.564098 
L 49.342033 92.182623 
L 49.393386 101.402148 
L 49.4449 98.903504 
L 49.548417 90.341768 
L 49.652589 97.167397 
L 49.704923 95.809161 
L 49.757423 96.278656 
L 49.810091 96.019603 
L 49.862925 92.550684 
L 49.915929 93.148981 
L 49.969102 97.668556 
L 50.022445 90.06921 
L 50.075959 96.597354 
L 50.129645 103.960089 
L 50.183503 90.762778 
L 50.237535 92.824694 
L 50.400681 96.865623 
L 50.455415 92.265407 
L 50.510327 101.224505 
L 50.565417 98.278975 
L 50.620687 93.019963 
L 50.731768 99.149375 
L 50.899758 91.047106 
L 50.956122 98.610709 
L 51.012673 91.062899 
L 51.069409 92.982208 
L 51.183446 97.748477 
L 51.355923 90.459707 
L 51.471867 98.522486 
L 51.530129 97.448062 
L 51.70609 90.934733 
L 51.765138 91.035444 
L 51.883832 98.655347 
L 51.94348 92.040418 
L 52.003329 95.141914 
L 52.123638 95.769233 
L 52.1841 98.015573 
L 52.244767 97.021692 
L 52.366725 90.704599 
L 52.551232 101.647146 
L 52.613158 100.229434 
L 52.80022 93.59051 
L 52.863006 96.999252 
L 52.92601 89.584892 
L 52.989233 97.149135 
L 53.052676 89.996535 
L 53.116341 93.509596 
L 53.180228 95.812295 
L 53.244338 94.97513 
L 53.308674 93.12613 
L 53.438023 97.952597 
L 53.568286 91.800677 
L 53.633762 97.885088 
L 53.699471 93.978047 
L 53.765413 90.104842 
L 53.898001 96.078761 
L 53.964649 93.756582 
L 54.098662 100.09017 
L 54.301488 90.174045 
L 54.437926 95.067115 
L 54.506515 94.442905 
L 54.575353 93.402358 
L 54.713779 98.813778 
L 54.783369 91.303752 
L 54.853214 95.958295 
L 54.923314 95.509847 
L 54.993671 96.803314 
L 55.064285 90.283631 
L 55.135159 97.785675 
L 55.206294 90.519503 
L 55.277691 100.007715 
L 55.349352 97.359925 
L 55.421278 96.99543 
L 55.49347 97.193163 
L 55.565931 89.787413 
L 55.638661 99.132349 
L 55.711662 93.330232 
L 55.784935 94.224003 
L 55.932306 97.941825 
L 56.155444 91.190373 
L 56.230385 91.552983 
L 56.305609 93.852854 
L 56.381118 90.061584 
L 56.456913 91.393796 
L 56.60937 95.246145 
L 56.762993 88.578469 
L 56.840245 96.354884 
L 56.917794 91.968137 
L 56.995641 97.198033 
L 57.073788 90.308799 
L 57.152236 92.362331 
L 57.230987 98.496871 
L 57.310043 89.516708 
L 57.469078 96.744449 
L 57.549059 92.336831 
L 57.70996 96.039359 
L 57.872124 91.013363 
L 57.953683 94.15789 
L 58.200297 89.452645 
L 58.366337 92.968192 
L 58.449852 90.302317 
L 58.617883 94.289091 
L 58.702402 92.632955 
L 58.787259 96.176619 
L 58.957998 91.152484 
L 59.130115 94.491048 
L 59.216696 92.434811 
L 59.390912 98.772752 
L 59.478552 90.899707 
L 59.566549 95.028404 
L 59.654905 92.717089 
L 59.743623 95.051207 
L 59.832704 92.912268 
L 60.102153 99.280476 
L 60.192712 90.153415 
L 60.283646 96.76091 
L 60.374956 93.630601 
L 60.466647 98.513627 
L 60.651176 88.485962 
L 60.837251 97.689792 
L 60.930875 89.431245 
L 61.214119 101.222972 
L 61.309332 91.412738 
L 61.40495 92.608579 
L 61.500974 92.30196 
L 61.597407 93.273081 
L 61.694251 91.098001 
L 61.889184 94.10813 
L 61.987278 94.073402 
L 62.085794 95.631472 
L 62.184734 95.025646 
L 62.284102 85.907432 
L 62.484131 92.800795 
L 62.584797 91.849942 
L 62.685902 89.30328 
L 62.787448 91.782966 
L 62.889438 91.231796 
L 62.991874 95.550295 
L 63.1981 93.471598 
L 63.301895 91.77344 
L 63.406148 94.173579 
L 63.827808 89.65905 
L 63.9344 93.672688 
L 64.149017 87.615563 
L 64.257049 87.679909 
L 64.474576 96.031376 
L 64.584077 91.309649 
L 64.804571 92.518116 
L 64.915571 91.072064 
L 65.027077 93.117016 
L 65.139093 89.338739 
L 65.251621 96.789236 
L 65.478232 89.055216 
L 65.592321 92.323772 
L 65.706937 90.482765 
L 65.822084 95.130202 
L 65.937765 91.97556 
L 66.053984 94.12822 
L 66.170745 88.797395 
L 66.288051 89.906192 
L 66.405906 95.405178 
L 66.643279 87.628768 
L 66.762805 93.779772 
L 66.882895 91.311022 
L 67.003553 95.800391 
L 67.246591 87.644694 
L 67.368979 94.700365 
L 67.491951 92.602755 
L 67.615511 85.989854 
L 67.739664 91.050228 
L 67.864414 84.929216 
L 67.989765 89.26201 
L 68.115722 86.659419 
L 68.242288 95.833724 
L 68.369468 87.317139 
L 68.625688 93.498972 
L 68.754737 87.567995 
L 68.884417 95.481991 
L 69.277294 87.29964 
L 69.409547 86.460075 
L 69.542455 93.235636 
L 69.676022 87.579386 
L 69.810254 87.017378 
L 69.945155 88.965394 
L 70.080731 85.49898 
L 70.216985 94.988022 
L 70.353924 88.443217 
L 70.491552 93.760464 
L 70.629874 89.280826 
L 70.768895 89.813176 
L 70.908621 93.770037 
L 71.190207 83.691101 
L 71.332078 91.733427 
L 71.474675 81.919981 
L 71.618003 93.000104 
L 71.762068 88.455267 
L 71.906875 91.705343 
L 72.05243 92.276182 
L 72.345806 88.253146 
L 72.493639 89.533947 
L 72.642242 84.193805 
L 72.941785 92.0085 
L 73.092736 85.399895 
L 73.244482 85.356092 
L 73.397029 92.916061 
L 73.550383 89.587142 
L 73.70455 90.776363 
L 73.859536 87.193971 
L 74.015348 87.959392 
L 74.171993 87.066775 
L 74.329476 83.319757 
L 74.646986 90.462403 
L 74.807025 92.222377 
L 74.967929 91.400631 
L 75.129706 86.054205 
L 75.292362 85.813729 
L 75.455904 90.211368 
L 75.62034 90.04076 
L 75.785675 89.072274 
L 75.951918 94.918521 
L 76.119076 87.185203 
L 76.62611 93.386351 
L 76.797001 88.492826 
L 76.968843 88.172957 
L 77.141646 87.487523 
L 77.315416 88.566925 
L 77.490161 90.902283 
L 77.66589 81.753642 
L 77.842611 83.022379 
L 78.020331 82.984201 
L 78.378803 90.679544 
L 78.559572 85.891197 
L 78.741374 88.197769 
L 78.924217 83.713592 
L 79.108111 82.548168 
L 79.293064 83.103378 
L 79.479084 84.296008 
L 79.666182 88.663153 
L 79.854366 86.315048 
L 80.043644 86.000857 
L 80.234027 84.493584 
L 80.618143 89.133884 
L 80.811894 86.664941 
L 81.006789 86.664233 
L 81.202835 89.450751 
L 81.400043 82.507531 
L 81.598422 88.592285 
L 81.797984 87.532709 
L 81.998738 87.564315 
L 82.200693 89.518249 
L 82.403862 84.160155 
L 82.608254 89.25898 
L 82.81388 87.942879 
L 83.02075 88.217226 
L 83.438268 83.170492 
L 83.648938 89.528713 
L 83.860897 83.875898 
L 84.288727 85.945268 
L 84.504621 82.086391 
L 84.721851 85.913701 
L 84.940427 83.398086 
L 85.160362 84.693503 
L 85.381669 87.949383 
L 85.604359 87.226601 
L 85.828444 87.135867 
L 86.053938 80.679745 
L 86.280854 86.477204 
L 86.509203 84.449527 
L 86.739 83.661588 
L 86.970257 86.289764 
L 87.202987 82.938955 
L 87.437204 83.84739 
L 87.672922 83.599451 
L 87.910154 83.142469 
L 88.148914 86.842159 
L 88.389217 81.796016 
L 88.631077 85.066628 
L 88.874507 82.233094 
L 89.119524 84.329133 
L 89.36614 84.854693 
L 89.614372 83.389229 
L 89.864235 84.737659 
L 90.115743 79.895232 
L 90.368913 81.448057 
L 90.623759 88.768817 
L 90.880298 86.177525 
L 91.660232 82.67987 
L 91.923704 79.739312 
L 92.188951 81.298253 
L 92.455989 85.181173 
L 92.724836 83.539911 
L 92.995509 79.28129 
L 93.268026 83.086014 
L 93.542405 81.908688 
L 94.376893 84.647732 
L 94.658901 80.101308 
L 94.942863 80.552479 
L 95.228798 80.746188 
L 96.098636 85.456407 
L 96.392659 83.765175 
L 96.688754 79.196478 
L 96.986943 81.378302 
L 97.287245 81.00559 
L 97.589681 81.931806 
L 97.894274 79.29294 
L 98.201044 83.535771 
L 98.510014 77.505301 
L 98.821205 81.488819 
L 99.13464 79.439578 
L 99.450342 80.657227 
L 99.768333 80.147232 
L 100.088637 78.98161 
L 100.411277 79.9024 
L 100.736277 78.944584 
L 101.063661 80.175294 
L 101.393454 80.355213 
L 101.725679 81.33046 
L 102.060363 85.159585 
L 102.39753 76.186123 
L 102.737206 79.645895 
L 103.079416 76.738325 
L 103.424188 79.419733 
L 103.771547 81.120999 
L 104.121521 82.216529 
L 104.82942 83.235443 
L 105.187402 79.956174 
L 105.548108 78.860866 
L 105.911568 82.411182 
L 106.277811 76.563461 
L 106.646866 76.988808 
L 107.018763 78.992681 
L 107.393531 76.378466 
L 107.771201 76.07757 
L 108.151803 78.808227 
L 108.53537 79.264123 
L 108.921931 79.122996 
L 109.31152 78.235489 
L 109.704168 78.368231 
L 110.099908 76.738929 
L 110.498772 78.727642 
L 111.306011 74.94786 
L 111.714453 76.723438 
L 112.126157 77.338447 
L 112.541157 78.205266 
L 112.959488 76.714602 
L 113.381188 80.807168 
L 113.806291 72.637427 
L 114.234836 72.053994 
L 114.666858 75.608457 
L 115.102397 74.532398 
L 115.54149 73.969078 
L 115.984175 80.408954 
L 116.430492 78.884243 
L 116.88048 74.056297 
L 117.334179 73.380295 
L 117.79163 77.405442 
L 118.252873 74.579856 
L 118.71795 69.983233 
L 119.186902 74.589015 
L 119.659772 74.990145 
L 120.136603 68.903396 
L 120.617438 75.265121 
L 121.102321 74.522389 
L 121.591296 67.486338 
L 122.084407 76.685892 
L 122.581701 75.990339 
L 123.083222 70.095743 
L 123.589016 73.247988 
L 124.099132 77.687024 
L 124.613615 69.460134 
L 125.132513 75.948607 
L 125.655875 70.213428 
L 126.183749 72.452788 
L 126.716185 67.959533 
L 127.253231 74.163246 
L 127.794939 70.967723 
L 128.341359 72.2194 
L 128.892542 69.582571 
L 129.44854 70.733227 
L 130.009404 68.953803 
L 130.575187 67.943588 
L 131.145943 69.300543 
L 131.721724 67.764843 
L 132.302586 68.028281 
L 132.888581 67.66069 
L 133.479766 70.003774 
L 134.076195 68.948305 
L 134.677924 66.743505 
L 135.28501 69.125528 
L 135.897508 69.258623 
L 136.515476 69.70308 
L 137.138971 68.673654 
L 137.768051 67.290108 
L 138.402774 68.885372 
L 139.043198 67.254118 
L 139.689382 66.437638 
L 140.341385 65.883694 
L 140.999266 66.215335 
L 141.663085 63.923967 
L 142.332902 68.146725 
L 143.008776 67.879496 
L 143.690769 64.397654 
L 144.378939 67.764327 
L 145.073348 58.960187 
L 145.774055 68.080263 
L 146.481123 66.798494 
L 147.194611 67.27796 
L 147.91458 67.472871 
L 148.64109 62.976886 
L 149.374202 64.42461 
L 150.113976 65.050186 
L 150.860473 64.613394 
L 151.613751 62.914193 
L 152.373871 62.026142 
L 153.140892 62.786436 
L 153.914872 60.883388 
L 154.69587 60.467864 
L 155.483943 58.599648 
L 156.279148 63.041236 
L 157.081541 59.654202 
L 157.891179 59.006367 
L 158.708115 62.088379 
L 159.532403 61.528881 
L 160.364096 59.413652 
L 161.203245 60.426394 
L 162.904111 52.288756 
L 163.765923 61.079792 
L 164.635384 56.40868 
L 165.512536 61.825063 
L 166.397422 56.589578 
L 167.290082 58.524909 
L 168.190554 63.358801 
L 169.098873 49.949515 
L 170.015072 61.026317 
L 170.939181 59.964621 
L 171.871229 55.475337 
L 172.81124 55.191347 
L 173.759234 60.992392 
L 174.715231 56.405493 
L 175.679245 55.787772 
L 176.651285 48.11273 
L 177.63136 57.72704 
L 178.61947 51.829979 
L 179.615614 51.708494 
L 180.619786 52.612644 
L 181.631971 54.791893 
L 182.652155 46.825962 
L 183.680313 50.310249 
L 184.716416 50.246425 
L 185.76043 51.485737 
L 186.812313 55.411129 
L 187.872018 46.521484 
L 188.939487 49.232115 
L 190.014658 44.668542 
L 191.097461 55.562698 
L 192.187816 46.90425 
L 193.285635 46.451959 
L 194.390822 55.431482 
L 195.503269 46.083758 
L 196.622862 48.091985 
L 197.749473 47.689778 
L 198.882966 51.999837 
L 200.023192 46.243534 
L 201.169992 45.7433 
L 202.323193 44.641034 
L 203.482612 46.456551 
L 204.648051 42.805877 
L 205.819299 41.104428 
L 206.996131 40.914648 
L 208.178309 44.525466 
L 209.365578 41.71454 
L 210.557669 37.887688 
L 211.754297 44.157421 
L 212.955159 35.976986 
L 214.159937 47.617107 
L 215.368295 45.070334 
L 216.57988 43.696578 
L 217.794319 41.413664 
L 219.011223 36.90709 
L 220.23018 38.077999 
L 221.450762 38.846733 
L 223.894983 41.599757 
L 225.117663 38.767772 
L 226.340048 37.430029 
L 227.561606 39.153282 
L 228.781784 37.77231 
L 230.000007 38.087862 
L 231.215677 37.680267 
L 232.428177 33.058009 
L 233.636866 35.519193 
L 234.841082 39.540305 
L 236.040142 34.968051 
L 236.040142 34.968051 
" clip-path="url(#pc1d9a1c819)" style="fill: none; stroke: #5d8fc2; stroke-width: 1.9; stroke-linecap: round"/>
   </g>
   <g id="line2d_48">
    <path d="M 42.210313 126.460834 
L 42.241647 124.781669 
L 42.273059 127.839639 
L 42.304549 126.987827 
L 42.336117 128.289011 
L 42.367763 125.453625 
L 42.43129 127.699651 
L 42.495134 123.535795 
L 42.527175 124.215697 
L 42.591498 123.025154 
L 42.623781 127.717694 
L 42.656144 122.534224 
L 42.721114 128.032472 
L 42.819183 124.905253 
L 42.852038 127.922992 
L 42.884976 126.479599 
L 42.917997 121.2271 
L 42.951102 131.044619 
L 43.017564 131.361508 
L 43.117892 125.228701 
L 43.151505 125.437376 
L 43.286822 132.087117 
L 43.320868 121.861139 
L 43.389224 127.947623 
L 43.423534 126.586075 
L 43.49242 131.44467 
L 43.526997 126.038358 
L 43.561663 129.857286 
L 43.59642 132.229792 
L 43.666204 123.3041 
L 43.701232 123.934984 
L 43.842263 130.07934 
L 43.913334 128.469837 
L 43.949009 131.316692 
L 43.984779 129.835624 
L 44.092654 123.785402 
L 44.128802 130.970608 
L 44.201387 127.761723 
L 44.237824 128.0749 
L 44.274358 127.4066 
L 44.347719 128.060491 
L 44.421471 121.620778 
L 44.570165 128.691459 
L 44.607589 129.930469 
L 44.682739 130.850677 
L 44.720466 124.382135 
L 44.758296 133.786701 
L 44.834262 127.944224 
L 44.987439 123.182086 
L 45.025995 123.466366 
L 45.181275 125.975938 
L 45.220362 123.938917 
L 45.259557 126.92045 
L 45.338271 129.192885 
L 45.41742 122.655845 
L 45.457159 123.949862 
L 45.497009 123.762506 
L 45.577041 129.347653 
L 45.657519 127.513213 
L 45.697927 127.865172 
L 45.738448 127.527718 
L 45.779083 130.7315 
L 45.819831 130.630872 
L 45.942766 121.715681 
L 45.983975 131.628831 
L 46.066744 129.231473 
L 46.149982 123.591392 
L 46.191778 126.304953 
L 46.233693 128.663808 
L 46.275728 121.829592 
L 46.317883 128.097272 
L 46.360158 131.223689 
L 46.402554 127.437725 
L 46.445072 127.539385 
L 46.487711 121.227669 
L 46.530473 129.248949 
L 46.573358 128.550328 
L 46.616367 124.724936 
L 46.659499 131.274555 
L 46.702757 130.894343 
L 46.746139 121.427404 
L 46.833281 125.640331 
L 46.920931 129.00337 
L 47.009092 128.544921 
L 47.097769 129.029164 
L 47.142303 124.52471 
L 47.231763 135.220881 
L 47.27669 123.163337 
L 47.366942 124.630887 
L 47.457729 126.850222 
L 47.503324 125.336522 
L 47.594922 129.829904 
L 47.640925 128.416759 
L 47.687065 123.472986 
L 47.733343 128.939571 
L 47.826316 122.207565 
L 47.966823 130.395672 
L 48.108603 124.56217 
L 48.20384 128.446127 
L 48.299655 118.838973 
L 48.347782 125.378248 
L 48.396055 125.433328 
L 48.541762 131.497776 
L 48.590628 130.814468 
L 48.688813 131.367715 
L 48.738132 121.551387 
L 48.787603 122.153228 
L 48.936937 130.179742 
L 48.987024 123.648786 
L 49.037267 125.916522 
L 49.087666 126.47489 
L 49.138222 129.008178 
L 49.188936 123.350429 
L 49.239808 129.314511 
L 49.4449 123.483833 
L 49.496577 129.561714 
L 49.548417 123.527114 
L 49.600421 124.0264 
L 49.757423 132.381638 
L 49.810091 123.765776 
L 49.862925 128.283405 
L 50.022445 122.201416 
L 50.183503 128.729089 
L 50.400681 121.922341 
L 50.455415 129.660098 
L 50.510327 129.161402 
L 50.565417 121.290439 
L 50.620687 128.381547 
L 50.676137 126.129041 
L 50.731768 126.330187 
L 50.787581 126.266533 
L 50.843578 129.986921 
L 50.956122 121.737217 
L 51.126334 131.244774 
L 51.240748 122.920645 
L 51.29824 126.58738 
L 51.355923 126.313426 
L 51.530129 120.555026 
L 51.64724 128.810953 
L 51.70609 125.975162 
L 51.765138 129.08369 
L 51.824385 126.328537 
L 51.883832 129.53365 
L 51.94348 123.623916 
L 52.003329 129.611687 
L 52.063382 129.420603 
L 52.123638 124.967472 
L 52.1841 125.671315 
L 52.244767 126.528745 
L 52.305642 125.693727 
L 52.366725 127.281454 
L 52.428016 123.935979 
L 52.489518 135.27931 
L 52.675297 123.360648 
L 52.73765 127.30606 
L 52.80022 123.758843 
L 52.863006 130.085061 
L 52.92601 126.020703 
L 53.052676 120.801712 
L 53.244338 127.579679 
L 53.308674 128.933563 
L 53.373235 127.597333 
L 53.438023 129.196907 
L 53.50304 123.954832 
L 53.568286 126.120184 
L 53.633762 124.971791 
L 53.699471 127.268987 
L 53.898001 122.369096 
L 54.098662 131.771699 
L 54.233637 124.164897 
L 54.301488 131.279882 
L 54.369584 126.0167 
L 54.437926 129.574165 
L 54.506515 124.025054 
L 54.575353 125.448273 
L 54.64444 127.875461 
L 54.783369 122.368094 
L 54.853214 124.607169 
L 54.923314 130.402824 
L 55.064285 121.900307 
L 55.206294 126.70011 
L 55.277691 123.600973 
L 55.349352 129.494058 
L 55.421278 127.088698 
L 55.49347 121.536806 
L 55.711662 132.323561 
L 55.784935 121.137362 
L 55.858483 127.39882 
L 55.932306 125.107994 
L 56.006406 124.341558 
L 56.080785 127.066018 
L 56.155444 119.565887 
L 56.230385 126.931801 
L 56.381118 121.577033 
L 56.456913 126.651435 
L 56.532997 122.363921 
L 56.686035 127.176885 
L 56.762993 127.06967 
L 56.840245 129.786194 
L 56.917794 121.145436 
L 56.995641 126.796503 
L 57.073788 123.44549 
L 57.230987 127.932551 
L 57.310043 131.665025 
L 57.469078 120.265672 
L 57.549059 131.225415 
L 57.629353 127.677757 
L 57.872124 123.347805 
L 57.953683 127.623646 
L 58.117768 122.15881 
L 58.366337 126.383367 
L 58.449852 119.591278 
L 58.5337 127.489172 
L 58.617883 125.761149 
L 58.702402 122.596231 
L 58.787259 125.887902 
L 59.043883 121.711276 
L 59.130115 123.102432 
L 59.216696 128.003548 
L 59.303627 126.692969 
L 59.390912 123.943902 
L 59.478552 127.086926 
L 59.566549 126.164783 
L 59.654905 127.332335 
L 59.832704 123.076351 
L 59.922152 124.857263 
L 60.102153 121.421068 
L 60.283646 122.531791 
L 60.374956 121.079801 
L 60.466647 126.703235 
L 60.558719 126.639957 
L 60.930875 119.28066 
L 61.024892 125.142727 
L 61.119306 123.443314 
L 61.214119 125.465407 
L 61.309332 122.575151 
L 61.40495 126.07939 
L 61.500974 125.284738 
L 61.597407 121.783471 
L 61.694251 123.027889 
L 61.889184 119.972487 
L 62.085794 124.43083 
L 62.284102 127.512295 
L 62.484131 122.96475 
L 62.584797 119.103884 
L 62.889438 121.652002 
L 62.991874 123.574016 
L 63.094761 121.157365 
L 63.1981 125.563965 
L 63.301895 125.052701 
L 63.510863 122.492357 
L 63.616043 125.240353 
L 63.72169 120.025675 
L 63.9344 124.053875 
L 64.041469 118.741309 
L 64.149017 125.781226 
L 64.365568 118.874524 
L 64.474576 126.82146 
L 64.584077 125.105023 
L 64.694074 119.363243 
L 64.804571 119.613235 
L 64.915571 125.764041 
L 65.027077 123.290677 
L 65.139093 123.702572 
L 65.251621 123.313167 
L 65.364667 120.591842 
L 65.478232 125.173956 
L 65.937765 120.215511 
L 66.053984 126.45617 
L 66.170745 122.772239 
L 66.288051 126.84371 
L 66.405906 121.263737 
L 66.524314 122.901072 
L 66.643279 126.850857 
L 66.882895 118.64263 
L 67.003553 122.814258 
L 67.124784 119.309746 
L 67.491951 124.696585 
L 67.615511 126.475164 
L 67.739664 119.850856 
L 67.864414 119.435931 
L 68.115722 123.653727 
L 68.242288 122.58715 
L 68.369468 118.343946 
L 68.625688 123.087559 
L 68.754737 120.611577 
L 68.884417 121.831574 
L 69.014733 114.556533 
L 69.145691 123.715531 
L 69.277294 118.484804 
L 69.409547 126.391117 
L 69.542455 120.279838 
L 69.676022 123.560057 
L 69.945155 121.026806 
L 70.080731 121.448972 
L 70.216985 116.898445 
L 70.353924 122.36016 
L 70.491552 122.865314 
L 70.768895 117.226153 
L 71.049056 124.286814 
L 71.190207 125.941382 
L 71.332078 123.76278 
L 71.474675 119.161132 
L 71.906875 121.542821 
L 72.05243 121.766784 
L 72.198739 118.787413 
L 72.345806 119.510829 
L 72.493639 121.213008 
L 72.642242 119.533202 
L 72.791622 120.030291 
L 72.941785 117.05461 
L 73.092736 120.011286 
L 73.244482 127.810588 
L 73.397029 119.342627 
L 73.550383 117.710127 
L 73.70455 122.633584 
L 73.859536 120.522451 
L 74.015348 122.729058 
L 74.171993 118.282518 
L 74.329476 117.429689 
L 74.487805 117.749168 
L 74.646986 123.630589 
L 74.967929 116.812996 
L 75.129706 120.43997 
L 75.292362 120.723133 
L 75.455904 120.665488 
L 75.62034 117.47873 
L 75.785675 122.667793 
L 76.119076 114.403669 
L 76.287155 119.160512 
L 76.456164 116.481204 
L 76.62611 119.881167 
L 76.968843 116.593753 
L 77.141646 120.07942 
L 77.315416 114.603678 
L 77.490161 117.569412 
L 77.66589 117.441365 
L 77.842611 121.138207 
L 78.020331 119.513726 
L 78.199059 116.479247 
L 78.378803 125.151471 
L 78.559572 117.709504 
L 78.924217 122.084836 
L 79.108111 116.991747 
L 79.293064 116.138333 
L 79.479084 121.151824 
L 79.666182 113.66895 
L 79.854366 121.284511 
L 80.043644 118.291428 
L 80.234027 117.25203 
L 80.425523 118.85408 
L 80.618143 119.141137 
L 80.811894 114.819424 
L 81.006789 121.235033 
L 81.400043 115.914834 
L 81.598422 115.31677 
L 81.797984 117.105868 
L 81.998738 121.184577 
L 82.403862 117.55026 
L 82.608254 115.797612 
L 83.02075 117.589624 
L 83.228876 114.817941 
L 83.438268 116.974299 
L 83.648938 114.487828 
L 84.074156 117.777803 
L 84.288727 116.466466 
L 84.504621 116.152692 
L 84.721851 114.49406 
L 84.940427 115.894859 
L 85.160362 114.995716 
L 85.381669 116.956028 
L 85.604359 115.305371 
L 85.828444 115.476931 
L 86.053938 117.639322 
L 86.280854 114.953561 
L 86.509203 117.654134 
L 86.739 112.544594 
L 86.970257 120.137668 
L 87.437204 114.60431 
L 87.672922 114.329974 
L 88.148914 118.457453 
L 88.389217 119.571841 
L 88.631077 111.73355 
L 88.874507 114.467623 
L 89.119524 112.76417 
L 89.36614 115.01516 
L 89.614372 118.951704 
L 89.864235 115.862838 
L 90.115743 114.725724 
L 90.368913 115.277164 
L 90.623759 118.454054 
L 90.880298 115.513439 
L 91.138546 114.712553 
L 91.398518 112.465544 
L 91.660232 114.967494 
L 91.923704 112.651542 
L 92.188951 118.259497 
L 92.455989 115.592809 
L 92.724836 116.544059 
L 92.995509 111.116512 
L 93.268026 118.473506 
L 93.542405 116.035811 
L 93.818664 117.910897 
L 94.09682 110.935566 
L 94.376893 113.167906 
L 94.658901 111.206341 
L 94.942863 111.794567 
L 95.228798 108.419809 
L 95.516725 112.445881 
L 95.806664 112.997863 
L 96.098636 116.336886 
L 96.392659 113.83816 
L 96.688754 112.527199 
L 96.986943 114.394471 
L 97.287245 113.80698 
L 97.589681 113.800263 
L 97.894274 109.763043 
L 98.201044 110.219392 
L 98.510014 111.344544 
L 98.821205 113.516978 
L 99.13464 109.301494 
L 99.450342 106.627748 
L 99.768333 111.786493 
L 100.088637 114.931855 
L 100.411277 114.071633 
L 100.736277 107.635236 
L 101.063661 114.927836 
L 101.725679 111.007767 
L 102.060363 114.557095 
L 102.39753 114.449033 
L 103.079416 110.628156 
L 103.424188 111.880824 
L 103.771547 108.944886 
L 104.121521 110.134411 
L 104.474136 114.108354 
L 104.82942 110.014898 
L 105.187402 107.962446 
L 105.548108 108.174364 
L 105.911568 103.856483 
L 106.277811 107.885443 
L 106.646866 104.758323 
L 107.018763 110.353525 
L 107.393531 107.410305 
L 108.151803 109.659707 
L 108.53537 111.048515 
L 108.921931 109.127406 
L 109.31152 109.212918 
L 109.704168 109.67555 
L 110.099908 104.638675 
L 110.498772 108.937697 
L 110.900796 109.37481 
L 111.306011 109.499985 
L 111.714453 105.878519 
L 112.126157 105.996882 
L 112.541157 108.719856 
L 112.959488 107.592468 
L 113.381188 104.319324 
L 113.806291 107.754627 
L 114.234836 109.892232 
L 115.102397 106.29343 
L 115.54149 104.095105 
L 115.984175 107.858158 
L 116.430492 108.248537 
L 116.88048 103.560761 
L 117.334179 104.536085 
L 117.79163 108.399479 
L 118.252873 101.2254 
L 118.71795 101.706132 
L 119.186902 104.335803 
L 119.659772 103.014404 
L 120.617438 104.900027 
L 121.102321 103.887224 
L 121.591296 104.055169 
L 122.084407 104.585497 
L 122.581701 102.012334 
L 123.083222 104.410689 
L 123.589016 101.445783 
L 124.099132 100.553046 
L 124.613615 102.395164 
L 125.132513 101.037725 
L 125.655875 104.057903 
L 126.183749 103.929421 
L 126.716185 104.446333 
L 127.253231 104.478541 
L 127.794939 105.286933 
L 128.341359 100.262526 
L 128.892542 103.428813 
L 129.44854 104.596952 
L 130.009404 96.982262 
L 130.575187 100.710273 
L 131.145943 102.481049 
L 131.721724 100.451473 
L 132.302586 96.91015 
L 132.888581 102.608459 
L 133.479766 99.726868 
L 134.076195 100.318118 
L 134.677924 98.98584 
L 135.28501 101.240263 
L 135.897508 98.672557 
L 136.515476 101.454867 
L 137.138971 95.515979 
L 137.768051 95.877515 
L 138.402774 96.525275 
L 139.689382 99.756644 
L 140.341385 96.799071 
L 140.999266 96.271814 
L 141.663085 96.335648 
L 142.332902 96.033396 
L 143.008776 96.77082 
L 143.690769 94.72005 
L 144.378939 94.802664 
L 145.073348 102.511184 
L 145.774055 95.084137 
L 146.481123 94.375293 
L 147.194611 95.905689 
L 147.91458 91.210054 
L 148.64109 93.851377 
L 149.374202 94.35342 
L 150.113976 91.318495 
L 150.860473 96.003206 
L 151.613751 95.380207 
L 152.373871 95.197831 
L 153.140892 93.783249 
L 153.914872 90.667885 
L 154.69587 92.979954 
L 155.483943 86.784031 
L 156.279148 89.964315 
L 157.081541 92.515203 
L 157.891179 91.331744 
L 158.708115 92.157584 
L 159.532403 91.151377 
L 160.364096 87.905014 
L 161.203245 89.719991 
L 162.0499 92.154782 
L 162.904111 90.407605 
L 163.765923 90.928918 
L 164.635384 86.174095 
L 165.512536 92.47858 
L 166.397422 89.067612 
L 167.290082 86.598382 
L 168.190554 88.582755 
L 169.098873 84.483062 
L 170.015072 86.979955 
L 170.939181 88.591573 
L 171.871229 82.214197 
L 172.81124 86.480571 
L 173.759234 86.98901 
L 174.715231 86.076712 
L 175.679245 84.234704 
L 176.651285 87.820675 
L 177.63136 86.979668 
L 178.61947 86.748347 
L 179.615614 91.619004 
L 180.619786 87.883518 
L 181.631971 78.455932 
L 182.652155 82.980193 
L 183.680313 82.555286 
L 184.716416 82.000129 
L 185.76043 80.84101 
L 186.812313 84.202004 
L 187.872018 83.25738 
L 188.939487 86.788843 
L 190.014658 85.621682 
L 191.097461 85.521089 
L 192.187816 81.455312 
L 193.285635 80.096331 
L 194.390822 83.397186 
L 195.503269 79.683046 
L 196.622862 76.483755 
L 197.749473 82.438114 
L 198.882966 80.775492 
L 200.023192 76.866698 
L 201.169992 82.989261 
L 202.323193 81.088481 
L 203.482612 75.163612 
L 204.648051 76.209317 
L 205.819299 76.962204 
L 206.996131 76.325174 
L 208.178309 74.514312 
L 209.365578 74.493968 
L 210.557669 75.804002 
L 211.754297 80.223885 
L 212.955159 71.501376 
L 214.159937 70.55544 
L 215.368295 76.536063 
L 216.57988 77.598987 
L 217.794319 74.881627 
L 219.011223 76.022888 
L 220.23018 74.454753 
L 221.450762 68.059531 
L 222.672519 75.046966 
L 223.894983 74.713952 
L 225.117663 70.25773 
L 226.340048 66.355063 
L 227.561606 74.039831 
L 228.781784 70.929458 
L 230.000007 70.404399 
L 231.215677 69.644751 
L 232.428177 69.336046 
L 233.636866 71.772689 
L 234.841082 68.171686 
L 236.040142 67.371758 
L 236.040142 67.371758 
" clip-path="url(#pc1d9a1c819)" style="fill: none; stroke: #c35a1e; stroke-width: 1.8; stroke-linecap: round"/>
   </g>
   <g id="line2d_49">
    <path d="M 42.210313 124.57539 
L 42.304549 134.418066 
L 42.367763 125.076409 
L 42.399487 129.249652 
L 42.463172 131.137963 
L 42.495134 129.537324 
L 42.527175 122.173963 
L 42.559297 131.008016 
L 42.623781 122.65009 
L 42.688588 121.791081 
L 42.721114 126.186216 
L 42.753721 123.467858 
L 42.786411 131.859913 
L 42.852038 121.68837 
L 42.984291 132.336038 
L 43.017564 124.05198 
L 43.084364 128.912782 
L 43.252863 124.045248 
L 43.320868 130.256804 
L 43.423534 129.114692 
L 43.457933 128.046071 
L 43.526997 128.864848 
L 43.59642 129.849781 
L 43.666204 124.462281 
L 43.736352 126.82298 
L 43.806867 133.670731 
L 43.842263 126.208393 
L 43.949009 126.791153 
L 43.984779 133.06596 
L 44.092654 132.558996 
L 44.201387 120.963229 
L 44.237824 123.63541 
L 44.31099 121.522284 
L 44.347719 134.370274 
L 44.495619 124.318023 
L 44.607589 133.348055 
L 44.720466 124.079985 
L 44.796228 131.998624 
L 44.834262 128.614847 
L 44.872401 124.541433 
L 44.910642 128.414987 
L 44.948988 132.236068 
L 45.025995 129.735638 
L 45.064655 131.088506 
L 45.103422 137.118471 
L 45.142295 127.330659 
L 45.181275 130.630536 
L 45.220362 122.889276 
L 45.259557 130.727526 
L 45.29886 132.415471 
L 45.377791 122.608283 
L 45.41742 129.086786 
L 45.457159 124.381148 
L 45.497009 126.623194 
L 45.536969 131.739555 
L 45.577041 122.17513 
L 45.657519 123.869029 
L 45.738448 126.771304 
L 45.819831 131.298275 
L 45.860694 127.048992 
L 45.901672 130.882842 
L 45.942766 130.475552 
L 46.066744 126.353342 
L 46.191778 128.810248 
L 46.233693 122.619939 
L 46.317883 125.027856 
L 46.360158 126.43703 
L 46.402554 120.552066 
L 46.445072 127.124092 
L 46.487711 125.361868 
L 46.530473 129.097179 
L 46.573358 122.15288 
L 46.616367 130.963715 
L 46.702757 122.467653 
L 46.746139 132.423793 
L 46.789647 126.49443 
L 46.833281 126.794354 
L 46.877043 125.000528 
L 46.964947 136.524154 
L 47.009092 130.490236 
L 47.053366 128.387578 
L 47.097769 133.023134 
L 47.142303 129.461677 
L 47.186967 122.500379 
L 47.231763 127.407649 
L 47.27669 129.220162 
L 47.32175 127.66956 
L 47.366942 123.797921 
L 47.412269 124.097462 
L 47.457729 132.751132 
L 47.503324 120.868109 
L 47.594922 127.9273 
L 47.640925 122.897175 
L 47.733343 128.517023 
L 47.77976 125.144162 
L 47.826316 136.851415 
L 47.873011 131.347712 
L 47.919846 124.584197 
L 47.966823 129.974765 
L 48.01394 133.401492 
L 48.108603 126.105706 
L 48.156149 131.126995 
L 48.20384 128.321546 
L 48.251675 129.110129 
L 48.396055 120.591458 
L 48.444476 127.286731 
L 48.541762 126.908412 
L 48.590628 127.006689 
L 48.639645 127.360251 
L 48.688813 127.016881 
L 48.738132 130.812068 
L 48.787603 126.029358 
L 48.837227 128.23886 
L 48.887005 132.004572 
L 48.936937 131.932143 
L 49.087666 125.400545 
L 49.138222 127.888665 
L 49.290841 121.717673 
L 49.496577 128.178409 
L 49.548417 125.64248 
L 49.600421 131.706567 
L 49.652589 127.388074 
L 49.704923 125.261705 
L 49.757423 126.536226 
L 49.810091 132.768909 
L 49.862925 129.518826 
L 49.915929 121.018541 
L 49.969102 126.007695 
L 50.022445 124.626076 
L 50.183503 129.637008 
L 50.237535 128.526264 
L 50.291742 130.086301 
L 50.400681 122.350407 
L 50.510327 130.76472 
L 50.565417 121.098832 
L 50.620687 128.165364 
L 50.843578 121.83452 
L 50.899758 131.169481 
L 50.956122 125.080617 
L 51.012673 122.79587 
L 51.069409 130.90984 
L 51.126334 126.070328 
L 51.183446 126.063165 
L 51.240748 127.451766 
L 51.355923 122.854763 
L 51.471867 129.488361 
L 51.530129 125.615142 
L 51.588586 129.635807 
L 51.64724 125.229646 
L 51.70609 129.929702 
L 51.883832 120.597096 
L 52.063382 130.248779 
L 52.305642 123.680468 
L 52.366725 119.101494 
L 52.489518 128.996771 
L 52.551232 124.740533 
L 52.613158 126.146815 
L 52.675297 124.939652 
L 52.73765 121.511809 
L 52.80022 127.198117 
L 52.863006 122.730564 
L 52.92601 124.271348 
L 52.989233 131.006395 
L 53.052676 123.467815 
L 53.180228 131.233376 
L 53.308674 124.127746 
L 53.50304 127.500325 
L 53.568286 125.361832 
L 53.633762 129.247764 
L 53.765413 122.725444 
L 54.031536 126.334918 
L 54.098662 119.468674 
L 54.233637 131.4811 
L 54.301488 122.67781 
L 54.369584 126.343068 
L 54.437926 124.474513 
L 54.506515 134.248468 
L 54.575353 124.657531 
L 54.64444 124.739243 
L 54.853214 128.637012 
L 54.993671 122.610463 
L 55.064285 125.629878 
L 55.135159 125.547441 
L 55.206294 126.385265 
L 55.421278 124.873022 
L 55.638661 130.771964 
L 55.711662 124.074464 
L 55.784935 124.427992 
L 55.858483 124.839517 
L 55.932306 122.536841 
L 56.155444 131.292972 
L 56.305609 120.489882 
L 56.381118 128.075275 
L 56.456913 125.0167 
L 56.532997 130.050266 
L 56.60937 127.298528 
L 56.686035 129.905183 
L 56.840245 124.191682 
L 56.917794 130.423265 
L 57.073788 120.948455 
L 57.152236 132.308751 
L 57.230987 125.4905 
L 57.310043 125.509914 
L 57.389406 127.400471 
L 57.469078 118.449586 
L 57.549059 120.043261 
L 57.629353 127.42694 
L 57.70996 121.672056 
L 57.872124 130.065674 
L 57.953683 122.671986 
L 58.035564 124.881887 
L 58.117768 125.764689 
L 58.283153 124.660589 
L 58.366337 124.939439 
L 58.449852 130.601585 
L 58.5337 121.81111 
L 58.617883 122.366108 
L 58.702402 128.141396 
L 58.787259 125.382263 
L 58.872457 126.796201 
L 58.957998 122.296064 
L 59.043883 132.0709 
L 59.130115 123.966564 
L 59.216696 124.378434 
L 59.303627 125.305911 
L 59.390912 122.931905 
L 59.566549 132.023526 
L 59.654905 122.193049 
L 59.743623 126.332321 
L 59.832704 121.254674 
L 60.011967 125.03501 
L 60.102153 124.906935 
L 60.192712 125.249192 
L 60.283646 126.439063 
L 60.374956 129.279655 
L 60.466647 123.398608 
L 60.651176 127.481605 
L 60.744019 125.355084 
L 60.837251 125.466454 
L 60.930875 118.054371 
L 61.024892 125.164392 
L 61.214119 119.785839 
L 61.40495 131.004014 
L 61.597407 121.532405 
L 61.889184 127.173682 
L 62.085794 123.448385 
L 62.284102 124.897023 
L 62.3839 124.185938 
L 62.484131 119.100563 
L 62.584797 125.44779 
L 62.685902 120.583464 
L 62.787448 128.996857 
L 62.991874 121.845029 
L 63.094761 121.586984 
L 63.1981 126.870558 
L 63.301895 123.917372 
L 63.406148 126.09391 
L 63.616043 121.681668 
L 63.72169 121.280529 
L 63.9344 127.599137 
L 64.041469 121.691544 
L 64.149017 126.012814 
L 64.257049 125.374545 
L 64.365568 122.833248 
L 64.474576 126.161311 
L 64.584077 125.171872 
L 64.694074 129.66517 
L 64.804571 125.754172 
L 64.915571 132.657453 
L 65.139093 123.888699 
L 65.251621 126.177449 
L 65.364667 121.756428 
L 65.478232 126.169199 
L 65.592321 121.13505 
L 65.706937 124.809198 
L 65.822084 118.879562 
L 65.937765 124.974515 
L 66.053984 119.05782 
L 66.288051 123.250899 
L 66.405906 122.877738 
L 66.524314 117.087203 
L 66.762805 124.777388 
L 66.882895 123.284512 
L 67.003553 116.150956 
L 67.246591 126.645953 
L 67.368979 121.405417 
L 67.491951 123.3596 
L 67.739664 120.036362 
L 67.864414 121.442685 
L 68.115722 124.869085 
L 68.242288 121.833282 
L 68.369468 125.565765 
L 68.497267 124.988344 
L 68.625688 120.313897 
L 68.884417 123.748195 
L 69.014733 122.49495 
L 69.145691 124.218929 
L 69.277294 119.487875 
L 69.409547 120.466125 
L 69.542455 122.377729 
L 69.676022 120.441789 
L 70.080731 125.15545 
L 70.216985 123.938742 
L 70.353924 124.702208 
L 70.491552 119.783709 
L 70.908621 124.789984 
L 71.049056 124.786332 
L 71.190207 126.267712 
L 71.332078 122.023192 
L 71.474675 123.12114 
L 71.618003 119.989566 
L 71.762068 124.045118 
L 71.906875 123.652976 
L 72.345806 121.209819 
L 72.493639 116.832781 
L 72.642242 127.485691 
L 72.791622 122.823055 
L 72.941785 124.116554 
L 73.092736 118.20565 
L 73.244482 125.067269 
L 73.550383 119.016428 
L 73.70455 124.134516 
L 74.015348 118.096788 
L 74.329476 126.666112 
L 74.487805 124.149881 
L 74.646986 118.674314 
L 74.807025 117.90432 
L 74.967929 118.401732 
L 75.129706 123.44962 
L 75.292362 118.14292 
L 75.455904 124.473944 
L 75.62034 118.609027 
L 75.785675 122.89556 
L 75.951918 122.231886 
L 76.119076 117.658352 
L 76.456164 123.061835 
L 76.62611 115.496748 
L 76.968843 119.770969 
L 77.141646 120.611153 
L 77.315416 115.204158 
L 77.490161 117.496997 
L 77.66589 118.027439 
L 78.020331 124.777178 
L 78.199059 116.581413 
L 78.559572 121.328938 
L 78.741374 120.397542 
L 78.924217 117.79542 
L 79.108111 123.91904 
L 79.293064 122.468923 
L 79.479084 122.952813 
L 79.666182 121.093009 
L 79.854366 117.233602 
L 80.043644 120.959659 
L 80.234027 117.526324 
L 80.425523 119.558184 
L 80.618143 115.818721 
L 80.811894 119.512873 
L 81.006789 114.837111 
L 81.202835 120.383081 
L 81.400043 119.678495 
L 81.598422 127.391241 
L 81.797984 118.452367 
L 81.998738 123.011623 
L 82.200693 118.185006 
L 82.403862 123.27422 
L 82.608254 119.853767 
L 82.81388 119.382759 
L 83.02075 117.958673 
L 83.228876 119.011066 
L 83.438268 116.045423 
L 83.648938 116.870076 
L 83.860897 115.191861 
L 84.074156 121.742393 
L 84.288727 117.716978 
L 84.504621 118.538288 
L 84.721851 115.518502 
L 84.940427 115.169176 
L 85.160362 119.671237 
L 85.381669 121.876743 
L 85.604359 115.075706 
L 85.828444 120.65115 
L 86.053938 114.938045 
L 86.280854 116.108547 
L 86.509203 119.690687 
L 86.739 116.251175 
L 86.970257 119.394788 
L 87.202987 115.471686 
L 87.437204 120.882333 
L 87.672922 121.640702 
L 87.910154 119.412153 
L 88.148914 118.336175 
L 88.389217 118.413339 
L 88.631077 120.324182 
L 88.874507 115.356139 
L 89.36614 120.350713 
L 89.614372 119.584746 
L 89.864235 114.82714 
L 90.115743 119.156957 
L 90.623759 111.280267 
L 90.880298 115.388865 
L 91.138546 107.922864 
L 91.398518 114.727855 
L 91.660232 118.102295 
L 91.923704 114.608625 
L 92.188951 115.059296 
L 92.455989 117.649585 
L 92.995509 113.103672 
L 93.268026 115.1747 
L 93.542405 115.058996 
L 93.818664 113.62174 
L 94.09682 118.025361 
L 94.376893 116.205086 
L 94.658901 110.289841 
L 94.942863 116.316852 
L 95.228798 111.487282 
L 95.806664 113.631586 
L 96.098636 112.815892 
L 96.392659 118.147497 
L 96.688754 118.726204 
L 96.986943 115.971495 
L 97.287245 115.720496 
L 97.589681 116.355974 
L 97.894274 115.64268 
L 98.201044 118.272479 
L 98.510014 111.714884 
L 99.13464 115.719154 
L 99.450342 115.071475 
L 99.768333 109.652276 
L 100.088637 115.246369 
L 100.411277 114.359859 
L 100.736277 111.727025 
L 101.063661 113.549612 
L 101.393454 111.468634 
L 101.725679 115.031354 
L 102.060363 113.685499 
L 102.39753 113.523042 
L 102.737206 116.262131 
L 103.079416 115.150835 
L 103.771547 109.400674 
L 104.121521 111.071483 
L 104.474136 110.728818 
L 104.82942 110.132784 
L 105.187402 112.57486 
L 105.548108 113.902633 
L 105.911568 112.72633 
L 106.277811 117.564226 
L 106.646866 108.547979 
L 107.018763 112.389143 
L 107.393531 113.29377 
L 107.771201 113.137368 
L 108.151803 114.142996 
L 108.53537 116.85017 
L 109.31152 105.819196 
L 109.704168 110.292702 
L 110.099908 109.357806 
L 110.498772 108.984915 
L 110.900796 107.983381 
L 111.306011 110.243609 
L 111.714453 111.012349 
L 112.126157 104.901643 
L 112.541157 110.825465 
L 112.959488 108.696513 
L 113.381188 112.907715 
L 113.806291 109.583396 
L 114.234836 118.495352 
L 114.666858 109.69007 
L 115.102397 111.520026 
L 115.54149 109.529614 
L 115.984175 108.470078 
L 116.430492 108.804889 
L 116.88048 103.938694 
L 117.334179 108.022668 
L 117.79163 104.089308 
L 118.252873 104.66938 
L 118.71795 113.53901 
L 119.186902 104.399408 
L 119.659772 108.940369 
L 120.136603 105.356309 
L 120.617438 107.403336 
L 121.102321 104.41787 
L 121.591296 105.767628 
L 122.084407 109.410172 
L 122.581701 106.760875 
L 123.083222 108.120574 
L 123.589016 106.949154 
L 124.099132 110.557118 
L 124.613615 103.547184 
L 125.132513 102.62102 
L 126.183749 107.091882 
L 126.716185 104.115212 
L 127.253231 101.897075 
L 127.794939 103.365331 
L 128.341359 105.709476 
L 128.892542 101.543524 
L 129.44854 106.776372 
L 130.009404 104.563007 
L 130.575187 106.821841 
L 131.145943 102.398897 
L 131.721724 103.669749 
L 132.302586 102.433898 
L 132.888581 100.49797 
L 133.479766 100.31743 
L 134.076195 102.228392 
L 134.677924 102.402571 
L 135.28501 107.69142 
L 135.897508 99.473131 
L 136.515476 102.074642 
L 137.138971 96.211117 
L 137.768051 100.884364 
L 138.402774 101.676727 
L 139.043198 94.936519 
L 139.689382 90.951077 
L 140.341385 101.06098 
L 140.999266 97.433176 
L 141.663085 99.009037 
L 142.332902 101.559697 
L 143.008776 98.555608 
L 143.690769 99.981919 
L 145.073348 95.109815 
L 145.774055 99.740141 
L 146.481123 93.591944 
L 147.194611 99.162212 
L 147.91458 95.40298 
L 148.64109 97.534275 
L 149.374202 98.897221 
L 150.113976 97.312011 
L 150.860473 103.040521 
L 151.613751 93.527476 
L 152.373871 94.969656 
L 153.140892 94.522931 
L 153.914872 93.362993 
L 154.69587 92.844976 
L 155.483943 94.227162 
L 156.279148 97.39265 
L 157.081541 93.31346 
L 157.891179 88.259582 
L 158.708115 97.026034 
L 159.532403 96.005744 
L 160.364096 97.376207 
L 161.203245 93.645766 
L 162.0499 87.790759 
L 162.904111 89.874274 
L 163.765923 92.483693 
L 164.635384 88.141608 
L 165.512536 91.24926 
L 166.397422 86.231507 
L 167.290082 93.332768 
L 168.190554 94.814646 
L 169.098873 90.27374 
L 170.015072 86.573047 
L 170.939181 88.386254 
L 171.871229 86.947495 
L 172.81124 86.950704 
L 173.759234 91.505418 
L 174.715231 85.845566 
L 175.679245 87.587127 
L 176.651285 90.131863 
L 177.63136 88.115961 
L 178.61947 83.82649 
L 179.615614 86.599722 
L 180.619786 88.275326 
L 181.631971 84.525741 
L 182.652155 87.225143 
L 183.680313 89.512486 
L 184.716416 82.549685 
L 185.76043 85.244273 
L 186.812313 86.426709 
L 187.872018 84.048127 
L 188.939487 84.053107 
L 190.014658 84.501666 
L 191.097461 80.155833 
L 192.187816 83.150593 
L 193.285635 79.717936 
L 194.390822 78.631475 
L 195.503269 84.552565 
L 196.622862 78.737946 
L 197.749473 76.030702 
L 198.882966 78.366327 
L 200.023192 79.496722 
L 201.169992 83.147056 
L 202.323193 75.180226 
L 203.482612 79.655917 
L 204.648051 76.093215 
L 205.819299 81.361154 
L 206.996131 76.321003 
L 208.178309 74.323085 
L 209.365578 77.489082 
L 210.557669 80.109233 
L 211.754297 81.848408 
L 212.955159 78.505415 
L 214.159937 76.960234 
L 215.368295 74.166979 
L 216.57988 72.543125 
L 217.794319 76.256894 
L 219.011223 78.017283 
L 220.23018 69.607122 
L 221.450762 78.256902 
L 222.672519 74.382364 
L 223.894983 71.22182 
L 225.117663 73.488328 
L 226.340048 67.696991 
L 227.561606 69.412496 
L 228.781784 72.144064 
L 230.000007 70.729408 
L 231.215677 73.62204 
L 232.428177 70.159078 
L 233.636866 76.247481 
L 234.841082 67.661568 
L 236.040142 70.973961 
L 236.040142 70.973961 
" clip-path="url(#pc1d9a1c819)" style="fill: none; stroke: #5b8f29; stroke-width: 1.8; stroke-linecap: round"/>
   </g>
   <g id="patch_3">
    <path d="M 42.210313 168.918359 
L 42.210313 10.273359 
" style="fill: none; stroke: #000000; stroke-width: 0.8; stroke-linejoin: miter; stroke-linecap: square"/>
   </g>
   <g id="patch_4">
    <path d="M 236.040142 168.918359 
L 236.040142 10.273359 
" style="fill: none; stroke: #000000; stroke-width: 0.8; stroke-linejoin: miter; stroke-linecap: square"/>
   </g>
   <g id="patch_5">
    <path d="M 42.210313 168.918359 
L 236.040142 168.918359 
" style="fill: none; stroke: #000000; stroke-width: 0.8; stroke-linejoin: miter; stroke-linecap: square"/>
   </g>
   <g id="patch_6">
    <path d="M 42.210313 10.273359 
L 236.040142 10.273359 
" style="fill: none; stroke: #000000; stroke-width: 0.8; stroke-linejoin: miter; stroke-linecap: square"/>
   </g>
   <g id="text_10">
    <!-- $ZZ^\prime$ gate -->
    <g transform="translate(88.729472 40.783659) scale(0.1 -0.1)">
     <defs>
      <path id="STIXGeneral-Italic-5a" d="M 3878 4090 
L 787 230 
L 1818 230 
Q 2272 230 2512 268 
Q 2752 307 2925 435 
Q 3187 627 3418 1101 
L 3539 1082 
L 3194 0 
L -38 0 
L -38 90 
L 3027 3949 
L 1933 3949 
Q 1280 3949 1024 3776 
Q 883 3680 816 3581 
Q 749 3482 602 3206 
L 480 3238 
L 768 4179 
L 3878 4179 
L 3878 4090 
z
" transform="scale(0.015625)"/>
      <path id="STIXGeneral-Regular-2032" d="M 480 2630 
L 909 4045 
Q 934 4141 960 4195 
Q 986 4250 1043 4294 
Q 1101 4339 1190 4339 
Q 1274 4339 1322 4278 
Q 1370 4218 1370 4128 
Q 1370 4058 1280 3878 
L 602 2573 
L 480 2630 
z
" transform="scale(0.015625)"/>
      <path id="STIXGeneral-Regular-67" d="M 3008 2483 
L 2477 2483 
Q 2598 2208 2598 1946 
Q 2598 1453 2265 1203 
Q 1933 954 1600 954 
Q 1530 954 1357 973 
L 1235 986 
Q 1107 947 979 812 
Q 851 678 851 582 
Q 851 435 1350 410 
L 2176 371 
Q 2528 358 2739 172 
Q 2950 -13 2950 -314 
Q 2950 -685 2566 -986 
Q 2035 -1395 1286 -1395 
Q 826 -1395 502 -1212 
Q 179 -1030 179 -774 
Q 179 -595 320 -419 
Q 461 -243 806 6 
Q 602 102 534 172 
Q 467 243 467 346 
Q 467 531 762 787 
Q 909 915 1037 1043 
Q 717 1203 579 1401 
Q 442 1600 442 1901 
Q 442 2336 752 2640 
Q 1062 2944 1510 2944 
Q 1766 2944 2022 2848 
L 2163 2797 
Q 2349 2733 2515 2733 
L 3008 2733 
L 3008 2483 
z
M 973 2163 
L 973 2144 
Q 973 1683 1155 1398 
Q 1338 1114 1632 1114 
Q 1850 1114 1978 1270 
Q 2106 1427 2106 1690 
Q 2106 2112 1914 2464 
Q 1754 2765 1446 2765 
Q 1222 2765 1097 2605 
Q 973 2445 973 2163 
z
M 2771 -410 
Q 2771 -230 2595 -163 
Q 2419 -96 1978 -96 
Q 1344 -96 941 -13 
Q 749 -243 688 -348 
Q 627 -454 627 -563 
Q 627 -774 880 -902 
Q 1133 -1030 1555 -1030 
Q 2099 -1030 2435 -860 
Q 2771 -691 2771 -410 
z
" transform="scale(0.015625)"/>
     </defs>
     <use xlink:href="#STIXGeneral-Italic-5a" transform="translate(0 0.267188)"/>
     <use xlink:href="#STIXGeneral-Italic-5a" transform="translate(55.599991 0.267188)"/>
     <use xlink:href="#STIXGeneral-Regular-2032" transform="translate(121.825763 35.542188) scale(0.7)"/>
     <use xlink:href="#STIXGeneral-Regular-20" transform="translate(146.465134 0.267188)"/>
     <use xlink:href="#STIXGeneral-Regular-67" transform="translate(171.465118 0.267188)"/>
     <use xlink:href="#STIXGeneral-Regular-61" transform="translate(221.465103 0.267188)"/>
     <use xlink:href="#STIXGeneral-Regular-74" transform="translate(265.865097 0.267188)"/>
     <use xlink:href="#STIXGeneral-Regular-65" transform="translate(293.665085 0.267188)"/>
    </g>
   </g>
   <g id="patch_7">
    <path d="M 50.294413 85.710192 
Q 46.813868 90.829318 43.333324 95.948444 
" style="fill: none; stroke: #000000; stroke-width: 0.7; stroke-linecap: round"/>
   </g>
   <g id="text_11">
    <g id="patch_8">
     <path d="M 45.25992 84.051365 
L 64.01792 84.051365 
Q 65.01392 84.051365 65.01392 83.055365 
L 65.01392 75.585365 
Q 65.01392 74.589365 64.01792 74.589365 
L 45.25992 74.589365 
Q 44.26392 74.589365 44.26392 75.585365 
L 44.26392 83.055365 
Q 44.26392 84.051365 45.25992 84.051365 
z
" style="fill: #ffffff; opacity: 0.92"/>
    </g>
    <!-- $0.01\pi$ -->
    <g transform="translate(45.25992 81.254006) scale(0.083 -0.083)">
     <defs>
      <path id="STIXGeneral-Regular-2e" d="M 1158 275 
Q 1158 134 1052 32 
Q 947 -70 800 -70 
Q 653 -70 550 32 
Q 448 134 448 281 
Q 448 429 553 534 
Q 659 640 806 640 
Q 947 640 1052 531 
Q 1158 422 1158 275 
z
" transform="scale(0.015625)"/>
      <path id="STIXGeneral-Italic-3c0" d="M 3430 2739 
L 3296 2266 
L 2643 2266 
Q 2624 2195 2502 1782 
Q 2381 1370 2297 1072 
Q 2214 774 2214 717 
Q 2214 448 2413 448 
Q 2694 448 2867 838 
L 2970 838 
Q 2886 486 2652 208 
Q 2419 -70 2093 -70 
Q 1901 -70 1808 67 
Q 1715 205 1715 410 
Q 1715 627 1824 922 
L 2310 2266 
L 1645 2266 
Q 1568 2061 1401 1469 
Q 1235 877 1068 512 
Q 902 147 672 -38 
Q 563 -115 442 -115 
Q 314 -115 218 -32 
Q 122 51 122 166 
Q 122 429 314 480 
Q 634 563 774 928 
L 1299 2266 
L 1261 2266 
Q 973 2266 819 2208 
Q 666 2150 474 1914 
L 371 1914 
Q 640 2362 931 2550 
Q 1222 2739 1696 2739 
L 3430 2739 
z
" transform="scale(0.015625)"/>
     </defs>
     <use xlink:href="#STIXGeneral-Regular-30" transform="translate(0 0.40625)"/>
     <use xlink:href="#STIXGeneral-Regular-2e" transform="translate(49.999985 0.40625)"/>
     <use xlink:href="#STIXGeneral-Regular-30" transform="translate(74.999969 0.40625)"/>
     <use xlink:href="#STIXGeneral-Regular-31" transform="translate(124.999954 0.40625)"/>
     <use xlink:href="#STIXGeneral-Italic-3c0" transform="translate(174.999939 0.40625)"/>
    </g>
   </g>
   <g id="patch_9">
    <path d="M 227.956042 23.078093 
Q 231.436587 28.197219 234.917131 33.316345 
" style="fill: none; stroke: #000000; stroke-width: 0.7; stroke-linecap: round"/>
   </g>
   <g id="text_12">
    <g id="patch_10">
     <path d="M 214.232535 21.419266 
L 232.990535 21.419266 
Q 233.986535 21.419266 233.986535 20.423266 
L 233.986535 12.953266 
Q 233.986535 11.957266 232.990535 11.957266 
L 214.232535 11.957266 
Q 213.236535 11.957266 213.236535 12.953266 
L 213.236535 20.423266 
Q 213.236535 21.419266 214.232535 21.419266 
z
" style="fill: #ffffff; opacity: 0.92"/>
    </g>
    <!-- $0.99\pi$ -->
    <g transform="translate(214.232535 18.621907) scale(0.083 -0.083)">
     <defs>
      <path id="STIXGeneral-Regular-39" d="M 378 -141 
L 358 -13 
Q 1094 115 1603 608 
Q 2112 1101 2304 1882 
Q 1933 1517 1344 1517 
Q 826 1517 509 1875 
Q 192 2234 192 2816 
Q 192 3462 573 3894 
Q 954 4326 1523 4326 
Q 2131 4326 2528 3840 
Q 2938 3328 2938 2522 
Q 2938 1958 2742 1462 
Q 2547 966 2170 621 
Q 1773 262 1395 105 
Q 1018 -51 378 -141 
z
M 2317 2272 
L 2317 2522 
Q 2317 4147 1472 4147 
Q 1171 4147 1005 3930 
Q 909 3802 845 3546 
Q 781 3290 781 3034 
Q 781 2464 995 2128 
Q 1210 1792 1568 1792 
Q 1824 1792 2070 1917 
Q 2317 2042 2317 2272 
z
" transform="scale(0.015625)"/>
     </defs>
     <use xlink:href="#STIXGeneral-Regular-30" transform="translate(0 0.40625)"/>
     <use xlink:href="#STIXGeneral-Regular-2e" transform="translate(49.999985 0.40625)"/>
     <use xlink:href="#STIXGeneral-Regular-39" transform="translate(74.999969 0.40625)"/>
     <use xlink:href="#STIXGeneral-Regular-39" transform="translate(124.999954 0.40625)"/>
     <use xlink:href="#STIXGeneral-Italic-3c0" transform="translate(174.999939 0.40625)"/>
    </g>
   </g>
   <g id="line2d_50">
    <path d="M 42.210313 97.60015 
" clip-path="url(#pc1d9a1c819)" style="fill: none; stroke: #000000; stroke-width: 1.5; stroke-linecap: square"/>
    <defs>
     <path id="m5cb1ea5f06" d="M 0 1.9 
C 0.503886 1.9 0.987202 1.699804 1.343503 1.343503 
C 1.699804 0.987202 1.9 0.503886 1.9 0 
C 1.9 -0.503886 1.699804 -0.987202 1.343503 -1.343503 
C 0.987202 -1.699804 0.503886 -1.9 0 -1.9 
C -0.503886 -1.9 -0.987202 -1.699804 -1.343503 -1.343503 
C -1.699804 -0.987202 -1.9 -0.503886 -1.9 0 
C -1.9 0.503886 -1.699804 0.987202 -1.343503 1.343503 
C -0.987202 1.699804 -0.503886 1.9 0 1.9 
z
" style="stroke: #000000"/>
    </defs>
    <g clip-path="url(#pc1d9a1c819)">
     <use xlink:href="#m5cb1ea5f06" x="42.210313" y="97.60015" style="stroke: #000000"/>
    </g>
   </g>
   <g id="line2d_51">
    <path d="M 236.040142 34.968051 
" clip-path="url(#pc1d9a1c819)" style="fill: none; stroke: #000000; stroke-width: 1.5; stroke-linecap: square"/>
    <g clip-path="url(#pc1d9a1c819)">
     <use xlink:href="#m5cb1ea5f06" x="236.040142" y="34.968051" style="stroke: #000000"/>
    </g>
   </g>
   <g id="legend_1">
    <g id="line2d_52">
     <path d="M 164.609796 131.336709 
L 173.809796 131.336709 
L 183.009796 131.336709 
" style="fill: none; stroke: #5d8fc2; stroke-width: 1.9; stroke-linecap: round"/>
    </g>
    <g id="text_13">
     <!-- Quasistatic -->
     <g transform="translate(189.409796 134.136709) scale(0.08 -0.08)">
      <defs>
       <path id="STIXGeneral-Regular-51" d="M 4486 -1133 
L 4179 -1133 
Q 2586 -1133 1958 -339 
L 1696 -6 
Q 1312 128 1097 265 
Q 883 403 704 640 
Q 218 1286 218 2125 
Q 218 3123 806 3724 
Q 1395 4326 2310 4326 
Q 3232 4326 3817 3721 
Q 4403 3117 4403 2131 
Q 4403 1568 4236 1158 
Q 4070 749 3712 410 
Q 3514 211 3293 115 
Q 3072 19 2726 -45 
Q 3066 -531 3491 -758 
Q 3917 -986 4486 -1018 
L 4486 -1133 
z
M 3674 2163 
Q 3674 2714 3520 3146 
Q 3366 3578 3091 3808 
Q 2746 4096 2291 4096 
Q 1741 4096 1370 3642 
Q 1178 3418 1062 3008 
Q 947 2598 947 2144 
Q 947 1158 1318 640 
Q 1472 416 1750 278 
Q 2029 141 2310 141 
Q 2867 141 3264 602 
Q 3456 819 3565 1248 
Q 3674 1677 3674 2163 
z
" transform="scale(0.015625)"/>
       <path id="STIXGeneral-Regular-75" d="M 3072 320 
L 3072 230 
Q 2573 96 2195 -58 
L 2163 -38 
L 2163 486 
L 2150 486 
Q 1747 -64 1235 -64 
Q 870 -64 662 160 
Q 454 384 454 755 
L 454 2362 
Q 454 2598 371 2688 
Q 288 2778 58 2790 
L 58 2880 
L 992 2880 
L 992 813 
Q 992 595 1123 451 
Q 1254 307 1446 307 
Q 1760 307 1984 506 
Q 2067 582 2099 649 
Q 2131 717 2131 877 
L 2131 2355 
Q 2131 2605 2041 2678 
Q 1952 2752 1658 2771 
L 1658 2880 
L 2669 2880 
L 2669 685 
Q 2669 461 2742 390 
Q 2816 320 3034 320 
L 3072 320 
z
" transform="scale(0.015625)"/>
       <path id="STIXGeneral-Regular-63" d="M 2547 998 
L 2637 941 
Q 2362 403 2112 205 
Q 1786 -64 1376 -64 
Q 845 -64 502 336 
Q 160 736 160 1357 
Q 160 2170 698 2618 
Q 1094 2944 1562 2944 
Q 1965 2944 2256 2749 
Q 2547 2554 2547 2285 
Q 2547 2176 2457 2096 
Q 2368 2016 2246 2016 
Q 2022 2016 1939 2310 
L 1901 2451 
Q 1850 2630 1773 2694 
Q 1696 2758 1523 2758 
Q 1133 2758 893 2451 
Q 653 2144 653 1645 
Q 653 1094 928 745 
Q 1203 397 1645 397 
Q 1920 397 2118 528 
Q 2317 659 2547 998 
z
" transform="scale(0.015625)"/>
      </defs>
      <use xlink:href="#STIXGeneral-Regular-51"/>
      <use xlink:href="#STIXGeneral-Regular-75" transform="translate(72.199982 0)"/>
      <use xlink:href="#STIXGeneral-Regular-61" transform="translate(122.199966 0)"/>
      <use xlink:href="#STIXGeneral-Regular-73" transform="translate(166.59996 0)"/>
      <use xlink:href="#STIXGeneral-Regular-69" transform="translate(205.499954 0)"/>
      <use xlink:href="#STIXGeneral-Regular-73" transform="translate(233.299942 0)"/>
      <use xlink:href="#STIXGeneral-Regular-74" transform="translate(272.199936 0)"/>
      <use xlink:href="#STIXGeneral-Regular-61" transform="translate(299.999924 0)"/>
      <use xlink:href="#STIXGeneral-Regular-74" transform="translate(344.399918 0)"/>
      <use xlink:href="#STIXGeneral-Regular-69" transform="translate(372.199905 0)"/>
      <use xlink:href="#STIXGeneral-Regular-63" transform="translate(399.999893 0)"/>
     </g>
    </g>
    <g id="line2d_53">
     <path d="M 164.609796 142.672959 
L 173.809796 142.672959 
L 183.009796 142.672959 
" style="fill: none; stroke: #c35a1e; stroke-width: 1.8; stroke-linecap: round"/>
    </g>
    <g id="text_14">
     <!-- $1/f,\ c=0$ -->
     <g transform="translate(189.409796 145.472959) scale(0.08 -0.08)">
      <defs>
       <path id="STIXGeneral-Regular-2f" d="M 1837 4326 
L 378 -90 
L -58 -90 
L 1408 4326 
L 1837 4326 
z
" transform="scale(0.015625)"/>
       <path id="STIXGeneral-Italic-66" d="M 262 2739 
L 858 2739 
Q 1107 3546 1318 3846 
Q 1664 4339 2163 4339 
Q 2400 4339 2557 4227 
Q 2714 4115 2714 3942 
Q 2714 3834 2634 3750 
Q 2554 3667 2445 3667 
Q 2355 3667 2281 3737 
Q 2208 3808 2208 3917 
Q 2208 3981 2240 4038 
Q 2272 4096 2272 4115 
Q 2272 4198 2131 4198 
Q 1862 4198 1676 3849 
Q 1491 3501 1350 2739 
L 2035 2739 
L 1997 2534 
L 1306 2534 
L 845 486 
Q 435 -1325 -435 -1325 
Q -653 -1325 -797 -1213 
Q -941 -1101 -941 -934 
Q -941 -826 -870 -746 
Q -800 -666 -698 -666 
Q -589 -666 -521 -733 
Q -454 -800 -454 -902 
Q -454 -947 -483 -1001 
Q -512 -1056 -512 -1088 
Q -512 -1190 -384 -1190 
Q 13 -1190 237 -154 
L 800 2534 
L 218 2534 
L 262 2739 
z
" transform="scale(0.015625)"/>
       <path id="STIXGeneral-Regular-2c" d="M 531 -902 
L 467 -781 
Q 998 -422 998 -96 
Q 998 -13 909 -13 
Q 883 -13 822 -25 
Q 762 -38 723 -38 
Q 352 -38 352 288 
Q 352 454 457 553 
Q 563 653 736 653 
Q 954 653 1101 496 
Q 1248 339 1248 96 
Q 1248 -198 1053 -473 
Q 858 -749 531 -902 
z
" transform="scale(0.015625)"/>
       <path id="STIXGeneral-Italic-63" d="M 2240 685 
L 2342 621 
Q 2048 250 1769 90 
Q 1491 -70 1133 -70 
Q 678 -70 435 179 
Q 192 429 192 915 
Q 192 1344 409 1744 
Q 627 2144 979 2432 
Q 1472 2822 2048 2822 
Q 2342 2822 2531 2675 
Q 2720 2528 2720 2304 
Q 2720 2176 2630 2086 
Q 2541 1997 2413 1997 
Q 2285 1997 2224 2070 
Q 2163 2144 2163 2253 
Q 2163 2310 2211 2403 
Q 2259 2496 2259 2560 
Q 2259 2688 2022 2688 
Q 1619 2688 1325 2381 
Q 742 1766 742 890 
Q 742 544 889 352 
Q 1037 160 1312 160 
Q 1562 160 1766 281 
Q 1971 403 2240 685 
z
" transform="scale(0.015625)"/>
       <path id="STIXGeneral-Regular-3d" d="M 4077 2048 
L 307 2048 
L 307 2470 
L 4077 2470 
L 4077 2048 
z
M 4077 768 
L 307 768 
L 307 1190 
L 4077 1190 
L 4077 768 
z
" transform="scale(0.015625)"/>
      </defs>
      <use xlink:href="#STIXGeneral-Regular-31" transform="translate(0 0.203125)"/>
      <use xlink:href="#STIXGeneral-Regular-2f" transform="translate(49.999985 0.203125)"/>
      <use xlink:href="#STIXGeneral-Italic-66" transform="translate(77.799973 0.203125)"/>
      <use xlink:href="#STIXGeneral-Regular-2c" transform="translate(105.59996 0.203125)"/>
      <use xlink:href="#STIXGeneral-Italic-63" transform="translate(169.106361 0.203125)"/>
      <use xlink:href="#STIXGeneral-Regular-3d" transform="translate(227.946352 0.203125)"/>
      <use xlink:href="#STIXGeneral-Regular-30" transform="translate(310.886333 0.203125)"/>
     </g>
    </g>
    <g id="line2d_54">
     <path d="M 164.609796 154.009209 
L 173.809796 154.009209 
L 183.009796 154.009209 
" style="fill: none; stroke: #5b8f29; stroke-width: 1.8; stroke-linecap: round"/>
    </g>
    <g id="text_15">
     <!-- $1/f,\ c=0.5$ -->
     <g transform="translate(189.409796 156.809209) scale(0.08 -0.08)">
      <use xlink:href="#STIXGeneral-Regular-31" transform="translate(0 0.203125)"/>
      <use xlink:href="#STIXGeneral-Regular-2f" transform="translate(49.999985 0.203125)"/>
      <use xlink:href="#STIXGeneral-Italic-66" transform="translate(77.799973 0.203125)"/>
      <use xlink:href="#STIXGeneral-Regular-2c" transform="translate(105.59996 0.203125)"/>
      <use xlink:href="#STIXGeneral-Italic-63" transform="translate(169.106361 0.203125)"/>
      <use xlink:href="#STIXGeneral-Regular-3d" transform="translate(227.946352 0.203125)"/>
      <use xlink:href="#STIXGeneral-Regular-30" transform="translate(310.886333 0.203125)"/>
      <use xlink:href="#STIXGeneral-Regular-2e" transform="translate(360.886317 0.203125)"/>
      <use xlink:href="#STIXGeneral-Regular-35" transform="translate(385.886302 0.203125)"/>
     </g>
    </g>
   </g>
  </g>
 </g>
 <defs>
  <clipPath id="pc1d9a1c819">
   <rect x="42.210313" y="10.273359" width="193.82983" height="158.645"/>
  </clipPath>
 </defs>
</svg>
