<?xml version="1.0" encoding="utf-8" standalone="no"?>
<!DOCTYPE svg PUBLIC "-//W3C//DTD SVG 1.1//EN"
  "http://www.w3.org/Graphics/SVG/1.1/DTD/svg11.dtd">
<svg xmlns:xlink="http://www.w3.org/1999/xlink" width="249.881725pt" height="205.449437pt" viewBox="0 0 249.881725 205.449437" xmlns="http://www.w3.org/2000/svg" version="1.1">
 <metadata>
  <rdf:RDF xmlns:dc="http://purl.org/dc/elements/1.1/" xmlns:cc="http://creativecommons.org/ns#" xmlns:rdf="http://www.w3.org/1999/02/22-rdf-syntax-ns#">
   <cc:Work>
    <dc:type rdf:resource="http://purl.org/dc/dcmitype/StillImage"/>
    <dc:date>2026-04-23T13:15:02.566344</dc:date>
    <dc:format>image/svg+xml</dc:format>
    <dc:creator>
     <cc:Agent>
      <dc:title>Matplotlib v3.10.3, https://matplotlib.org/</dc:title>
     </cc:Agent>
    </dc:creator>
   </cc:Work>
  </rdf:RDF>
 </metadata>
 <defs>
  <style type="text/css">*{stroke-linejoin: round; stroke-linecap: butt}</style>
 </defs>
 <g id="figure_1">
  <g id="patch_1">
   <path d="M 0 205.449437 
L 249.881725 205.449437 
L 249.881725 0 
L 0 0 
z
" style="fill: #ffffff"/>
  </g>
  <g id="axes_1">
   <g id="patch_2">
    <path d="M 41.650125 172.609437 
L 240.481725 172.609437 
L 240.481725 46.626063 
L 41.650125 46.626063 
z
" style="fill: #ffffff"/>
   </g>
   <g id="axes_2">
    <g id="patch_3">
     <path d="M 41.650125 46.626063 
L 240.481725 46.626063 
L 240.481725 46.626062 
L 41.650125 46.626062 
z
" style="fill: #ffffff"/>
    </g>
    <g id="matplotlib.axis_1">
     <g id="xtick_1">
      <g id="line2d_1">
       <defs>
        <path id="m8c3a4a5ab7" d="M 0 0 
L 0 4 
" style="stroke: #000000; stroke-width: 0.8"/>
       </defs>
       <g>
        <use xlink:href="#m8c3a4a5ab7" x="240.481725" y="46.626062" style="stroke: #000000; stroke-width: 0.8"/>
       </g>
      </g>
      <g id="text_1">
       <!-- 2 -->
       <g transform="translate(238.281725 41.716187) scale(0.088 -0.088)">
        <defs>
         <path id="STIXGeneral-Regular-32" d="M 3034 877 
L 2688 0 
L 186 0 
L 186 77 
L 1325 1286 
Q 1773 1754 1965 2144 
Q 2157 2534 2157 2950 
Q 2157 3379 1920 3616 
Q 1683 3853 1267 3853 
Q 922 3853 720 3673 
Q 518 3494 326 3021 
L 192 3053 
Q 301 3648 630 3987 
Q 960 4326 1523 4326 
Q 2054 4326 2380 4006 
Q 2707 3686 2707 3200 
Q 2707 2477 1888 1613 
L 832 486 
L 2330 486 
Q 2541 486 2665 569 
Q 2790 653 2944 915 
L 3034 877 
z
" transform="scale(0.015625)"/>
        </defs>
        <use xlink:href="#STIXGeneral-Regular-32"/>
       </g>
      </g>
     </g>
     <g id="xtick_2">
      <g id="line2d_2">
       <g>
        <use xlink:href="#m8c3a4a5ab7" x="130.019725" y="46.626062" style="stroke: #000000; stroke-width: 0.8"/>
       </g>
      </g>
     </g>
     <g id="xtick_3">
      <g id="line2d_3">
       <g>
        <use xlink:href="#m8c3a4a5ab7" x="93.199058" y="46.626062" style="stroke: #000000; stroke-width: 0.8"/>
       </g>
      </g>
      <g id="text_2">
       <!-- 6 -->
       <g transform="translate(90.999058 41.716187) scale(0.088 -0.088)">
        <defs>
         <path id="STIXGeneral-Regular-36" d="M 2854 4378 
L 2867 4275 
Q 2112 4154 1606 3664 
Q 1101 3174 973 2451 
Q 1344 2739 1786 2739 
Q 2349 2739 2672 2380 
Q 2995 2022 2995 1402 
Q 2995 774 2669 378 
Q 2291 -90 1651 -90 
Q 870 -90 518 557 
Q 218 1107 218 1786 
Q 218 2835 915 3552 
Q 1312 3962 1731 4131 
Q 2150 4301 2854 4378 
z
M 2419 1203 
Q 2419 2445 1555 2445 
Q 1235 2445 1024 2275 
Q 813 2106 813 1702 
Q 813 954 1046 522 
Q 1280 90 1722 90 
Q 2061 90 2240 394 
Q 2419 698 2419 1203 
z
" transform="scale(0.015625)"/>
        </defs>
        <use xlink:href="#STIXGeneral-Regular-36"/>
       </g>
      </g>
     </g>
     <g id="xtick_4">
      <g id="line2d_4">
       <g>
        <use xlink:href="#m8c3a4a5ab7" x="74.788725" y="46.626062" style="stroke: #000000; stroke-width: 0.8"/>
       </g>
      </g>
     </g>
     <g id="xtick_5">
      <g id="line2d_5">
       <g>
        <use xlink:href="#m8c3a4a5ab7" x="63.742525" y="46.626062" style="stroke: #000000; stroke-width: 0.8"/>
       </g>
      </g>
      <g id="text_3">
       <!-- 10 -->
       <g transform="translate(59.342525 41.716187) scale(0.088 -0.088)">
        <defs>
         <path id="STIXGeneral-Regular-31" d="M 2522 0 
L 755 0 
L 755 96 
Q 1107 115 1235 227 
Q 1363 339 1363 608 
L 1363 3482 
Q 1363 3795 1171 3795 
Q 1082 3795 883 3718 
L 710 3654 
L 710 3744 
L 1856 4326 
L 1914 4307 
L 1914 486 
Q 1914 275 2042 185 
Q 2170 96 2522 96 
L 2522 0 
z
" transform="scale(0.015625)"/>
         <path id="STIXGeneral-Regular-30" d="M 3046 2112 
Q 3046 1683 2963 1302 
Q 2880 922 2717 602 
Q 2554 282 2266 96 
Q 1978 -90 1600 -90 
Q 1210 -90 915 108 
Q 621 307 461 640 
Q 301 973 227 1350 
Q 154 1728 154 2150 
Q 154 2746 301 3222 
Q 448 3699 790 4012 
Q 1133 4326 1626 4326 
Q 2253 4326 2649 3712 
Q 3046 3098 3046 2112 
z
M 2432 2080 
Q 2432 3091 2217 3625 
Q 2003 4160 1587 4160 
Q 1190 4160 979 3622 
Q 768 3085 768 2106 
Q 768 1120 979 598 
Q 1190 77 1600 77 
Q 2003 77 2217 598 
Q 2432 1120 2432 2080 
z
" transform="scale(0.015625)"/>
        </defs>
        <use xlink:href="#STIXGeneral-Regular-31"/>
        <use xlink:href="#STIXGeneral-Regular-30" transform="translate(49.999985 0)"/>
       </g>
      </g>
     </g>
     <g id="xtick_6">
      <g id="line2d_6">
       <g>
        <use xlink:href="#m8c3a4a5ab7" x="56.378392" y="46.626062" style="stroke: #000000; stroke-width: 0.8"/>
       </g>
      </g>
     </g>
     <g id="xtick_7">
      <g id="line2d_7">
       <g>
        <use xlink:href="#m8c3a4a5ab7" x="49.014258" y="46.626062" style="stroke: #000000; stroke-width: 0.8"/>
       </g>
      </g>
      <g id="text_4">
       <!-- 15 -->
       <g transform="translate(44.614258 41.716187) scale(0.088 -0.088)">
        <defs>
         <path id="STIXGeneral-Regular-35" d="M 2803 4358 
L 2573 3814 
Q 2534 3731 2400 3731 
L 1158 3731 
L 902 3187 
Q 1606 3053 1920 2896 
Q 2234 2739 2502 2368 
Q 2726 2061 2726 1555 
Q 2726 1094 2576 780 
Q 2426 467 2099 224 
Q 1664 -90 1011 -90 
Q 646 -90 422 19 
Q 198 128 198 307 
Q 198 550 486 550 
Q 717 550 960 352 
Q 1210 147 1414 147 
Q 1747 147 2012 480 
Q 2278 813 2278 1229 
Q 2278 1843 1850 2189 
Q 1293 2637 486 2637 
Q 410 2637 410 2688 
L 416 2720 
L 1114 4237 
L 2438 4237 
Q 2547 4237 2608 4269 
Q 2669 4301 2746 4403 
L 2803 4358 
z
" transform="scale(0.015625)"/>
        </defs>
        <use xlink:href="#STIXGeneral-Regular-31"/>
        <use xlink:href="#STIXGeneral-Regular-35" transform="translate(49.999985 0)"/>
       </g>
      </g>
     </g>
     <g id="xtick_8">
      <g id="line2d_8">
       <g>
        <use xlink:href="#m8c3a4a5ab7" x="41.650125" y="46.626062" style="stroke: #000000; stroke-width: 0.8"/>
       </g>
      </g>
     </g>
     <g id="text_5">
      <!-- $\Delta g_3$ [MHz] -->
      <g transform="translate(116.279925 30.706063) scale(0.108 -0.108)">
       <defs>
        <path id="STIXGeneral-Regular-394" d="M 4320 0 
L 307 0 
L 2221 4314 
L 2349 4314 
L 4320 0 
z
M 3354 589 
L 2118 3405 
L 870 589 
L 3354 589 
z
" transform="scale(0.015625)"/>
        <path id="STIXGeneral-Italic-67" d="M 3014 2342 
L 2701 2342 
Q 2758 2227 2758 2016 
Q 2758 1613 2390 1289 
Q 2022 966 1574 966 
Q 1459 966 1376 986 
Q 1357 992 1331 992 
Q 1248 992 1174 909 
Q 1101 826 1101 730 
Q 1101 576 1555 461 
Q 2464 243 2464 -352 
Q 2464 -781 2105 -1049 
Q 1747 -1318 1120 -1318 
Q 621 -1318 336 -1142 
Q 51 -966 51 -627 
Q 51 -378 195 -202 
Q 339 -26 800 250 
Q 627 352 627 499 
Q 627 806 1120 1037 
Q 614 1216 614 1728 
Q 614 2202 1004 2512 
Q 1395 2822 1901 2822 
Q 2272 2822 2528 2643 
Q 2598 2592 2630 2592 
L 3014 2592 
L 3014 2342 
z
M 2253 2227 
Q 2253 2477 2166 2579 
Q 2080 2682 1894 2682 
Q 1587 2682 1350 2362 
Q 1114 2042 1114 1581 
Q 1114 1357 1216 1229 
Q 1318 1101 1498 1101 
Q 1818 1101 2042 1478 
Q 2253 1837 2253 2227 
z
M 2080 -576 
Q 2080 -352 1878 -201 
Q 1677 -51 1165 109 
Q 1011 154 947 179 
Q 902 179 752 57 
Q 602 -64 531 -154 
Q 403 -314 403 -525 
Q 403 -1178 1216 -1178 
Q 1594 -1178 1837 -1002 
Q 2080 -826 2080 -576 
z
" transform="scale(0.015625)"/>
        <path id="STIXGeneral-Regular-33" d="M 390 3264 
L 288 3290 
Q 435 3770 748 4048 
Q 1062 4326 1542 4326 
Q 1990 4326 2265 4083 
Q 2541 3840 2541 3450 
Q 2541 2925 1946 2566 
Q 2298 2413 2477 2227 
Q 2758 1914 2758 1402 
Q 2758 890 2464 506 
Q 2246 211 1840 60 
Q 1434 -90 979 -90 
Q 262 -90 262 275 
Q 262 378 339 442 
Q 416 506 525 506 
Q 685 506 915 339 
Q 1197 141 1466 141 
Q 1818 141 2058 425 
Q 2298 710 2298 1120 
Q 2298 1856 1632 2048 
Q 1434 2112 979 2112 
L 979 2202 
Q 1338 2323 1517 2432 
Q 2035 2726 2035 3290 
Q 2035 3610 1852 3776 
Q 1670 3942 1344 3942 
Q 768 3942 390 3264 
z
" transform="scale(0.015625)"/>
        <path id="STIXGeneral-Regular-20" transform="scale(0.015625)"/>
        <path id="STIXGeneral-Regular-5b" d="M 1914 -998 
L 563 -998 
L 563 4237 
L 1914 4237 
L 1914 4077 
L 1382 4077 
Q 1216 4077 1133 4006 
Q 1050 3936 1050 3770 
L 1050 -493 
Q 1050 -838 1382 -838 
L 1914 -838 
L 1914 -998 
z
" transform="scale(0.015625)"/>
        <path id="STIXGeneral-Regular-4d" d="M 5530 0 
L 3738 0 
L 3738 122 
Q 4115 147 4214 265 
Q 4314 384 4314 787 
L 4314 3661 
L 2682 0 
L 2592 0 
L 979 3514 
L 979 966 
Q 979 448 1088 294 
Q 1197 141 1574 122 
L 1574 0 
L 77 0 
L 77 122 
Q 358 141 480 205 
Q 602 269 650 432 
Q 698 595 698 966 
L 698 3514 
Q 698 3878 589 3984 
Q 480 4090 90 4115 
L 90 4237 
L 1357 4237 
L 2835 1024 
L 4250 4237 
L 5523 4237 
L 5523 4115 
Q 5178 4109 5072 3993 
Q 4966 3878 4966 3520 
L 4966 717 
Q 4966 378 5072 262 
Q 5178 147 5530 122 
L 5530 0 
z
" transform="scale(0.015625)"/>
        <path id="STIXGeneral-Regular-48" d="M 4499 0 
L 2714 0 
L 2714 122 
Q 3085 147 3181 265 
Q 3277 384 3277 794 
L 3277 2016 
L 1338 2016 
L 1338 723 
Q 1338 371 1440 256 
Q 1542 141 1894 122 
L 1901 0 
L 115 0 
L 115 122 
Q 493 147 589 259 
Q 685 371 685 781 
L 685 3507 
Q 685 3878 585 3980 
Q 486 4083 115 4115 
L 115 4237 
L 1907 4237 
L 1907 4115 
Q 1549 4083 1443 3977 
Q 1338 3872 1338 3507 
L 1338 2298 
L 3277 2298 
L 3277 3507 
Q 3277 3878 3177 3980 
Q 3078 4083 2707 4115 
L 2707 4237 
L 4499 4237 
L 4499 4115 
Q 4141 4083 4035 3977 
Q 3930 3872 3930 3507 
L 3930 710 
Q 3930 371 4035 259 
Q 4141 147 4499 122 
L 4499 0 
z
" transform="scale(0.015625)"/>
        <path id="STIXGeneral-Regular-7a" d="M 2675 870 
L 2579 0 
L 173 0 
L 173 96 
L 1875 2688 
L 1011 2688 
Q 710 2688 604 2582 
Q 499 2477 454 2125 
L 339 2125 
L 365 2880 
L 2579 2880 
L 2579 2784 
L 858 192 
L 1709 192 
Q 2246 192 2387 365 
Q 2477 474 2560 896 
L 2675 870 
z
" transform="scale(0.015625)"/>
        <path id="STIXGeneral-Regular-5d" d="M 1568 -998 
L 218 -998 
L 218 -838 
L 781 -838 
Q 947 -838 1014 -768 
Q 1082 -698 1082 -544 
L 1082 3731 
Q 1082 4077 755 4077 
L 218 4077 
L 218 4237 
L 1568 4237 
L 1568 -998 
z
" transform="scale(0.015625)"/>
       </defs>
       <use xlink:href="#STIXGeneral-Regular-394" transform="translate(0 0.59375)"/>
       <use xlink:href="#STIXGeneral-Italic-67" transform="translate(72.199982 0.59375)"/>
       <use xlink:href="#STIXGeneral-Regular-33" transform="translate(122.199966 -12.634375) scale(0.7)"/>
       <use xlink:href="#STIXGeneral-Regular-20" transform="translate(161.609331 0.59375)"/>
       <use xlink:href="#STIXGeneral-Regular-5b" transform="translate(186.609315 0.59375)"/>
       <use xlink:href="#STIXGeneral-Regular-4d" transform="translate(219.909303 0.59375)"/>
       <use xlink:href="#STIXGeneral-Regular-48" transform="translate(308.809297 0.59375)"/>
       <use xlink:href="#STIXGeneral-Regular-7a" transform="translate(381.009279 0.59375)"/>
       <use xlink:href="#STIXGeneral-Regular-5d" transform="translate(425.409273 0.59375)"/>
      </g>
     </g>
    </g>
    <g id="matplotlib.axis_2"/>
    <g id="patch_4">
     <path d="M 240.481725 46.626062 
L 41.650125 46.626062 
" style="fill: none; stroke: #000000; stroke-width: 0.8; stroke-linejoin: miter; stroke-linecap: square"/>
    </g>
   </g>
   <g id="matplotlib.axis_3">
    <g id="xtick_9">
     <g id="line2d_9">
      <defs>
       <path id="m1e057e710b" d="M 0 0 
L 0 -4 
" style="stroke: #000000; stroke-width: 0.8"/>
      </defs>
      <g>
       <use xlink:href="#m1e057e710b" x="70.577937" y="172.609437" style="stroke: #000000; stroke-width: 0.8"/>
      </g>
     </g>
     <g id="text_6">
      <!-- 100 -->
      <g transform="translate(63.977937 182.619562) scale(0.088 -0.088)">
       <use xlink:href="#STIXGeneral-Regular-31"/>
       <use xlink:href="#STIXGeneral-Regular-30" transform="translate(49.999985 0)"/>
       <use xlink:href="#STIXGeneral-Regular-30" transform="translate(99.999969 0)"/>
      </g>
     </g>
    </g>
    <g id="xtick_10">
     <g id="line2d_10">
      <g>
       <use xlink:href="#m1e057e710b" x="121.59815" y="172.609437" style="stroke: #000000; stroke-width: 0.8"/>
      </g>
     </g>
     <g id="text_7">
      <!-- 200 -->
      <g transform="translate(114.99815 182.619562) scale(0.088 -0.088)">
       <use xlink:href="#STIXGeneral-Regular-32"/>
       <use xlink:href="#STIXGeneral-Regular-30" transform="translate(49.999985 0)"/>
       <use xlink:href="#STIXGeneral-Regular-30" transform="translate(99.999969 0)"/>
      </g>
     </g>
    </g>
    <g id="xtick_11">
     <g id="line2d_11">
      <g>
       <use xlink:href="#m1e057e710b" x="172.618362" y="172.609437" style="stroke: #000000; stroke-width: 0.8"/>
      </g>
     </g>
     <g id="text_8">
      <!-- 300 -->
      <g transform="translate(166.018362 182.619562) scale(0.088 -0.088)">
       <use xlink:href="#STIXGeneral-Regular-33"/>
       <use xlink:href="#STIXGeneral-Regular-30" transform="translate(49.999985 0)"/>
       <use xlink:href="#STIXGeneral-Regular-30" transform="translate(99.999969 0)"/>
      </g>
     </g>
    </g>
    <g id="xtick_12">
     <g id="line2d_12">
      <g>
       <use xlink:href="#m1e057e710b" x="223.638574" y="172.609437" style="stroke: #000000; stroke-width: 0.8"/>
      </g>
     </g>
     <g id="text_9">
      <!-- 400 -->
      <g transform="translate(217.038574 182.619562) scale(0.088 -0.088)">
       <defs>
        <path id="STIXGeneral-Regular-34" d="M 3027 1069 
L 2368 1069 
L 2368 0 
L 1869 0 
L 1869 1069 
L 77 1069 
L 77 1478 
L 2086 4326 
L 2368 4326 
L 2368 1478 
L 3027 1478 
L 3027 1069 
z
M 1869 1478 
L 1869 3674 
L 333 1478 
L 1869 1478 
z
" transform="scale(0.015625)"/>
       </defs>
       <use xlink:href="#STIXGeneral-Regular-34"/>
       <use xlink:href="#STIXGeneral-Regular-30" transform="translate(49.999985 0)"/>
       <use xlink:href="#STIXGeneral-Regular-30" transform="translate(99.999969 0)"/>
      </g>
     </g>
    </g>
    <g id="text_10">
     <!-- $t_\pi$ [ns] -->
     <g transform="translate(127.673925 195.9055) scale(0.108 -0.108)">
      <defs>
       <path id="STIXGeneral-Italic-74" d="M 1894 2739 
L 1862 2534 
L 1325 2534 
L 768 435 
Q 755 384 755 346 
Q 755 243 851 243 
Q 928 243 1030 342 
Q 1133 442 1370 749 
L 1453 704 
Q 1158 256 969 93 
Q 781 -70 538 -70 
Q 243 -70 243 166 
Q 243 230 346 640 
L 845 2534 
L 365 2534 
L 358 2573 
Q 358 2688 570 2733 
Q 730 2771 992 2979 
Q 1254 3187 1421 3437 
Q 1459 3494 1510 3494 
Q 1568 3494 1568 3443 
Q 1568 3411 1562 3398 
L 1382 2739 
L 1894 2739 
z
" transform="scale(0.015625)"/>
       <path id="STIXGeneral-Italic-3c0" d="M 3430 2739 
L 3296 2266 
L 2643 2266 
Q 2624 2195 2502 1782 
Q 2381 1370 2297 1072 
Q 2214 774 2214 717 
Q 2214 448 2413 448 
Q 2694 448 2867 838 
L 2970 838 
Q 2886 486 2652 208 
Q 2419 -70 2093 -70 
Q 1901 -70 1808 67 
Q 1715 205 1715 410 
Q 1715 627 1824 922 
L 2310 2266 
L 1645 2266 
Q 1568 2061 1401 1469 
Q 1235 877 1068 512 
Q 902 147 672 -38 
Q 563 -115 442 -115 
Q 314 -115 218 -32 
Q 122 51 122 166 
Q 122 429 314 480 
Q 634 563 774 928 
L 1299 2266 
L 1261 2266 
Q 973 2266 819 2208 
Q 666 2150 474 1914 
L 371 1914 
Q 640 2362 931 2550 
Q 1222 2739 1696 2739 
L 3430 2739 
z
" transform="scale(0.015625)"/>
       <path id="STIXGeneral-Regular-6e" d="M 3104 0 
L 1773 0 
L 1779 96 
Q 2016 115 2096 233 
Q 2176 352 2176 672 
L 2176 1946 
Q 2176 2592 1709 2592 
Q 1549 2592 1408 2515 
Q 1267 2438 1050 2227 
L 1050 461 
Q 1050 269 1136 192 
Q 1222 115 1466 96 
L 1466 0 
L 115 0 
L 115 96 
Q 358 115 435 214 
Q 512 314 512 602 
L 512 2157 
Q 512 2394 467 2483 
Q 422 2573 288 2573 
Q 160 2573 102 2547 
L 102 2656 
Q 550 2784 979 2944 
L 1030 2925 
L 1030 2426 
L 1037 2426 
Q 1491 2944 1958 2944 
Q 2323 2944 2518 2688 
Q 2714 2432 2714 1958 
L 2714 544 
Q 2714 288 2790 205 
Q 2867 122 3104 96 
L 3104 0 
z
" transform="scale(0.015625)"/>
       <path id="STIXGeneral-Regular-73" d="M 998 1926 
L 1664 1523 
Q 1984 1331 2105 1164 
Q 2227 998 2227 736 
Q 2227 416 1961 176 
Q 1696 -64 1331 -64 
Q 1030 -64 864 -6 
Q 691 51 570 51 
Q 461 51 416 -26 
L 333 -26 
L 333 979 
L 435 979 
Q 538 512 730 294 
Q 922 77 1248 77 
Q 1485 77 1632 211 
Q 1779 346 1779 550 
Q 1779 845 1440 1030 
L 1094 1222 
Q 326 1651 326 2150 
Q 326 2522 566 2730 
Q 806 2938 1210 2938 
Q 1491 2938 1638 2867 
Q 1754 2816 1818 2816 
Q 1862 2816 1920 2880 
L 1990 2880 
L 2022 2010 
L 1926 2010 
Q 1818 2445 1654 2621 
Q 1491 2797 1203 2797 
Q 986 2797 854 2688 
Q 723 2579 723 2362 
Q 723 2253 796 2128 
Q 870 2003 998 1926 
z
" transform="scale(0.015625)"/>
      </defs>
      <use xlink:href="#STIXGeneral-Italic-74" transform="translate(0 0.796875)"/>
      <use xlink:href="#STIXGeneral-Italic-3c0" transform="translate(27.799988 -12.43125) scale(0.7)"/>
      <use xlink:href="#STIXGeneral-Regular-20" transform="translate(67.489359 0.796875)"/>
      <use xlink:href="#STIXGeneral-Regular-5b" transform="translate(92.489343 0.796875)"/>
      <use xlink:href="#STIXGeneral-Regular-6e" transform="translate(125.789331 0.796875)"/>
      <use xlink:href="#STIXGeneral-Regular-73" transform="translate(175.789316 0.796875)"/>
      <use xlink:href="#STIXGeneral-Regular-5d" transform="translate(214.68931 0.796875)"/>
     </g>
    </g>
   </g>
   <g id="matplotlib.axis_4">
    <g id="ytick_1">
     <g id="line2d_13">
      <defs>
       <path id="m87de78ba3e" d="M 0 0 
L 4 0 
" style="stroke: #000000; stroke-width: 0.8"/>
      </defs>
      <g>
       <use xlink:href="#m87de78ba3e" x="41.650125" y="172.609437" style="stroke: #000000; stroke-width: 0.8"/>
      </g>
     </g>
     <g id="line2d_14">
      <defs>
       <path id="m517ffd084d" d="M 0 0 
L -4 0 
" style="stroke: #000000; stroke-width: 0.8"/>
      </defs>
      <g>
       <use xlink:href="#m517ffd084d" x="240.481725" y="172.609437" style="stroke: #000000; stroke-width: 0.8"/>
      </g>
     </g>
     <g id="text_11">
      <!-- $\mathdefault{10^{-8}}$ -->
      <g transform="translate(20.930125 175.6145) scale(0.088 -0.088)">
       <defs>
        <path id="STIXGeneral-Regular-2212" d="M 3974 1408 
L 410 1408 
L 410 1830 
L 3974 1830 
L 3974 1408 
z
" transform="scale(0.015625)"/>
        <path id="STIXGeneral-Regular-38" d="M 2848 992 
Q 2848 499 2505 204 
Q 2163 -90 1587 -90 
Q 1050 -90 704 204 
Q 358 499 358 954 
Q 358 1293 524 1533 
Q 691 1773 1190 2125 
Q 710 2522 553 2765 
Q 397 3008 397 3328 
Q 397 3782 745 4054 
Q 1094 4326 1638 4326 
Q 2106 4326 2410 4060 
Q 2714 3795 2714 3411 
Q 2714 3059 2531 2848 
Q 2349 2637 1856 2374 
Q 2432 1990 2640 1689 
Q 2848 1389 2848 992 
z
M 2272 3411 
Q 2272 3744 2086 3945 
Q 1901 4147 1574 4147 
Q 1248 4147 1059 3977 
Q 870 3808 870 3513 
Q 870 3219 1059 2979 
Q 1248 2739 1670 2490 
Q 1997 2682 2134 2896 
Q 2272 3110 2272 3411 
z
M 1734 1741 
L 1357 1997 
Q 1075 1766 960 1545 
Q 845 1325 845 1011 
Q 845 576 1065 333 
Q 1286 90 1658 90 
Q 1971 90 2166 285 
Q 2362 480 2362 794 
Q 2362 1082 2214 1299 
Q 2067 1517 1734 1741 
z
" transform="scale(0.015625)"/>
       </defs>
       <use xlink:href="#STIXGeneral-Regular-31" transform="translate(0 0.684375)"/>
       <use xlink:href="#STIXGeneral-Regular-30" transform="translate(49.999985 0.684375)"/>
       <use xlink:href="#STIXGeneral-Regular-2212" transform="translate(101.574969 36.684375) scale(0.7)"/>
       <use xlink:href="#STIXGeneral-Regular-38" transform="translate(149.524959 36.684375) scale(0.7)"/>
      </g>
     </g>
    </g>
    <g id="ytick_2">
     <g id="line2d_15">
      <g>
       <use xlink:href="#m87de78ba3e" x="41.650125" y="147.412763" style="stroke: #000000; stroke-width: 0.8"/>
      </g>
     </g>
     <g id="line2d_16">
      <g>
       <use xlink:href="#m517ffd084d" x="240.481725" y="147.412763" style="stroke: #000000; stroke-width: 0.8"/>
      </g>
     </g>
     <g id="text_12">
      <!-- $\mathdefault{10^{-7}}$ -->
      <g transform="translate(20.930125 150.417825) scale(0.088 -0.088)">
       <defs>
        <path id="STIXGeneral-Regular-37" d="M 2874 4134 
L 1517 -51 
L 1101 -51 
L 2368 3763 
L 992 3763 
Q 717 3763 582 3667 
Q 448 3571 243 3238 
L 128 3296 
L 512 4237 
L 2874 4237 
L 2874 4134 
z
" transform="scale(0.015625)"/>
       </defs>
       <use xlink:href="#STIXGeneral-Regular-31" transform="translate(0 0.657813)"/>
       <use xlink:href="#STIXGeneral-Regular-30" transform="translate(49.999985 0.657813)"/>
       <use xlink:href="#STIXGeneral-Regular-2212" transform="translate(101.574969 36.657813) scale(0.7)"/>
       <use xlink:href="#STIXGeneral-Regular-37" transform="translate(149.524959 36.657813) scale(0.7)"/>
      </g>
     </g>
    </g>
    <g id="ytick_3">
     <g id="line2d_17">
      <g>
       <use xlink:href="#m87de78ba3e" x="41.650125" y="122.216088" style="stroke: #000000; stroke-width: 0.8"/>
      </g>
     </g>
     <g id="line2d_18">
      <g>
       <use xlink:href="#m517ffd084d" x="240.481725" y="122.216088" style="stroke: #000000; stroke-width: 0.8"/>
      </g>
     </g>
     <g id="text_13">
      <!-- $\mathdefault{10^{-6}}$ -->
      <g transform="translate(20.930125 125.22115) scale(0.088 -0.088)">
       <use xlink:href="#STIXGeneral-Regular-31" transform="translate(0 0.115625)"/>
       <use xlink:href="#STIXGeneral-Regular-30" transform="translate(49.999985 0.115625)"/>
       <use xlink:href="#STIXGeneral-Regular-2212" transform="translate(101.574969 36.115625) scale(0.7)"/>
       <use xlink:href="#STIXGeneral-Regular-36" transform="translate(149.524959 36.115625) scale(0.7)"/>
      </g>
     </g>
    </g>
    <g id="ytick_4">
     <g id="line2d_19">
      <g>
       <use xlink:href="#m87de78ba3e" x="41.650125" y="97.019413" style="stroke: #000000; stroke-width: 0.8"/>
      </g>
     </g>
     <g id="line2d_20">
      <g>
       <use xlink:href="#m517ffd084d" x="240.481725" y="97.019413" style="stroke: #000000; stroke-width: 0.8"/>
      </g>
     </g>
     <g id="text_14">
      <!-- $\mathdefault{10^{-5}}$ -->
      <g transform="translate(20.930125 100.024475) scale(0.088 -0.088)">
       <use xlink:href="#STIXGeneral-Regular-31" transform="translate(0 0.842187)"/>
       <use xlink:href="#STIXGeneral-Regular-30" transform="translate(49.999985 0.842187)"/>
       <use xlink:href="#STIXGeneral-Regular-2212" transform="translate(101.574969 36.842187) scale(0.7)"/>
       <use xlink:href="#STIXGeneral-Regular-35" transform="translate(149.524959 36.842187) scale(0.7)"/>
      </g>
     </g>
    </g>
    <g id="ytick_5">
     <g id="line2d_21">
      <g>
       <use xlink:href="#m87de78ba3e" x="41.650125" y="71.822738" style="stroke: #000000; stroke-width: 0.8"/>
      </g>
     </g>
     <g id="line2d_22">
      <g>
       <use xlink:href="#m517ffd084d" x="240.481725" y="71.822738" style="stroke: #000000; stroke-width: 0.8"/>
      </g>
     </g>
     <g id="text_15">
      <!-- $\mathdefault{10^{-4}}$ -->
      <g transform="translate(20.930125 74.8278) scale(0.088 -0.088)">
       <use xlink:href="#STIXGeneral-Regular-31" transform="translate(0 0.684375)"/>
       <use xlink:href="#STIXGeneral-Regular-30" transform="translate(49.999985 0.684375)"/>
       <use xlink:href="#STIXGeneral-Regular-2212" transform="translate(101.574969 36.684375) scale(0.7)"/>
       <use xlink:href="#STIXGeneral-Regular-34" transform="translate(149.524959 36.684375) scale(0.7)"/>
      </g>
     </g>
    </g>
    <g id="ytick_6">
     <g id="line2d_23">
      <g>
       <use xlink:href="#m87de78ba3e" x="41.650125" y="46.626063" style="stroke: #000000; stroke-width: 0.8"/>
      </g>
     </g>
     <g id="line2d_24">
      <g>
       <use xlink:href="#m517ffd084d" x="240.481725" y="46.626063" style="stroke: #000000; stroke-width: 0.8"/>
      </g>
     </g>
     <g id="text_16">
      <!-- $\mathdefault{10^{-3}}$ -->
      <g transform="translate(20.930125 49.631125) scale(0.088 -0.088)">
       <use xlink:href="#STIXGeneral-Regular-31" transform="translate(0 0.684375)"/>
       <use xlink:href="#STIXGeneral-Regular-30" transform="translate(49.999985 0.684375)"/>
       <use xlink:href="#STIXGeneral-Regular-2212" transform="translate(101.574969 36.684375) scale(0.7)"/>
       <use xlink:href="#STIXGeneral-Regular-33" transform="translate(149.524959 36.684375) scale(0.7)"/>
      </g>
     </g>
    </g>
    <g id="ytick_7">
     <g id="line2d_25">
      <defs>
       <path id="m24b8bd1720" d="M 0 0 
L 2 0 
" style="stroke: #000000; stroke-width: 0.6"/>
      </defs>
      <g>
       <use xlink:href="#m24b8bd1720" x="41.650125" y="165.024483" style="stroke: #000000; stroke-width: 0.6"/>
      </g>
     </g>
     <g id="line2d_26">
      <defs>
       <path id="mba7a134121" d="M 0 0 
L -2 0 
" style="stroke: #000000; stroke-width: 0.6"/>
      </defs>
      <g>
       <use xlink:href="#mba7a134121" x="240.481725" y="165.024483" style="stroke: #000000; stroke-width: 0.6"/>
      </g>
     </g>
    </g>
    <g id="ytick_8">
     <g id="line2d_27">
      <g>
       <use xlink:href="#m24b8bd1720" x="41.650125" y="160.587568" style="stroke: #000000; stroke-width: 0.6"/>
      </g>
     </g>
     <g id="line2d_28">
      <g>
       <use xlink:href="#mba7a134121" x="240.481725" y="160.587568" style="stroke: #000000; stroke-width: 0.6"/>
      </g>
     </g>
    </g>
    <g id="ytick_9">
     <g id="line2d_29">
      <g>
       <use xlink:href="#m24b8bd1720" x="41.650125" y="157.439528" style="stroke: #000000; stroke-width: 0.6"/>
      </g>
     </g>
     <g id="line2d_30">
      <g>
       <use xlink:href="#mba7a134121" x="240.481725" y="157.439528" style="stroke: #000000; stroke-width: 0.6"/>
      </g>
     </g>
    </g>
    <g id="ytick_10">
     <g id="line2d_31">
      <g>
       <use xlink:href="#m24b8bd1720" x="41.650125" y="154.997717" style="stroke: #000000; stroke-width: 0.6"/>
      </g>
     </g>
     <g id="line2d_32">
      <g>
       <use xlink:href="#mba7a134121" x="240.481725" y="154.997717" style="stroke: #000000; stroke-width: 0.6"/>
      </g>
     </g>
    </g>
    <g id="ytick_11">
     <g id="line2d_33">
      <g>
       <use xlink:href="#m24b8bd1720" x="41.650125" y="153.002613" style="stroke: #000000; stroke-width: 0.6"/>
      </g>
     </g>
     <g id="line2d_34">
      <g>
       <use xlink:href="#mba7a134121" x="240.481725" y="153.002613" style="stroke: #000000; stroke-width: 0.6"/>
      </g>
     </g>
    </g>
    <g id="ytick_12">
     <g id="line2d_35">
      <g>
       <use xlink:href="#m24b8bd1720" x="41.650125" y="151.315777" style="stroke: #000000; stroke-width: 0.6"/>
      </g>
     </g>
     <g id="line2d_36">
      <g>
       <use xlink:href="#mba7a134121" x="240.481725" y="151.315777" style="stroke: #000000; stroke-width: 0.6"/>
      </g>
     </g>
    </g>
    <g id="ytick_13">
     <g id="line2d_37">
      <g>
       <use xlink:href="#m24b8bd1720" x="41.650125" y="149.854573" style="stroke: #000000; stroke-width: 0.6"/>
      </g>
     </g>
     <g id="line2d_38">
      <g>
       <use xlink:href="#mba7a134121" x="240.481725" y="149.854573" style="stroke: #000000; stroke-width: 0.6"/>
      </g>
     </g>
    </g>
    <g id="ytick_14">
     <g id="line2d_39">
      <g>
       <use xlink:href="#m24b8bd1720" x="41.650125" y="148.565699" style="stroke: #000000; stroke-width: 0.6"/>
      </g>
     </g>
     <g id="line2d_40">
      <g>
       <use xlink:href="#mba7a134121" x="240.481725" y="148.565699" style="stroke: #000000; stroke-width: 0.6"/>
      </g>
     </g>
    </g>
    <g id="ytick_15">
     <g id="line2d_41">
      <g>
       <use xlink:href="#m24b8bd1720" x="41.650125" y="139.827808" style="stroke: #000000; stroke-width: 0.6"/>
      </g>
     </g>
     <g id="line2d_42">
      <g>
       <use xlink:href="#mba7a134121" x="240.481725" y="139.827808" style="stroke: #000000; stroke-width: 0.6"/>
      </g>
     </g>
    </g>
    <g id="ytick_16">
     <g id="line2d_43">
      <g>
       <use xlink:href="#m24b8bd1720" x="41.650125" y="135.390893" style="stroke: #000000; stroke-width: 0.6"/>
      </g>
     </g>
     <g id="line2d_44">
      <g>
       <use xlink:href="#mba7a134121" x="240.481725" y="135.390893" style="stroke: #000000; stroke-width: 0.6"/>
      </g>
     </g>
    </g>
    <g id="ytick_17">
     <g id="line2d_45">
      <g>
       <use xlink:href="#m24b8bd1720" x="41.650125" y="132.242853" style="stroke: #000000; stroke-width: 0.6"/>
      </g>
     </g>
     <g id="line2d_46">
      <g>
       <use xlink:href="#mba7a134121" x="240.481725" y="132.242853" style="stroke: #000000; stroke-width: 0.6"/>
      </g>
     </g>
    </g>
    <g id="ytick_18">
     <g id="line2d_47">
      <g>
       <use xlink:href="#m24b8bd1720" x="41.650125" y="129.801042" style="stroke: #000000; stroke-width: 0.6"/>
      </g>
     </g>
     <g id="line2d_48">
      <g>
       <use xlink:href="#mba7a134121" x="240.481725" y="129.801042" style="stroke: #000000; stroke-width: 0.6"/>
      </g>
     </g>
    </g>
    <g id="ytick_19">
     <g id="line2d_49">
      <g>
       <use xlink:href="#m24b8bd1720" x="41.650125" y="127.805938" style="stroke: #000000; stroke-width: 0.6"/>
      </g>
     </g>
     <g id="line2d_50">
      <g>
       <use xlink:href="#mba7a134121" x="240.481725" y="127.805938" style="stroke: #000000; stroke-width: 0.6"/>
      </g>
     </g>
    </g>
    <g id="ytick_20">
     <g id="line2d_51">
      <g>
       <use xlink:href="#m24b8bd1720" x="41.650125" y="126.119102" style="stroke: #000000; stroke-width: 0.6"/>
      </g>
     </g>
     <g id="line2d_52">
      <g>
       <use xlink:href="#mba7a134121" x="240.481725" y="126.119102" style="stroke: #000000; stroke-width: 0.6"/>
      </g>
     </g>
    </g>
    <g id="ytick_21">
     <g id="line2d_53">
      <g>
       <use xlink:href="#m24b8bd1720" x="41.650125" y="124.657898" style="stroke: #000000; stroke-width: 0.6"/>
      </g>
     </g>
     <g id="line2d_54">
      <g>
       <use xlink:href="#mba7a134121" x="240.481725" y="124.657898" style="stroke: #000000; stroke-width: 0.6"/>
      </g>
     </g>
    </g>
    <g id="ytick_22">
     <g id="line2d_55">
      <g>
       <use xlink:href="#m24b8bd1720" x="41.650125" y="123.369024" style="stroke: #000000; stroke-width: 0.6"/>
      </g>
     </g>
     <g id="line2d_56">
      <g>
       <use xlink:href="#mba7a134121" x="240.481725" y="123.369024" style="stroke: #000000; stroke-width: 0.6"/>
      </g>
     </g>
    </g>
    <g id="ytick_23">
     <g id="line2d_57">
      <g>
       <use xlink:href="#m24b8bd1720" x="41.650125" y="114.631133" style="stroke: #000000; stroke-width: 0.6"/>
      </g>
     </g>
     <g id="line2d_58">
      <g>
       <use xlink:href="#mba7a134121" x="240.481725" y="114.631133" style="stroke: #000000; stroke-width: 0.6"/>
      </g>
     </g>
    </g>
    <g id="ytick_24">
     <g id="line2d_59">
      <g>
       <use xlink:href="#m24b8bd1720" x="41.650125" y="110.194218" style="stroke: #000000; stroke-width: 0.6"/>
      </g>
     </g>
     <g id="line2d_60">
      <g>
       <use xlink:href="#mba7a134121" x="240.481725" y="110.194218" style="stroke: #000000; stroke-width: 0.6"/>
      </g>
     </g>
    </g>
    <g id="ytick_25">
     <g id="line2d_61">
      <g>
       <use xlink:href="#m24b8bd1720" x="41.650125" y="107.046178" style="stroke: #000000; stroke-width: 0.6"/>
      </g>
     </g>
     <g id="line2d_62">
      <g>
       <use xlink:href="#mba7a134121" x="240.481725" y="107.046178" style="stroke: #000000; stroke-width: 0.6"/>
      </g>
     </g>
    </g>
    <g id="ytick_26">
     <g id="line2d_63">
      <g>
       <use xlink:href="#m24b8bd1720" x="41.650125" y="104.604367" style="stroke: #000000; stroke-width: 0.6"/>
      </g>
     </g>
     <g id="line2d_64">
      <g>
       <use xlink:href="#mba7a134121" x="240.481725" y="104.604367" style="stroke: #000000; stroke-width: 0.6"/>
      </g>
     </g>
    </g>
    <g id="ytick_27">
     <g id="line2d_65">
      <g>
       <use xlink:href="#m24b8bd1720" x="41.650125" y="102.609263" style="stroke: #000000; stroke-width: 0.6"/>
      </g>
     </g>
     <g id="line2d_66">
      <g>
       <use xlink:href="#mba7a134121" x="240.481725" y="102.609263" style="stroke: #000000; stroke-width: 0.6"/>
      </g>
     </g>
    </g>
    <g id="ytick_28">
     <g id="line2d_67">
      <g>
       <use xlink:href="#m24b8bd1720" x="41.650125" y="100.922427" style="stroke: #000000; stroke-width: 0.6"/>
      </g>
     </g>
     <g id="line2d_68">
      <g>
       <use xlink:href="#mba7a134121" x="240.481725" y="100.922427" style="stroke: #000000; stroke-width: 0.6"/>
      </g>
     </g>
    </g>
    <g id="ytick_29">
     <g id="line2d_69">
      <g>
       <use xlink:href="#m24b8bd1720" x="41.650125" y="99.461223" style="stroke: #000000; stroke-width: 0.6"/>
      </g>
     </g>
     <g id="line2d_70">
      <g>
       <use xlink:href="#mba7a134121" x="240.481725" y="99.461223" style="stroke: #000000; stroke-width: 0.6"/>
      </g>
     </g>
    </g>
    <g id="ytick_30">
     <g id="line2d_71">
      <g>
       <use xlink:href="#m24b8bd1720" x="41.650125" y="98.172349" style="stroke: #000000; stroke-width: 0.6"/>
      </g>
     </g>
     <g id="line2d_72">
      <g>
       <use xlink:href="#mba7a134121" x="240.481725" y="98.172349" style="stroke: #000000; stroke-width: 0.6"/>
      </g>
     </g>
    </g>
    <g id="ytick_31">
     <g id="line2d_73">
      <g>
       <use xlink:href="#m24b8bd1720" x="41.650125" y="89.434458" style="stroke: #000000; stroke-width: 0.6"/>
      </g>
     </g>
     <g id="line2d_74">
      <g>
       <use xlink:href="#mba7a134121" x="240.481725" y="89.434458" style="stroke: #000000; stroke-width: 0.6"/>
      </g>
     </g>
    </g>
    <g id="ytick_32">
     <g id="line2d_75">
      <g>
       <use xlink:href="#m24b8bd1720" x="41.650125" y="84.997543" style="stroke: #000000; stroke-width: 0.6"/>
      </g>
     </g>
     <g id="line2d_76">
      <g>
       <use xlink:href="#mba7a134121" x="240.481725" y="84.997543" style="stroke: #000000; stroke-width: 0.6"/>
      </g>
     </g>
    </g>
    <g id="ytick_33">
     <g id="line2d_77">
      <g>
       <use xlink:href="#m24b8bd1720" x="41.650125" y="81.849503" style="stroke: #000000; stroke-width: 0.6"/>
      </g>
     </g>
     <g id="line2d_78">
      <g>
       <use xlink:href="#mba7a134121" x="240.481725" y="81.849503" style="stroke: #000000; stroke-width: 0.6"/>
      </g>
     </g>
    </g>
    <g id="ytick_34">
     <g id="line2d_79">
      <g>
       <use xlink:href="#m24b8bd1720" x="41.650125" y="79.407692" style="stroke: #000000; stroke-width: 0.6"/>
      </g>
     </g>
     <g id="line2d_80">
      <g>
       <use xlink:href="#mba7a134121" x="240.481725" y="79.407692" style="stroke: #000000; stroke-width: 0.6"/>
      </g>
     </g>
    </g>
    <g id="ytick_35">
     <g id="line2d_81">
      <g>
       <use xlink:href="#m24b8bd1720" x="41.650125" y="77.412588" style="stroke: #000000; stroke-width: 0.6"/>
      </g>
     </g>
     <g id="line2d_82">
      <g>
       <use xlink:href="#mba7a134121" x="240.481725" y="77.412588" style="stroke: #000000; stroke-width: 0.6"/>
      </g>
     </g>
    </g>
    <g id="ytick_36">
     <g id="line2d_83">
      <g>
       <use xlink:href="#m24b8bd1720" x="41.650125" y="75.725752" style="stroke: #000000; stroke-width: 0.6"/>
      </g>
     </g>
     <g id="line2d_84">
      <g>
       <use xlink:href="#mba7a134121" x="240.481725" y="75.725752" style="stroke: #000000; stroke-width: 0.6"/>
      </g>
     </g>
    </g>
    <g id="ytick_37">
     <g id="line2d_85">
      <g>
       <use xlink:href="#m24b8bd1720" x="41.650125" y="74.264548" style="stroke: #000000; stroke-width: 0.6"/>
      </g>
     </g>
     <g id="line2d_86">
      <g>
       <use xlink:href="#mba7a134121" x="240.481725" y="74.264548" style="stroke: #000000; stroke-width: 0.6"/>
      </g>
     </g>
    </g>
    <g id="ytick_38">
     <g id="line2d_87">
      <g>
       <use xlink:href="#m24b8bd1720" x="41.650125" y="72.975674" style="stroke: #000000; stroke-width: 0.6"/>
      </g>
     </g>
     <g id="line2d_88">
      <g>
       <use xlink:href="#mba7a134121" x="240.481725" y="72.975674" style="stroke: #000000; stroke-width: 0.6"/>
      </g>
     </g>
    </g>
    <g id="ytick_39">
     <g id="line2d_89">
      <g>
       <use xlink:href="#m24b8bd1720" x="41.650125" y="64.237783" style="stroke: #000000; stroke-width: 0.6"/>
      </g>
     </g>
     <g id="line2d_90">
      <g>
       <use xlink:href="#mba7a134121" x="240.481725" y="64.237783" style="stroke: #000000; stroke-width: 0.6"/>
      </g>
     </g>
    </g>
    <g id="ytick_40">
     <g id="line2d_91">
      <g>
       <use xlink:href="#m24b8bd1720" x="41.650125" y="59.800868" style="stroke: #000000; stroke-width: 0.6"/>
      </g>
     </g>
     <g id="line2d_92">
      <g>
       <use xlink:href="#mba7a134121" x="240.481725" y="59.800868" style="stroke: #000000; stroke-width: 0.6"/>
      </g>
     </g>
    </g>
    <g id="ytick_41">
     <g id="line2d_93">
      <g>
       <use xlink:href="#m24b8bd1720" x="41.650125" y="56.652828" style="stroke: #000000; stroke-width: 0.6"/>
      </g>
     </g>
     <g id="line2d_94">
      <g>
       <use xlink:href="#mba7a134121" x="240.481725" y="56.652828" style="stroke: #000000; stroke-width: 0.6"/>
      </g>
     </g>
    </g>
    <g id="ytick_42">
     <g id="line2d_95">
      <g>
       <use xlink:href="#m24b8bd1720" x="41.650125" y="54.211017" style="stroke: #000000; stroke-width: 0.6"/>
      </g>
     </g>
     <g id="line2d_96">
      <g>
       <use xlink:href="#mba7a134121" x="240.481725" y="54.211017" style="stroke: #000000; stroke-width: 0.6"/>
      </g>
     </g>
    </g>
    <g id="ytick_43">
     <g id="line2d_97">
      <g>
       <use xlink:href="#m24b8bd1720" x="41.650125" y="52.215913" style="stroke: #000000; stroke-width: 0.6"/>
      </g>
     </g>
     <g id="line2d_98">
      <g>
       <use xlink:href="#mba7a134121" x="240.481725" y="52.215913" style="stroke: #000000; stroke-width: 0.6"/>
      </g>
     </g>
    </g>
    <g id="ytick_44">
     <g id="line2d_99">
      <g>
       <use xlink:href="#m24b8bd1720" x="41.650125" y="50.529077" style="stroke: #000000; stroke-width: 0.6"/>
      </g>
     </g>
     <g id="line2d_100">
      <g>
       <use xlink:href="#mba7a134121" x="240.481725" y="50.529077" style="stroke: #000000; stroke-width: 0.6"/>
      </g>
     </g>
    </g>
    <g id="ytick_45">
     <g id="line2d_101">
      <g>
       <use xlink:href="#m24b8bd1720" x="41.650125" y="49.067873" style="stroke: #000000; stroke-width: 0.6"/>
      </g>
     </g>
     <g id="line2d_102">
      <g>
       <use xlink:href="#mba7a134121" x="240.481725" y="49.067873" style="stroke: #000000; stroke-width: 0.6"/>
      </g>
     </g>
    </g>
    <g id="ytick_46">
     <g id="line2d_103">
      <g>
       <use xlink:href="#m24b8bd1720" x="41.650125" y="47.778999" style="stroke: #000000; stroke-width: 0.6"/>
      </g>
     </g>
     <g id="line2d_104">
      <g>
       <use xlink:href="#mba7a134121" x="240.481725" y="47.778999" style="stroke: #000000; stroke-width: 0.6"/>
      </g>
     </g>
    </g>
    <g id="text_17">
     <!-- Infidelity / leakage -->
     <g transform="translate(14.576062 150.409688) rotate(-90) scale(0.108 -0.108)">
      <defs>
       <path id="STIXGeneral-Regular-49" d="M 2016 0 
L 115 0 
L 115 122 
Q 518 134 627 240 
Q 736 346 736 717 
L 736 3526 
Q 736 3898 633 3994 
Q 531 4090 115 4115 
L 115 4237 
L 2016 4237 
L 2016 4115 
Q 1613 4096 1501 3993 
Q 1389 3891 1389 3526 
L 1389 717 
Q 1389 358 1504 246 
Q 1619 134 2016 122 
L 2016 0 
z
" transform="scale(0.015625)"/>
       <path id="STIXGeneral-Regular-66" d="M 134 2880 
L 659 2880 
Q 666 3264 710 3478 
Q 755 3693 883 3910 
Q 1152 4371 1786 4371 
Q 2074 4371 2262 4259 
Q 2451 4147 2451 3974 
Q 2451 3866 2374 3789 
Q 2298 3712 2182 3712 
Q 2029 3712 1894 3942 
Q 1741 4192 1555 4192 
Q 1197 4192 1197 3622 
L 1197 2880 
L 1978 2880 
L 1978 2675 
L 1197 2675 
L 1197 666 
Q 1197 307 1299 208 
Q 1402 109 1792 96 
L 1792 0 
L 128 0 
L 128 96 
Q 474 115 566 214 
Q 659 314 659 666 
L 659 2675 
L 134 2675 
L 134 2880 
z
" transform="scale(0.015625)"/>
       <path id="STIXGeneral-Regular-69" d="M 1152 4045 
Q 1152 3904 1056 3811 
Q 960 3718 819 3718 
Q 685 3718 592 3811 
Q 499 3904 499 4045 
Q 499 4179 595 4275 
Q 691 4371 826 4371 
Q 966 4371 1059 4275 
Q 1152 4179 1152 4045 
z
M 1619 0 
L 102 0 
L 102 96 
Q 435 115 521 211 
Q 608 307 608 666 
L 608 2118 
Q 608 2342 563 2432 
Q 518 2522 397 2522 
Q 243 2522 128 2490 
L 128 2592 
L 1120 2944 
L 1146 2918 
L 1146 672 
Q 1146 314 1226 218 
Q 1306 122 1619 96 
L 1619 0 
z
" transform="scale(0.015625)"/>
       <path id="STIXGeneral-Regular-64" d="M 3142 269 
L 2202 -64 
L 2176 -45 
L 2176 365 
Q 1869 -64 1357 -64 
Q 826 -64 499 317 
Q 173 698 173 1312 
Q 173 1990 563 2467 
Q 954 2944 1504 2944 
Q 1850 2944 2176 2669 
L 2176 3667 
Q 2176 3866 2118 3930 
Q 2061 3994 1882 3994 
Q 1792 3994 1741 3987 
L 1741 4090 
Q 2323 4243 2682 4371 
L 2714 4358 
L 2714 730 
Q 2714 506 2768 435 
Q 2822 365 2995 365 
Q 3034 365 3142 371 
L 3142 269 
z
M 2176 653 
L 2176 2125 
Q 2176 2381 1981 2573 
Q 1786 2765 1523 2765 
Q 1158 2765 940 2438 
Q 723 2112 723 1568 
Q 723 979 963 624 
Q 1203 269 1606 269 
Q 1907 269 2080 474 
Q 2176 582 2176 653 
z
" transform="scale(0.015625)"/>
       <path id="STIXGeneral-Regular-65" d="M 2611 1050 
L 2714 1005 
Q 2330 -64 1376 -64 
Q 813 -64 486 329 
Q 160 723 160 1389 
Q 160 2074 525 2509 
Q 890 2944 1485 2944 
Q 2061 2944 2374 2502 
Q 2560 2246 2592 1773 
L 621 1773 
Q 646 1370 700 1158 
Q 755 947 915 730 
Q 1184 378 1626 378 
Q 1939 378 2153 531 
Q 2368 685 2611 1050 
z
M 634 1978 
L 1939 1978 
Q 1882 2381 1750 2547 
Q 1619 2714 1312 2714 
Q 1043 2714 864 2525 
Q 685 2336 634 1978 
z
" transform="scale(0.015625)"/>
       <path id="STIXGeneral-Regular-6c" d="M 1645 0 
L 134 0 
L 134 96 
Q 435 122 531 221 
Q 627 320 627 589 
L 627 3590 
Q 627 3821 569 3910 
Q 512 4000 358 4000 
Q 224 4000 122 3987 
L 122 4090 
Q 730 4237 1133 4371 
L 1165 4346 
L 1165 557 
Q 1165 288 1254 201 
Q 1344 115 1645 96 
L 1645 0 
z
" transform="scale(0.015625)"/>
       <path id="STIXGeneral-Regular-74" d="M 1702 493 
L 1786 422 
Q 1478 -64 1011 -64 
Q 448 -64 448 749 
L 448 2675 
L 109 2675 
Q 83 2694 83 2720 
Q 83 2771 192 2842 
Q 435 2982 813 3526 
Q 826 3546 874 3606 
Q 922 3667 941 3706 
Q 986 3706 986 3622 
L 986 2880 
L 1632 2880 
L 1632 2675 
L 986 2675 
L 986 845 
Q 986 538 1062 403 
Q 1139 269 1318 269 
Q 1510 269 1702 493 
z
" transform="scale(0.015625)"/>
       <path id="STIXGeneral-Regular-79" d="M 3040 2880 
L 3040 2784 
Q 2925 2771 2854 2700 
Q 2784 2630 2720 2458 
L 1760 -160 
Q 1510 -838 1257 -1116 
Q 1005 -1395 640 -1395 
Q 435 -1395 313 -1289 
Q 192 -1184 192 -1024 
Q 192 -902 272 -816 
Q 352 -730 467 -730 
Q 653 -730 800 -813 
Q 883 -858 966 -858 
Q 1101 -858 1286 -576 
Q 1376 -448 1459 -211 
Q 1542 26 1542 115 
Q 1542 198 1274 762 
L 429 2566 
Q 346 2752 90 2790 
L 90 2880 
L 1402 2880 
L 1402 2784 
Q 1197 2778 1117 2739 
Q 1037 2701 1037 2611 
Q 1037 2541 1120 2349 
L 1837 749 
L 2458 2515 
Q 2483 2573 2483 2630 
Q 2483 2784 2189 2784 
L 2189 2880 
L 3040 2880 
z
" transform="scale(0.015625)"/>
       <path id="STIXGeneral-Regular-2f" d="M 1837 4326 
L 378 -90 
L -58 -90 
L 1408 4326 
L 1837 4326 
z
" transform="scale(0.015625)"/>
       <path id="STIXGeneral-Regular-61" d="M 2829 422 
L 2829 243 
Q 2586 -64 2253 -64 
Q 1888 -64 1843 403 
L 1837 403 
Q 1427 -64 909 -64 
Q 608 -64 422 112 
Q 237 288 237 602 
Q 237 1050 685 1350 
Q 992 1555 1837 1869 
L 1837 2214 
Q 1837 2502 1699 2646 
Q 1562 2790 1338 2790 
Q 1146 2790 1018 2697 
Q 890 2605 890 2477 
Q 890 2419 909 2348 
Q 928 2278 928 2208 
Q 928 2112 841 2029 
Q 755 1946 634 1946 
Q 525 1946 441 2029 
Q 358 2112 358 2240 
Q 358 2547 685 2752 
Q 986 2944 1421 2944 
Q 1939 2944 2176 2656 
Q 2291 2522 2323 2384 
Q 2355 2246 2355 1946 
L 2355 723 
Q 2355 301 2554 301 
Q 2682 301 2829 422 
z
M 1837 813 
L 1837 1715 
Q 1248 1510 1018 1293 
Q 800 1094 800 800 
Q 800 557 921 432 
Q 1043 307 1242 307 
Q 1453 307 1613 410 
Q 1747 506 1792 589 
Q 1837 672 1837 813 
z
" transform="scale(0.015625)"/>
       <path id="STIXGeneral-Regular-6b" d="M 3232 0 
L 1837 0 
L 1837 96 
L 1958 96 
Q 2093 96 2093 192 
Q 2093 250 2022 339 
L 1062 1606 
L 1062 429 
Q 1062 262 1142 185 
Q 1222 109 1414 102 
L 1542 96 
L 1542 0 
L 45 0 
L 45 96 
Q 390 154 457 214 
Q 525 275 525 525 
L 525 3610 
Q 525 3840 467 3920 
Q 410 4000 250 4000 
Q 211 4000 45 3987 
L 45 4090 
L 237 4141 
Q 621 4243 1037 4371 
L 1062 4358 
L 1062 1670 
L 1939 2451 
Q 2086 2586 2086 2675 
Q 2086 2739 2019 2761 
Q 1952 2784 1766 2790 
L 1766 2880 
L 3072 2880 
L 3072 2784 
Q 2752 2784 2505 2646 
Q 2259 2509 1690 1978 
L 1504 1805 
L 2483 563 
Q 2829 122 3232 96 
L 3232 0 
z
" transform="scale(0.015625)"/>
       <path id="STIXGeneral-Regular-67" d="M 3008 2483 
L 2477 2483 
Q 2598 2208 2598 1946 
Q 2598 1453 2265 1203 
Q 1933 954 1600 954 
Q 1530 954 1357 973 
L 1235 986 
Q 1107 947 979 812 
Q 851 678 851 582 
Q 851 435 1350 410 
L 2176 371 
Q 2528 358 2739 172 
Q 2950 -13 2950 -314 
Q 2950 -685 2566 -986 
Q 2035 -1395 1286 -1395 
Q 826 -1395 502 -1212 
Q 179 -1030 179 -774 
Q 179 -595 320 -419 
Q 461 -243 806 6 
Q 602 102 534 172 
Q 467 243 467 346 
Q 467 531 762 787 
Q 909 915 1037 1043 
Q 717 1203 579 1401 
Q 442 1600 442 1901 
Q 442 2336 752 2640 
Q 1062 2944 1510 2944 
Q 1766 2944 2022 2848 
L 2163 2797 
Q 2349 2733 2515 2733 
L 3008 2733 
L 3008 2483 
z
M 973 2163 
L 973 2144 
Q 973 1683 1155 1398 
Q 1338 1114 1632 1114 
Q 1850 1114 1978 1270 
Q 2106 1427 2106 1690 
Q 2106 2112 1914 2464 
Q 1754 2765 1446 2765 
Q 1222 2765 1097 2605 
Q 973 2445 973 2163 
z
M 2771 -410 
Q 2771 -230 2595 -163 
Q 2419 -96 1978 -96 
Q 1344 -96 941 -13 
Q 749 -243 688 -348 
Q 627 -454 627 -563 
Q 627 -774 880 -902 
Q 1133 -1030 1555 -1030 
Q 2099 -1030 2435 -860 
Q 2771 -691 2771 -410 
z
" transform="scale(0.015625)"/>
      </defs>
      <use xlink:href="#STIXGeneral-Regular-49"/>
      <use xlink:href="#STIXGeneral-Regular-6e" transform="translate(33.299988 0)"/>
      <use xlink:href="#STIXGeneral-Regular-66" transform="translate(83.299973 0)"/>
      <use xlink:href="#STIXGeneral-Regular-69" transform="translate(116.59996 0)"/>
      <use xlink:href="#STIXGeneral-Regular-64" transform="translate(144.399948 0)"/>
      <use xlink:href="#STIXGeneral-Regular-65" transform="translate(194.399933 0)"/>
      <use xlink:href="#STIXGeneral-Regular-6c" transform="translate(238.799927 0)"/>
      <use xlink:href="#STIXGeneral-Regular-69" transform="translate(266.599915 0)"/>
      <use xlink:href="#STIXGeneral-Regular-74" transform="translate(294.399902 0)"/>
      <use xlink:href="#STIXGeneral-Regular-79" transform="translate(322.19989 0)"/>
      <use xlink:href="#STIXGeneral-Regular-20" transform="translate(372.199875 0)"/>
      <use xlink:href="#STIXGeneral-Regular-2f" transform="translate(397.19986 0)"/>
      <use xlink:href="#STIXGeneral-Regular-20" transform="translate(424.999847 0)"/>
      <use xlink:href="#STIXGeneral-Regular-6c" transform="translate(449.999832 0)"/>
      <use xlink:href="#STIXGeneral-Regular-65" transform="translate(477.79982 0)"/>
      <use xlink:href="#STIXGeneral-Regular-61" transform="translate(522.199814 0)"/>
      <use xlink:href="#STIXGeneral-Regular-6b" transform="translate(566.599808 0)"/>
      <use xlink:href="#STIXGeneral-Regular-61" transform="translate(616.599792 0)"/>
      <use xlink:href="#STIXGeneral-Regular-67" transform="translate(660.999786 0)"/>
      <use xlink:href="#STIXGeneral-Regular-65" transform="translate(710.999771 0)"/>
     </g>
    </g>
   </g>
   <g id="line2d_105">
    <path d="M 41.650125 103.388775 
L 41.761142 100.088361 
L 41.873281 101.7428 
L 41.986557 100.280073 
L 42.10099 101.911257 
L 42.216597 101.167258 
L 42.333395 99.500455 
L 42.570642 102.530823 
L 42.812883 99.797282 
L 42.935926 102.05118 
L 43.060278 100.761175 
L 43.18596 101.744787 
L 43.312994 98.910391 
L 43.441401 99.392019 
L 43.571203 98.522241 
L 43.702424 100.491016 
L 43.969217 99.872809 
L 44.104836 97.864889 
L 44.241971 101.412169 
L 44.380646 99.964225 
L 44.520889 100.980791 
L 44.662725 100.382481 
L 44.806182 98.544887 
L 44.951288 98.680448 
L 45.098072 100.730009 
L 45.246562 99.428122 
L 45.396789 101.652023 
L 45.548784 100.067448 
L 45.702577 99.75176 
L 46.015689 97.493012 
L 46.175074 98.665548 
L 46.336392 97.415181 
L 46.499676 99.724542 
L 46.664964 98.542424 
L 46.832293 99.19818 
L 47.0017 97.664842 
L 47.346907 98.444357 
L 47.522788 101.459257 
L 47.70091 98.612552 
L 47.881315 100.612385 
L 48.064048 98.777595 
L 48.249154 99.607138 
L 48.436679 97.946619 
L 48.626672 97.814388 
L 48.819182 98.623364 
L 49.014258 98.576831 
L 49.211953 98.225104 
L 49.41232 99.225446 
L 49.615412 99.105732 
L 50.030001 97.460043 
L 50.241614 97.6803 
L 50.456187 98.264342 
L 50.673781 95.776928 
L 51.118296 98.085144 
L 51.345351 96.71125 
L 51.575696 97.373402 
L 51.809404 98.424758 
L 52.046549 97.331552 
L 52.287206 95.691539 
L 52.531456 98.211475 
L 52.779379 95.778112 
L 53.031058 95.860247 
L 53.28658 98.33463 
L 53.546033 96.635677 
L 53.809508 96.967823 
L 54.0771 95.647473 
L 54.348906 98.012133 
L 54.625027 96.718439 
L 54.905565 97.004487 
L 55.190628 95.829504 
L 55.480327 98.232162 
L 55.774774 95.817305 
L 56.074089 95.777244 
L 56.378392 96.447043 
L 56.687809 94.987035 
L 57.002471 94.874351 
L 57.322511 95.256434 
L 57.64807 96.596427 
L 57.97929 95.367191 
L 58.316321 94.7166 
L 58.659318 94.939599 
L 59.008439 94.244955 
L 59.363851 94.245535 
L 59.725725 95.501089 
L 60.094239 95.201601 
L 60.469577 92.963303 
L 60.851931 94.5051 
L 61.241499 94.970482 
L 61.638487 94.3528 
L 62.04311 93.208747 
L 62.455589 95.622243 
L 62.876156 92.497912 
L 63.305052 93.264746 
L 63.742525 93.762707 
L 64.188836 95.147924 
L 64.644256 92.448513 
L 65.109065 93.677066 
L 66.068041 91.716049 
L 66.562831 92.39209 
L 67.068263 91.504628 
L 67.584681 92.597753 
L 68.11245 91.584925 
L 68.651947 92.758946 
L 69.203568 92.630459 
L 69.767725 91.738041 
L 70.344851 92.373101 
L 71.539843 91.797375 
L 72.158677 90.993273 
L 72.792424 91.157418 
L 73.441627 92.174937 
L 74.106861 90.1751 
L 74.788725 91.057306 
L 75.487852 89.105249 
L 76.204904 88.888658 
L 76.940582 90.078868 
L 77.69562 90.431946 
L 78.470792 90.994859 
L 79.266914 90.843004 
L 80.084848 89.80964 
L 80.925503 88.468648 
L 81.789838 89.168675 
L 82.678868 88.483011 
L 83.593667 88.784041 
L 84.535372 90.454582 
L 85.505188 87.256152 
L 86.504392 87.482235 
L 87.53434 88.743915 
L 88.596475 89.138757 
L 89.692328 85.710898 
L 90.823531 86.107255 
L 91.991823 86.05543 
L 93.199058 88.719722 
L 94.447216 88.211365 
L 95.738415 86.419265 
L 97.074918 83.71509 
L 98.459153 84.94835 
L 99.893725 86.006785 
L 104.528494 84.195214 
L 106.194588 84.38552 
L 107.927325 84.758876 
L 109.730786 82.877228 
L 111.609392 83.623705 
L 113.567938 81.629435 
L 115.611638 84.014741 
L 117.746169 81.610007 
L 119.977725 81.422023 
L 122.313074 80.542224 
L 124.75963 81.95142 
L 127.32553 80.680883 
L 130.019725 80.626379 
L 132.852084 77.410652 
L 138.976103 77.912355 
L 142.29328 78.657751 
L 145.80001 78.979827 
L 149.513019 75.997501 
L 153.451058 75.481369 
L 157.635225 76.846784 
L 162.089338 75.403411 
L 166.840391 75.716297 
L 171.919104 75.307259 
L 177.360582 71.075181 
L 183.205132 74.340366 
L 189.499263 69.695257 
L 196.296925 70.41623 
L 203.661058 70.18281 
L 211.665551 70.43506 
L 220.397725 68.883295 
L 229.961534 67.678769 
L 240.481725 67.037851 
L 240.481725 67.037851 
" clip-path="url(#p511ce28f78)" style="fill: none; stroke: #3f7fbe; stroke-width: 1.45; stroke-linecap: round"/>
   </g>
   <g id="line2d_106">
    <path d="M 41.650125 149.916518 
L 41.761142 147.489902 
L 41.873281 149.08222 
L 42.10099 147.742638 
L 42.216597 150.885576 
L 42.333395 146.971281 
L 42.451404 148.155262 
L 42.570642 147.2488 
L 42.812883 149.888601 
L 43.060278 148.41598 
L 43.18596 148.269949 
L 43.312994 147.426807 
L 43.441401 148.591889 
L 43.702424 147.337586 
L 43.835088 147.40977 
L 43.969217 148.81922 
L 44.104836 148.74757 
L 44.241971 146.708159 
L 44.662725 149.560144 
L 44.806182 146.516722 
L 45.098072 148.648118 
L 45.396789 148.787411 
L 45.548784 148.651542 
L 45.858201 145.352367 
L 46.015689 147.598622 
L 46.175074 146.896378 
L 46.336392 148.718757 
L 46.499676 148.77254 
L 46.664964 148.09824 
L 46.832293 145.800329 
L 47.0017 148.469918 
L 47.173225 147.872912 
L 47.346907 148.849753 
L 47.70091 147.895075 
L 47.881315 148.347138 
L 48.064048 146.463167 
L 48.436679 149.221 
L 48.626672 146.358697 
L 48.819182 146.913022 
L 49.014258 146.615374 
L 49.211953 146.86933 
L 49.41232 146.192007 
L 49.821287 146.717227 
L 50.030001 147.629782 
L 50.241614 145.294076 
L 50.456187 146.887526 
L 50.673781 147.060568 
L 50.894463 146.584536 
L 51.118296 146.773916 
L 51.345351 146.614907 
L 51.575696 144.771305 
L 51.809404 148.012151 
L 52.046549 145.605184 
L 52.287206 145.799649 
L 52.531456 145.14377 
L 52.779379 145.366252 
L 53.28658 147.192055 
L 53.809508 144.980867 
L 54.0771 146.231061 
L 54.348906 145.805222 
L 54.625027 146.77834 
L 54.905565 146.185395 
L 55.190628 146.621806 
L 55.774774 145.842601 
L 56.378392 146.596057 
L 56.687809 146.287202 
L 57.002471 147.969028 
L 57.322511 144.082286 
L 57.64807 146.974346 
L 57.97929 145.76725 
L 58.316321 145.527799 
L 59.008439 146.710816 
L 59.363851 146.552424 
L 60.094239 147.537386 
L 60.469577 145.010688 
L 60.851931 147.631811 
L 61.241499 147.569428 
L 61.638487 146.362444 
L 62.455589 147.365982 
L 62.876156 147.053367 
L 63.305052 147.061419 
L 63.742525 147.250006 
L 64.188836 147.886817 
L 64.644256 147.124692 
L 65.109065 145.994388 
L 65.583558 146.394835 
L 66.068041 148.09257 
L 66.562831 147.105815 
L 67.068263 146.756757 
L 67.584681 147.838683 
L 68.11245 147.205495 
L 68.651947 148.03664 
L 69.203568 148.068653 
L 69.767725 146.568617 
L 70.344851 146.17568 
L 70.935399 148.910708 
L 71.539843 147.756252 
L 72.158677 147.341871 
L 72.792424 146.391047 
L 73.441627 146.16941 
L 74.106861 146.925889 
L 74.788725 144.673724 
L 75.487852 144.905627 
L 76.204904 145.327724 
L 76.940582 145.203738 
L 77.69562 146.399251 
L 78.470792 145.459543 
L 79.266914 146.987877 
L 80.084848 145.551614 
L 80.925503 147.066264 
L 81.789838 146.174018 
L 82.678868 147.843027 
L 83.593667 145.618753 
L 84.535372 146.399231 
L 85.505188 145.909917 
L 86.504392 147.154593 
L 87.53434 145.827594 
L 88.596475 146.274611 
L 89.692328 145.943969 
L 90.823531 146.449916 
L 91.991823 145.559193 
L 93.199058 146.005903 
L 94.447216 147.743607 
L 95.738415 146.341739 
L 97.074918 145.536609 
L 98.459153 147.608342 
L 99.893725 147.583587 
L 101.381429 146.581411 
L 102.925272 147.538231 
L 104.528494 148.077034 
L 106.194588 146.757275 
L 107.927325 146.770073 
L 109.730786 145.714322 
L 111.609392 146.519146 
L 113.567938 143.942228 
L 115.611638 145.015583 
L 117.746169 145.336091 
L 119.977725 145.177382 
L 122.313074 147.229926 
L 124.75963 146.857269 
L 127.32553 146.765396 
L 130.019725 147.165546 
L 132.852084 145.653412 
L 135.833514 145.775911 
L 138.976103 144.072719 
L 142.29328 146.982266 
L 145.80001 147.855827 
L 149.513019 148.642777 
L 153.451058 146.719517 
L 157.635225 146.079487 
L 162.089338 144.221913 
L 166.840391 146.903782 
L 171.919104 150.782462 
L 177.360582 146.305878 
L 183.205132 145.113866 
L 189.499263 145.329496 
L 196.296925 146.928118 
L 203.661058 144.910128 
L 211.665551 145.907341 
L 220.397725 149.165486 
L 229.961534 143.881496 
L 240.481725 148.309119 
L 240.481725 148.309119 
" clip-path="url(#p511ce28f78)" style="fill: none; stroke-dasharray: 0.6525,3.48; stroke-dashoffset: 0; stroke: #4fa66b; stroke-width: 1.45; stroke-linecap: round"/>
   </g>
   <g id="line2d_107">
    <path d="M 41.650125 109.798516 
L 41.761142 108.856074 
L 41.873281 109.324856 
L 41.986557 109.150303 
L 42.10099 108.193798 
L 42.216597 111.042548 
L 42.333395 109.046443 
L 42.451404 110.275357 
L 42.570642 109.405678 
L 42.691128 109.431955 
L 42.812883 107.957502 
L 42.935926 108.789917 
L 43.18596 108.44896 
L 43.312994 106.622771 
L 43.702424 109.43292 
L 43.835088 108.238448 
L 43.969217 108.437098 
L 44.241971 107.546724 
L 44.662725 109.287646 
L 44.806182 106.4228 
L 44.951288 107.206407 
L 45.098072 108.634945 
L 45.246562 107.610132 
L 45.396789 108.474301 
L 45.702577 106.774109 
L 45.858201 108.352926 
L 46.015689 107.669001 
L 46.336392 107.406636 
L 46.499676 108.533699 
L 46.664964 108.354967 
L 47.0017 106.5047 
L 47.173225 107.319194 
L 47.346907 104.893246 
L 47.522788 107.321944 
L 47.70091 106.052396 
L 48.064048 108.860466 
L 48.249154 106.989842 
L 48.436679 107.779731 
L 48.626672 105.713607 
L 48.819182 107.157128 
L 49.014258 106.242291 
L 49.211953 107.951513 
L 49.41232 108.253437 
L 50.030001 104.682175 
L 50.241614 106.428324 
L 50.456187 104.149251 
L 50.673781 107.205974 
L 50.894463 104.578491 
L 51.118296 105.963691 
L 51.345351 106.351237 
L 51.575696 106.140705 
L 51.809404 105.627288 
L 52.046549 104.356538 
L 52.287206 105.055702 
L 52.531456 104.532217 
L 52.779379 106.360242 
L 53.28658 103.259943 
L 53.546033 104.991431 
L 53.809508 105.384026 
L 54.0771 103.169408 
L 54.348906 104.856296 
L 54.625027 105.487415 
L 55.190628 104.519703 
L 55.480327 103.667217 
L 55.774774 104.044516 
L 56.074089 104.661932 
L 56.378392 104.168616 
L 56.687809 104.395802 
L 57.002471 102.107035 
L 57.322511 104.718328 
L 57.97929 103.36958 
L 58.316321 103.588277 
L 58.659318 102.494288 
L 59.008439 102.906592 
L 59.363851 103.880093 
L 59.725725 103.083832 
L 60.094239 100.762346 
L 60.469577 102.700743 
L 60.851931 102.129097 
L 61.241499 103.239724 
L 61.638487 101.403086 
L 62.04311 102.39861 
L 62.455589 101.964544 
L 62.876156 102.946283 
L 63.305052 100.951826 
L 63.742525 101.07285 
L 64.188836 102.747554 
L 64.644256 102.15441 
L 65.109065 103.080438 
L 65.583558 100.904222 
L 66.068041 101.958188 
L 66.562831 102.049 
L 67.584681 100.909642 
L 68.11245 98.598098 
L 68.651947 100.212141 
L 69.203568 101.099938 
L 69.767725 99.192632 
L 70.344851 99.647619 
L 70.935399 97.838899 
L 71.539843 99.675369 
L 72.158677 99.828071 
L 72.792424 99.222163 
L 73.441627 98.057737 
L 74.106861 98.882414 
L 74.788725 98.346283 
L 75.487852 98.985741 
L 76.204904 97.535279 
L 76.940582 98.842823 
L 78.470792 98.917106 
L 79.266914 97.367377 
L 80.925503 96.982005 
L 81.789838 97.138409 
L 82.678868 96.439337 
L 83.593667 95.542627 
L 84.535372 95.918455 
L 85.505188 95.524256 
L 86.504392 94.97276 
L 87.53434 94.930274 
L 88.596475 96.732386 
L 89.692328 95.563843 
L 90.823531 96.308784 
L 91.991823 93.827975 
L 93.199058 96.169018 
L 94.447216 94.367767 
L 95.738415 93.809107 
L 97.074918 94.76442 
L 98.459153 93.404411 
L 99.893725 92.287062 
L 101.381429 92.209891 
L 102.925272 92.504725 
L 106.194588 92.593711 
L 107.927325 91.667803 
L 109.730786 89.990214 
L 111.609392 90.128622 
L 113.567938 90.858116 
L 115.611638 91.131304 
L 117.746169 89.884723 
L 119.977725 88.915682 
L 122.313074 90.027784 
L 124.75963 89.662179 
L 127.32553 86.851037 
L 130.019725 88.699512 
L 132.852084 86.936243 
L 135.833514 87.782359 
L 142.29328 86.161693 
L 145.80001 86.982416 
L 149.513019 84.076368 
L 153.451058 85.1936 
L 157.635225 84.446149 
L 162.089338 83.234057 
L 166.840391 82.205063 
L 171.919104 82.705852 
L 177.360582 82.126524 
L 183.205132 81.287147 
L 189.499263 79.941082 
L 196.296925 78.109527 
L 203.661058 78.772372 
L 211.665551 77.529247 
L 220.397725 76.675841 
L 229.961534 76.301236 
L 240.481725 73.813564 
L 240.481725 73.813564 
" clip-path="url(#p511ce28f78)" style="fill: none; stroke: #d65a4a; stroke-width: 1.45; stroke-linecap: round"/>
   </g>
   <g id="line2d_108">
    <path d="M 41.650125 145.376701 
L 41.761142 144.435142 
L 41.986557 145.947982 
L 42.10099 145.743208 
L 42.216597 145.147041 
L 42.333395 146.548408 
L 42.451404 146.185546 
L 42.570642 145.141409 
L 42.691128 145.07403 
L 42.812883 145.422172 
L 42.935926 144.488812 
L 43.312994 145.627705 
L 43.441401 144.705296 
L 43.571203 145.51975 
L 43.702424 144.303934 
L 43.969217 144.819671 
L 44.104836 144.10812 
L 44.241971 144.36237 
L 44.380646 145.379501 
L 44.520889 145.324923 
L 44.662725 144.438765 
L 44.806182 144.992694 
L 44.951288 144.239527 
L 45.098072 146.153215 
L 45.246562 145.926868 
L 45.548784 144.42432 
L 45.858201 145.081093 
L 46.015689 142.778094 
L 46.175074 144.223512 
L 46.336392 144.59573 
L 46.499676 146.205243 
L 46.664964 144.346135 
L 46.832293 144.924176 
L 47.0017 144.082675 
L 47.173225 144.034663 
L 47.346907 144.698173 
L 47.522788 143.899438 
L 47.70091 145.036526 
L 47.881315 143.817029 
L 48.064048 144.934047 
L 48.249154 143.951701 
L 48.626672 143.740964 
L 48.819182 143.942421 
L 49.014258 143.691867 
L 49.41232 144.95565 
L 49.615412 143.668222 
L 49.821287 144.564597 
L 50.030001 143.379892 
L 50.456187 144.063245 
L 50.894463 143.512557 
L 51.118296 143.770624 
L 51.345351 143.845649 
L 51.575696 144.239794 
L 51.809404 143.25453 
L 52.046549 144.245532 
L 52.287206 143.338516 
L 52.531456 143.654232 
L 52.779379 142.652774 
L 53.031058 144.075227 
L 53.28658 143.389745 
L 53.546033 144.696585 
L 53.809508 143.825052 
L 54.0771 143.878533 
L 54.625027 142.722498 
L 54.905565 144.041629 
L 55.190628 143.878727 
L 55.480327 142.484605 
L 55.774774 143.156677 
L 56.074089 142.894123 
L 56.378392 143.864062 
L 56.687809 143.151378 
L 57.322511 142.471565 
L 57.64807 142.62046 
L 57.97929 142.972242 
L 59.008439 142.526822 
L 59.363851 143.000225 
L 59.725725 143.225698 
L 60.094239 143.649594 
L 60.469577 143.203325 
L 60.851931 142.544276 
L 61.241499 142.645396 
L 62.04311 143.11706 
L 62.455589 142.873103 
L 62.876156 141.835213 
L 63.305052 142.187748 
L 63.742525 143.14006 
L 64.188836 142.479581 
L 64.644256 142.934985 
L 65.109065 142.333846 
L 65.583558 142.344915 
L 66.068041 141.462763 
L 66.562831 141.865175 
L 67.068263 142.58135 
L 68.651947 141.957551 
L 69.203568 142.806788 
L 69.767725 141.295964 
L 70.344851 142.935188 
L 70.935399 142.229313 
L 71.539843 141.098955 
L 72.792424 142.256886 
L 73.441627 141.589285 
L 74.106861 140.663816 
L 74.788725 141.295916 
L 75.487852 141.371113 
L 76.204904 142.190705 
L 76.940582 141.057396 
L 77.69562 140.86399 
L 78.470792 141.828178 
L 79.266914 142.192308 
L 80.084848 141.761553 
L 80.925503 140.985087 
L 81.789838 141.489369 
L 82.678868 140.81855 
L 83.593667 140.865882 
L 84.535372 140.389836 
L 85.505188 140.524782 
L 86.504392 140.37428 
L 87.53434 141.198181 
L 88.596475 140.974636 
L 89.692328 140.041014 
L 90.823531 139.793183 
L 91.991823 140.097431 
L 93.199058 140.539464 
L 95.738415 139.29479 
L 97.074918 139.99629 
L 98.459153 139.789879 
L 99.893725 140.010195 
L 101.381429 139.822824 
L 102.925272 139.753882 
L 104.528494 140.641876 
L 106.194588 139.784375 
L 107.927325 139.413345 
L 109.730786 139.364184 
L 111.609392 138.538134 
L 113.567938 139.256729 
L 115.611638 137.763754 
L 117.746169 138.449514 
L 119.977725 138.665834 
L 122.313074 137.441907 
L 124.75963 138.670196 
L 127.32553 137.507356 
L 130.019725 137.379826 
L 132.852084 137.4984 
L 135.833514 137.490163 
L 138.976103 136.848318 
L 142.29328 137.294239 
L 145.80001 136.338978 
L 149.513019 137.385196 
L 153.451058 136.573112 
L 157.635225 136.749545 
L 162.089338 136.274039 
L 166.840391 135.94993 
L 177.360582 135.841438 
L 183.205132 135.271115 
L 189.499263 135.365784 
L 196.296925 134.387469 
L 203.661058 133.968516 
L 211.665551 133.966072 
L 220.397725 134.602332 
L 229.961534 132.780794 
L 240.481725 133.203121 
L 240.481725 133.203121 
" clip-path="url(#p511ce28f78)" style="fill: none; stroke-dasharray: 0.6525,3.48; stroke-dashoffset: 0; stroke: #e39a3b; stroke-width: 1.45; stroke-linecap: round"/>
   </g>
   <g id="patch_5">
    <path d="M 41.650125 172.609437 
L 41.650125 46.626063 
" style="fill: none; stroke: #000000; stroke-width: 0.8; stroke-linejoin: miter; stroke-linecap: square"/>
   </g>
   <g id="patch_6">
    <path d="M 240.481725 172.609437 
L 240.481725 46.626063 
" style="fill: none; stroke: #000000; stroke-width: 0.8; stroke-linejoin: miter; stroke-linecap: square"/>
   </g>
   <g id="patch_7">
    <path d="M 41.650125 172.609437 
L 240.481725 172.609437 
" style="fill: none; stroke: #000000; stroke-width: 0.8; stroke-linejoin: miter; stroke-linecap: square"/>
   </g>
   <g id="patch_8">
    <path d="M 41.650125 46.626063 
L 240.481725 46.626063 
" style="fill: none; stroke: #000000; stroke-width: 0.8; stroke-linejoin: miter; stroke-linecap: square"/>
   </g>
   <g id="text_18">
    <!-- $ZZ^\prime$ gate, $\phi_{\rm ent}=\pi$ -->
    <g transform="translate(103.170925 16.33) scale(0.11 -0.11)">
     <defs>
      <path id="STIXGeneral-Italic-5a" d="M 3878 4090 
L 787 230 
L 1818 230 
Q 2272 230 2512 268 
Q 2752 307 2925 435 
Q 3187 627 3418 1101 
L 3539 1082 
L 3194 0 
L -38 0 
L -38 90 
L 3027 3949 
L 1933 3949 
Q 1280 3949 1024 3776 
Q 883 3680 816 3581 
Q 749 3482 602 3206 
L 480 3238 
L 768 4179 
L 3878 4179 
L 3878 4090 
z
" transform="scale(0.015625)"/>
      <path id="STIXGeneral-Regular-2032" d="M 480 2630 
L 909 4045 
Q 934 4141 960 4195 
Q 986 4250 1043 4294 
Q 1101 4339 1190 4339 
Q 1274 4339 1322 4278 
Q 1370 4218 1370 4128 
Q 1370 4058 1280 3878 
L 602 2573 
L 480 2630 
z
" transform="scale(0.015625)"/>
      <path id="STIXGeneral-Regular-2c" d="M 531 -902 
L 467 -781 
Q 998 -422 998 -96 
Q 998 -13 909 -13 
Q 883 -13 822 -25 
Q 762 -38 723 -38 
Q 352 -38 352 288 
Q 352 454 457 553 
Q 563 653 736 653 
Q 954 653 1101 496 
Q 1248 339 1248 96 
Q 1248 -198 1053 -473 
Q 858 -749 531 -902 
z
" transform="scale(0.015625)"/>
      <path id="STIXGeneral-Italic-3d5" d="M 3078 4371 
L 2650 2822 
Q 3098 2822 3296 2746 
Q 3808 2547 3808 1939 
Q 3808 1709 3728 1446 
Q 3648 1184 3481 915 
Q 3315 646 3088 425 
Q 2861 205 2537 67 
Q 2214 -70 1850 -70 
L 1504 -1312 
L 1005 -1312 
L 1350 -70 
Q 883 -70 666 0 
Q 173 160 173 819 
Q 173 1018 256 1274 
Q 339 1530 502 1802 
Q 666 2074 886 2301 
Q 1107 2528 1417 2675 
Q 1728 2822 2061 2822 
L 2157 2822 
L 2586 4371 
L 3078 4371 
z
M 2611 2688 
L 1888 64 
Q 2125 64 2330 166 
Q 2694 352 2982 998 
Q 3270 1645 3270 2093 
Q 3270 2464 2982 2643 
Q 2906 2688 2611 2688 
z
M 1389 64 
L 2118 2688 
Q 1760 2688 1427 2365 
Q 1094 2042 902 1568 
Q 710 1094 710 646 
Q 710 237 1018 115 
Q 1152 64 1389 64 
z
" transform="scale(0.015625)"/>
      <path id="STIXGeneral-Regular-3d" d="M 4077 2048 
L 307 2048 
L 307 2470 
L 4077 2470 
L 4077 2048 
z
M 4077 768 
L 307 768 
L 307 1190 
L 4077 1190 
L 4077 768 
z
" transform="scale(0.015625)"/>
     </defs>
     <use xlink:href="#STIXGeneral-Italic-5a" transform="translate(0 0.267188)"/>
     <use xlink:href="#STIXGeneral-Italic-5a" transform="translate(55.599991 0.267188)"/>
     <use xlink:href="#STIXGeneral-Regular-2032" transform="translate(121.825763 35.542188) scale(0.7)"/>
     <use xlink:href="#STIXGeneral-Regular-20" transform="translate(146.465134 0.267188)"/>
     <use xlink:href="#STIXGeneral-Regular-67" transform="translate(171.465118 0.267188)"/>
     <use xlink:href="#STIXGeneral-Regular-61" transform="translate(221.465103 0.267188)"/>
     <use xlink:href="#STIXGeneral-Regular-74" transform="translate(265.865097 0.267188)"/>
     <use xlink:href="#STIXGeneral-Regular-65" transform="translate(293.665085 0.267188)"/>
     <use xlink:href="#STIXGeneral-Regular-2c" transform="translate(338.065079 0.267188)"/>
     <use xlink:href="#STIXGeneral-Regular-20" transform="translate(363.065063 0.267188)"/>
     <use xlink:href="#STIXGeneral-Italic-3d5" transform="translate(388.065048 0.267188)"/>
     <use xlink:href="#STIXGeneral-Regular-65" transform="translate(450.765045 -12.960938) scale(0.7)"/>
     <use xlink:href="#STIXGeneral-Regular-6e" transform="translate(481.845041 -12.960938) scale(0.7)"/>
     <use xlink:href="#STIXGeneral-Regular-74" transform="translate(516.84503 -12.960938) scale(0.7)"/>
     <use xlink:href="#STIXGeneral-Regular-3d" transform="translate(555.154393 0.267188)"/>
     <use xlink:href="#STIXGeneral-Italic-3c0" transform="translate(638.094374 0.267188)"/>
    </g>
   </g>
   <g id="legend_1">
    <g id="line2d_109">
     <path d="M 52.736757 147.305676 
L 56.686757 147.305676 
L 60.636757 147.305676 
" style="fill: none; stroke: #3f7fbe; stroke-width: 1.45; stroke-linecap: square"/>
    </g>
    <g id="line2d_110">
     <path d="M 66.166757 147.305676 
L 70.116757 147.305676 
L 74.066757 147.305676 
" style="fill: none; stroke-dasharray: 0.6525,3.48; stroke-dashoffset: 0; stroke: #4fa66b; stroke-width: 1.45; stroke-linecap: round"/>
    </g>
    <g id="text_19">
     <!-- Quasistatic -->
     <g transform="translate(80.386757 150.070676) scale(0.079 -0.079)">
      <defs>
       <path id="STIXGeneral-Regular-51" d="M 4486 -1133 
L 4179 -1133 
Q 2586 -1133 1958 -339 
L 1696 -6 
Q 1312 128 1097 265 
Q 883 403 704 640 
Q 218 1286 218 2125 
Q 218 3123 806 3724 
Q 1395 4326 2310 4326 
Q 3232 4326 3817 3721 
Q 4403 3117 4403 2131 
Q 4403 1568 4236 1158 
Q 4070 749 3712 410 
Q 3514 211 3293 115 
Q 3072 19 2726 -45 
Q 3066 -531 3491 -758 
Q 3917 -986 4486 -1018 
L 4486 -1133 
z
M 3674 2163 
Q 3674 2714 3520 3146 
Q 3366 3578 3091 3808 
Q 2746 4096 2291 4096 
Q 1741 4096 1370 3642 
Q 1178 3418 1062 3008 
Q 947 2598 947 2144 
Q 947 1158 1318 640 
Q 1472 416 1750 278 
Q 2029 141 2310 141 
Q 2867 141 3264 602 
Q 3456 819 3565 1248 
Q 3674 1677 3674 2163 
z
" transform="scale(0.015625)"/>
       <path id="STIXGeneral-Regular-75" d="M 3072 320 
L 3072 230 
Q 2573 96 2195 -58 
L 2163 -38 
L 2163 486 
L 2150 486 
Q 1747 -64 1235 -64 
Q 870 -64 662 160 
Q 454 384 454 755 
L 454 2362 
Q 454 2598 371 2688 
Q 288 2778 58 2790 
L 58 2880 
L 992 2880 
L 992 813 
Q 992 595 1123 451 
Q 1254 307 1446 307 
Q 1760 307 1984 506 
Q 2067 582 2099 649 
Q 2131 717 2131 877 
L 2131 2355 
Q 2131 2605 2041 2678 
Q 1952 2752 1658 2771 
L 1658 2880 
L 2669 2880 
L 2669 685 
Q 2669 461 2742 390 
Q 2816 320 3034 320 
L 3072 320 
z
" transform="scale(0.015625)"/>
       <path id="STIXGeneral-Regular-63" d="M 2547 998 
L 2637 941 
Q 2362 403 2112 205 
Q 1786 -64 1376 -64 
Q 845 -64 502 336 
Q 160 736 160 1357 
Q 160 2170 698 2618 
Q 1094 2944 1562 2944 
Q 1965 2944 2256 2749 
Q 2547 2554 2547 2285 
Q 2547 2176 2457 2096 
Q 2368 2016 2246 2016 
Q 2022 2016 1939 2310 
L 1901 2451 
Q 1850 2630 1773 2694 
Q 1696 2758 1523 2758 
Q 1133 2758 893 2451 
Q 653 2144 653 1645 
Q 653 1094 928 745 
Q 1203 397 1645 397 
Q 1920 397 2118 528 
Q 2317 659 2547 998 
z
" transform="scale(0.015625)"/>
      </defs>
      <use xlink:href="#STIXGeneral-Regular-51"/>
      <use xlink:href="#STIXGeneral-Regular-75" transform="translate(72.199982 0)"/>
      <use xlink:href="#STIXGeneral-Regular-61" transform="translate(122.199966 0)"/>
      <use xlink:href="#STIXGeneral-Regular-73" transform="translate(166.59996 0)"/>
      <use xlink:href="#STIXGeneral-Regular-69" transform="translate(205.499954 0)"/>
      <use xlink:href="#STIXGeneral-Regular-73" transform="translate(233.299942 0)"/>
      <use xlink:href="#STIXGeneral-Regular-74" transform="translate(272.199936 0)"/>
      <use xlink:href="#STIXGeneral-Regular-61" transform="translate(299.999924 0)"/>
      <use xlink:href="#STIXGeneral-Regular-74" transform="translate(344.399918 0)"/>
      <use xlink:href="#STIXGeneral-Regular-69" transform="translate(372.199905 0)"/>
      <use xlink:href="#STIXGeneral-Regular-63" transform="translate(399.999893 0)"/>
     </g>
    </g>
    <g id="line2d_111">
     <path d="M 52.736757 158.500223 
L 56.686757 158.500223 
L 60.636757 158.500223 
" style="fill: none; stroke: #d65a4a; stroke-width: 1.45; stroke-linecap: square"/>
    </g>
    <g id="line2d_112">
     <path d="M 66.166757 158.500223 
L 70.116757 158.500223 
L 74.066757 158.500223 
" style="fill: none; stroke-dasharray: 0.6525,3.48; stroke-dashoffset: 0; stroke: #e39a3b; stroke-width: 1.45; stroke-linecap: round"/>
    </g>
    <g id="text_20">
     <!-- $1/f$ -->
     <g transform="translate(80.386757 161.265223) scale(0.079 -0.079)">
      <defs>
       <path id="STIXGeneral-Italic-66" d="M 262 2739 
L 858 2739 
Q 1107 3546 1318 3846 
Q 1664 4339 2163 4339 
Q 2400 4339 2557 4227 
Q 2714 4115 2714 3942 
Q 2714 3834 2634 3750 
Q 2554 3667 2445 3667 
Q 2355 3667 2281 3737 
Q 2208 3808 2208 3917 
Q 2208 3981 2240 4038 
Q 2272 4096 2272 4115 
Q 2272 4198 2131 4198 
Q 1862 4198 1676 3849 
Q 1491 3501 1350 2739 
L 2035 2739 
L 1997 2534 
L 1306 2534 
L 845 486 
Q 435 -1325 -435 -1325 
Q -653 -1325 -797 -1213 
Q -941 -1101 -941 -934 
Q -941 -826 -870 -746 
Q -800 -666 -698 -666 
Q -589 -666 -521 -733 
Q -454 -800 -454 -902 
Q -454 -947 -483 -1001 
Q -512 -1056 -512 -1088 
Q -512 -1190 -384 -1190 
Q 13 -1190 237 -154 
L 800 2534 
L 218 2534 
L 262 2739 
z
" transform="scale(0.015625)"/>
      </defs>
      <use xlink:href="#STIXGeneral-Regular-31" transform="translate(0 0.203125)"/>
      <use xlink:href="#STIXGeneral-Regular-2f" transform="translate(49.999985 0.203125)"/>
      <use xlink:href="#STIXGeneral-Italic-66" transform="translate(77.799973 0.203125)"/>
     </g>
    </g>
   </g>
   <g id="legend_2">
    <g id="line2d_113">
     <path d="M 172.34228 147.290864 
L 183.00728 147.290864 
L 193.67228 147.290864 
" style="fill: none; stroke: #000000; stroke-width: 1.45; stroke-linecap: square"/>
    </g>
    <g id="text_21">
     <!-- Infidelity -->
     <g transform="translate(199.99228 150.055864) scale(0.079 -0.079)">
      <use xlink:href="#STIXGeneral-Regular-49"/>
      <use xlink:href="#STIXGeneral-Regular-6e" transform="translate(33.299988 0)"/>
      <use xlink:href="#STIXGeneral-Regular-66" transform="translate(83.299973 0)"/>
      <use xlink:href="#STIXGeneral-Regular-69" transform="translate(116.59996 0)"/>
      <use xlink:href="#STIXGeneral-Regular-64" transform="translate(144.399948 0)"/>
      <use xlink:href="#STIXGeneral-Regular-65" transform="translate(194.399933 0)"/>
      <use xlink:href="#STIXGeneral-Regular-6c" transform="translate(238.799927 0)"/>
      <use xlink:href="#STIXGeneral-Regular-69" transform="translate(266.599915 0)"/>
      <use xlink:href="#STIXGeneral-Regular-74" transform="translate(294.399902 0)"/>
      <use xlink:href="#STIXGeneral-Regular-79" transform="translate(322.19989 0)"/>
     </g>
    </g>
    <g id="line2d_114">
     <path d="M 172.34228 158.492817 
L 183.00728 158.492817 
L 193.67228 158.492817 
" style="fill: none; stroke-dasharray: 0.6525,3.48; stroke-dashoffset: 0; stroke: #000000; stroke-width: 1.45; stroke-linecap: round"/>
    </g>
    <g id="text_22">
     <!-- Leakage -->
     <g transform="translate(199.99228 161.257817) scale(0.079 -0.079)">
      <defs>
       <path id="STIXGeneral-Regular-4c" d="M 3827 1114 
L 3520 0 
L 77 0 
L 77 122 
Q 429 141 531 256 
Q 634 371 634 736 
L 634 3494 
Q 634 3872 541 3981 
Q 448 4090 77 4115 
L 77 4237 
L 1888 4237 
L 1888 4115 
Q 1498 4090 1392 3984 
Q 1286 3878 1286 3507 
L 1286 538 
Q 1286 358 1398 304 
Q 1510 250 1862 250 
L 2310 250 
Q 3085 250 3392 640 
Q 3520 813 3661 1114 
L 3827 1114 
z
" transform="scale(0.015625)"/>
      </defs>
      <use xlink:href="#STIXGeneral-Regular-4c"/>
      <use xlink:href="#STIXGeneral-Regular-65" transform="translate(61.099991 0)"/>
      <use xlink:href="#STIXGeneral-Regular-61" transform="translate(105.499985 0)"/>
      <use xlink:href="#STIXGeneral-Regular-6b" transform="translate(149.899979 0)"/>
      <use xlink:href="#STIXGeneral-Regular-61" transform="translate(199.899963 0)"/>
      <use xlink:href="#STIXGeneral-Regular-67" transform="translate(244.299957 0)"/>
      <use xlink:href="#STIXGeneral-Regular-65" transform="translate(294.299942 0)"/>
     </g>
    </g>
   </g>
  </g>
 </g>
 <defs>
  <clipPath id="p511ce28f78">
   <rect x="41.650125" y="46.626063" width="198.8316" height="125.983375"/>
  </clipPath>
 </defs>
</svg>
