<?xml version="1.0" encoding="utf-8" standalone="no"?>
<!DOCTYPE svg PUBLIC "-//W3C//DTD SVG 1.1//EN"
  "http://www.w3.org/Graphics/SVG/1.1/DTD/svg11.dtd">
<svg xmlns:xlink="http://www.w3.org/1999/xlink" width="1031.184pt" height="458.271809pt" viewBox="0 0 1031.184 458.271809" xmlns="http://www.w3.org/2000/svg" version="1.1">
 <metadata>
  <rdf:RDF xmlns:dc="http://purl.org/dc/elements/1.1/" xmlns:cc="http://creativecommons.org/ns#" xmlns:rdf="http://www.w3.org/1999/02/22-rdf-syntax-ns#">
   <cc:Work>
    <dc:type rdf:resource="http://purl.org/dc/dcmitype/StillImage"/>
    <dc:date>2026-04-27T17:41:38.739268</dc:date>
    <dc:format>image/svg+xml</dc:format>
    <dc:creator>
     <cc:Agent>
      <dc:title>Matplotlib v3.10.3, https://matplotlib.org/</dc:title>
     </cc:Agent>
    </dc:creator>
   </cc:Work>
  </rdf:RDF>
 </metadata>
 <defs>
  <style type="text/css">*{stroke-linejoin: round; stroke-linecap: butt}</style>
 </defs>
 <g id="figure_1">
  <g id="patch_1">
   <path d="M 0 458.271809 
L 1031.184 458.271809 
L 1031.184 0 
L 0 0 
L 0 458.271809 
z
" style="fill: none"/>
  </g>
  <g id="axes_1">
   <g id="line2d_1">
    <path d="M 85.204837 122.20964 
L 89.004465 130.151911 
L 92.170822 136.297541 
L 95.337178 142.013237 
L 98.503535 147.298999 
L 101.669892 152.154826 
L 104.836248 156.580719 
L 108.002605 160.576676 
L 110.53569 163.46389 
L 113.068775 166.075945 
L 115.60186 168.412842 
L 118.134946 170.474581 
L 120.668031 172.261162 
L 123.201116 173.772585 
L 125.734201 175.00885 
L 128.267287 175.969956 
L 130.800372 176.655905 
L 133.333457 177.066695 
L 135.866542 177.202327 
L 138.399628 177.062801 
L 140.932713 176.648117 
L 143.465798 175.958275 
L 145.998883 174.993275 
L 148.531969 173.753116 
L 151.065054 172.2378 
L 153.598139 170.447325 
L 156.131224 168.381692 
L 158.66431 166.040902 
L 161.197395 163.424953 
L 163.73048 160.533848 
L 166.896837 156.533033 
L 170.063193 152.102326 
L 173.22955 147.241911 
L 176.395906 141.952752 
L 179.562263 136.239909 
L 183.361891 128.867817 
L 188.428061 118.870417 
L 189.694604 116.79049 
L 190.961147 115.228263 
L 191.594418 114.71993 
L 192.227689 114.429625 
L 192.86096 114.373429 
L 193.494232 114.554572 
L 194.127503 114.962777 
L 194.760774 115.576325 
L 196.027317 117.299734 
L 197.29386 119.476722 
L 199.826945 124.433703 
L 204.893115 134.480224 
L 208.059472 140.314756 
L 211.225828 145.729537 
L 214.392185 150.716322 
L 217.558542 155.273542 
L 220.724898 159.400897 
L 223.891255 163.098331 
L 226.42434 165.746728 
L 228.957425 168.119967 
L 231.49051 170.218047 
L 234.023596 172.04097 
L 236.556681 173.588734 
L 239.089766 174.86134 
L 241.622851 175.858789 
L 244.155937 176.581079 
L 246.689022 177.028211 
L 249.222107 177.200185 
L 251.755192 177.097 
L 254.288278 176.718658 
L 256.821363 176.065157 
L 259.354448 175.136499 
L 261.887533 173.932682 
L 264.420619 172.453707 
L 266.953704 170.699574 
L 269.486789 168.670283 
L 272.019874 166.365834 
L 274.55296 163.786227 
L 277.086045 160.931462 
L 280.252401 156.976073 
L 283.418758 152.590785 
L 286.585115 147.775752 
L 289.751471 142.531784 
L 292.917828 136.863127 
L 296.717456 129.535915 
L 302.416897 118.346022 
L 303.68344 116.366035 
L 304.949983 114.962777 
L 305.583254 114.554572 
L 306.216525 114.373429 
L 306.849797 114.429625 
L 307.483068 114.71993 
L 308.116339 115.228263 
L 309.382882 116.79049 
L 310.649424 118.870417 
L 312.549238 122.492124 
L 319.515223 136.239909 
L 322.681579 141.952752 
L 325.847936 147.241911 
L 329.014293 152.102326 
L 332.180649 156.533033 
L 335.347006 160.533848 
L 338.513362 164.104736 
L 341.046447 166.651895 
L 343.579533 168.923897 
L 346.112618 170.92074 
L 348.645703 172.642425 
L 351.178788 174.088952 
L 353.711874 175.260321 
L 356.244959 176.156532 
L 358.778044 176.777584 
L 361.311129 177.123479 
L 363.844215 177.194215 
L 366.3773 176.989794 
L 368.910385 176.510214 
L 371.44347 175.755476 
L 373.976556 174.72558 
L 376.509641 173.420526 
L 379.042726 171.840313 
L 381.575811 169.984943 
L 384.108897 167.854414 
L 386.641982 165.448727 
L 389.175067 162.767883 
L 391.708152 159.81188 
L 394.874509 155.729935 
L 398.040866 151.218055 
L 401.207222 146.276241 
L 404.373579 140.904493 
L 407.539935 135.10281 
L 410.706292 128.871192 
L 413.872648 122.20964 
L 413.872648 122.20964 
" clip-path="url(#pfbc08df550)" style="fill: none; stroke: #6b5b95; stroke-width: 4.6; stroke-linecap: square"/>
   </g>
   <g id="patch_2">
    <path d="M 135.84862 128.108872 
C 142.975213 128.108872 149.810879 125.277446 154.850142 120.238184 
C 159.889405 115.198921 162.720831 108.363255 162.720831 101.236661 
C 162.720831 94.110067 159.889405 87.274401 154.850142 82.235138 
C 149.810879 77.195876 142.975213 74.36445 135.84862 74.36445 
C 128.722026 74.36445 121.88636 77.195876 116.847097 82.235138 
C 111.807834 87.274401 108.976409 94.110067 108.976409 101.236661 
C 108.976409 108.363255 111.807834 115.198921 116.847097 120.238184 
C 121.88636 125.277446 128.722026 128.108872 135.84862 128.108872 
z
" clip-path="url(#pfbc08df550)" style="fill: #c8ddf4; opacity: 0.92; stroke: #99b9d8; stroke-width: 0.9; stroke-linejoin: miter"/>
   </g>
   <g id="patch_3">
    <path d="M 138.949259 120.357273 
C 143.197806 120.357273 147.272914 118.669307 150.27709 115.665131 
C 153.281266 112.660956 154.969231 108.585847 154.969231 104.337301 
C 154.969231 100.088754 153.281266 96.013646 150.27709 93.00947 
C 147.272914 90.005294 143.197806 88.317329 138.949259 88.317329 
C 134.700713 88.317329 130.625604 90.005294 127.621429 93.00947 
C 124.617253 96.013646 122.929287 100.088754 122.929287 104.337301 
C 122.929287 108.585847 124.617253 112.660956 127.621429 115.665131 
C 130.625604 118.669307 134.700713 120.357273 138.949259 120.357273 
z
" clip-path="url(#pfbc08df550)" style="fill: #9fc3e6; opacity: 0.28"/>
   </g>
   <g id="patch_4">
    <path d="M 249.538743 128.108872 
C 256.665337 128.108872 263.501003 125.277446 268.540265 120.238184 
C 273.579528 115.198921 276.410954 108.363255 276.410954 101.236661 
C 276.410954 94.110067 273.579528 87.274401 268.540265 82.235138 
C 263.501003 77.195876 256.665337 74.36445 249.538743 74.36445 
C 242.412149 74.36445 235.576483 77.195876 230.53722 82.235138 
C 225.497958 87.274401 222.666532 94.110067 222.666532 101.236661 
C 222.666532 108.363255 225.497958 115.198921 230.53722 120.238184 
C 235.576483 125.277446 242.412149 128.108872 249.538743 128.108872 
z
" clip-path="url(#pfbc08df550)" style="fill: #c8ddf4; opacity: 0.92; stroke: #99b9d8; stroke-width: 0.9; stroke-linejoin: miter"/>
   </g>
   <g id="patch_5">
    <path d="M 252.639383 120.357273 
C 256.887929 120.357273 260.963038 118.669307 263.967213 115.665131 
C 266.971389 112.660956 268.659354 108.585847 268.659354 104.337301 
C 268.659354 100.088754 266.971389 96.013646 263.967213 93.00947 
C 260.963038 90.005294 256.887929 88.317329 252.639383 88.317329 
C 248.390836 88.317329 244.315728 90.005294 241.311552 93.00947 
C 238.307376 96.013646 236.619411 100.088754 236.619411 104.337301 
C 236.619411 108.585847 238.307376 112.660956 241.311552 115.665131 
C 244.315728 118.669307 248.390836 120.357273 252.639383 120.357273 
z
" clip-path="url(#pfbc08df550)" style="fill: #9fc3e6; opacity: 0.28"/>
   </g>
   <g id="patch_6">
    <path d="M 363.228866 128.108872 
C 370.35546 128.108872 377.191126 125.277446 382.230389 120.238184 
C 387.269651 115.198921 390.101077 108.363255 390.101077 101.236661 
C 390.101077 94.110067 387.269651 87.274401 382.230389 82.235138 
C 377.191126 77.195876 370.35546 74.36445 363.228866 74.36445 
C 356.102272 74.36445 349.266606 77.195876 344.227344 82.235138 
C 339.188081 87.274401 336.356655 94.110067 336.356655 101.236661 
C 336.356655 108.363255 339.188081 115.198921 344.227344 120.238184 
C 349.266606 125.277446 356.102272 128.108872 363.228866 128.108872 
z
" clip-path="url(#pfbc08df550)" style="fill: #c8ddf4; opacity: 0.92; stroke: #99b9d8; stroke-width: 0.9; stroke-linejoin: miter"/>
   </g>
   <g id="patch_7">
    <path d="M 366.329506 120.357273 
C 370.578052 120.357273 374.653161 118.669307 377.657337 115.665131 
C 380.661512 112.660956 382.349478 108.585847 382.349478 104.337301 
C 382.349478 100.088754 380.661512 96.013646 377.657337 93.00947 
C 374.653161 90.005294 370.578052 88.317329 366.329506 88.317329 
C 362.08096 88.317329 358.005851 90.005294 355.001675 93.00947 
C 351.997499 96.013646 350.309534 100.088754 350.309534 104.337301 
C 350.309534 108.585847 351.997499 112.660956 355.001675 115.665131 
C 358.005851 118.669307 362.08096 120.357273 366.329506 120.357273 
z
" clip-path="url(#pfbc08df550)" style="fill: #9fc3e6; opacity: 0.28"/>
   </g>
   <g id="text_1">
    <!-- $g_1$ -->
    <g style="fill: #404040" transform="translate(118.278328 58.818831) scale(0.22 -0.22)">
     <defs>
      <path id="STIXGeneral-Italic-67" d="M 3014 2342 
L 2701 2342 
Q 2758 2227 2758 2016 
Q 2758 1613 2390 1289 
Q 2022 966 1574 966 
Q 1459 966 1376 986 
Q 1357 992 1331 992 
Q 1248 992 1174 909 
Q 1101 826 1101 730 
Q 1101 576 1555 461 
Q 2464 243 2464 -352 
Q 2464 -781 2105 -1049 
Q 1747 -1318 1120 -1318 
Q 621 -1318 336 -1142 
Q 51 -966 51 -627 
Q 51 -378 195 -202 
Q 339 -26 800 250 
Q 627 352 627 499 
Q 627 806 1120 1037 
Q 614 1216 614 1728 
Q 614 2202 1004 2512 
Q 1395 2822 1901 2822 
Q 2272 2822 2528 2643 
Q 2598 2592 2630 2592 
L 3014 2592 
L 3014 2342 
z
M 2253 2227 
Q 2253 2477 2166 2579 
Q 2080 2682 1894 2682 
Q 1587 2682 1350 2362 
Q 1114 2042 1114 1581 
Q 1114 1357 1216 1229 
Q 1318 1101 1498 1101 
Q 1818 1101 2042 1478 
Q 2253 1837 2253 2227 
z
M 2080 -576 
Q 2080 -352 1878 -201 
Q 1677 -51 1165 109 
Q 1011 154 947 179 
Q 902 179 752 57 
Q 602 -64 531 -154 
Q 403 -314 403 -525 
Q 403 -1178 1216 -1178 
Q 1594 -1178 1837 -1002 
Q 2080 -826 2080 -576 
z
" transform="scale(0.015625)"/>
      <path id="STIXGeneral-Regular-31" d="M 2522 0 
L 755 0 
L 755 96 
Q 1107 115 1235 227 
Q 1363 339 1363 608 
L 1363 3482 
Q 1363 3795 1171 3795 
Q 1082 3795 883 3718 
L 710 3654 
L 710 3744 
L 1856 4326 
L 1914 4307 
L 1914 486 
Q 1914 275 2042 185 
Q 2170 96 2522 96 
L 2522 0 
z
" transform="scale(0.015625)"/>
     </defs>
     <use xlink:href="#STIXGeneral-Italic-67" transform="translate(0 0.90625)"/>
     <use xlink:href="#STIXGeneral-Regular-31" transform="translate(49.999985 -12.321875) scale(0.7)"/>
    </g>
   </g>
   <g id="text_2">
    <!-- $g_2$ -->
    <g style="fill: #404040" transform="translate(231.968451 58.818831) scale(0.22 -0.22)">
     <defs>
      <path id="STIXGeneral-Regular-32" d="M 3034 877 
L 2688 0 
L 186 0 
L 186 77 
L 1325 1286 
Q 1773 1754 1965 2144 
Q 2157 2534 2157 2950 
Q 2157 3379 1920 3616 
Q 1683 3853 1267 3853 
Q 922 3853 720 3673 
Q 518 3494 326 3021 
L 192 3053 
Q 301 3648 630 3987 
Q 960 4326 1523 4326 
Q 2054 4326 2380 4006 
Q 2707 3686 2707 3200 
Q 2707 2477 1888 1613 
L 832 486 
L 2330 486 
Q 2541 486 2665 569 
Q 2790 653 2944 915 
L 3034 877 
z
" transform="scale(0.015625)"/>
     </defs>
     <use xlink:href="#STIXGeneral-Italic-67" transform="translate(0 0.90625)"/>
     <use xlink:href="#STIXGeneral-Regular-32" transform="translate(49.999985 -12.321875) scale(0.7)"/>
    </g>
   </g>
   <g id="text_3">
    <!-- $g_3$ -->
    <g style="fill: #404040" transform="translate(345.658574 58.818831) scale(0.22 -0.22)">
     <defs>
      <path id="STIXGeneral-Regular-33" d="M 390 3264 
L 288 3290 
Q 435 3770 748 4048 
Q 1062 4326 1542 4326 
Q 1990 4326 2265 4083 
Q 2541 3840 2541 3450 
Q 2541 2925 1946 2566 
Q 2298 2413 2477 2227 
Q 2758 1914 2758 1402 
Q 2758 890 2464 506 
Q 2246 211 1840 60 
Q 1434 -90 979 -90 
Q 262 -90 262 275 
Q 262 378 339 442 
Q 416 506 525 506 
Q 685 506 915 339 
Q 1197 141 1466 141 
Q 1818 141 2058 425 
Q 2298 710 2298 1120 
Q 2298 1856 1632 2048 
Q 1434 2112 979 2112 
L 979 2202 
Q 1338 2323 1517 2432 
Q 2035 2726 2035 3290 
Q 2035 3610 1852 3776 
Q 1670 3942 1344 3942 
Q 768 3942 390 3264 
z
" transform="scale(0.015625)"/>
     </defs>
     <use xlink:href="#STIXGeneral-Italic-67" transform="translate(0 0.90625)"/>
     <use xlink:href="#STIXGeneral-Regular-33" transform="translate(49.999985 -12.321875) scale(0.7)"/>
    </g>
   </g>
   <g id="text_4">
    <!-- $J_{12}$ -->
    <g style="fill: #6b5b95" transform="translate(179.603681 83.025868) scale(0.22 -0.22)">
     <defs>
      <path id="STIXGeneral-Italic-4a" d="M 3142 4179 
L 3142 4077 
Q 2867 4038 2784 3964 
Q 2701 3891 2618 3603 
L 1958 1254 
Q 1773 589 1504 237 
Q 1235 -115 710 -115 
Q 371 -115 166 38 
Q -38 192 -38 448 
Q -38 602 42 704 
Q 122 806 250 806 
Q 378 806 477 720 
Q 576 634 576 512 
Q 576 474 566 419 
Q 557 365 557 339 
Q 557 90 781 90 
Q 1005 90 1120 499 
L 1933 3405 
Q 2010 3686 2010 3814 
Q 2010 3942 1914 3996 
Q 1818 4051 1517 4077 
L 1517 4179 
L 3142 4179 
z
" transform="scale(0.015625)"/>
     </defs>
     <use xlink:href="#STIXGeneral-Italic-4a" transform="translate(0 0.703125)"/>
     <use xlink:href="#STIXGeneral-Regular-31" transform="translate(44.399994 -12.525) scale(0.7)"/>
     <use xlink:href="#STIXGeneral-Regular-32" transform="translate(79.399983 -12.525) scale(0.7)"/>
    </g>
   </g>
   <g id="text_5">
    <!-- $J_{23}$ -->
    <g style="fill: #6b5b95" transform="translate(293.293804 83.025868) scale(0.22 -0.22)">
     <use xlink:href="#STIXGeneral-Italic-4a" transform="translate(0 0.703125)"/>
     <use xlink:href="#STIXGeneral-Regular-32" transform="translate(44.399994 -12.525) scale(0.7)"/>
     <use xlink:href="#STIXGeneral-Regular-33" transform="translate(79.399983 -12.525) scale(0.7)"/>
    </g>
   </g>
   <g id="patch_8">
    <path d="M 129.64734 102.786981 
C 131.703088 102.786981 133.674915 101.970223 135.128549 100.51659 
C 136.582182 99.062956 137.398939 97.09113 137.398939 95.035381 
C 137.398939 92.979633 136.582182 91.007807 135.128549 89.554173 
C 133.674915 88.10054 131.703088 87.283782 129.64734 87.283782 
C 127.591592 87.283782 125.619765 88.10054 124.166132 89.554173 
C 122.712498 91.007807 121.895741 92.979633 121.895741 95.035381 
C 121.895741 97.09113 122.712498 99.062956 124.166132 100.51659 
C 125.619765 101.970223 127.591592 102.786981 129.64734 102.786981 
z
" clip-path="url(#pfbc08df550)" style="fill: #ffffff; opacity: 0.62"/>
   </g>
   <g id="patch_9">
    <path d="M 243.337463 102.786981 
C 245.393212 102.786981 247.365038 101.970223 248.818672 100.51659 
C 250.272305 99.062956 251.089063 97.09113 251.089063 95.035381 
C 251.089063 92.979633 250.272305 91.007807 248.818672 89.554173 
C 247.365038 88.10054 245.393212 87.283782 243.337463 87.283782 
C 241.281715 87.283782 239.309888 88.10054 237.856255 89.554173 
C 236.402621 91.007807 235.585864 92.979633 235.585864 95.035381 
C 235.585864 97.09113 236.402621 99.062956 237.856255 100.51659 
C 239.309888 101.970223 241.281715 102.786981 243.337463 102.786981 
z
" clip-path="url(#pfbc08df550)" style="fill: #ffffff; opacity: 0.62"/>
   </g>
   <g id="patch_10">
    <path d="M 357.027587 102.786981 
C 359.083335 102.786981 361.055162 101.970223 362.508795 100.51659 
C 363.962429 99.062956 364.779186 97.09113 364.779186 95.035381 
C 364.779186 92.979633 363.962429 91.007807 362.508795 89.554173 
C 361.055162 88.10054 359.083335 87.283782 357.027587 87.283782 
C 354.971839 87.283782 353.000012 88.10054 351.546378 89.554173 
C 350.092745 91.007807 349.275987 92.979633 349.275987 95.035381 
C 349.275987 97.09113 350.092745 99.062956 351.546378 100.51659 
C 353.000012 101.970223 354.971839 102.786981 357.027587 102.786981 
z
" clip-path="url(#pfbc08df550)" style="fill: #ffffff; opacity: 0.62"/>
   </g>
   <g id="patch_11">
    <path d="M 162.477085 123.38917 
Q 192.693522 81.372683 222.909945 123.388738 
" style="fill: none; stroke: #6b5b95; stroke-width: 3.4; stroke-linecap: round"/>
    <path d="M 173.562656 117.565932 
L 162.477085 123.38917 
L 164.469837 111.02677 
" style="fill: none; stroke: #6b5b95; stroke-width: 3.4; stroke-linecap: round"/>
    <path d="M 220.917136 111.026348 
L 222.909945 123.388738 
L 211.824347 117.565552 
" style="fill: none; stroke: #6b5b95; stroke-width: 3.4; stroke-linecap: round"/>
   </g>
   <g id="patch_12">
    <path d="M 276.167208 123.38917 
Q 306.383646 81.372683 336.600068 123.388738 
" style="fill: none; stroke: #6b5b95; stroke-width: 3.4; stroke-linecap: round"/>
    <path d="M 287.25278 117.565932 
L 276.167208 123.38917 
L 278.15996 111.02677 
" style="fill: none; stroke: #6b5b95; stroke-width: 3.4; stroke-linecap: round"/>
    <path d="M 334.607259 111.026348 
L 336.600068 123.388738 
L 325.51447 117.565552 
" style="fill: none; stroke: #6b5b95; stroke-width: 3.4; stroke-linecap: round"/>
   </g>
   <g id="patch_13">
    <path d="M 142.274316 57.739641 
Q 135.848648 101.23647 130.109222 140.08797 
" clip-path="url(#pfbc08df550)" style="fill: none; stroke: #b24a3a; stroke-width: 4.2; stroke-linecap: round"/>
    <path d="M 136.260643 131.292516 
L 130.109222 140.08797 
L 126.763712 129.889561 
z
" clip-path="url(#pfbc08df550)" style="fill: #b24a3a; stroke: #b24a3a; stroke-width: 4.2; stroke-linecap: round"/>
   </g>
   <g id="patch_14">
    <path d="M 255.97674 55.67545 
Q 249.538635 101.237427 243.757531 142.14985 
" clip-path="url(#pfbc08df550)" style="fill: none; stroke: #4f7f48; stroke-width: 4.2; stroke-linecap: round"/>
    <path d="M 249.853495 133.315869 
L 243.757531 142.14985 
L 240.347924 131.97269 
z
" clip-path="url(#pfbc08df550)" style="fill: #4f7f48; stroke: #4f7f48; stroke-width: 4.2; stroke-linecap: round"/>
   </g>
   <g id="patch_15">
    <path d="M 356.856065 137.512607 
Q 363.228508 101.2387 368.788465 69.589712 
" clip-path="url(#pfbc08df550)" style="fill: none; stroke: #355e8d; stroke-width: 4.2; stroke-linecap: round"/>
    <path d="M 362.399813 78.214393 
L 368.788465 69.589712 
L 371.855018 79.875443 
z
" clip-path="url(#pfbc08df550)" style="fill: #355e8d; stroke: #355e8d; stroke-width: 4.2; stroke-linecap: round"/>
   </g>
  </g>
  <g id="axes_2">
   <g id="patch_16">
    <path d="M 710.116084 212.342918 
L 885.819002 212.342918 
L 885.819002 36.64 
L 710.116084 36.64 
L 710.116084 212.342918 
z
" style="fill: none"/>
   </g>
   <g id="matplotlib.axis_1">
    <g id="xtick_1">
     <g id="line2d_2">
      <defs>
       <path id="md77cf9bbb5" d="M 0 0 
L 0 -3.5 
" style="stroke: #000000; stroke-width: 0.8"/>
      </defs>
      <g>
       <use xlink:href="#md77cf9bbb5" x="710.116084" y="212.342918" style="stroke: #000000; stroke-width: 0.8"/>
      </g>
     </g>
     <g id="line2d_3">
      <defs>
       <path id="m9635000c36" d="M 0 0 
L 0 3.5 
" style="stroke: #000000; stroke-width: 0.8"/>
      </defs>
      <g>
       <use xlink:href="#m9635000c36" x="710.116084" y="36.64" style="stroke: #000000; stroke-width: 0.8"/>
      </g>
     </g>
     <g id="text_6">
      <!-- 0 -->
      <g transform="translate(704.616084 230.86823) scale(0.22 -0.22)">
       <defs>
        <path id="STIXGeneral-Regular-30" d="M 3046 2112 
Q 3046 1683 2963 1302 
Q 2880 922 2717 602 
Q 2554 282 2266 96 
Q 1978 -90 1600 -90 
Q 1210 -90 915 108 
Q 621 307 461 640 
Q 301 973 227 1350 
Q 154 1728 154 2150 
Q 154 2746 301 3222 
Q 448 3699 790 4012 
Q 1133 4326 1626 4326 
Q 2253 4326 2649 3712 
Q 3046 3098 3046 2112 
z
M 2432 2080 
Q 2432 3091 2217 3625 
Q 2003 4160 1587 4160 
Q 1190 4160 979 3622 
Q 768 3085 768 2106 
Q 768 1120 979 598 
Q 1190 77 1600 77 
Q 2003 77 2217 598 
Q 2432 1120 2432 2080 
z
" transform="scale(0.015625)"/>
       </defs>
       <use xlink:href="#STIXGeneral-Regular-30"/>
      </g>
     </g>
    </g>
    <g id="xtick_2">
     <g id="line2d_4">
      <g>
       <use xlink:href="#md77cf9bbb5" x="815.384717" y="212.342918" style="stroke: #000000; stroke-width: 0.8"/>
      </g>
     </g>
     <g id="line2d_5">
      <g>
       <use xlink:href="#m9635000c36" x="815.384717" y="36.64" style="stroke: #000000; stroke-width: 0.8"/>
      </g>
     </g>
     <g id="text_7">
      <!-- 10 -->
      <g transform="translate(804.384717 230.86823) scale(0.22 -0.22)">
       <use xlink:href="#STIXGeneral-Regular-31"/>
       <use xlink:href="#STIXGeneral-Regular-30" transform="translate(49.999985 0)"/>
      </g>
     </g>
    </g>
    <g id="text_8">
     <!-- $J_{12}$ [MHz] -->
     <g transform="translate(752.207543 254.66823) scale(0.22 -0.22)">
      <defs>
       <path id="STIXGeneral-Regular-20" transform="scale(0.015625)"/>
       <path id="STIXGeneral-Regular-5b" d="M 1914 -998 
L 563 -998 
L 563 4237 
L 1914 4237 
L 1914 4077 
L 1382 4077 
Q 1216 4077 1133 4006 
Q 1050 3936 1050 3770 
L 1050 -493 
Q 1050 -838 1382 -838 
L 1914 -838 
L 1914 -998 
z
" transform="scale(0.015625)"/>
       <path id="STIXGeneral-Regular-4d" d="M 5530 0 
L 3738 0 
L 3738 122 
Q 4115 147 4214 265 
Q 4314 384 4314 787 
L 4314 3661 
L 2682 0 
L 2592 0 
L 979 3514 
L 979 966 
Q 979 448 1088 294 
Q 1197 141 1574 122 
L 1574 0 
L 77 0 
L 77 122 
Q 358 141 480 205 
Q 602 269 650 432 
Q 698 595 698 966 
L 698 3514 
Q 698 3878 589 3984 
Q 480 4090 90 4115 
L 90 4237 
L 1357 4237 
L 2835 1024 
L 4250 4237 
L 5523 4237 
L 5523 4115 
Q 5178 4109 5072 3993 
Q 4966 3878 4966 3520 
L 4966 717 
Q 4966 378 5072 262 
Q 5178 147 5530 122 
L 5530 0 
z
" transform="scale(0.015625)"/>
       <path id="STIXGeneral-Regular-48" d="M 4499 0 
L 2714 0 
L 2714 122 
Q 3085 147 3181 265 
Q 3277 384 3277 794 
L 3277 2016 
L 1338 2016 
L 1338 723 
Q 1338 371 1440 256 
Q 1542 141 1894 122 
L 1901 0 
L 115 0 
L 115 122 
Q 493 147 589 259 
Q 685 371 685 781 
L 685 3507 
Q 685 3878 585 3980 
Q 486 4083 115 4115 
L 115 4237 
L 1907 4237 
L 1907 4115 
Q 1549 4083 1443 3977 
Q 1338 3872 1338 3507 
L 1338 2298 
L 3277 2298 
L 3277 3507 
Q 3277 3878 3177 3980 
Q 3078 4083 2707 4115 
L 2707 4237 
L 4499 4237 
L 4499 4115 
Q 4141 4083 4035 3977 
Q 3930 3872 3930 3507 
L 3930 710 
Q 3930 371 4035 259 
Q 4141 147 4499 122 
L 4499 0 
z
" transform="scale(0.015625)"/>
       <path id="STIXGeneral-Regular-7a" d="M 2675 870 
L 2579 0 
L 173 0 
L 173 96 
L 1875 2688 
L 1011 2688 
Q 710 2688 604 2582 
Q 499 2477 454 2125 
L 339 2125 
L 365 2880 
L 2579 2880 
L 2579 2784 
L 858 192 
L 1709 192 
Q 2246 192 2387 365 
Q 2477 474 2560 896 
L 2675 870 
z
" transform="scale(0.015625)"/>
       <path id="STIXGeneral-Regular-5d" d="M 1568 -998 
L 218 -998 
L 218 -838 
L 781 -838 
Q 947 -838 1014 -768 
Q 1082 -698 1082 -544 
L 1082 3731 
Q 1082 4077 755 4077 
L 218 4077 
L 218 4237 
L 1568 4237 
L 1568 -998 
z
" transform="scale(0.015625)"/>
      </defs>
      <use xlink:href="#STIXGeneral-Italic-4a" transform="translate(0 0.796875)"/>
      <use xlink:href="#STIXGeneral-Regular-31" transform="translate(44.399994 -12.43125) scale(0.7)"/>
      <use xlink:href="#STIXGeneral-Regular-32" transform="translate(79.399983 -12.43125) scale(0.7)"/>
      <use xlink:href="#STIXGeneral-Regular-20" transform="translate(118.809348 0.796875)"/>
      <use xlink:href="#STIXGeneral-Regular-5b" transform="translate(143.809332 0.796875)"/>
      <use xlink:href="#STIXGeneral-Regular-4d" transform="translate(177.10932 0.796875)"/>
      <use xlink:href="#STIXGeneral-Regular-48" transform="translate(266.009314 0.796875)"/>
      <use xlink:href="#STIXGeneral-Regular-7a" transform="translate(338.209296 0.796875)"/>
      <use xlink:href="#STIXGeneral-Regular-5d" transform="translate(382.60929 0.796875)"/>
     </g>
    </g>
   </g>
   <g id="matplotlib.axis_2">
    <g id="ytick_1">
     <g id="line2d_6">
      <defs>
       <path id="m56720aaca4" d="M 0 0 
L 3.5 0 
" style="stroke: #000000; stroke-width: 0.8"/>
      </defs>
      <g>
       <use xlink:href="#m56720aaca4" x="710.116084" y="208.929585" style="stroke: #000000; stroke-width: 0.8"/>
      </g>
     </g>
     <g id="line2d_7">
      <defs>
       <path id="mc1fba9a8f0" d="M 0 0 
L -3.5 0 
" style="stroke: #000000; stroke-width: 0.8"/>
      </defs>
      <g>
       <use xlink:href="#mc1fba9a8f0" x="885.819002" y="208.929585" style="stroke: #000000; stroke-width: 0.8"/>
      </g>
     </g>
     <g id="text_9">
      <!-- 0 -->
      <g transform="translate(695.616084 216.442241) scale(0.22 -0.22)">
       <use xlink:href="#STIXGeneral-Regular-30"/>
      </g>
     </g>
    </g>
    <g id="ytick_2">
     <g id="line2d_8">
      <g>
       <use xlink:href="#m56720aaca4" x="710.116084" y="95.151818" style="stroke: #000000; stroke-width: 0.8"/>
      </g>
     </g>
     <g id="line2d_9">
      <g>
       <use xlink:href="#mc1fba9a8f0" x="885.819002" y="95.151818" style="stroke: #000000; stroke-width: 0.8"/>
      </g>
     </g>
     <g id="text_10">
      <!-- 20 -->
      <g transform="translate(684.616084 102.664474) scale(0.22 -0.22)">
       <use xlink:href="#STIXGeneral-Regular-32"/>
       <use xlink:href="#STIXGeneral-Regular-30" transform="translate(49.999985 0)"/>
      </g>
     </g>
    </g>
    <g id="text_11">
     <!-- $E$ [MHz] -->
     <g transform="translate(675.841396 163.981459) rotate(-90) scale(0.22 -0.22)">
      <defs>
       <path id="STIXGeneral-Italic-45" d="M 4058 4179 
L 3859 3194 
L 3718 3206 
Q 3738 3366 3738 3501 
Q 3738 3789 3501 3878 
Q 3264 3968 2509 3968 
Q 2240 3968 2157 3939 
Q 2074 3910 2042 3802 
L 1619 2310 
L 2118 2310 
Q 2541 2310 2681 2412 
Q 2822 2515 3008 2931 
L 3123 2906 
L 2688 1421 
L 2560 1453 
Q 2605 1651 2605 1786 
Q 2605 1939 2560 1984 
Q 2451 2080 2061 2080 
L 1562 2080 
L 1357 1363 
Q 1126 550 1126 429 
Q 1126 211 1632 211 
Q 2458 211 2931 461 
Q 3174 589 3533 1088 
L 3635 1037 
L 3238 0 
L -6 0 
L -6 102 
Q 269 154 352 227 
Q 435 301 512 576 
L 1299 3405 
Q 1370 3642 1370 3814 
Q 1370 3942 1270 3996 
Q 1171 4051 877 4077 
L 877 4179 
L 4058 4179 
z
" transform="scale(0.015625)"/>
      </defs>
      <use xlink:href="#STIXGeneral-Italic-45" transform="translate(0 0.796875)"/>
      <use xlink:href="#STIXGeneral-Regular-20" transform="translate(61.099991 0.796875)"/>
      <use xlink:href="#STIXGeneral-Regular-5b" transform="translate(86.099976 0.796875)"/>
      <use xlink:href="#STIXGeneral-Regular-4d" transform="translate(119.399963 0.796875)"/>
      <use xlink:href="#STIXGeneral-Regular-48" transform="translate(208.299957 0.796875)"/>
      <use xlink:href="#STIXGeneral-Regular-7a" transform="translate(280.499939 0.796875)"/>
      <use xlink:href="#STIXGeneral-Regular-5d" transform="translate(324.899933 0.796875)"/>
     </g>
    </g>
   </g>
   <g id="line2d_10">
    <path d="M 710.116084 202.755539 
L 813.63644 188.833266 
L 829.833503 192.993331 
L 846.734786 197.566447 
L 864.692398 202.660478 
L 883.706341 208.290276 
L 885.819002 208.929585 
L 885.819002 208.929585 
" clip-path="url(#p989028491a)" style="fill: none; stroke: #4f7f48; stroke-width: 4.6; stroke-linecap: square"/>
   </g>
   <g id="line2d_11">
    <path d="M 710.116084 168.622209 
L 723.496266 170.539241 
L 737.228558 172.732789 
L 750.96085 175.151531 
L 765.045253 177.859728 
L 779.481765 180.865395 
L 794.270387 184.173576 
L 809.41112 187.786386 
L 813.63644 188.769518 
L 885.819002 179.01736 
L 885.819002 179.01736 
" clip-path="url(#p989028491a)" style="fill: none; stroke: #6b5b95; stroke-width: 4.6; stroke-linecap: square"/>
   </g>
   <g id="line2d_12">
    <path d="M 710.116084 49.155554 
L 723.496266 50.853957 
L 737.228558 52.370986 
L 750.96085 53.662821 
L 765.045253 54.760345 
L 779.129655 55.636388 
L 793.918277 56.329582 
L 809.05901 56.81306 
L 824.903962 57.091166 
L 841.453135 57.152891 
L 858.706527 56.990999 
L 877.01625 56.592062 
L 885.819002 56.324538 
L 885.819002 56.324538 
" clip-path="url(#p989028491a)" style="fill: none; stroke: #d65a4a; stroke-width: 4.6; stroke-linecap: square"/>
   </g>
   <g id="patch_17">
    <path d="M 710.116084 212.342918 
L 710.116084 36.64 
" style="fill: none; stroke: #000000; stroke-width: 0.9; stroke-linejoin: miter; stroke-linecap: square"/>
   </g>
   <g id="patch_18">
    <path d="M 885.819002 212.342918 
L 885.819002 36.64 
" style="fill: none; stroke: #000000; stroke-width: 0.9; stroke-linejoin: miter; stroke-linecap: square"/>
   </g>
   <g id="patch_19">
    <path d="M 710.116084 212.342918 
L 885.819002 212.342918 
" style="fill: none; stroke: #000000; stroke-width: 0.9; stroke-linejoin: miter; stroke-linecap: square"/>
   </g>
   <g id="patch_20">
    <path d="M 710.116084 36.64 
L 885.819002 36.64 
" style="fill: none; stroke: #000000; stroke-width: 0.9; stroke-linejoin: miter; stroke-linecap: square"/>
   </g>
   <g id="patch_21">
    <path d="M 822.958575 181.22738 
Q 818.996432 184.386347 815.034288 187.545315 
" style="fill: none; stroke: #404040; stroke-width: 0.8; stroke-linecap: round"/>
   </g>
   <g id="text_12">
    <!-- idle -->
    <g transform="translate(822.944918 173.208336) scale(0.22 -0.22)">
     <defs>
      <path id="STIXGeneral-Regular-69" d="M 1152 4045 
Q 1152 3904 1056 3811 
Q 960 3718 819 3718 
Q 685 3718 592 3811 
Q 499 3904 499 4045 
Q 499 4179 595 4275 
Q 691 4371 826 4371 
Q 966 4371 1059 4275 
Q 1152 4179 1152 4045 
z
M 1619 0 
L 102 0 
L 102 96 
Q 435 115 521 211 
Q 608 307 608 666 
L 608 2118 
Q 608 2342 563 2432 
Q 518 2522 397 2522 
Q 243 2522 128 2490 
L 128 2592 
L 1120 2944 
L 1146 2918 
L 1146 672 
Q 1146 314 1226 218 
Q 1306 122 1619 96 
L 1619 0 
z
" transform="scale(0.015625)"/>
      <path id="STIXGeneral-Regular-64" d="M 3142 269 
L 2202 -64 
L 2176 -45 
L 2176 365 
Q 1869 -64 1357 -64 
Q 826 -64 499 317 
Q 173 698 173 1312 
Q 173 1990 563 2467 
Q 954 2944 1504 2944 
Q 1850 2944 2176 2669 
L 2176 3667 
Q 2176 3866 2118 3930 
Q 2061 3994 1882 3994 
Q 1792 3994 1741 3987 
L 1741 4090 
Q 2323 4243 2682 4371 
L 2714 4358 
L 2714 730 
Q 2714 506 2768 435 
Q 2822 365 2995 365 
Q 3034 365 3142 371 
L 3142 269 
z
M 2176 653 
L 2176 2125 
Q 2176 2381 1981 2573 
Q 1786 2765 1523 2765 
Q 1158 2765 940 2438 
Q 723 2112 723 1568 
Q 723 979 963 624 
Q 1203 269 1606 269 
Q 1907 269 2080 474 
Q 2176 582 2176 653 
z
" transform="scale(0.015625)"/>
      <path id="STIXGeneral-Regular-6c" d="M 1645 0 
L 134 0 
L 134 96 
Q 435 122 531 221 
Q 627 320 627 589 
L 627 3590 
Q 627 3821 569 3910 
Q 512 4000 358 4000 
Q 224 4000 122 3987 
L 122 4090 
Q 730 4237 1133 4371 
L 1165 4346 
L 1165 557 
Q 1165 288 1254 201 
Q 1344 115 1645 96 
L 1645 0 
z
" transform="scale(0.015625)"/>
      <path id="STIXGeneral-Regular-65" d="M 2611 1050 
L 2714 1005 
Q 2330 -64 1376 -64 
Q 813 -64 486 329 
Q 160 723 160 1389 
Q 160 2074 525 2509 
Q 890 2944 1485 2944 
Q 2061 2944 2374 2502 
Q 2560 2246 2592 1773 
L 621 1773 
Q 646 1370 700 1158 
Q 755 947 915 730 
Q 1184 378 1626 378 
Q 1939 378 2153 531 
Q 2368 685 2611 1050 
z
M 634 1978 
L 1939 1978 
Q 1882 2381 1750 2547 
Q 1619 2714 1312 2714 
Q 1043 2714 864 2525 
Q 685 2336 634 1978 
z
" transform="scale(0.015625)"/>
     </defs>
     <use xlink:href="#STIXGeneral-Regular-69"/>
     <use xlink:href="#STIXGeneral-Regular-64" transform="translate(27.799988 0)"/>
     <use xlink:href="#STIXGeneral-Regular-6c" transform="translate(77.799973 0)"/>
     <use xlink:href="#STIXGeneral-Regular-65" transform="translate(105.59996 0)"/>
    </g>
   </g>
   <g id="text_13">
    <!-- $m_z=-\frac{1}{2},\ J_{23}=0$ -->
    <g transform="translate(733.267543 18.64) scale(0.2 -0.2)">
     <defs>
      <path id="STIXGeneral-Italic-6d" d="M 4506 672 
L 4474 627 
Q 3981 -58 3552 -58 
Q 3296 -58 3296 237 
Q 3296 333 3379 659 
L 3750 2112 
Q 3795 2291 3795 2355 
Q 3795 2413 3756 2451 
Q 3718 2490 3667 2490 
Q 3366 2490 2829 1741 
Q 2592 1408 2457 1072 
Q 2323 736 2138 0 
L 1658 0 
L 1830 595 
Q 2266 2099 2266 2330 
Q 2266 2490 2125 2490 
Q 1965 2490 1702 2237 
Q 1440 1984 1171 1574 
Q 1011 1325 899 1043 
Q 787 762 557 0 
L 77 0 
L 352 922 
Q 704 2093 704 2381 
Q 704 2522 442 2522 
L 282 2522 
L 282 2624 
L 1318 2822 
L 1338 2810 
L 966 1472 
Q 1798 2822 2374 2822 
Q 2560 2822 2659 2720 
Q 2758 2618 2758 2438 
Q 2758 2195 2502 1466 
Q 2842 2003 3069 2275 
Q 3296 2547 3526 2694 
Q 3731 2822 3930 2822 
Q 4102 2822 4201 2710 
Q 4301 2598 4301 2419 
Q 4301 2336 4282 2240 
L 3846 634 
Q 3782 390 3782 346 
Q 3782 243 3859 243 
Q 4000 243 4275 582 
L 4410 749 
L 4506 672 
z
" transform="scale(0.015625)"/>
      <path id="STIXGeneral-Italic-7a" d="M 2432 2669 
L 582 467 
Q 877 403 1021 307 
Q 1165 211 1350 -64 
Q 1568 -384 1798 -384 
Q 1971 -384 1971 -288 
Q 1971 -256 1939 -192 
Q 1888 -90 1888 -13 
Q 1894 70 1958 137 
Q 2022 205 2099 205 
Q 2202 205 2262 141 
Q 2323 77 2323 -32 
Q 2323 -230 2156 -374 
Q 1990 -518 1728 -518 
Q 1459 -518 1005 -237 
Q 570 32 333 32 
Q 186 32 45 -83 
L -13 -26 
L 1971 2355 
L 1101 2355 
Q 845 2355 729 2281 
Q 614 2208 518 1971 
L 416 1997 
L 621 2739 
L 2432 2739 
L 2432 2669 
z
" transform="scale(0.015625)"/>
      <path id="STIXGeneral-Regular-3d" d="M 4077 2048 
L 307 2048 
L 307 2470 
L 4077 2470 
L 4077 2048 
z
M 4077 768 
L 307 768 
L 307 1190 
L 4077 1190 
L 4077 768 
z
" transform="scale(0.015625)"/>
      <path id="STIXGeneral-Regular-2212" d="M 3974 1408 
L 410 1408 
L 410 1830 
L 3974 1830 
L 3974 1408 
z
" transform="scale(0.015625)"/>
      <path id="STIXGeneral-Regular-2c" d="M 531 -902 
L 467 -781 
Q 998 -422 998 -96 
Q 998 -13 909 -13 
Q 883 -13 822 -25 
Q 762 -38 723 -38 
Q 352 -38 352 288 
Q 352 454 457 553 
Q 563 653 736 653 
Q 954 653 1101 496 
Q 1248 339 1248 96 
Q 1248 -198 1053 -473 
Q 858 -749 531 -902 
z
" transform="scale(0.015625)"/>
     </defs>
     <use xlink:href="#STIXGeneral-Italic-6d" transform="translate(0 0.8875)"/>
     <use xlink:href="#STIXGeneral-Italic-7a" transform="translate(72.199982 -12.340625) scale(0.7)"/>
     <use xlink:href="#STIXGeneral-Regular-3d" transform="translate(118.279349 0.8875)"/>
     <use xlink:href="#STIXGeneral-Regular-2212" transform="translate(201.21933 0.8875)"/>
     <use xlink:href="#STIXGeneral-Regular-31" transform="translate(269.719315 38.684375) scale(0.7)"/>
     <use xlink:href="#STIXGeneral-Regular-32" transform="translate(269.719315 -39.88125) scale(0.7)"/>
     <use xlink:href="#STIXGeneral-Regular-2c" transform="translate(317.219304 0.8875)"/>
     <use xlink:href="#STIXGeneral-Italic-4a" transform="translate(380.725705 0.8875)"/>
     <use xlink:href="#STIXGeneral-Regular-32" transform="translate(425.125699 -12.340625) scale(0.7)"/>
     <use xlink:href="#STIXGeneral-Regular-33" transform="translate(460.125688 -12.340625) scale(0.7)"/>
     <use xlink:href="#STIXGeneral-Regular-3d" transform="translate(513.975049 0.8875)"/>
     <use xlink:href="#STIXGeneral-Regular-30" transform="translate(596.91503 0.8875)"/>
     <path d="M 269.719315 13.684375 
L 269.719315 19.934375 
L 304.719304 19.934375 
L 304.719304 13.684375 
L 269.719315 13.684375 
z
"/>
    </g>
   </g>
   <g id="PathCollection_1">
    <path d="M 813.470741 200.624071 
C 816.608667 200.624071 819.618493 199.37736 821.837342 197.158512 
C 824.05619 194.939663 825.302901 191.929837 825.302901 188.791911 
C 825.302901 185.653986 824.05619 182.644159 821.837342 180.425311 
C 819.618493 178.206463 816.608667 176.959752 813.470741 176.959752 
C 810.332816 176.959752 807.32299 178.206463 805.104141 180.425311 
C 802.885293 182.644159 801.638582 185.653986 801.638582 188.791911 
C 801.638582 191.929837 802.885293 194.939663 805.104141 197.158512 
C 807.32299 199.37736 810.332816 200.624071 813.470741 200.624071 
L 813.470741 200.624071 
z
" clip-path="url(#p989028491a)" style="fill: none; stroke: #cf4d3f; stroke-width: 4.6"/>
   </g>
  </g>
  <g id="axes_3">
   <g id="patch_22">
    <path d="M -1.639471 411.449464 
L 115.380436 411.449464 
Q 124.61885 411.449464 124.61885 408.497655 
L 124.61885 380.947438 
Q 124.61885 377.995629 115.380436 377.995629 
L -1.639471 377.995629 
Q -10.877885 377.995629 -10.877885 380.947438 
L -10.877885 408.497655 
Q -10.877885 411.449464 -1.639471 411.449464 
z
" clip-path="url(#p0e28e90948)" style="fill: #dfead8; opacity: 0.18"/>
   </g>
   <g id="patch_23">
    <path d="M 195.446688 411.449464 
L 312.466595 411.449464 
Q 321.705009 411.449464 321.705009 408.497655 
L 321.705009 380.947438 
Q 321.705009 377.995629 312.466595 377.995629 
L 195.446688 377.995629 
Q 186.208274 377.995629 186.208274 380.947438 
L 186.208274 408.497655 
Q 186.208274 411.449464 195.446688 411.449464 
z
" clip-path="url(#p0e28e90948)" style="fill: #dfead8; opacity: 0.18"/>
   </g>
   <g id="text_14">
    <!-- (c) -->
    <g transform="translate(7.598942 334.81401) scale(0.22 -0.22)">
     <defs>
      <path id="STIXGeneral-Bold-28" d="M 1958 -896 
L 1958 -1075 
Q 1485 -794 1235 -566 
Q 986 -339 736 19 
Q 294 653 294 1658 
Q 294 2925 1133 3834 
Q 1318 4032 1491 4157 
Q 1664 4282 1958 4442 
L 1958 4269 
Q 1338 3757 1178 3267 
Q 1018 2778 1018 1651 
Q 1018 614 1197 108 
Q 1376 -397 1958 -896 
z
" transform="scale(0.015625)"/>
      <path id="STIXGeneral-Bold-63" d="M 2637 698 
L 2752 582 
Q 2490 224 2202 67 
Q 1914 -90 1530 -90 
Q 922 -90 541 326 
Q 160 742 160 1421 
Q 160 2125 595 2576 
Q 1030 3027 1677 3027 
Q 2099 3027 2380 2828 
Q 2662 2630 2662 2323 
Q 2662 2138 2544 2026 
Q 2426 1914 2227 1914 
Q 2061 1914 1965 2035 
Q 1869 2157 1869 2381 
Q 1869 2496 1865 2547 
Q 1862 2598 1849 2665 
Q 1837 2733 1811 2761 
Q 1786 2790 1731 2809 
Q 1677 2829 1600 2829 
Q 1357 2829 1209 2544 
Q 1062 2259 1062 1747 
Q 1062 1094 1299 716 
Q 1536 339 1952 339 
Q 2323 339 2637 698 
z
" transform="scale(0.015625)"/>
      <path id="STIXGeneral-Bold-29" d="M 173 4262 
L 173 4442 
Q 653 4154 912 3910 
Q 1171 3667 1395 3302 
Q 1837 2566 1837 1709 
Q 1837 442 998 -467 
Q 813 -666 640 -790 
Q 467 -915 173 -1075 
L 173 -902 
Q 397 -730 550 -579 
Q 704 -429 813 -243 
Q 922 -58 979 102 
Q 1037 262 1069 534 
Q 1101 806 1107 1049 
Q 1114 1293 1114 1715 
Q 1114 2822 950 3296 
Q 787 3770 173 4262 
z
" transform="scale(0.015625)"/>
     </defs>
     <use xlink:href="#STIXGeneral-Bold-28"/>
     <use xlink:href="#STIXGeneral-Bold-63" transform="translate(33.299988 0)"/>
     <use xlink:href="#STIXGeneral-Bold-29" transform="translate(77.699982 0)"/>
    </g>
   </g>
   <g id="text_15">
    <!-- $|\downarrow\downarrow\uparrow\rangle$ -->
    <g transform="translate(25.370482 399.972546) scale(0.21 -0.21)">
     <defs>
      <path id="STIXGeneral-Regular-7c" d="M 851 -90 
L 429 -90 
L 429 4326 
L 851 4326 
L 851 -90 
z
" transform="scale(0.015625)"/>
      <path id="STIXGeneral-Regular-2193" d="M 2765 646 
L 2886 518 
Q 1971 -275 1670 -998 
L 1606 -998 
Q 1293 -262 384 525 
L 506 653 
Q 762 474 1120 128 
Q 1210 38 1299 38 
Q 1427 38 1427 205 
L 1427 4237 
L 1850 4237 
L 1850 198 
Q 1850 147 1898 89 
Q 1946 32 1990 32 
Q 2061 32 2150 122 
Q 2464 448 2765 646 
z
" transform="scale(0.015625)"/>
      <path id="STIXGeneral-Regular-2191" d="M 2886 2714 
L 2765 2586 
Q 2509 2765 2150 3110 
Q 2061 3200 1971 3200 
Q 1843 3200 1843 3034 
L 1843 -998 
L 1421 -998 
L 1421 3040 
Q 1421 3091 1373 3148 
Q 1325 3206 1280 3206 
Q 1210 3206 1120 3117 
Q 806 2790 506 2592 
L 384 2720 
Q 1299 3514 1600 4237 
L 1664 4237 
Q 1978 3501 2886 2714 
z
" transform="scale(0.015625)"/>
      <path id="STIXGeneral-Regular-27e9" d="M 2067 1536 
L 749 -1363 
L 416 -1363 
L 1645 1600 
L 422 4563 
L 755 4563 
L 2067 1664 
L 2067 1536 
z
" transform="scale(0.015625)"/>
     </defs>
     <use xlink:href="#STIXGeneral-Regular-7c" transform="translate(0 0.703125)"/>
     <use xlink:href="#STIXGeneral-Regular-2193" transform="translate(34.439981 0.703125)"/>
     <use xlink:href="#STIXGeneral-Regular-2193" transform="translate(114.419965 0.703125)"/>
     <use xlink:href="#STIXGeneral-Regular-2191" transform="translate(194.399948 0.703125)"/>
     <use xlink:href="#STIXGeneral-Regular-27e9" transform="translate(259.939935 0.703125)"/>
    </g>
   </g>
   <g id="text_16">
    <!-- $|0\rangle$ -->
    <g transform="translate(242.406642 399.972546) scale(0.21 -0.21)">
     <use xlink:href="#STIXGeneral-Regular-7c" transform="translate(0 0.703125)"/>
     <use xlink:href="#STIXGeneral-Regular-30" transform="translate(19.999985 0.703125)"/>
     <use xlink:href="#STIXGeneral-Regular-27e9" transform="translate(69.999969 0.703125)"/>
    </g>
   </g>
   <g id="patch_24">
    <path d="M 132.777644 394.722546 
Q 155.413754 394.722546 173.130515 394.722546 
" style="fill: none; stroke: #6b5b95; stroke-width: 4.4; stroke-linecap: round"/>
    <path d="M 159.530515 387.922546 
L 173.130515 394.722546 
L 159.530515 401.522546 
" style="fill: none; stroke: #6b5b95; stroke-width: 4.4; stroke-linecap: round"/>
   </g>
   <g id="text_17">
    <!-- ramp $J_{12}$ to idle -->
    <g style="fill: #6b5b95" transform="translate(89.473562 358.616584) scale(0.21 -0.21)">
     <defs>
      <path id="STIXGeneral-Regular-72" d="M 1024 2931 
L 1024 2342 
Q 1267 2688 1430 2816 
Q 1594 2944 1792 2944 
Q 1958 2944 2051 2854 
Q 2144 2765 2144 2605 
Q 2144 2470 2077 2393 
Q 2010 2317 1894 2317 
Q 1773 2317 1638 2445 
Q 1536 2541 1472 2541 
Q 1338 2541 1181 2355 
Q 1024 2170 1024 2016 
L 1024 576 
Q 1024 301 1133 205 
Q 1242 109 1568 96 
L 1568 0 
L 32 0 
L 32 96 
Q 339 154 412 224 
Q 486 294 486 538 
L 486 2138 
Q 486 2349 438 2435 
Q 390 2522 269 2522 
Q 166 2522 45 2496 
L 45 2598 
Q 448 2726 992 2944 
L 1024 2931 
z
" transform="scale(0.015625)"/>
      <path id="STIXGeneral-Regular-61" d="M 2829 422 
L 2829 243 
Q 2586 -64 2253 -64 
Q 1888 -64 1843 403 
L 1837 403 
Q 1427 -64 909 -64 
Q 608 -64 422 112 
Q 237 288 237 602 
Q 237 1050 685 1350 
Q 992 1555 1837 1869 
L 1837 2214 
Q 1837 2502 1699 2646 
Q 1562 2790 1338 2790 
Q 1146 2790 1018 2697 
Q 890 2605 890 2477 
Q 890 2419 909 2348 
Q 928 2278 928 2208 
Q 928 2112 841 2029 
Q 755 1946 634 1946 
Q 525 1946 441 2029 
Q 358 2112 358 2240 
Q 358 2547 685 2752 
Q 986 2944 1421 2944 
Q 1939 2944 2176 2656 
Q 2291 2522 2323 2384 
Q 2355 2246 2355 1946 
L 2355 723 
Q 2355 301 2554 301 
Q 2682 301 2829 422 
z
M 1837 813 
L 1837 1715 
Q 1248 1510 1018 1293 
Q 800 1094 800 800 
Q 800 557 921 432 
Q 1043 307 1242 307 
Q 1453 307 1613 410 
Q 1747 506 1792 589 
Q 1837 672 1837 813 
z
" transform="scale(0.015625)"/>
      <path id="STIXGeneral-Regular-6d" d="M 4960 0 
L 3565 0 
L 3565 96 
Q 3834 122 3907 208 
Q 3981 294 3981 576 
L 3981 1894 
Q 3981 2278 3869 2444 
Q 3757 2611 3488 2611 
Q 3264 2611 3107 2521 
Q 2950 2432 2803 2221 
L 2803 608 
Q 2803 301 2896 201 
Q 2989 102 3264 96 
L 3264 0 
L 1830 0 
L 1830 96 
Q 2112 115 2189 188 
Q 2266 262 2266 550 
L 2266 1901 
Q 2266 2611 1850 2611 
Q 1670 2611 1468 2531 
Q 1267 2451 1171 2336 
Q 1088 2240 1088 2227 
L 1088 448 
Q 1088 243 1177 176 
Q 1267 109 1523 96 
L 1523 0 
L 102 0 
L 102 96 
Q 371 102 460 195 
Q 550 288 550 563 
L 550 2150 
Q 550 2387 499 2480 
Q 448 2573 326 2573 
Q 230 2573 122 2547 
L 122 2656 
Q 557 2778 1011 2944 
L 1062 2925 
L 1062 2451 
L 1075 2451 
Q 1363 2752 1584 2848 
Q 1805 2944 2054 2944 
Q 2560 2944 2733 2406 
Q 3232 2944 3776 2944 
Q 4518 2944 4518 1792 
L 4518 493 
Q 4518 282 4582 202 
Q 4646 122 4794 109 
L 4960 96 
L 4960 0 
z
" transform="scale(0.015625)"/>
      <path id="STIXGeneral-Regular-70" d="M 1018 2931 
L 1018 2438 
Q 1421 2944 1939 2944 
Q 2406 2944 2707 2560 
Q 3008 2176 3008 1581 
Q 3008 883 2621 409 
Q 2234 -64 1664 -64 
Q 1466 -64 1328 -6 
Q 1190 51 1018 211 
L 1018 -794 
Q 1018 -1094 1120 -1180 
Q 1222 -1267 1581 -1274 
L 1581 -1389 
L 32 -1389 
L 32 -1280 
Q 314 -1254 397 -1171 
Q 480 -1088 480 -838 
L 480 2157 
Q 480 2381 429 2451 
Q 378 2522 218 2522 
Q 115 2522 58 2515 
L 58 2618 
Q 506 2752 979 2944 
L 1018 2931 
z
M 1018 2138 
L 1018 563 
Q 1018 422 1238 281 
Q 1459 141 1683 141 
Q 2029 141 2243 467 
Q 2458 794 2458 1325 
Q 2458 1888 2243 2224 
Q 2029 2560 1670 2560 
Q 1446 2560 1232 2419 
Q 1018 2278 1018 2138 
z
" transform="scale(0.015625)"/>
      <path id="STIXGeneral-Regular-74" d="M 1702 493 
L 1786 422 
Q 1478 -64 1011 -64 
Q 448 -64 448 749 
L 448 2675 
L 109 2675 
Q 83 2694 83 2720 
Q 83 2771 192 2842 
Q 435 2982 813 3526 
Q 826 3546 874 3606 
Q 922 3667 941 3706 
Q 986 3706 986 3622 
L 986 2880 
L 1632 2880 
L 1632 2675 
L 986 2675 
L 986 845 
Q 986 538 1062 403 
Q 1139 269 1318 269 
Q 1510 269 1702 493 
z
" transform="scale(0.015625)"/>
      <path id="STIXGeneral-Regular-6f" d="M 3008 1478 
Q 3008 806 2608 371 
Q 2208 -64 1568 -64 
Q 979 -64 582 368 
Q 186 800 186 1459 
Q 186 2125 582 2534 
Q 979 2944 1626 2944 
Q 2221 2944 2614 2537 
Q 3008 2131 3008 1478 
z
M 2432 1306 
Q 2432 2035 2112 2445 
Q 1856 2765 1504 2765 
Q 1171 2765 966 2493 
Q 762 2221 762 1747 
Q 762 928 1101 435 
Q 1318 115 1677 115 
Q 2029 115 2230 432 
Q 2432 749 2432 1306 
z
" transform="scale(0.015625)"/>
     </defs>
     <use xlink:href="#STIXGeneral-Regular-72" transform="translate(0 0.703125)"/>
     <use xlink:href="#STIXGeneral-Regular-61" transform="translate(33.299988 0.703125)"/>
     <use xlink:href="#STIXGeneral-Regular-6d" transform="translate(77.699982 0.703125)"/>
     <use xlink:href="#STIXGeneral-Regular-70" transform="translate(155.499969 0.703125)"/>
     <use xlink:href="#STIXGeneral-Regular-20" transform="translate(205.499954 0.703125)"/>
     <use xlink:href="#STIXGeneral-Italic-4a" transform="translate(230.499939 0.703125)"/>
     <use xlink:href="#STIXGeneral-Regular-31" transform="translate(274.899933 -12.525) scale(0.7)"/>
     <use xlink:href="#STIXGeneral-Regular-32" transform="translate(309.899922 -12.525) scale(0.7)"/>
     <use xlink:href="#STIXGeneral-Regular-20" transform="translate(349.309286 0.703125)"/>
     <use xlink:href="#STIXGeneral-Regular-74" transform="translate(374.309271 0.703125)"/>
     <use xlink:href="#STIXGeneral-Regular-6f" transform="translate(402.109259 0.703125)"/>
     <use xlink:href="#STIXGeneral-Regular-20" transform="translate(452.109244 0.703125)"/>
     <use xlink:href="#STIXGeneral-Regular-69" transform="translate(477.109229 0.703125)"/>
     <use xlink:href="#STIXGeneral-Regular-64" transform="translate(504.909216 0.703125)"/>
     <use xlink:href="#STIXGeneral-Regular-6c" transform="translate(554.909201 0.703125)"/>
     <use xlink:href="#STIXGeneral-Regular-65" transform="translate(582.709189 0.703125)"/>
    </g>
   </g>
   <g id="text_18">
    <!-- $J_{12}=J_{23}=0$ -->
    <g transform="translate(6.155482 440.940216) scale(0.21 -0.21)">
     <use xlink:href="#STIXGeneral-Italic-4a" transform="translate(0 0.40625)"/>
     <use xlink:href="#STIXGeneral-Regular-31" transform="translate(44.399994 -12.821875) scale(0.7)"/>
     <use xlink:href="#STIXGeneral-Regular-32" transform="translate(79.399983 -12.821875) scale(0.7)"/>
     <use xlink:href="#STIXGeneral-Regular-3d" transform="translate(133.249344 0.40625)"/>
     <use xlink:href="#STIXGeneral-Italic-4a" transform="translate(216.189325 0.40625)"/>
     <use xlink:href="#STIXGeneral-Regular-32" transform="translate(260.589319 -12.821875) scale(0.7)"/>
     <use xlink:href="#STIXGeneral-Regular-33" transform="translate(295.589308 -12.821875) scale(0.7)"/>
     <use xlink:href="#STIXGeneral-Regular-3d" transform="translate(349.438669 0.40625)"/>
     <use xlink:href="#STIXGeneral-Regular-30" transform="translate(432.37865 0.40625)"/>
    </g>
   </g>
   <g id="text_19">
    <!-- $J_{12}=J_{12}^{\rm idle},\ J_{23}=0$ -->
    <g transform="translate(179.301642 442.032873) scale(0.21 -0.21)">
     <use xlink:href="#STIXGeneral-Italic-4a" transform="translate(0 0.917187)"/>
     <use xlink:href="#STIXGeneral-Regular-31" transform="translate(44.399994 -12.310938) scale(0.7)"/>
     <use xlink:href="#STIXGeneral-Regular-32" transform="translate(79.399983 -12.310938) scale(0.7)"/>
     <use xlink:href="#STIXGeneral-Regular-3d" transform="translate(133.249344 0.917187)"/>
     <use xlink:href="#STIXGeneral-Italic-4a" transform="translate(216.189325 0.917187)"/>
     <use xlink:href="#STIXGeneral-Regular-69" transform="translate(271.2151 36.192188) scale(0.7)"/>
     <use xlink:href="#STIXGeneral-Regular-64" transform="translate(290.675092 36.192188) scale(0.7)"/>
     <use xlink:href="#STIXGeneral-Regular-6c" transform="translate(325.675081 36.192188) scale(0.7)"/>
     <use xlink:href="#STIXGeneral-Regular-65" transform="translate(345.135072 36.192188) scale(0.7)"/>
     <use xlink:href="#STIXGeneral-Regular-31" transform="translate(260.589319 -25.539062) scale(0.7)"/>
     <use xlink:href="#STIXGeneral-Regular-32" transform="translate(295.589308 -25.539062) scale(0.7)"/>
     <use xlink:href="#STIXGeneral-Regular-2c" transform="translate(380.624443 0.917187)"/>
     <use xlink:href="#STIXGeneral-Italic-4a" transform="translate(444.130844 0.917187)"/>
     <use xlink:href="#STIXGeneral-Regular-32" transform="translate(488.530838 -12.310938) scale(0.7)"/>
     <use xlink:href="#STIXGeneral-Regular-33" transform="translate(523.530827 -12.310938) scale(0.7)"/>
     <use xlink:href="#STIXGeneral-Regular-3d" transform="translate(577.380188 0.917187)"/>
     <use xlink:href="#STIXGeneral-Regular-30" transform="translate(660.320169 0.917187)"/>
    </g>
   </g>
   <g id="text_20">
    <!-- Initialization -->
    <g transform="translate(106.859656 325.847003) scale(0.19 -0.19)">
     <defs>
      <path id="STIXGeneral-Regular-49" d="M 2016 0 
L 115 0 
L 115 122 
Q 518 134 627 240 
Q 736 346 736 717 
L 736 3526 
Q 736 3898 633 3994 
Q 531 4090 115 4115 
L 115 4237 
L 2016 4237 
L 2016 4115 
Q 1613 4096 1501 3993 
Q 1389 3891 1389 3526 
L 1389 717 
Q 1389 358 1504 246 
Q 1619 134 2016 122 
L 2016 0 
z
" transform="scale(0.015625)"/>
      <path id="STIXGeneral-Regular-6e" d="M 3104 0 
L 1773 0 
L 1779 96 
Q 2016 115 2096 233 
Q 2176 352 2176 672 
L 2176 1946 
Q 2176 2592 1709 2592 
Q 1549 2592 1408 2515 
Q 1267 2438 1050 2227 
L 1050 461 
Q 1050 269 1136 192 
Q 1222 115 1466 96 
L 1466 0 
L 115 0 
L 115 96 
Q 358 115 435 214 
Q 512 314 512 602 
L 512 2157 
Q 512 2394 467 2483 
Q 422 2573 288 2573 
Q 160 2573 102 2547 
L 102 2656 
Q 550 2784 979 2944 
L 1030 2925 
L 1030 2426 
L 1037 2426 
Q 1491 2944 1958 2944 
Q 2323 2944 2518 2688 
Q 2714 2432 2714 1958 
L 2714 544 
Q 2714 288 2790 205 
Q 2867 122 3104 96 
L 3104 0 
z
" transform="scale(0.015625)"/>
     </defs>
     <use xlink:href="#STIXGeneral-Regular-49"/>
     <use xlink:href="#STIXGeneral-Regular-6e" transform="translate(33.299988 0)"/>
     <use xlink:href="#STIXGeneral-Regular-69" transform="translate(83.299973 0)"/>
     <use xlink:href="#STIXGeneral-Regular-74" transform="translate(111.09996 0)"/>
     <use xlink:href="#STIXGeneral-Regular-69" transform="translate(138.899948 0)"/>
     <use xlink:href="#STIXGeneral-Regular-61" transform="translate(166.699936 0)"/>
     <use xlink:href="#STIXGeneral-Regular-6c" transform="translate(211.09993 0)"/>
     <use xlink:href="#STIXGeneral-Regular-69" transform="translate(238.899918 0)"/>
     <use xlink:href="#STIXGeneral-Regular-7a" transform="translate(266.699905 0)"/>
     <use xlink:href="#STIXGeneral-Regular-61" transform="translate(311.099899 0)"/>
     <use xlink:href="#STIXGeneral-Regular-74" transform="translate(355.499893 0)"/>
     <use xlink:href="#STIXGeneral-Regular-69" transform="translate(383.299881 0)"/>
     <use xlink:href="#STIXGeneral-Regular-6f" transform="translate(411.099869 0)"/>
     <use xlink:href="#STIXGeneral-Regular-6e" transform="translate(461.099854 0)"/>
    </g>
   </g>
  </g>
  <g id="axes_4">
   <g id="patch_25">
    <path d="M 477.276707 434.08 
L 575.670341 434.08 
L 575.670341 335.686366 
L 477.276707 335.686366 
L 477.276707 434.08 
z
" style="fill: none"/>
   </g>
   <g id="matplotlib.axis_3">
    <g id="text_21">
     <!-- $J_{23}$ -->
     <g transform="translate(523.222887 452.057122) scale(0.22 -0.22)">
      <use xlink:href="#STIXGeneral-Italic-4a" transform="translate(0 0.703125)"/>
      <use xlink:href="#STIXGeneral-Regular-32" transform="translate(44.399994 -12.525) scale(0.7)"/>
      <use xlink:href="#STIXGeneral-Regular-33" transform="translate(79.399983 -12.525) scale(0.7)"/>
     </g>
    </g>
   </g>
   <g id="matplotlib.axis_4">
    <g id="text_22">
     <!-- $J_{12}$ -->
     <g transform="translate(478.405637 396.00531) rotate(-90) scale(0.22 -0.22)">
      <use xlink:href="#STIXGeneral-Italic-4a" transform="translate(0 0.703125)"/>
      <use xlink:href="#STIXGeneral-Regular-31" transform="translate(44.399994 -12.525) scale(0.7)"/>
      <use xlink:href="#STIXGeneral-Regular-32" transform="translate(79.399983 -12.525) scale(0.7)"/>
     </g>
    </g>
   </g>
   <g id="text_23">
    <!-- idle -->
    <g style="fill: #cf4d3f" transform="translate(501.875115 407.196913) scale(0.22 -0.22)">
     <use xlink:href="#STIXGeneral-Regular-69"/>
     <use xlink:href="#STIXGeneral-Regular-64" transform="translate(27.799988 0)"/>
     <use xlink:href="#STIXGeneral-Regular-6c" transform="translate(77.799973 0)"/>
     <use xlink:href="#STIXGeneral-Regular-65" transform="translate(105.59996 0)"/>
    </g>
   </g>
   <g id="text_24">
    <!-- $\sigma_x$ -->
    <g style="fill: #355e8d" transform="translate(541.050358 350.954826) scale(0.22 -0.22)">
     <defs>
      <path id="STIXGeneral-Italic-3c3" d="M 3398 2739 
L 3283 2266 
L 2195 2266 
Q 2291 2112 2457 1981 
Q 2624 1850 2717 1725 
Q 2810 1600 2810 1389 
Q 2810 851 2288 390 
Q 1766 -70 1107 -70 
Q 659 -70 416 170 
Q 173 410 173 832 
Q 173 1274 409 1706 
Q 646 2138 1113 2438 
Q 1581 2739 2157 2739 
L 3398 2739 
z
M 2272 1414 
Q 2272 1709 2166 1939 
Q 2061 2170 1901 2266 
Q 1530 2266 1120 1770 
Q 710 1274 710 640 
Q 710 358 844 211 
Q 979 64 1210 64 
Q 1638 64 1955 525 
Q 2272 986 2272 1414 
z
" transform="scale(0.015625)"/>
      <path id="STIXGeneral-Italic-78" d="M 1555 2272 
L 1632 1907 
Q 1971 2426 2179 2624 
Q 2387 2822 2598 2822 
Q 2714 2822 2787 2755 
Q 2861 2688 2861 2585 
Q 2861 2483 2800 2419 
Q 2739 2355 2643 2355 
Q 2586 2355 2490 2409 
Q 2394 2464 2310 2464 
Q 2125 2464 1683 1690 
Q 1683 1606 1734 1402 
L 1939 544 
Q 2003 282 2131 282 
Q 2234 282 2432 538 
Q 2451 563 2476 598 
Q 2502 634 2521 662 
Q 2541 691 2566 717 
L 2662 659 
Q 2387 230 2227 80 
Q 2067 -70 1882 -70 
Q 1728 -70 1645 26 
Q 1562 122 1504 365 
L 1318 1126 
L 755 365 
Q 557 96 432 13 
Q 307 -70 147 -70 
Q 0 -70 -86 0 
Q -173 70 -173 198 
Q -173 294 -112 361 
Q -51 429 45 429 
Q 122 429 250 358 
Q 346 301 416 301 
Q 525 301 742 614 
L 1267 1357 
L 1088 2150 
Q 1024 2432 969 2509 
Q 915 2586 794 2586 
Q 717 2586 544 2541 
L 429 2509 
L 410 2611 
L 480 2637 
Q 992 2822 1229 2822 
Q 1350 2822 1420 2707 
Q 1491 2592 1555 2272 
z
" transform="scale(0.015625)"/>
     </defs>
     <use xlink:href="#STIXGeneral-Italic-3c3" transform="translate(0 0.203125)"/>
     <use xlink:href="#STIXGeneral-Italic-78" transform="translate(49.799988 -13.025) scale(0.7)"/>
    </g>
   </g>
   <g id="text_25">
    <!-- $\sigma_z$ -->
    <g style="fill: #4f7f48" transform="translate(506.430376 350.954826) scale(0.22 -0.22)">
     <use xlink:href="#STIXGeneral-Italic-3c3" transform="translate(0 0.203125)"/>
     <use xlink:href="#STIXGeneral-Italic-7a" transform="translate(49.799988 -13.025) scale(0.7)"/>
    </g>
   </g>
   <g id="patch_26">
    <path d="M 497.499129 426.791583 
Q 535.58517 426.791583 570.317109 426.791583 
" style="fill: none; stroke: #000000; stroke-width: 3; stroke-linecap: round"/>
    <path d="M 559.917109 421.591583 
L 570.317109 426.791583 
L 559.917109 431.991583 
" style="fill: none; stroke: #000000; stroke-width: 3; stroke-linecap: round"/>
   </g>
   <g id="patch_27">
    <path d="M 495.49775 424.790204 
Q 495.49775 386.704163 495.49775 351.972224 
" style="fill: none; stroke: #000000; stroke-width: 3; stroke-linecap: round"/>
    <path d="M 490.29775 362.372224 
L 495.49775 351.972224 
L 500.69775 362.372224 
" style="fill: none; stroke: #000000; stroke-width: 3; stroke-linecap: round"/>
   </g>
   <g id="text_26">
    <!-- $\sigma_x,\sigma_z$ gates -->
    <g transform="translate(484.958524 325.847003) scale(0.19 -0.19)">
     <defs>
      <path id="STIXGeneral-Regular-67" d="M 3008 2483 
L 2477 2483 
Q 2598 2208 2598 1946 
Q 2598 1453 2265 1203 
Q 1933 954 1600 954 
Q 1530 954 1357 973 
L 1235 986 
Q 1107 947 979 812 
Q 851 678 851 582 
Q 851 435 1350 410 
L 2176 371 
Q 2528 358 2739 172 
Q 2950 -13 2950 -314 
Q 2950 -685 2566 -986 
Q 2035 -1395 1286 -1395 
Q 826 -1395 502 -1212 
Q 179 -1030 179 -774 
Q 179 -595 320 -419 
Q 461 -243 806 6 
Q 602 102 534 172 
Q 467 243 467 346 
Q 467 531 762 787 
Q 909 915 1037 1043 
Q 717 1203 579 1401 
Q 442 1600 442 1901 
Q 442 2336 752 2640 
Q 1062 2944 1510 2944 
Q 1766 2944 2022 2848 
L 2163 2797 
Q 2349 2733 2515 2733 
L 3008 2733 
L 3008 2483 
z
M 973 2163 
L 973 2144 
Q 973 1683 1155 1398 
Q 1338 1114 1632 1114 
Q 1850 1114 1978 1270 
Q 2106 1427 2106 1690 
Q 2106 2112 1914 2464 
Q 1754 2765 1446 2765 
Q 1222 2765 1097 2605 
Q 973 2445 973 2163 
z
M 2771 -410 
Q 2771 -230 2595 -163 
Q 2419 -96 1978 -96 
Q 1344 -96 941 -13 
Q 749 -243 688 -348 
Q 627 -454 627 -563 
Q 627 -774 880 -902 
Q 1133 -1030 1555 -1030 
Q 2099 -1030 2435 -860 
Q 2771 -691 2771 -410 
z
" transform="scale(0.015625)"/>
      <path id="STIXGeneral-Regular-73" d="M 998 1926 
L 1664 1523 
Q 1984 1331 2105 1164 
Q 2227 998 2227 736 
Q 2227 416 1961 176 
Q 1696 -64 1331 -64 
Q 1030 -64 864 -6 
Q 691 51 570 51 
Q 461 51 416 -26 
L 333 -26 
L 333 979 
L 435 979 
Q 538 512 730 294 
Q 922 77 1248 77 
Q 1485 77 1632 211 
Q 1779 346 1779 550 
Q 1779 845 1440 1030 
L 1094 1222 
Q 326 1651 326 2150 
Q 326 2522 566 2730 
Q 806 2938 1210 2938 
Q 1491 2938 1638 2867 
Q 1754 2816 1818 2816 
Q 1862 2816 1920 2880 
L 1990 2880 
L 2022 2010 
L 1926 2010 
Q 1818 2445 1654 2621 
Q 1491 2797 1203 2797 
Q 986 2797 854 2688 
Q 723 2579 723 2362 
Q 723 2253 796 2128 
Q 870 2003 998 1926 
z
" transform="scale(0.015625)"/>
     </defs>
     <use xlink:href="#STIXGeneral-Italic-3c3" transform="translate(0 0.09375)"/>
     <use xlink:href="#STIXGeneral-Italic-78" transform="translate(49.799988 -13.134375) scale(0.7)"/>
     <use xlink:href="#STIXGeneral-Regular-2c" transform="translate(85.289359 0.09375)"/>
     <use xlink:href="#STIXGeneral-Italic-3c3" transform="translate(124.72934 0.09375)"/>
     <use xlink:href="#STIXGeneral-Italic-7a" transform="translate(174.529327 -13.134375) scale(0.7)"/>
     <use xlink:href="#STIXGeneral-Regular-20" transform="translate(206.168698 0.09375)"/>
     <use xlink:href="#STIXGeneral-Regular-67" transform="translate(231.168683 0.09375)"/>
     <use xlink:href="#STIXGeneral-Regular-61" transform="translate(281.168668 0.09375)"/>
     <use xlink:href="#STIXGeneral-Regular-74" transform="translate(325.568661 0.09375)"/>
     <use xlink:href="#STIXGeneral-Regular-65" transform="translate(353.368649 0.09375)"/>
     <use xlink:href="#STIXGeneral-Regular-73" transform="translate(397.768643 0.09375)"/>
    </g>
   </g>
   <g id="patch_28">
    <path d="M 497.128569 387.372228 
Q 517.362576 373.039807 533.764742 361.421606 
" style="fill: none; stroke: #355e8d; stroke-width: 4.2; stroke-linecap: round"/>
    <path d="M 519.620318 363.597671 
L 533.764742 361.421606 
L 527.01894 374.042784 
" style="fill: none; stroke: #355e8d; stroke-width: 4.2; stroke-linecap: round"/>
   </g>
   <g id="patch_29">
    <path d="M 495.49775 386.527125 
Q 495.49775 373.038588 495.49775 364.245794 
" style="fill: none; stroke: #4f7f48; stroke-width: 4.2; stroke-linecap: round"/>
    <path d="M 489.09775 377.045794 
L 495.49775 364.245794 
L 501.89775 377.045794 
" style="fill: none; stroke: #4f7f48; stroke-width: 4.2; stroke-linecap: round"/>
   </g>
   <g id="PathCollection_2">
    <defs>
     <path id="m97ba12fcb0" d="M 0 7.416198 
C 1.966799 7.416198 3.853307 6.634781 5.244044 5.244044 
C 6.634781 3.853307 7.416198 1.966799 7.416198 0 
C 7.416198 -1.966799 6.634781 -3.853307 5.244044 -5.244044 
C 3.853307 -6.634781 1.966799 -7.416198 0 -7.416198 
C -1.966799 -7.416198 -3.853307 -6.634781 -5.244044 -5.244044 
C -6.634781 -3.853307 -7.416198 -1.966799 -7.416198 0 
C -7.416198 1.966799 -6.634781 3.853307 -5.244044 5.244044 
C -3.853307 6.634781 -1.966799 7.416198 0 7.416198 
z
" style="stroke: #cf4d3f"/>
    </defs>
    <g>
     <use xlink:href="#m97ba12fcb0" x="495.49775" y="388.527392" style="fill: #cf4d3f; stroke: #cf4d3f"/>
    </g>
   </g>
  </g>
  <g id="axes_5">
   <g id="patch_30">
    <path d="M 740.698083 411.449464 
L 849.448032 411.449464 
Q 858.033554 411.449464 858.033554 408.497655 
L 858.033554 380.947438 
Q 858.033554 377.995629 849.448032 377.995629 
L 740.698083 377.995629 
Q 732.112561 377.995629 732.112561 380.947438 
L 732.112561 408.497655 
Q 732.112561 411.449464 740.698083 411.449464 
z
" clip-path="url(#pfad96cac62)" style="fill: #dfead8; opacity: 0.18"/>
   </g>
   <g id="patch_31">
    <path d="M 912.408529 411.449464 
L 1021.158478 411.449464 
Q 1029.744 411.449464 1029.744 408.497655 
L 1029.744 380.947438 
Q 1029.744 377.995629 1021.158478 377.995629 
L 912.408529 377.995629 
Q 903.823006 377.995629 903.823006 380.947438 
L 903.823006 408.497655 
Q 903.823006 411.449464 912.408529 411.449464 
z
" clip-path="url(#pfad96cac62)" style="fill: #dfead8; opacity: 0.18"/>
   </g>
   <g id="text_27">
    <!-- $|0\rangle = |T_-^{12}\downarrow\rangle$ -->
    <g transform="translate(746.273058 400.322546) scale(0.2 -0.2)">
     <defs>
      <path id="STIXGeneral-Italic-54" d="M 4051 4179 
L 3770 3130 
L 3661 3142 
Q 3680 3302 3680 3437 
Q 3680 3955 3034 3955 
L 2662 3955 
L 1786 819 
Q 1696 506 1696 397 
Q 1696 250 1766 195 
Q 1837 141 2035 122 
L 2259 102 
L 2259 0 
L 416 0 
L 416 102 
Q 749 134 889 230 
Q 1030 326 1101 582 
L 2016 3955 
Q 1254 3955 988 3817 
Q 723 3680 493 3162 
L 378 3187 
L 646 4179 
L 4051 4179 
z
" transform="scale(0.015625)"/>
     </defs>
     <use xlink:href="#STIXGeneral-Regular-7c" transform="translate(0 0.409375)"/>
     <use xlink:href="#STIXGeneral-Regular-30" transform="translate(19.999985 0.409375)"/>
     <use xlink:href="#STIXGeneral-Regular-27e9" transform="translate(69.999969 0.409375)"/>
     <use xlink:href="#STIXGeneral-Regular-3d" transform="translate(124.439951 0.409375)"/>
     <use xlink:href="#STIXGeneral-Regular-7c" transform="translate(207.379932 0.409375)"/>
     <use xlink:href="#STIXGeneral-Italic-54" transform="translate(227.379916 0.409375)"/>
     <use xlink:href="#STIXGeneral-Regular-31" transform="translate(293.605688 35.684375) scale(0.7)"/>
     <use xlink:href="#STIXGeneral-Regular-32" transform="translate(328.605678 35.684375) scale(0.7)"/>
     <use xlink:href="#STIXGeneral-Regular-2212" transform="translate(293.087905 -26.046875) scale(0.7)"/>
     <use xlink:href="#STIXGeneral-Regular-2193" transform="translate(382.455038 0.409375)"/>
     <use xlink:href="#STIXGeneral-Regular-27e9" transform="translate(447.995026 0.409375)"/>
    </g>
   </g>
   <g id="text_28">
    <!-- $|S^{12}(0,2)\downarrow\rangle$ -->
    <g transform="translate(918.583503 400.822546) scale(0.2 -0.2)">
     <defs>
      <path id="STIXGeneral-Italic-53" d="M 3251 4269 
L 2995 2989 
L 2880 3008 
Q 2880 3539 2720 3795 
Q 2560 4051 2118 4051 
Q 1786 4051 1594 3881 
Q 1402 3712 1402 3411 
Q 1402 3168 1504 3005 
Q 1606 2842 2035 2413 
Q 2464 1978 2611 1715 
Q 2758 1453 2758 1133 
Q 2758 589 2390 237 
Q 2022 -115 1466 -115 
Q 1222 -115 800 32 
Q 595 109 499 109 
Q 288 109 224 -96 
L 109 -96 
L 326 1338 
L 454 1325 
Q 442 1267 442 1178 
Q 442 710 701 409 
Q 960 109 1363 109 
Q 1734 109 1968 336 
Q 2202 563 2202 928 
Q 2202 1139 2118 1308 
Q 2035 1478 1818 1715 
L 1568 1984 
Q 1549 2003 1459 2102 
Q 1370 2202 1318 2253 
Q 1030 2560 934 2755 
Q 838 2950 838 3213 
Q 838 3699 1168 3980 
Q 1498 4262 1978 4262 
Q 2310 4262 2522 4173 
Q 2707 4102 2816 4102 
Q 2925 4102 2982 4134 
Q 3040 4166 3104 4269 
L 3251 4269 
z
" transform="scale(0.015625)"/>
      <path id="STIXGeneral-Regular-28" d="M 1946 -1030 
L 1869 -1133 
Q 1126 -710 716 32 
Q 307 774 307 1613 
Q 307 3386 1888 4326 
L 1946 4224 
Q 1293 3667 1075 3126 
Q 858 2586 858 1632 
Q 858 685 1082 96 
Q 1306 -493 1946 -1030 
z
" transform="scale(0.015625)"/>
      <path id="STIXGeneral-Regular-29" d="M 186 4224 
L 262 4326 
Q 992 3891 1408 3148 
Q 1824 2406 1824 1581 
Q 1824 -166 243 -1133 
L 186 -1030 
Q 845 -486 1059 54 
Q 1274 595 1274 1562 
Q 1274 2534 1059 3120 
Q 845 3706 186 4224 
z
" transform="scale(0.015625)"/>
     </defs>
     <use xlink:href="#STIXGeneral-Regular-7c" transform="translate(0 0.409375)"/>
     <use xlink:href="#STIXGeneral-Italic-53" transform="translate(19.999985 0.409375)"/>
     <use xlink:href="#STIXGeneral-Regular-31" transform="translate(80.921063 35.684375) scale(0.7)"/>
     <use xlink:href="#STIXGeneral-Regular-32" transform="translate(115.921053 35.684375) scale(0.7)"/>
     <use xlink:href="#STIXGeneral-Regular-28" transform="translate(155.330417 0.409375)"/>
     <use xlink:href="#STIXGeneral-Regular-30" transform="translate(188.630405 0.409375)"/>
     <use xlink:href="#STIXGeneral-Regular-2c" transform="translate(238.630389 0.409375)"/>
     <use xlink:href="#STIXGeneral-Regular-32" transform="translate(278.07037 0.409375)"/>
     <use xlink:href="#STIXGeneral-Regular-29" transform="translate(328.070355 0.409375)"/>
     <use xlink:href="#STIXGeneral-Regular-2193" transform="translate(375.810339 0.409375)"/>
     <use xlink:href="#STIXGeneral-Regular-27e9" transform="translate(441.350327 0.409375)"/>
    </g>
   </g>
   <g id="patch_32">
    <path d="M 860.033908 394.722546 
Q 878.065262 394.722546 891.177266 394.722546 
" style="fill: none; stroke: #6b5b95; stroke-width: 4.4; stroke-linecap: round"/>
    <path d="M 877.577266 387.922546 
L 891.177266 394.722546 
L 877.577266 401.522546 
" style="fill: none; stroke: #6b5b95; stroke-width: 4.4; stroke-linecap: round"/>
   </g>
   <g id="text_29">
    <!-- PSB -->
    <g style="fill: #6b5b95" transform="translate(867.071962 358.461896) scale(0.22 -0.22)">
     <defs>
      <path id="STIXGeneral-Regular-50" d="M 102 4237 
L 1760 4237 
Q 2669 4237 3149 3834 
Q 3469 3565 3469 3072 
Q 3469 2560 3104 2234 
Q 2835 1990 2553 1916 
Q 2272 1843 1734 1843 
Q 1549 1843 1293 1862 
L 1293 717 
Q 1293 352 1398 246 
Q 1504 141 1894 122 
L 1894 0 
L 102 0 
L 102 122 
Q 474 147 557 256 
Q 640 365 640 781 
L 640 3526 
Q 640 3885 547 3987 
Q 454 4090 102 4115 
L 102 4237 
z
M 1293 3770 
L 1293 2118 
Q 1510 2099 1683 2099 
Q 2202 2099 2486 2352 
Q 2771 2605 2771 3040 
Q 2771 3558 2476 3779 
Q 2182 4000 1517 4000 
Q 1382 4000 1337 3952 
Q 1293 3904 1293 3770 
z
" transform="scale(0.015625)"/>
      <path id="STIXGeneral-Regular-53" d="M 3002 2963 
L 2842 2963 
Q 2733 3360 2579 3565 
Q 2189 4064 1651 4064 
Q 1357 4064 1181 3894 
Q 1005 3725 1005 3456 
Q 1005 3328 1069 3206 
Q 1133 3085 1206 2998 
Q 1280 2912 1465 2784 
Q 1651 2656 1766 2589 
Q 1882 2522 2150 2362 
Q 2669 2061 2905 1763 
Q 3142 1466 3142 1107 
Q 3142 576 2771 243 
Q 2400 -90 1837 -90 
Q 1421 -90 1082 58 
Q 915 128 781 128 
Q 704 128 653 70 
Q 602 13 602 -83 
L 461 -83 
L 275 1274 
L 416 1274 
Q 845 141 1734 141 
Q 2074 141 2285 342 
Q 2496 544 2496 858 
Q 2496 1158 2310 1363 
Q 2003 1696 1235 2106 
Q 454 2522 454 3206 
Q 454 3718 768 4022 
Q 1082 4326 1568 4326 
Q 1907 4326 2240 4186 
Q 2413 4109 2522 4109 
Q 2688 4109 2726 4326 
L 2861 4326 
L 3002 2963 
z
" transform="scale(0.015625)"/>
      <path id="STIXGeneral-Regular-42" d="M 2701 2234 
L 2701 2227 
Q 3181 2150 3482 1875 
Q 3795 1594 3795 1139 
Q 3795 608 3379 304 
Q 2963 0 2266 0 
L 109 0 
L 109 122 
Q 486 134 604 246 
Q 723 358 723 723 
L 723 3520 
Q 723 3891 614 3990 
Q 506 4090 109 4115 
L 109 4237 
L 1901 4237 
Q 2726 4237 3152 3958 
Q 3578 3680 3578 3168 
Q 3578 2733 3315 2502 
Q 3130 2342 2701 2234 
z
M 1376 2342 
L 1965 2342 
Q 2925 2342 2925 3136 
Q 2925 3546 2640 3773 
Q 2355 4000 1792 4000 
L 1530 4000 
Q 1376 4000 1376 3795 
L 1376 2342 
z
M 1376 2086 
L 1376 525 
Q 1376 365 1462 301 
Q 1549 237 1773 237 
Q 2208 237 2413 285 
Q 2618 333 2816 512 
Q 3059 723 3059 1146 
Q 3059 1632 2758 1830 
Q 2688 1882 2617 1917 
Q 2547 1952 2492 1974 
Q 2438 1997 2348 2016 
Q 2259 2035 2211 2044 
Q 2163 2054 2041 2060 
Q 1920 2067 1862 2070 
Q 1805 2074 1635 2080 
Q 1466 2086 1376 2086 
z
" transform="scale(0.015625)"/>
     </defs>
     <use xlink:href="#STIXGeneral-Regular-50"/>
     <use xlink:href="#STIXGeneral-Regular-53" transform="translate(55.699997 0)"/>
     <use xlink:href="#STIXGeneral-Regular-42" transform="translate(111.299988 0)"/>
    </g>
   </g>
   <g id="text_30">
    <!-- Readout -->
    <g transform="translate(854.987274 325.847003) scale(0.19 -0.19)">
     <defs>
      <path id="STIXGeneral-Regular-52" d="M 4224 0 
L 3187 0 
L 1664 1971 
L 1306 1958 
L 1306 717 
Q 1306 352 1405 249 
Q 1504 147 1875 122 
L 1875 0 
L 109 0 
L 109 122 
Q 474 154 563 262 
Q 653 371 653 794 
L 653 3526 
Q 653 3885 563 3987 
Q 474 4090 109 4115 
L 109 4237 
L 1850 4237 
Q 2726 4237 3187 3859 
Q 3501 3603 3501 3091 
Q 3501 2221 2342 2042 
L 3622 422 
Q 3757 256 3878 198 
Q 4000 141 4224 122 
L 4224 0 
z
M 1306 3731 
L 1306 2195 
Q 1766 2202 1990 2246 
Q 2214 2291 2438 2413 
Q 2803 2618 2803 3142 
Q 2803 4000 1632 4000 
Q 1459 4000 1382 3945 
Q 1306 3891 1306 3731 
z
" transform="scale(0.015625)"/>
      <path id="STIXGeneral-Regular-75" d="M 3072 320 
L 3072 230 
Q 2573 96 2195 -58 
L 2163 -38 
L 2163 486 
L 2150 486 
Q 1747 -64 1235 -64 
Q 870 -64 662 160 
Q 454 384 454 755 
L 454 2362 
Q 454 2598 371 2688 
Q 288 2778 58 2790 
L 58 2880 
L 992 2880 
L 992 813 
Q 992 595 1123 451 
Q 1254 307 1446 307 
Q 1760 307 1984 506 
Q 2067 582 2099 649 
Q 2131 717 2131 877 
L 2131 2355 
Q 2131 2605 2041 2678 
Q 1952 2752 1658 2771 
L 1658 2880 
L 2669 2880 
L 2669 685 
Q 2669 461 2742 390 
Q 2816 320 3034 320 
L 3072 320 
z
" transform="scale(0.015625)"/>
     </defs>
     <use xlink:href="#STIXGeneral-Regular-52"/>
     <use xlink:href="#STIXGeneral-Regular-65" transform="translate(66.699997 0)"/>
     <use xlink:href="#STIXGeneral-Regular-61" transform="translate(111.099991 0)"/>
     <use xlink:href="#STIXGeneral-Regular-64" transform="translate(155.499985 0)"/>
     <use xlink:href="#STIXGeneral-Regular-6f" transform="translate(205.499969 0)"/>
     <use xlink:href="#STIXGeneral-Regular-75" transform="translate(255.499954 0)"/>
     <use xlink:href="#STIXGeneral-Regular-74" transform="translate(305.499939 0)"/>
    </g>
   </g>
  </g>
  <g id="text_31">
   <!-- (a) -->
   <g transform="translate(1.44 36.606625) scale(0.22 -0.22)">
    <defs>
     <path id="STIXGeneral-Bold-61" d="M 3027 410 
L 3123 275 
Q 2784 -90 2406 -90 
Q 2170 -90 2051 9 
Q 1933 109 1882 352 
Q 1395 -90 864 -90 
Q 544 -90 352 80 
Q 160 250 160 589 
Q 160 1018 589 1306 
Q 909 1517 1875 1792 
L 1875 2227 
Q 1875 2541 1756 2681 
Q 1638 2822 1357 2822 
Q 1178 2822 1059 2758 
Q 941 2694 941 2586 
Q 941 2515 1011 2438 
Q 1133 2291 1133 2170 
Q 1133 2003 1011 1894 
Q 890 1786 698 1786 
Q 499 1786 390 1901 
Q 282 2016 282 2221 
Q 282 2598 618 2812 
Q 954 3027 1504 3027 
Q 2093 3027 2425 2803 
Q 2758 2579 2758 2170 
L 2758 499 
Q 2758 320 2893 320 
Q 2938 320 2963 346 
L 3027 410 
z
M 1875 621 
L 1875 1568 
Q 1094 1350 1094 794 
Q 1094 589 1187 477 
Q 1280 365 1427 365 
Q 1696 365 1875 621 
z
" transform="scale(0.015625)"/>
    </defs>
    <use xlink:href="#STIXGeneral-Bold-28"/>
    <use xlink:href="#STIXGeneral-Bold-61" transform="translate(33.299988 0)"/>
    <use xlink:href="#STIXGeneral-Bold-29" transform="translate(83.299973 0)"/>
   </g>
  </g>
  <g id="text_32">
   <!-- (b) -->
   <g transform="translate(532.872 36.606625) scale(0.22 -0.22)">
    <defs>
     <path id="STIXGeneral-Bold-62" d="M 1350 4326 
L 1350 2669 
Q 1690 3027 2131 3027 
Q 2662 3027 2998 2611 
Q 3334 2195 3334 1530 
Q 3334 806 2931 358 
Q 2528 -90 1888 -90 
Q 1440 -90 1043 275 
L 538 -83 
L 461 -83 
L 461 3802 
Q 461 3994 397 4061 
Q 333 4128 109 4173 
L 109 4326 
L 1350 4326 
z
M 1350 2304 
L 1350 621 
Q 1350 390 1472 252 
Q 1594 115 1792 115 
Q 2394 115 2394 1414 
Q 2394 2682 1798 2682 
Q 1638 2682 1536 2595 
Q 1434 2509 1350 2304 
z
" transform="scale(0.015625)"/>
    </defs>
    <use xlink:href="#STIXGeneral-Bold-28"/>
    <use xlink:href="#STIXGeneral-Bold-62" transform="translate(33.299988 0)"/>
    <use xlink:href="#STIXGeneral-Bold-29" transform="translate(88.899979 0)"/>
   </g>
  </g>
 </g>
 <defs>
  <clipPath id="pfbc08df550">
   <rect x="71.251959" y="36.64" width="356.573568" height="175.702918"/>
  </clipPath>
  <clipPath id="p989028491a">
   <rect x="710.116084" y="36.64" width="175.702918" height="175.702918"/>
  </clipPath>
  <clipPath id="p0e28e90948">
   <rect x="1.44" y="335.686366" width="307.947124" height="98.393634"/>
  </clipPath>
  <clipPath id="pfad96cac62">
   <rect x="743.559924" y="335.686366" width="286.184076" height="98.393634"/>
  </clipPath>
 </defs>
</svg>
