<?xml version="1.0" encoding="utf-8" standalone="no"?>
<!DOCTYPE svg PUBLIC "-//W3C//DTD SVG 1.1//EN"
  "http://www.w3.org/Graphics/SVG/1.1/DTD/svg11.dtd">
<svg xmlns:xlink="http://www.w3.org/1999/xlink" width="375.984pt" height="226.368pt" viewBox="0 0 375.984 226.368" xmlns="http://www.w3.org/2000/svg" version="1.1">
 <metadata>
  <rdf:RDF xmlns:dc="http://purl.org/dc/elements/1.1/" xmlns:cc="http://creativecommons.org/ns#" xmlns:rdf="http://www.w3.org/1999/02/22-rdf-syntax-ns#">
   <cc:Work>
    <dc:type rdf:resource="http://purl.org/dc/dcmitype/StillImage"/>
    <dc:date>2026-05-19T01:01:02.736716</dc:date>
    <dc:format>image/svg+xml</dc:format>
    <dc:creator>
     <cc:Agent>
      <dc:title>Matplotlib v3.10.3, https://matplotlib.org/</dc:title>
     </cc:Agent>
    </dc:creator>
   </cc:Work>
  </rdf:RDF>
 </metadata>
 <defs>
  <style type="text/css">*{stroke-linejoin: round; stroke-linecap: butt}</style>
 </defs>
 <g id="figure_1">
  <g id="patch_1">
   <path d="M 0 226.368 
L 375.984 226.368 
L 375.984 0 
L 0 0 
z
" style="fill: #ffffff"/>
  </g>
  <g id="axes_1">
   <g id="line2d_1">
    <path d="M 166.683258 121.019075 
L 169.947426 119.703816 
L 172.201613 118.562826 
L 174.017166 117.388506 
L 175.14614 116.429938 
L 175.982657 115.458495 
L 176.523399 114.478031 
L 176.766222 113.492434 
L 176.780239 113.245691 
M 26.042898 113.245691 
L 26.140998 113.98563 
L 26.532976 114.969148 
L 27.221947 115.945586 
L 28.20518 116.91107 
L 29.478775 117.861772 
L 31.471285 119.023622 
L 33.897164 120.149289 
L 36.74138 121.231797 
L 40.681653 122.464415 
L 45.163672 123.614245 
L 50.147456 124.671032 
L 56.536502 125.773826 
L 63.47027 126.723797 
L 70.864594 127.509413 
L 78.629717 128.121137 
L 86.671381 128.551545 
L 96.075146 128.814821 
L 105.563492 128.830354 
L 114.986031 128.597898 
L 124.19342 128.121137 
L 131.958543 127.509413 
L 139.352867 126.723797 
L 146.286635 125.773826 
L 152.675681 124.671032 
L 158.44245 123.428801 
L 162.836828 122.264439 
L 166.683258 121.019075 
L 166.683258 121.019075 
" clip-path="url(#p28eb6d972d)" style="fill: none; stroke-dasharray: 1.8,2.4; stroke-dashoffset: 0; stroke: #bdc3c7; stroke-width: 0.6"/>
   </g>
   <g id="line2d_2">
    <path d="M 110.086201 38.317654 
L 108.344679 38.223437 
L 106.587686 38.296487 
L 104.227744 38.653743 
L 101.856632 39.306612 
L 99.483755 40.252504 
L 97.118525 41.487668 
L 94.770322 43.007203 
L 92.44846 44.805084 
L 90.162149 46.874179 
L 87.920457 49.206282 
L 85.732276 51.792142 
L 83.606284 54.621504 
L 81.550914 57.683145 
L 79.574318 60.964921 
L 77.226261 65.356797 
L 75.028062 70.045023 
L 72.993342 75.00055 
L 71.134709 80.192671 
L 69.463679 85.589214 
L 67.990606 91.156743 
L 66.724619 96.860758 
L 65.67356 102.665915 
L 64.843944 108.536246 
L 64.24091 114.435376 
L 63.868196 120.326751 
L 63.728109 126.173868 
L 63.821519 131.940497 
L 64.147847 137.590905 
L 64.705071 143.090082 
L 65.489737 148.403953 
L 66.496985 153.499593 
L 67.720572 158.345426 
L 68.850156 162.021998 
L 70.108889 165.504862 
L 71.491779 168.780203 
L 72.993342 171.835031 
L 74.607621 174.657228 
L 76.328214 177.235602 
L 78.148296 179.559925 
L 80.060648 181.620978 
L 82.057685 183.410587 
L 84.131486 184.921653 
L 86.273826 186.148183 
L 88.476208 187.085311 
L 90.729895 187.729322 
L 91.873192 187.940564 
L 91.873192 187.940564 
" clip-path="url(#p28eb6d972d)" style="fill: none; stroke-dasharray: 1.8,2.4; stroke-dashoffset: 0; stroke: #bdc3c7; stroke-width: 0.6"/>
   </g>
   <g id="line2d_3">
    <path d="M 101.411569 186.906256 
L 101.411569 39.461744 
" clip-path="url(#p28eb6d972d)" style="fill: none; stroke-dasharray: 2.59,1.12; stroke-dashoffset: 0; stroke: #5a6673; stroke-opacity: 0.3; stroke-width: 0.7"/>
   </g>
   <g id="patch_2">
    <path d="M 101.411569 188.553255 
C 121.399729 188.553255 140.571916 180.611875 154.70568 166.478111 
C 168.839443 152.344348 176.780823 133.17216 176.780823 113.184 
C 176.780823 93.19584 168.839443 74.023652 154.70568 59.889889 
C 140.571916 45.756125 121.399729 37.814745 101.411569 37.814745 
C 81.423409 37.814745 62.251221 45.756125 48.117457 59.889889 
C 33.983694 74.023652 26.042314 93.19584 26.042314 113.184 
C 26.042314 133.17216 33.983694 152.344348 48.117457 166.478111 
C 62.251221 180.611875 81.423409 188.553255 101.411569 188.553255 
z
" clip-path="url(#p28eb6d972d)" style="fill: #f8fafc; stroke: #5a6673; stroke-linejoin: miter"/>
   </g>
   <g id="patch_3">
    <path d="M 92.356218 108.996952 
C 97.991036 106.946046 102.920506 103.672934 106.058968 99.898481 
C 109.19743 96.124027 110.288644 92.1564 109.092282 88.869423 
C 107.895921 85.582446 104.509661 83.244486 99.679287 82.370452 
C 94.848914 81.496417 88.968805 82.15767 83.333987 84.208576 
C 77.699169 86.259482 72.7697 89.532594 69.631237 93.307047 
C 66.492775 97.081501 65.401561 101.049128 66.597923 104.336105 
C 67.794285 107.623082 71.180545 109.961042 76.010918 110.835076 
C 80.841292 111.709111 86.7214 111.047858 92.356218 108.996952 
z
" clip-path="url(#p28eb6d972d)" style="fill: #ffffff; opacity: 0.4"/>
   </g>
   <g id="text_1">
    <!-- (b) -->
    <g style="fill: #1a1a1a" transform="translate(14.736925 39.740945) scale(0.14 -0.14)">
     <defs>
      <path id="STIXGeneral-Bold-28" d="M 1958 -896 
L 1958 -1075 
Q 1485 -794 1235 -566 
Q 986 -339 736 19 
Q 294 653 294 1658 
Q 294 2925 1133 3834 
Q 1318 4032 1491 4157 
Q 1664 4282 1958 4442 
L 1958 4269 
Q 1338 3757 1178 3267 
Q 1018 2778 1018 1651 
Q 1018 614 1197 108 
Q 1376 -397 1958 -896 
z
" transform="scale(0.015625)"/>
      <path id="STIXGeneral-Bold-62" d="M 1350 4326 
L 1350 2669 
Q 1690 3027 2131 3027 
Q 2662 3027 2998 2611 
Q 3334 2195 3334 1530 
Q 3334 806 2931 358 
Q 2528 -90 1888 -90 
Q 1440 -90 1043 275 
L 538 -83 
L 461 -83 
L 461 3802 
Q 461 3994 397 4061 
Q 333 4128 109 4173 
L 109 4326 
L 1350 4326 
z
M 1350 2304 
L 1350 621 
Q 1350 390 1472 252 
Q 1594 115 1792 115 
Q 2394 115 2394 1414 
Q 2394 2682 1798 2682 
Q 1638 2682 1536 2595 
Q 1434 2509 1350 2304 
z
" transform="scale(0.015625)"/>
      <path id="STIXGeneral-Bold-29" d="M 173 4262 
L 173 4442 
Q 653 4154 912 3910 
Q 1171 3667 1395 3302 
Q 1837 2566 1837 1709 
Q 1837 442 998 -467 
Q 813 -666 640 -790 
Q 467 -915 173 -1075 
L 173 -902 
Q 397 -730 550 -579 
Q 704 -429 813 -243 
Q 922 -58 979 102 
Q 1037 262 1069 534 
Q 1101 806 1107 1049 
Q 1114 1293 1114 1715 
Q 1114 2822 950 3296 
Q 787 3770 173 4262 
z
" transform="scale(0.015625)"/>
     </defs>
     <use xlink:href="#STIXGeneral-Bold-28"/>
     <use xlink:href="#STIXGeneral-Bold-62" transform="translate(33.299988 0)"/>
     <use xlink:href="#STIXGeneral-Bold-29" transform="translate(88.899979 0)"/>
    </g>
   </g>
   <g id="text_2">
    <!-- $|01\rangle$ -->
    <g style="fill: #1a1a1a" transform="translate(90.611569 25.940049) scale(0.135 -0.135)">
     <defs>
      <path id="STIXGeneral-Regular-7c" d="M 851 -90 
L 429 -90 
L 429 4326 
L 851 4326 
L 851 -90 
z
" transform="scale(0.015625)"/>
      <path id="STIXGeneral-Regular-30" d="M 3046 2112 
Q 3046 1683 2963 1302 
Q 2880 922 2717 602 
Q 2554 282 2266 96 
Q 1978 -90 1600 -90 
Q 1210 -90 915 108 
Q 621 307 461 640 
Q 301 973 227 1350 
Q 154 1728 154 2150 
Q 154 2746 301 3222 
Q 448 3699 790 4012 
Q 1133 4326 1626 4326 
Q 2253 4326 2649 3712 
Q 3046 3098 3046 2112 
z
M 2432 2080 
Q 2432 3091 2217 3625 
Q 2003 4160 1587 4160 
Q 1190 4160 979 3622 
Q 768 3085 768 2106 
Q 768 1120 979 598 
Q 1190 77 1600 77 
Q 2003 77 2217 598 
Q 2432 1120 2432 2080 
z
" transform="scale(0.015625)"/>
      <path id="STIXGeneral-Regular-31" d="M 2522 0 
L 755 0 
L 755 96 
Q 1107 115 1235 227 
Q 1363 339 1363 608 
L 1363 3482 
Q 1363 3795 1171 3795 
Q 1082 3795 883 3718 
L 710 3654 
L 710 3744 
L 1856 4326 
L 1914 4307 
L 1914 486 
Q 1914 275 2042 185 
Q 2170 96 2522 96 
L 2522 0 
z
" transform="scale(0.015625)"/>
      <path id="STIXGeneral-Regular-27e9" d="M 2067 1536 
L 749 -1363 
L 416 -1363 
L 1645 1600 
L 422 4563 
L 755 4563 
L 2067 1664 
L 2067 1536 
z
" transform="scale(0.015625)"/>
     </defs>
     <use xlink:href="#STIXGeneral-Regular-7c" transform="translate(0 0.703125)"/>
     <use xlink:href="#STIXGeneral-Regular-30" transform="translate(19.999985 0.703125)"/>
     <use xlink:href="#STIXGeneral-Regular-31" transform="translate(69.999969 0.703125)"/>
     <use xlink:href="#STIXGeneral-Regular-27e9" transform="translate(119.999954 0.703125)"/>
    </g>
   </g>
   <g id="text_3">
    <!-- $|01\rangle_{\mathrm{L}}$ -->
    <g style="fill: #1a1a1a" transform="translate(87.304069 207.177951) scale(0.135 -0.135)">
     <defs>
      <path id="STIXGeneral-Regular-4c" d="M 3827 1114 
L 3520 0 
L 77 0 
L 77 122 
Q 429 141 531 256 
Q 634 371 634 736 
L 634 3494 
Q 634 3872 541 3981 
Q 448 4090 77 4115 
L 77 4237 
L 1888 4237 
L 1888 4115 
Q 1498 4090 1392 3984 
Q 1286 3878 1286 3507 
L 1286 538 
Q 1286 358 1398 304 
Q 1510 250 1862 250 
L 2310 250 
Q 3085 250 3392 640 
Q 3520 813 3661 1114 
L 3827 1114 
z
" transform="scale(0.015625)"/>
     </defs>
     <use xlink:href="#STIXGeneral-Regular-7c" transform="translate(0 0.703125)"/>
     <use xlink:href="#STIXGeneral-Regular-30" transform="translate(19.999985 0.703125)"/>
     <use xlink:href="#STIXGeneral-Regular-31" transform="translate(69.999969 0.703125)"/>
     <use xlink:href="#STIXGeneral-Regular-27e9" transform="translate(119.999954 0.703125)"/>
     <use xlink:href="#STIXGeneral-Regular-4c" transform="translate(161.54322 -12.525) scale(0.7)"/>
    </g>
   </g>
   <g id="text_4">
    <!-- $\vec{\Omega}$ -->
    <g style="fill: #d35400" transform="translate(34.182794 70.724931) scale(0.13 -0.13)">
     <defs>
      <path id="STIXGeneral-Regular-20d7" d="M -109 4186 
L -954 3507 
L -1069 3558 
Q -755 3821 -755 3917 
Q -755 4013 -1069 4013 
L -2899 4013 
L -2899 4358 
L -1069 4358 
Q -755 4358 -755 4454 
Q -755 4474 -768 4496 
Q -781 4518 -816 4553 
Q -851 4589 -880 4621 
Q -909 4653 -973 4713 
Q -1037 4774 -1075 4813 
L -960 4864 
L -109 4186 
z
" transform="scale(0.015625)"/>
      <path id="STIXGeneral-Regular-3a9" d="M 4576 0 
L 2746 0 
L 2790 1030 
Q 3187 1126 3440 1574 
Q 3693 2022 3693 2554 
Q 3693 3251 3344 3673 
Q 2995 4096 2380 4096 
Q 1766 4096 1417 3635 
Q 1069 3174 1069 2554 
Q 1069 2054 1315 1600 
Q 1562 1146 1965 1030 
L 2022 0 
L 186 0 
L 186 1094 
L 346 1094 
Q 352 806 438 707 
Q 525 608 742 608 
L 1709 608 
L 1696 845 
Q 1018 1037 678 1446 
Q 339 1856 339 2541 
Q 339 3238 899 3782 
Q 1459 4326 2380 4326 
Q 3302 4326 3862 3804 
Q 4422 3283 4422 2541 
Q 4422 1235 3046 845 
L 3034 608 
L 4019 608 
Q 4397 608 4416 1082 
L 4576 1082 
L 4576 0 
z
" transform="scale(0.015625)"/>
     </defs>
     <use xlink:href="#STIXGeneral-Regular-20d7" transform="translate(69.896873 26)"/>
     <use xlink:href="#STIXGeneral-Regular-3a9" transform="translate(0 0.703125)"/>
    </g>
   </g>
   <g id="text_5">
    <!-- $t=0, t_1$ -->
    <g style="fill: #626f7d" transform="translate(64.069873 51.979488) scale(0.095 -0.095)">
     <defs>
      <path id="STIXGeneral-Italic-74" d="M 1894 2739 
L 1862 2534 
L 1325 2534 
L 768 435 
Q 755 384 755 346 
Q 755 243 851 243 
Q 928 243 1030 342 
Q 1133 442 1370 749 
L 1453 704 
Q 1158 256 969 93 
Q 781 -70 538 -70 
Q 243 -70 243 166 
Q 243 230 346 640 
L 845 2534 
L 365 2534 
L 358 2573 
Q 358 2688 570 2733 
Q 730 2771 992 2979 
Q 1254 3187 1421 3437 
Q 1459 3494 1510 3494 
Q 1568 3494 1568 3443 
Q 1568 3411 1562 3398 
L 1382 2739 
L 1894 2739 
z
" transform="scale(0.015625)"/>
      <path id="STIXGeneral-Regular-3d" d="M 4077 2048 
L 307 2048 
L 307 2470 
L 4077 2470 
L 4077 2048 
z
M 4077 768 
L 307 768 
L 307 1190 
L 4077 1190 
L 4077 768 
z
" transform="scale(0.015625)"/>
      <path id="STIXGeneral-Regular-2c" d="M 531 -902 
L 467 -781 
Q 998 -422 998 -96 
Q 998 -13 909 -13 
Q 883 -13 822 -25 
Q 762 -38 723 -38 
Q 352 -38 352 288 
Q 352 454 457 553 
Q 563 653 736 653 
Q 954 653 1101 496 
Q 1248 339 1248 96 
Q 1248 -198 1053 -473 
Q 858 -749 531 -902 
z
" transform="scale(0.015625)"/>
     </defs>
     <use xlink:href="#STIXGeneral-Italic-74" transform="translate(0 0.40625)"/>
     <use xlink:href="#STIXGeneral-Regular-3d" transform="translate(42.239984 0.40625)"/>
     <use xlink:href="#STIXGeneral-Regular-30" transform="translate(125.179965 0.40625)"/>
     <use xlink:href="#STIXGeneral-Regular-2c" transform="translate(175.17995 0.40625)"/>
     <use xlink:href="#STIXGeneral-Italic-74" transform="translate(214.619931 0.40625)"/>
     <use xlink:href="#STIXGeneral-Regular-31" transform="translate(242.419919 -12.821875) scale(0.7)"/>
    </g>
   </g>
   <g id="line2d_4">
    <path d="M 176.775567 112.998932 
L 176.649448 112.259176 
L 176.220237 111.27633 
L 175.494309 110.301051 
L 174.474544 109.337206 
L 173.164986 108.388619 
L 171.128538 107.230066 
L 168.660106 106.108405 
L 165.774984 105.030586 
L 161.788154 103.804457 
L 157.262729 102.661999 
L 152.23908 101.613404 
L 145.808469 100.521103 
L 138.838941 99.582513 
L 131.415095 98.809026 
L 123.627046 98.210032 
L 115.569332 97.792801 
L 106.155888 97.544927 
L 96.667249 97.544927 
L 87.253805 97.792801 
L 78.064756 98.28462 
L 70.32304 98.909037 
L 62.958696 99.706733 
L 56.061118 100.668025 
L 49.714033 101.781244 
L 43.994486 103.032877 
L 39.644338 104.204396 
L 35.845189 105.456019 
L 33.12474 106.552192 
L 30.827414 107.689457 
L 28.967446 108.860768 
L 27.802206 109.817459 
L 26.928927 110.787502 
L 26.351071 111.767051 
L 26.070931 112.752219 
L 26.04757 112.998932 
L 26.04757 112.998932 
" clip-path="url(#p28eb6d972d)" style="fill: none; stroke: #5a6673; stroke-opacity: 0.4; stroke-width: 0.7; stroke-linecap: square"/>
   </g>
   <g id="line2d_5">
    <path d="M 139.096196 99.613253 
L 138.979444 93.856648 
L 138.629912 88.219801 
L 138.049765 82.737639 
L 137.242599 77.44413 
L 136.213414 72.372075 
L 134.968588 67.5529 
L 133.822605 63.89976 
L 132.548069 60.442097 
L 131.150035 57.193627 
L 129.634047 54.167234 
L 128.00612 51.374922 
L 126.27271 48.827765 
L 124.440691 46.535868 
L 122.517332 44.50832 
L 120.510259 42.753163 
L 118.427435 41.27736 
L 116.27712 40.086762 
L 114.067843 39.186094 
L 111.808367 38.578927 
L 110.662598 38.386204 
M 92.44846 188.018391 
L 94.187025 188.140475 
L 95.94171 188.095301 
L 98.299597 187.77512 
L 100.669826 187.159085 
L 103.042997 186.24964 
L 105.409698 185.050391 
L 107.760541 183.566095 
L 110.086201 181.80264 
L 112.377455 179.767019 
L 114.625214 177.467308 
L 116.820564 174.912626 
L 118.954796 172.113108 
L 121.019445 169.079857 
L 123.006324 165.824903 
L 124.907549 162.361158 
L 127.15218 157.758867 
L 129.237315 152.880378 
L 131.150035 147.75592 
L 132.878487 142.417246 
L 134.411962 136.897435 
L 135.740958 131.230689 
L 136.85724 125.452122 
L 137.753892 119.597537 
L 138.425358 113.703213 
L 138.867476 107.805672 
L 139.077508 101.941456 
L 139.096196 99.613253 
L 139.096196 99.613253 
" clip-path="url(#p28eb6d972d)" style="fill: none; stroke: #5a6673; stroke-opacity: 0.4; stroke-width: 0.7; stroke-linecap: square"/>
   </g>
   <g id="line2d_6">
    <path d="M 101.411569 113.184 
L 47.701257 76.404701 
" clip-path="url(#p28eb6d972d)" style="fill: none; stroke-dasharray: 1.2,1.98; stroke-dashoffset: 0; stroke: #edbb99; stroke-width: 1.2"/>
   </g>
   <g id="line2d_7">
    <path d="M 101.411569 39.461744 
L 103.679184 38.756246 
L 105.811031 38.321311 
L 107.622663 38.162477 
L 109.144051 38.212731 
M 34.323849 147.531463 
L 33.665216 145.969909 
L 33.171237 144.208006 
L 32.843866 142.252721 
L 32.677714 139.8878 
L 32.715504 137.309574 
L 32.989086 134.26821 
L 33.503586 131.005009 
L 34.329397 127.241115 
L 35.428973 123.263843 
L 36.910828 118.772507 
L 38.690154 114.099343 
L 40.753166 109.28056 
L 43.260135 103.998422 
L 46.052088 98.638971 
L 49.104193 93.249873 
L 52.389304 87.879057 
L 56.117294 82.224149 
L 60.039407 76.7016 
L 64.115959 71.36729 
L 68.041325 66.585361 
L 72.031274 62.058866 
L 76.05032 57.82806 
L 80.062718 53.930573 
L 83.770141 50.624272 
L 87.411957 47.664173 
L 90.959948 45.073212 
L 94.146458 43.015442 
L 97.207064 41.307049 
L 99.90279 40.050078 
L 101.411569 39.461744 
L 101.411569 39.461744 
" clip-path="url(#p28eb6d972d)" style="fill: none; stroke-dasharray: 2.8,2.8; stroke-dashoffset: 0; stroke: #a9cce3; stroke-width: 1.4"/>
   </g>
   <g id="patch_4">
    <path d="M 38.126879 115.593445 
Q 38.392549 114.92307 38.163926 115.499962 
" clip-path="url(#p28eb6d972d)" style="fill: none; stroke: #a9cce3; stroke-width: 1.2; stroke-linecap: round"/>
    <path d="M 35.164212 118.183563 
L 38.163926 115.499962 
L 38.510979 119.509894 
z
" clip-path="url(#p28eb6d972d)" style="fill: #a9cce3; stroke: #a9cce3; stroke-width: 1.2; stroke-linecap: round"/>
   </g>
   <g id="line2d_8">
    <path d="M 109.306489 38.229613 
L 110.855849 38.522451 
L 112.130229 38.978044 
L 113.286641 39.614071 
L 114.32138 40.428494 
L 115.23113 41.418705 
L 116.012978 42.581531 
L 116.728658 44.071462 
L 117.280521 45.763996 
L 117.666386 47.652438 
L 117.897309 49.947065 
L 117.924436 52.458712 
L 117.721476 55.432053 
L 117.277002 58.632416 
L 116.525916 62.334503 
L 115.499398 66.256885 
L 114.093798 70.697265 
L 112.387635 75.328316 
L 110.394131 80.114156 
L 107.956963 85.37146 
L 105.229375 90.717117 
L 102.235626 96.103581 
L 99.002341 101.482948 
L 95.321919 107.159218 
L 91.438942 112.715551 
L 87.392697 118.095725 
L 83.487451 122.931211 
L 79.509414 127.520998 
L 75.493964 131.824266 
L 71.476816 135.802742 
L 67.757465 139.191691 
L 64.096578 142.240598 
L 60.522521 144.925841 
L 57.305721 147.075419 
L 54.209168 148.879097 
L 51.475449 150.226557 
L 48.877393 151.26132 
L 46.627666 151.930093 
L 44.515138 152.327943 
L 42.722232 152.452899 
L 41.058165 152.35187 
L 39.529517 152.025254 
L 38.274524 151.539472 
L 37.138144 150.873555 
L 36.124017 150.029638 
L 35.235393 149.010422 
L 34.475116 147.819174 
L 34.398674 147.676354 
L 34.398674 147.676354 
" clip-path="url(#p28eb6d972d)" style="fill: none; opacity: 0.9; stroke: #ffffff; stroke-width: 3.5; stroke-linecap: round"/>
    <path d="M 109.306489 38.229613 
L 110.855849 38.522451 
L 112.130229 38.978044 
L 113.286641 39.614071 
L 114.32138 40.428494 
L 115.23113 41.418705 
L 116.012978 42.581531 
L 116.728658 44.071462 
L 117.280521 45.763996 
L 117.666386 47.652438 
L 117.897309 49.947065 
L 117.924436 52.458712 
L 117.721476 55.432053 
L 117.277002 58.632416 
L 116.525916 62.334503 
L 115.499398 66.256885 
L 114.093798 70.697265 
L 112.387635 75.328316 
L 110.394131 80.114156 
L 107.956963 85.37146 
L 105.229375 90.717117 
L 102.235626 96.103581 
L 99.002341 101.482948 
L 95.321919 107.159218 
L 91.438942 112.715551 
L 87.392697 118.095725 
L 83.487451 122.931211 
L 79.509414 127.520998 
L 75.493964 131.824266 
L 71.476816 135.802742 
L 67.757465 139.191691 
L 64.096578 142.240598 
L 60.522521 144.925841 
L 57.305721 147.075419 
L 54.209168 148.879097 
L 51.475449 150.226557 
L 48.877393 151.26132 
L 46.627666 151.930093 
L 44.515138 152.327943 
L 42.722232 152.452899 
L 41.058165 152.35187 
L 39.529517 152.025254 
L 38.274524 151.539472 
L 37.138144 150.873555 
L 36.124017 150.029638 
L 35.235393 149.010422 
L 34.475116 147.819174 
L 34.398674 147.676354 
L 34.398674 147.676354 
" clip-path="url(#p28eb6d972d)" style="fill: none; stroke: #1f77b4; stroke-width: 2.2; stroke-linecap: round"/>
   </g>
   <g id="patch_5">
    <path d="M 117.467503 57.15357 
Q 117.463848 57.17938 117.695336 55.544706 
" clip-path="url(#p28eb6d972d)" style="fill: none; stroke: #1f77b4; stroke-width: 1.5; stroke-linecap: round"/>
    <path d="M 120.236427 51.864644 
L 117.695336 55.544706 
L 116.275941 51.303796 
z
" clip-path="url(#p28eb6d972d)" style="fill: #1f77b4; stroke: #1f77b4; stroke-width: 1.5; stroke-linecap: round"/>
   </g>
   <g id="patch_6">
    <path d="M 99.762625 112.05485 
Q 74.556521 94.794425 51.010882 78.671039 
" clip-path="url(#p28eb6d972d)" style="fill: none; stroke: #d35400; stroke-width: 1.8; stroke-linecap: round"/>
    <path d="M 53.615323 83.363254 
L 51.010882 78.671039 
L 56.327319 79.402815 
z
" clip-path="url(#p28eb6d972d)" style="fill: #d35400; stroke: #d35400; stroke-width: 1.8; stroke-linecap: round"/>
   </g>
   <g id="text_6">
    <!-- $P_{\mathrm{leak}}^{\max}$ -->
    <g style="fill: #1a1a1a" transform="translate(55.329883 156.225617) scale(0.105 -0.105)">
     <defs>
      <path id="STIXGeneral-Italic-50" d="M 934 4179 
L 2477 4179 
Q 3872 4179 3872 3232 
Q 3872 2976 3753 2729 
Q 3635 2483 3437 2317 
Q 2995 1952 2125 1952 
Q 1773 1952 1549 2003 
L 1210 768 
Q 1120 422 1120 365 
Q 1120 250 1216 189 
Q 1312 128 1562 102 
L 1562 0 
L 0 0 
L 0 102 
Q 275 141 361 227 
Q 448 314 538 627 
L 1280 3277 
Q 1389 3667 1389 3808 
Q 1389 3936 1299 3990 
Q 1210 4045 934 4077 
L 934 4179 
z
M 2048 3789 
L 1606 2221 
Q 1792 2189 1939 2189 
Q 2496 2189 2758 2342 
Q 3213 2598 3213 3200 
Q 3213 3987 2381 3987 
Q 2099 3987 2048 3789 
z
" transform="scale(0.015625)"/>
      <path id="STIXGeneral-Regular-6d" d="M 4960 0 
L 3565 0 
L 3565 96 
Q 3834 122 3907 208 
Q 3981 294 3981 576 
L 3981 1894 
Q 3981 2278 3869 2444 
Q 3757 2611 3488 2611 
Q 3264 2611 3107 2521 
Q 2950 2432 2803 2221 
L 2803 608 
Q 2803 301 2896 201 
Q 2989 102 3264 96 
L 3264 0 
L 1830 0 
L 1830 96 
Q 2112 115 2189 188 
Q 2266 262 2266 550 
L 2266 1901 
Q 2266 2611 1850 2611 
Q 1670 2611 1468 2531 
Q 1267 2451 1171 2336 
Q 1088 2240 1088 2227 
L 1088 448 
Q 1088 243 1177 176 
Q 1267 109 1523 96 
L 1523 0 
L 102 0 
L 102 96 
Q 371 102 460 195 
Q 550 288 550 563 
L 550 2150 
Q 550 2387 499 2480 
Q 448 2573 326 2573 
Q 230 2573 122 2547 
L 122 2656 
Q 557 2778 1011 2944 
L 1062 2925 
L 1062 2451 
L 1075 2451 
Q 1363 2752 1584 2848 
Q 1805 2944 2054 2944 
Q 2560 2944 2733 2406 
Q 3232 2944 3776 2944 
Q 4518 2944 4518 1792 
L 4518 493 
Q 4518 282 4582 202 
Q 4646 122 4794 109 
L 4960 96 
L 4960 0 
z
" transform="scale(0.015625)"/>
      <path id="STIXGeneral-Regular-61" d="M 2829 422 
L 2829 243 
Q 2586 -64 2253 -64 
Q 1888 -64 1843 403 
L 1837 403 
Q 1427 -64 909 -64 
Q 608 -64 422 112 
Q 237 288 237 602 
Q 237 1050 685 1350 
Q 992 1555 1837 1869 
L 1837 2214 
Q 1837 2502 1699 2646 
Q 1562 2790 1338 2790 
Q 1146 2790 1018 2697 
Q 890 2605 890 2477 
Q 890 2419 909 2348 
Q 928 2278 928 2208 
Q 928 2112 841 2029 
Q 755 1946 634 1946 
Q 525 1946 441 2029 
Q 358 2112 358 2240 
Q 358 2547 685 2752 
Q 986 2944 1421 2944 
Q 1939 2944 2176 2656 
Q 2291 2522 2323 2384 
Q 2355 2246 2355 1946 
L 2355 723 
Q 2355 301 2554 301 
Q 2682 301 2829 422 
z
M 1837 813 
L 1837 1715 
Q 1248 1510 1018 1293 
Q 800 1094 800 800 
Q 800 557 921 432 
Q 1043 307 1242 307 
Q 1453 307 1613 410 
Q 1747 506 1792 589 
Q 1837 672 1837 813 
z
" transform="scale(0.015625)"/>
      <path id="STIXGeneral-Regular-78" d="M 3066 0 
L 1779 0 
L 1779 96 
Q 1939 109 1987 137 
Q 2035 166 2035 250 
Q 2035 307 1997 365 
L 1414 1261 
L 909 474 
Q 781 275 781 211 
Q 781 96 1037 96 
L 1037 0 
L 109 0 
L 109 96 
Q 269 109 355 169 
Q 442 230 576 422 
L 1306 1478 
L 704 2400 
Q 557 2624 454 2704 
Q 352 2784 211 2784 
L 154 2784 
L 154 2880 
L 1478 2880 
L 1478 2784 
Q 1203 2778 1203 2643 
Q 1203 2509 1498 2074 
Q 1581 1958 1587 1946 
Q 1619 1990 1779 2227 
Q 1811 2285 1856 2349 
Q 1901 2413 1923 2451 
Q 1946 2490 1971 2528 
Q 1997 2566 2006 2595 
Q 2016 2624 2016 2643 
Q 2016 2765 1760 2784 
L 1760 2880 
L 2771 2880 
L 2771 2784 
Q 2445 2771 2253 2502 
L 1722 1734 
L 2541 480 
Q 2790 96 3066 96 
L 3066 0 
z
" transform="scale(0.015625)"/>
      <path id="STIXGeneral-Regular-6c" d="M 1645 0 
L 134 0 
L 134 96 
Q 435 122 531 221 
Q 627 320 627 589 
L 627 3590 
Q 627 3821 569 3910 
Q 512 4000 358 4000 
Q 224 4000 122 3987 
L 122 4090 
Q 730 4237 1133 4371 
L 1165 4346 
L 1165 557 
Q 1165 288 1254 201 
Q 1344 115 1645 96 
L 1645 0 
z
" transform="scale(0.015625)"/>
      <path id="STIXGeneral-Regular-65" d="M 2611 1050 
L 2714 1005 
Q 2330 -64 1376 -64 
Q 813 -64 486 329 
Q 160 723 160 1389 
Q 160 2074 525 2509 
Q 890 2944 1485 2944 
Q 2061 2944 2374 2502 
Q 2560 2246 2592 1773 
L 621 1773 
Q 646 1370 700 1158 
Q 755 947 915 730 
Q 1184 378 1626 378 
Q 1939 378 2153 531 
Q 2368 685 2611 1050 
z
M 634 1978 
L 1939 1978 
Q 1882 2381 1750 2547 
Q 1619 2714 1312 2714 
Q 1043 2714 864 2525 
Q 685 2336 634 1978 
z
" transform="scale(0.015625)"/>
      <path id="STIXGeneral-Regular-6b" d="M 3232 0 
L 1837 0 
L 1837 96 
L 1958 96 
Q 2093 96 2093 192 
Q 2093 250 2022 339 
L 1062 1606 
L 1062 429 
Q 1062 262 1142 185 
Q 1222 109 1414 102 
L 1542 96 
L 1542 0 
L 45 0 
L 45 96 
Q 390 154 457 214 
Q 525 275 525 525 
L 525 3610 
Q 525 3840 467 3920 
Q 410 4000 250 4000 
Q 211 4000 45 3987 
L 45 4090 
L 237 4141 
Q 621 4243 1037 4371 
L 1062 4358 
L 1062 1670 
L 1939 2451 
Q 2086 2586 2086 2675 
Q 2086 2739 2019 2761 
Q 1952 2784 1766 2790 
L 1766 2880 
L 3072 2880 
L 3072 2784 
Q 2752 2784 2505 2646 
Q 2259 2509 1690 1978 
L 1504 1805 
L 2483 563 
Q 2829 122 3232 96 
L 3232 0 
z
" transform="scale(0.015625)"/>
     </defs>
     <use xlink:href="#STIXGeneral-Italic-50" transform="translate(0 0.525)"/>
     <use xlink:href="#STIXGeneral-Regular-6d" transform="translate(71.725772 35.8) scale(0.7)"/>
     <use xlink:href="#STIXGeneral-Regular-61" transform="translate(126.185764 35.8) scale(0.7)"/>
     <use xlink:href="#STIXGeneral-Regular-78" transform="translate(157.265759 35.8) scale(0.7)"/>
     <use xlink:href="#STIXGeneral-Regular-6c" transform="translate(61.099991 -25.93125) scale(0.7)"/>
     <use xlink:href="#STIXGeneral-Regular-65" transform="translate(80.559982 -25.93125) scale(0.7)"/>
     <use xlink:href="#STIXGeneral-Regular-61" transform="translate(111.639978 -25.93125) scale(0.7)"/>
     <use xlink:href="#STIXGeneral-Regular-6b" transform="translate(142.719974 -25.93125) scale(0.7)"/>
    </g>
   </g>
   <g id="PathCollection_1">
    <defs>
     <path id="m123ec9d3f2" d="M 0 3 
C 0.795609 3 1.55874 2.683901 2.12132 2.12132 
C 2.683901 1.55874 3 0.795609 3 0 
C 3 -0.795609 2.683901 -1.55874 2.12132 -2.12132 
C 1.55874 -2.683901 0.795609 -3 0 -3 
C -0.795609 -3 -1.55874 -2.683901 -2.12132 -2.12132 
C -2.683901 -1.55874 -3 -0.795609 -3 0 
C -3 0.795609 -2.683901 1.55874 -2.12132 2.12132 
C -1.55874 2.683901 -0.795609 3 0 3 
z
" style="stroke: #ffffff; stroke-width: 0.8"/>
    </defs>
    <g clip-path="url(#p28eb6d972d)">
     <use xlink:href="#m123ec9d3f2" x="101.411569" y="39.461744" style="fill: #c0392b; stroke: #ffffff; stroke-width: 0.8"/>
    </g>
   </g>
   <g id="PathCollection_2">
    <defs>
     <path id="m86359434a4" d="M 0 2.12132 
C 0.562581 2.12132 1.102195 1.897805 1.5 1.5 
C 1.897805 1.102195 2.12132 0.562581 2.12132 0 
C 2.12132 -0.562581 1.897805 -1.102195 1.5 -1.5 
C 1.102195 -1.897805 0.562581 -2.12132 0 -2.12132 
C -0.562581 -2.12132 -1.102195 -1.897805 -1.5 -1.5 
C -1.897805 -1.102195 -2.12132 -0.562581 -2.12132 0 
C -2.12132 0.562581 -1.897805 1.102195 -1.5 1.5 
C -1.102195 1.897805 -0.562581 2.12132 0 2.12132 
z
" style="stroke: #ffffff; stroke-width: 0.7"/>
    </defs>
    <g clip-path="url(#p28eb6d972d)">
     <use xlink:href="#m86359434a4" x="49.300343" y="151.110847" style="fill: #1f77b4; stroke: #ffffff; stroke-width: 0.7"/>
    </g>
   </g>
  </g>
  <g id="axes_2">
   <g id="text_7">
    <!-- $\vec{\Omega} = (J_{\mathrm{int}},\, 0,\, \Delta)$ -->
    <g style="fill: #d35400" transform="translate(202.594793 62.667945) scale(0.12 -0.12)">
     <defs>
      <path id="STIXGeneral-Regular-28" d="M 1946 -1030 
L 1869 -1133 
Q 1126 -710 716 32 
Q 307 774 307 1613 
Q 307 3386 1888 4326 
L 1946 4224 
Q 1293 3667 1075 3126 
Q 858 2586 858 1632 
Q 858 685 1082 96 
Q 1306 -493 1946 -1030 
z
" transform="scale(0.015625)"/>
      <path id="STIXGeneral-Italic-4a" d="M 3142 4179 
L 3142 4077 
Q 2867 4038 2784 3964 
Q 2701 3891 2618 3603 
L 1958 1254 
Q 1773 589 1504 237 
Q 1235 -115 710 -115 
Q 371 -115 166 38 
Q -38 192 -38 448 
Q -38 602 42 704 
Q 122 806 250 806 
Q 378 806 477 720 
Q 576 634 576 512 
Q 576 474 566 419 
Q 557 365 557 339 
Q 557 90 781 90 
Q 1005 90 1120 499 
L 1933 3405 
Q 2010 3686 2010 3814 
Q 2010 3942 1914 3996 
Q 1818 4051 1517 4077 
L 1517 4179 
L 3142 4179 
z
" transform="scale(0.015625)"/>
      <path id="STIXGeneral-Regular-69" d="M 1152 4045 
Q 1152 3904 1056 3811 
Q 960 3718 819 3718 
Q 685 3718 592 3811 
Q 499 3904 499 4045 
Q 499 4179 595 4275 
Q 691 4371 826 4371 
Q 966 4371 1059 4275 
Q 1152 4179 1152 4045 
z
M 1619 0 
L 102 0 
L 102 96 
Q 435 115 521 211 
Q 608 307 608 666 
L 608 2118 
Q 608 2342 563 2432 
Q 518 2522 397 2522 
Q 243 2522 128 2490 
L 128 2592 
L 1120 2944 
L 1146 2918 
L 1146 672 
Q 1146 314 1226 218 
Q 1306 122 1619 96 
L 1619 0 
z
" transform="scale(0.015625)"/>
      <path id="STIXGeneral-Regular-6e" d="M 3104 0 
L 1773 0 
L 1779 96 
Q 2016 115 2096 233 
Q 2176 352 2176 672 
L 2176 1946 
Q 2176 2592 1709 2592 
Q 1549 2592 1408 2515 
Q 1267 2438 1050 2227 
L 1050 461 
Q 1050 269 1136 192 
Q 1222 115 1466 96 
L 1466 0 
L 115 0 
L 115 96 
Q 358 115 435 214 
Q 512 314 512 602 
L 512 2157 
Q 512 2394 467 2483 
Q 422 2573 288 2573 
Q 160 2573 102 2547 
L 102 2656 
Q 550 2784 979 2944 
L 1030 2925 
L 1030 2426 
L 1037 2426 
Q 1491 2944 1958 2944 
Q 2323 2944 2518 2688 
Q 2714 2432 2714 1958 
L 2714 544 
Q 2714 288 2790 205 
Q 2867 122 3104 96 
L 3104 0 
z
" transform="scale(0.015625)"/>
      <path id="STIXGeneral-Regular-74" d="M 1702 493 
L 1786 422 
Q 1478 -64 1011 -64 
Q 448 -64 448 749 
L 448 2675 
L 109 2675 
Q 83 2694 83 2720 
Q 83 2771 192 2842 
Q 435 2982 813 3526 
Q 826 3546 874 3606 
Q 922 3667 941 3706 
Q 986 3706 986 3622 
L 986 2880 
L 1632 2880 
L 1632 2675 
L 986 2675 
L 986 845 
Q 986 538 1062 403 
Q 1139 269 1318 269 
Q 1510 269 1702 493 
z
" transform="scale(0.015625)"/>
      <path id="STIXGeneral-Regular-394" d="M 4320 0 
L 307 0 
L 2221 4314 
L 2349 4314 
L 4320 0 
z
M 3354 589 
L 2118 3405 
L 870 589 
L 3354 589 
z
" transform="scale(0.015625)"/>
      <path id="STIXGeneral-Regular-29" d="M 186 4224 
L 262 4326 
Q 992 3891 1408 3148 
Q 1824 2406 1824 1581 
Q 1824 -166 243 -1133 
L 186 -1030 
Q 845 -486 1059 54 
Q 1274 595 1274 1562 
Q 1274 2534 1059 3120 
Q 845 3706 186 4224 
z
" transform="scale(0.015625)"/>
     </defs>
     <use xlink:href="#STIXGeneral-Regular-20d7" transform="translate(69.896873 26)"/>
     <use xlink:href="#STIXGeneral-Regular-3a9" transform="translate(0 0.703125)"/>
     <use xlink:href="#STIXGeneral-Regular-3d" transform="translate(88.83999 0.703125)"/>
     <use xlink:href="#STIXGeneral-Regular-28" transform="translate(171.779971 0.703125)"/>
     <use xlink:href="#STIXGeneral-Italic-4a" transform="translate(205.079959 0.703125)"/>
     <use xlink:href="#STIXGeneral-Regular-69" transform="translate(249.479953 -12.525) scale(0.7)"/>
     <use xlink:href="#STIXGeneral-Regular-6e" transform="translate(268.939944 -12.525) scale(0.7)"/>
     <use xlink:href="#STIXGeneral-Regular-74" transform="translate(303.939934 -12.525) scale(0.7)"/>
     <use xlink:href="#STIXGeneral-Regular-2c" transform="translate(327.8093 0.703125)"/>
     <use xlink:href="#STIXGeneral-Regular-30" transform="translate(379.282852 0.703125)"/>
     <use xlink:href="#STIXGeneral-Regular-2c" transform="translate(429.282837 0.703125)"/>
     <use xlink:href="#STIXGeneral-Regular-394" transform="translate(480.756389 0.703125)"/>
     <use xlink:href="#STIXGeneral-Regular-29" transform="translate(552.956371 0.703125)"/>
    </g>
   </g>
   <g id="text_8">
    <!-- $\Omega = \sqrt{\Delta^2 + J_{\mathrm{int}}^2}$ -->
    <g style="fill: #1a1a1a" transform="translate(202.594793 112.11496) scale(0.115 -0.115)">
     <defs>
      <path id="STIXSizeOneSym-Regular-221a" d="M 6970 9933 
L 3373 -1888 
L 3104 -1888 
L 1626 2918 
Q 1555 3149 1465 3251 
Q 1376 3354 1229 3354 
Q 1011 3354 794 3181 
L 717 3309 
L 1766 4115 
L 1926 4115 
L 3379 -602 
L 3405 -602 
L 6605 9933 
L 6970 9933 
z
" transform="scale(0.015625)"/>
      <path id="STIXGeneral-Regular-32" d="M 3034 877 
L 2688 0 
L 186 0 
L 186 77 
L 1325 1286 
Q 1773 1754 1965 2144 
Q 2157 2534 2157 2950 
Q 2157 3379 1920 3616 
Q 1683 3853 1267 3853 
Q 922 3853 720 3673 
Q 518 3494 326 3021 
L 192 3053 
Q 301 3648 630 3987 
Q 960 4326 1523 4326 
Q 2054 4326 2380 4006 
Q 2707 3686 2707 3200 
Q 2707 2477 1888 1613 
L 832 486 
L 2330 486 
Q 2541 486 2665 569 
Q 2790 653 2944 915 
L 3034 877 
z
" transform="scale(0.015625)"/>
      <path id="STIXGeneral-Regular-2b" d="M 4070 1408 
L 2400 1408 
L 2400 -262 
L 1978 -262 
L 1978 1408 
L 307 1408 
L 307 1830 
L 1978 1830 
L 1978 3501 
L 2400 3501 
L 2400 1830 
L 4070 1830 
L 4070 1408 
z
" transform="scale(0.015625)"/>
     </defs>
     <use xlink:href="#STIXGeneral-Regular-3a9" transform="translate(0 0.78125)"/>
     <use xlink:href="#STIXGeneral-Regular-3d" transform="translate(88.83999 0.78125)"/>
     <use xlink:href="#STIXSizeOneSym-Regular-221a" transform="translate(171.779971 -3.953125) scale(0.76337)"/>
     <use xlink:href="#STIXGeneral-Regular-394" transform="translate(265.00835 1.159375)"/>
     <use xlink:href="#STIXGeneral-Regular-32" transform="translate(338.751613 36.434375) scale(0.7)"/>
     <use xlink:href="#STIXGeneral-Regular-2b" transform="translate(392.600973 1.159375)"/>
     <use xlink:href="#STIXGeneral-Italic-4a" transform="translate(475.540954 1.159375)"/>
     <use xlink:href="#STIXGeneral-Regular-32" transform="translate(530.566729 36.434375) scale(0.7)"/>
     <use xlink:href="#STIXGeneral-Regular-69" transform="translate(519.940948 -25.296875) scale(0.7)"/>
     <use xlink:href="#STIXGeneral-Regular-6e" transform="translate(539.40094 -25.296875) scale(0.7)"/>
     <use xlink:href="#STIXGeneral-Regular-74" transform="translate(574.400929 -25.296875) scale(0.7)"/>
     <path d="M 252.50835 107.5 
L 252.50835 113.75 
L 610.770295 113.75 
L 610.770295 107.5 
L 252.50835 107.5 
z
"/>
    </g>
   </g>
   <g id="text_9">
    <!-- $t_n = \frac{2\pi n}{\Omega}$ -->
    <g style="fill: #1a1a1a" transform="translate(202.594793 158.2226) scale(0.115 -0.115)">
     <defs>
      <path id="STIXGeneral-Italic-6e" d="M 2944 749 
L 3034 666 
Q 2707 218 2534 80 
Q 2362 -58 2138 -58 
Q 2010 -58 1923 28 
Q 1837 115 1837 288 
Q 1837 390 1939 768 
L 2221 1805 
Q 2310 2150 2310 2310 
Q 2310 2496 2157 2496 
Q 1971 2496 1750 2275 
Q 1530 2054 1210 1587 
Q 998 1274 899 1024 
Q 800 774 570 0 
L 90 0 
L 704 2240 
Q 717 2304 717 2349 
Q 717 2445 630 2480 
Q 544 2515 301 2522 
L 301 2624 
Q 550 2675 857 2729 
Q 1165 2784 1338 2822 
L 1363 2810 
L 934 1414 
Q 1408 2170 1753 2496 
Q 2099 2822 2413 2822 
Q 2611 2822 2720 2716 
Q 2829 2611 2829 2432 
Q 2829 2272 2765 2048 
L 2406 749 
Q 2317 429 2317 358 
Q 2317 243 2419 243 
Q 2541 243 2810 582 
Q 2854 634 2944 749 
z
" transform="scale(0.015625)"/>
      <path id="STIXGeneral-Italic-3c0" d="M 3430 2739 
L 3296 2266 
L 2643 2266 
Q 2624 2195 2502 1782 
Q 2381 1370 2297 1072 
Q 2214 774 2214 717 
Q 2214 448 2413 448 
Q 2694 448 2867 838 
L 2970 838 
Q 2886 486 2652 208 
Q 2419 -70 2093 -70 
Q 1901 -70 1808 67 
Q 1715 205 1715 410 
Q 1715 627 1824 922 
L 2310 2266 
L 1645 2266 
Q 1568 2061 1401 1469 
Q 1235 877 1068 512 
Q 902 147 672 -38 
Q 563 -115 442 -115 
Q 314 -115 218 -32 
Q 122 51 122 166 
Q 122 429 314 480 
Q 634 563 774 928 
L 1299 2266 
L 1261 2266 
Q 973 2266 819 2208 
Q 666 2150 474 1914 
L 371 1914 
Q 640 2362 931 2550 
Q 1222 2739 1696 2739 
L 3430 2739 
z
" transform="scale(0.015625)"/>
     </defs>
     <use xlink:href="#STIXGeneral-Italic-74" transform="translate(0 0.629688)"/>
     <use xlink:href="#STIXGeneral-Italic-6e" transform="translate(27.799988 -12.598438) scale(0.7)"/>
     <use xlink:href="#STIXGeneral-Regular-3d" transform="translate(81.649348 0.629688)"/>
     <use xlink:href="#STIXGeneral-Regular-32" transform="translate(164.58933 39.684375) scale(0.7)"/>
     <use xlink:href="#STIXGeneral-Italic-3c0" transform="translate(199.589319 39.684375) scale(0.7)"/>
     <use xlink:href="#STIXGeneral-Italic-6e" transform="translate(234.869315 39.684375) scale(0.7)"/>
     <use xlink:href="#STIXGeneral-Regular-3a9" transform="translate(191.58933 -40.139062) scale(0.7)"/>
     <path d="M 164.58933 13.426563 
L 164.58933 19.676563 
L 269.869304 19.676563 
L 269.869304 13.426563 
L 164.58933 13.426563 
z
"/>
    </g>
   </g>
   <g id="text_10">
    <!-- closed loop $\Rightarrow$ zero residual leakage -->
    <g style="fill: #626f7d" transform="translate(202.594793 208.79992) scale(0.1 -0.1)">
     <defs>
      <path id="STIXGeneral-Regular-63" d="M 2547 998 
L 2637 941 
Q 2362 403 2112 205 
Q 1786 -64 1376 -64 
Q 845 -64 502 336 
Q 160 736 160 1357 
Q 160 2170 698 2618 
Q 1094 2944 1562 2944 
Q 1965 2944 2256 2749 
Q 2547 2554 2547 2285 
Q 2547 2176 2457 2096 
Q 2368 2016 2246 2016 
Q 2022 2016 1939 2310 
L 1901 2451 
Q 1850 2630 1773 2694 
Q 1696 2758 1523 2758 
Q 1133 2758 893 2451 
Q 653 2144 653 1645 
Q 653 1094 928 745 
Q 1203 397 1645 397 
Q 1920 397 2118 528 
Q 2317 659 2547 998 
z
" transform="scale(0.015625)"/>
      <path id="STIXGeneral-Regular-6f" d="M 3008 1478 
Q 3008 806 2608 371 
Q 2208 -64 1568 -64 
Q 979 -64 582 368 
Q 186 800 186 1459 
Q 186 2125 582 2534 
Q 979 2944 1626 2944 
Q 2221 2944 2614 2537 
Q 3008 2131 3008 1478 
z
M 2432 1306 
Q 2432 2035 2112 2445 
Q 1856 2765 1504 2765 
Q 1171 2765 966 2493 
Q 762 2221 762 1747 
Q 762 928 1101 435 
Q 1318 115 1677 115 
Q 2029 115 2230 432 
Q 2432 749 2432 1306 
z
" transform="scale(0.015625)"/>
      <path id="STIXGeneral-Regular-73" d="M 998 1926 
L 1664 1523 
Q 1984 1331 2105 1164 
Q 2227 998 2227 736 
Q 2227 416 1961 176 
Q 1696 -64 1331 -64 
Q 1030 -64 864 -6 
Q 691 51 570 51 
Q 461 51 416 -26 
L 333 -26 
L 333 979 
L 435 979 
Q 538 512 730 294 
Q 922 77 1248 77 
Q 1485 77 1632 211 
Q 1779 346 1779 550 
Q 1779 845 1440 1030 
L 1094 1222 
Q 326 1651 326 2150 
Q 326 2522 566 2730 
Q 806 2938 1210 2938 
Q 1491 2938 1638 2867 
Q 1754 2816 1818 2816 
Q 1862 2816 1920 2880 
L 1990 2880 
L 2022 2010 
L 1926 2010 
Q 1818 2445 1654 2621 
Q 1491 2797 1203 2797 
Q 986 2797 854 2688 
Q 723 2579 723 2362 
Q 723 2253 796 2128 
Q 870 2003 998 1926 
z
" transform="scale(0.015625)"/>
      <path id="STIXGeneral-Regular-64" d="M 3142 269 
L 2202 -64 
L 2176 -45 
L 2176 365 
Q 1869 -64 1357 -64 
Q 826 -64 499 317 
Q 173 698 173 1312 
Q 173 1990 563 2467 
Q 954 2944 1504 2944 
Q 1850 2944 2176 2669 
L 2176 3667 
Q 2176 3866 2118 3930 
Q 2061 3994 1882 3994 
Q 1792 3994 1741 3987 
L 1741 4090 
Q 2323 4243 2682 4371 
L 2714 4358 
L 2714 730 
Q 2714 506 2768 435 
Q 2822 365 2995 365 
Q 3034 365 3142 371 
L 3142 269 
z
M 2176 653 
L 2176 2125 
Q 2176 2381 1981 2573 
Q 1786 2765 1523 2765 
Q 1158 2765 940 2438 
Q 723 2112 723 1568 
Q 723 979 963 624 
Q 1203 269 1606 269 
Q 1907 269 2080 474 
Q 2176 582 2176 653 
z
" transform="scale(0.015625)"/>
      <path id="STIXGeneral-Regular-20" transform="scale(0.015625)"/>
      <path id="STIXGeneral-Regular-70" d="M 1018 2931 
L 1018 2438 
Q 1421 2944 1939 2944 
Q 2406 2944 2707 2560 
Q 3008 2176 3008 1581 
Q 3008 883 2621 409 
Q 2234 -64 1664 -64 
Q 1466 -64 1328 -6 
Q 1190 51 1018 211 
L 1018 -794 
Q 1018 -1094 1120 -1180 
Q 1222 -1267 1581 -1274 
L 1581 -1389 
L 32 -1389 
L 32 -1280 
Q 314 -1254 397 -1171 
Q 480 -1088 480 -838 
L 480 2157 
Q 480 2381 429 2451 
Q 378 2522 218 2522 
Q 115 2522 58 2515 
L 58 2618 
Q 506 2752 979 2944 
L 1018 2931 
z
M 1018 2138 
L 1018 563 
Q 1018 422 1238 281 
Q 1459 141 1683 141 
Q 2029 141 2243 467 
Q 2458 794 2458 1325 
Q 2458 1888 2243 2224 
Q 2029 2560 1670 2560 
Q 1446 2560 1232 2419 
Q 1018 2278 1018 2138 
z
" transform="scale(0.015625)"/>
      <path id="STIXGeneral-Regular-21d2" d="M 5542 1651 
L 5542 1587 
Q 5421 1498 4976 1171 
Q 4531 845 4329 691 
Q 4128 538 3795 256 
Q 3462 -26 3200 -288 
L 3066 -160 
Q 3334 154 3539 358 
Q 3686 506 3686 627 
Q 3686 672 3641 720 
Q 3597 768 3520 768 
L 384 768 
L 384 1190 
L 4448 1190 
Q 4819 1446 4819 1619 
Q 4819 1830 4442 2048 
L 384 2048 
L 384 2470 
L 3520 2470 
Q 3597 2470 3641 2518 
Q 3686 2566 3686 2611 
Q 3686 2669 3664 2720 
Q 3642 2771 3629 2784 
Q 3616 2797 3546 2874 
Q 3270 3162 3066 3398 
L 3200 3526 
Q 3462 3264 3788 2992 
Q 4115 2720 4348 2544 
Q 4582 2368 4969 2080 
Q 5357 1792 5542 1651 
z
" transform="scale(0.015625)"/>
      <path id="STIXGeneral-Regular-7a" d="M 2675 870 
L 2579 0 
L 173 0 
L 173 96 
L 1875 2688 
L 1011 2688 
Q 710 2688 604 2582 
Q 499 2477 454 2125 
L 339 2125 
L 365 2880 
L 2579 2880 
L 2579 2784 
L 858 192 
L 1709 192 
Q 2246 192 2387 365 
Q 2477 474 2560 896 
L 2675 870 
z
" transform="scale(0.015625)"/>
      <path id="STIXGeneral-Regular-72" d="M 1024 2931 
L 1024 2342 
Q 1267 2688 1430 2816 
Q 1594 2944 1792 2944 
Q 1958 2944 2051 2854 
Q 2144 2765 2144 2605 
Q 2144 2470 2077 2393 
Q 2010 2317 1894 2317 
Q 1773 2317 1638 2445 
Q 1536 2541 1472 2541 
Q 1338 2541 1181 2355 
Q 1024 2170 1024 2016 
L 1024 576 
Q 1024 301 1133 205 
Q 1242 109 1568 96 
L 1568 0 
L 32 0 
L 32 96 
Q 339 154 412 224 
Q 486 294 486 538 
L 486 2138 
Q 486 2349 438 2435 
Q 390 2522 269 2522 
Q 166 2522 45 2496 
L 45 2598 
Q 448 2726 992 2944 
L 1024 2931 
z
" transform="scale(0.015625)"/>
      <path id="STIXGeneral-Regular-75" d="M 3072 320 
L 3072 230 
Q 2573 96 2195 -58 
L 2163 -38 
L 2163 486 
L 2150 486 
Q 1747 -64 1235 -64 
Q 870 -64 662 160 
Q 454 384 454 755 
L 454 2362 
Q 454 2598 371 2688 
Q 288 2778 58 2790 
L 58 2880 
L 992 2880 
L 992 813 
Q 992 595 1123 451 
Q 1254 307 1446 307 
Q 1760 307 1984 506 
Q 2067 582 2099 649 
Q 2131 717 2131 877 
L 2131 2355 
Q 2131 2605 2041 2678 
Q 1952 2752 1658 2771 
L 1658 2880 
L 2669 2880 
L 2669 685 
Q 2669 461 2742 390 
Q 2816 320 3034 320 
L 3072 320 
z
" transform="scale(0.015625)"/>
      <path id="STIXGeneral-Regular-67" d="M 3008 2483 
L 2477 2483 
Q 2598 2208 2598 1946 
Q 2598 1453 2265 1203 
Q 1933 954 1600 954 
Q 1530 954 1357 973 
L 1235 986 
Q 1107 947 979 812 
Q 851 678 851 582 
Q 851 435 1350 410 
L 2176 371 
Q 2528 358 2739 172 
Q 2950 -13 2950 -314 
Q 2950 -685 2566 -986 
Q 2035 -1395 1286 -1395 
Q 826 -1395 502 -1212 
Q 179 -1030 179 -774 
Q 179 -595 320 -419 
Q 461 -243 806 6 
Q 602 102 534 172 
Q 467 243 467 346 
Q 467 531 762 787 
Q 909 915 1037 1043 
Q 717 1203 579 1401 
Q 442 1600 442 1901 
Q 442 2336 752 2640 
Q 1062 2944 1510 2944 
Q 1766 2944 2022 2848 
L 2163 2797 
Q 2349 2733 2515 2733 
L 3008 2733 
L 3008 2483 
z
M 973 2163 
L 973 2144 
Q 973 1683 1155 1398 
Q 1338 1114 1632 1114 
Q 1850 1114 1978 1270 
Q 2106 1427 2106 1690 
Q 2106 2112 1914 2464 
Q 1754 2765 1446 2765 
Q 1222 2765 1097 2605 
Q 973 2445 973 2163 
z
M 2771 -410 
Q 2771 -230 2595 -163 
Q 2419 -96 1978 -96 
Q 1344 -96 941 -13 
Q 749 -243 688 -348 
Q 627 -454 627 -563 
Q 627 -774 880 -902 
Q 1133 -1030 1555 -1030 
Q 2099 -1030 2435 -860 
Q 2771 -691 2771 -410 
z
" transform="scale(0.015625)"/>
     </defs>
     <use xlink:href="#STIXGeneral-Regular-63" transform="translate(0 0.703125)"/>
     <use xlink:href="#STIXGeneral-Regular-6c" transform="translate(44.399994 0.703125)"/>
     <use xlink:href="#STIXGeneral-Regular-6f" transform="translate(72.199982 0.703125)"/>
     <use xlink:href="#STIXGeneral-Regular-73" transform="translate(122.199966 0.703125)"/>
     <use xlink:href="#STIXGeneral-Regular-65" transform="translate(161.09996 0.703125)"/>
     <use xlink:href="#STIXGeneral-Regular-64" transform="translate(205.499954 0.703125)"/>
     <use xlink:href="#STIXGeneral-Regular-20" transform="translate(255.499939 0.703125)"/>
     <use xlink:href="#STIXGeneral-Regular-6c" transform="translate(280.499924 0.703125)"/>
     <use xlink:href="#STIXGeneral-Regular-6f" transform="translate(308.299911 0.703125)"/>
     <use xlink:href="#STIXGeneral-Regular-6f" transform="translate(358.299896 0.703125)"/>
     <use xlink:href="#STIXGeneral-Regular-70" transform="translate(408.299881 0.703125)"/>
     <use xlink:href="#STIXGeneral-Regular-20" transform="translate(458.299866 0.703125)"/>
     <use xlink:href="#STIXGeneral-Regular-21d2" transform="translate(497.739847 0.703125)"/>
     <use xlink:href="#STIXGeneral-Regular-20" transform="translate(604.779834 0.703125)"/>
     <use xlink:href="#STIXGeneral-Regular-7a" transform="translate(629.779819 0.703125)"/>
     <use xlink:href="#STIXGeneral-Regular-65" transform="translate(674.179813 0.703125)"/>
     <use xlink:href="#STIXGeneral-Regular-72" transform="translate(718.579807 0.703125)"/>
     <use xlink:href="#STIXGeneral-Regular-6f" transform="translate(751.879794 0.703125)"/>
     <use xlink:href="#STIXGeneral-Regular-20" transform="translate(801.879779 0.703125)"/>
     <use xlink:href="#STIXGeneral-Regular-72" transform="translate(826.879764 0.703125)"/>
     <use xlink:href="#STIXGeneral-Regular-65" transform="translate(860.179752 0.703125)"/>
     <use xlink:href="#STIXGeneral-Regular-73" transform="translate(904.579745 0.703125)"/>
     <use xlink:href="#STIXGeneral-Regular-69" transform="translate(943.479739 0.703125)"/>
     <use xlink:href="#STIXGeneral-Regular-64" transform="translate(971.279727 0.703125)"/>
     <use xlink:href="#STIXGeneral-Regular-75" transform="translate(1021.279712 0.703125)"/>
     <use xlink:href="#STIXGeneral-Regular-61" transform="translate(1071.279697 0.703125)"/>
     <use xlink:href="#STIXGeneral-Regular-6c" transform="translate(1115.679691 0.703125)"/>
     <use xlink:href="#STIXGeneral-Regular-20" transform="translate(1143.479678 0.703125)"/>
     <use xlink:href="#STIXGeneral-Regular-6c" transform="translate(1168.479663 0.703125)"/>
     <use xlink:href="#STIXGeneral-Regular-65" transform="translate(1196.279651 0.703125)"/>
     <use xlink:href="#STIXGeneral-Regular-61" transform="translate(1240.679645 0.703125)"/>
     <use xlink:href="#STIXGeneral-Regular-6b" transform="translate(1285.079639 0.703125)"/>
     <use xlink:href="#STIXGeneral-Regular-61" transform="translate(1335.079623 0.703125)"/>
     <use xlink:href="#STIXGeneral-Regular-67" transform="translate(1379.479617 0.703125)"/>
     <use xlink:href="#STIXGeneral-Regular-65" transform="translate(1429.479602 0.703125)"/>
    </g>
   </g>
  </g>
 </g>
 <defs>
  <clipPath id="p28eb6d972d">
   <rect x="7.2" y="18.972431" width="188.423137" height="188.423137"/>
  </clipPath>
 </defs>
</svg>
