<?xml version="1.0" encoding="utf-8" standalone="no"?>
<!DOCTYPE svg PUBLIC "-//W3C//DTD SVG 1.1//EN"
  "http://www.w3.org/Graphics/SVG/1.1/DTD/svg11.dtd">
<svg xmlns:xlink="http://www.w3.org/1999/xlink" width="362.16pt" height="185.76pt" viewBox="0 0 362.16 185.76" xmlns="http://www.w3.org/2000/svg" version="1.1">
 <metadata>
  <rdf:RDF xmlns:dc="http://purl.org/dc/elements/1.1/" xmlns:cc="http://creativecommons.org/ns#" xmlns:rdf="http://www.w3.org/1999/02/22-rdf-syntax-ns#">
   <cc:Work>
    <dc:type rdf:resource="http://purl.org/dc/dcmitype/StillImage"/>
    <dc:date>2026-04-21T21:13:21.575938</dc:date>
    <dc:format>image/svg+xml</dc:format>
    <dc:creator>
     <cc:Agent>
      <dc:title>Matplotlib v3.10.3, https://matplotlib.org/</dc:title>
     </cc:Agent>
    </dc:creator>
   </cc:Work>
  </rdf:RDF>
 </metadata>
 <defs>
  <style type="text/css">*{stroke-linejoin: round; stroke-linecap: butt}</style>
 </defs>
 <g id="figure_1">
  <g id="patch_1">
   <path d="M 0 185.76 
L 362.16 185.76 
L 362.16 0 
L 0 0 
L 0 185.76 
z
" style="fill: none"/>
  </g>
  <g id="axes_1">
   <g id="line2d_1">
    <path d="M 20.808 90.654582 
L 24.513711 98.40054 
L 27.601803 104.394267 
L 30.689896 109.968686 
L 33.777988 115.123797 
L 36.866081 119.859601 
L 39.954173 124.176097 
L 43.042266 128.073285 
L 46.130358 131.551166 
L 48.600832 134.031569 
L 51.071306 136.243614 
L 53.54178 138.187303 
L 56.012254 139.862636 
L 58.482728 141.269611 
L 60.953202 142.408229 
L 63.423676 143.27849 
L 65.89415 143.880395 
L 68.364624 144.213942 
L 70.835098 144.279132 
L 73.305572 144.075966 
L 75.776046 143.604443 
L 78.24652 142.864562 
L 80.716994 141.856325 
L 83.187468 140.579731 
L 85.657942 139.03478 
L 88.128416 137.221472 
L 90.59889 135.139807 
L 93.069364 132.789785 
L 95.539838 130.171407 
L 98.010312 127.284673 
L 101.098405 123.29889 
L 104.186497 118.893858 
L 107.27459 114.069826 
L 110.362682 108.828103 
L 113.450775 103.175567 
L 117.156486 95.907995 
L 121.479815 87.397895 
L 122.715052 85.369379 
L 123.950289 83.845766 
L 124.567908 83.349998 
L 125.185526 83.066869 
L 125.803145 83.012061 
L 126.420763 83.188727 
L 127.038382 83.586842 
L 127.656 84.185225 
L 128.891237 85.866036 
L 130.126474 87.989215 
L 132.596948 92.823672 
L 137.537896 102.621869 
L 140.625988 108.312186 
L 143.714081 113.593128 
L 146.802173 118.456653 
L 149.890266 122.90123 
L 152.978358 126.926568 
L 156.066451 130.532611 
L 158.536925 133.115546 
L 161.007399 135.430125 
L 163.477873 137.476346 
L 165.948347 139.254211 
L 168.418821 140.763719 
L 170.889295 142.00487 
L 173.359769 142.977663 
L 175.830243 143.6821 
L 178.300717 144.11818 
L 180.771191 144.285903 
L 183.241665 144.18527 
L 185.712139 143.816279 
L 188.182613 143.178931 
L 190.653087 142.273226 
L 193.123561 141.099165 
L 195.594035 139.656746 
L 198.064509 137.945971 
L 200.534983 135.966839 
L 203.005457 133.719349 
L 205.475931 131.203503 
L 207.946405 128.419302 
L 211.034497 124.561679 
L 214.12259 120.284784 
L 217.210682 115.588766 
L 220.298775 110.474415 
L 223.386867 104.945873 
L 227.092578 97.799771 
L 232.651145 86.886463 
L 233.886382 84.955415 
L 235.121618 83.586842 
L 235.739237 83.188727 
L 236.356855 83.012061 
L 236.974474 83.066869 
L 237.592092 83.349998 
L 238.209711 83.845766 
L 239.444948 85.369379 
L 240.680185 87.397895 
L 242.53304 90.930083 
L 249.326844 104.338059 
L 252.414936 109.909696 
L 255.503029 115.068121 
L 258.591121 119.808399 
L 261.679214 124.12959 
L 264.767306 128.031515 
L 267.855399 131.51414 
L 270.325873 133.99834 
L 272.796347 136.214184 
L 275.266821 138.16167 
L 277.737295 139.8408 
L 280.207769 141.251573 
L 282.678243 142.393988 
L 285.148717 143.268047 
L 287.619191 143.873749 
L 290.089665 144.211094 
L 292.560139 144.280082 
L 295.030613 144.080713 
L 297.501087 143.612987 
L 299.971561 142.876904 
L 302.442035 141.872464 
L 304.912509 140.599668 
L 307.382983 139.058514 
L 309.853457 137.249004 
L 312.323931 135.171136 
L 314.794405 132.824912 
L 317.264879 130.21033 
L 319.735353 127.327392 
L 322.823445 123.346342 
L 325.911538 118.945985 
L 328.99963 114.12632 
L 332.087723 108.887347 
L 335.175815 103.229066 
L 338.263908 97.151478 
L 341.352 90.654582 
L 341.352 90.654582 
" clip-path="url(#pbf345ce946)" style="fill: none; stroke: #6b5b95; stroke-width: 2; stroke-linecap: square"/>
   </g>
   <g id="patch_2">
    <path d="M 70.2 89.352 
C 75.27917 89.352 80.150994 87.334024 83.742509 83.742509 
C 87.334024 80.150994 89.352 75.27917 89.352 70.2 
C 89.352 65.12083 87.334024 60.249006 83.742509 56.657491 
C 80.150994 53.065976 75.27917 51.048 70.2 51.048 
C 65.12083 51.048 60.249006 53.065976 56.657491 56.657491 
C 53.065976 60.249006 51.048 65.12083 51.048 70.2 
C 51.048 75.27917 53.065976 80.150994 56.657491 83.742509 
C 60.249006 87.334024 65.12083 89.352 70.2 89.352 
z
" clip-path="url(#pbf345ce946)" style="fill: #c8ddf4; opacity: 0.92; stroke: #99b9d8; stroke-width: 0.9; stroke-linejoin: miter"/>
   </g>
   <g id="patch_3">
    <path d="M 73.224 88.848 
C 77.367533 88.848 81.341916 87.201757 84.271836 84.271836 
C 87.201757 81.341916 88.848 77.367533 88.848 73.224 
C 88.848 69.080467 87.201757 65.106084 84.271836 62.176164 
C 81.341916 59.246243 77.367533 57.6 73.224 57.6 
C 69.080467 57.6 65.106084 59.246243 62.176164 62.176164 
C 59.246243 65.106084 57.6 69.080467 57.6 73.224 
C 57.6 77.367533 59.246243 81.341916 62.176164 84.271836 
C 65.106084 87.201757 69.080467 88.848 73.224 88.848 
z
" clip-path="url(#pbf345ce946)" style="fill: #9fc3e6; opacity: 0.28"/>
   </g>
   <g id="patch_4">
    <path d="M 181.08 89.352 
C 186.15917 89.352 191.030994 87.334024 194.622509 83.742509 
C 198.214024 80.150994 200.232 75.27917 200.232 70.2 
C 200.232 65.12083 198.214024 60.249006 194.622509 56.657491 
C 191.030994 53.065976 186.15917 51.048 181.08 51.048 
C 176.00083 51.048 171.129006 53.065976 167.537491 56.657491 
C 163.945976 60.249006 161.928 65.12083 161.928 70.2 
C 161.928 75.27917 163.945976 80.150994 167.537491 83.742509 
C 171.129006 87.334024 176.00083 89.352 181.08 89.352 
z
" clip-path="url(#pbf345ce946)" style="fill: #c8ddf4; opacity: 0.92; stroke: #99b9d8; stroke-width: 0.9; stroke-linejoin: miter"/>
   </g>
   <g id="patch_5">
    <path d="M 184.104 88.848 
C 188.247533 88.848 192.221916 87.201757 195.151836 84.271836 
C 198.081757 81.341916 199.728 77.367533 199.728 73.224 
C 199.728 69.080467 198.081757 65.106084 195.151836 62.176164 
C 192.221916 59.246243 188.247533 57.6 184.104 57.6 
C 179.960467 57.6 175.986084 59.246243 173.056164 62.176164 
C 170.126243 65.106084 168.48 69.080467 168.48 73.224 
C 168.48 77.367533 170.126243 81.341916 173.056164 84.271836 
C 175.986084 87.201757 179.960467 88.848 184.104 88.848 
z
" clip-path="url(#pbf345ce946)" style="fill: #9fc3e6; opacity: 0.28"/>
   </g>
   <g id="patch_6">
    <path d="M 291.96 89.352 
C 297.03917 89.352 301.910994 87.334024 305.502509 83.742509 
C 309.094024 80.150994 311.112 75.27917 311.112 70.2 
C 311.112 65.12083 309.094024 60.249006 305.502509 56.657491 
C 301.910994 53.065976 297.03917 51.048 291.96 51.048 
C 286.88083 51.048 282.009006 53.065976 278.417491 56.657491 
C 274.825976 60.249006 272.808 65.12083 272.808 70.2 
C 272.808 75.27917 274.825976 80.150994 278.417491 83.742509 
C 282.009006 87.334024 286.88083 89.352 291.96 89.352 
z
" clip-path="url(#pbf345ce946)" style="fill: #c8ddf4; opacity: 0.92; stroke: #99b9d8; stroke-width: 0.9; stroke-linejoin: miter"/>
   </g>
   <g id="patch_7">
    <path d="M 294.984 88.848 
C 299.127533 88.848 303.101916 87.201757 306.031836 84.271836 
C 308.961757 81.341916 310.608 77.367533 310.608 73.224 
C 310.608 69.080467 308.961757 65.106084 306.031836 62.176164 
C 303.101916 59.246243 299.127533 57.6 294.984 57.6 
C 290.840467 57.6 286.866084 59.246243 283.936164 62.176164 
C 281.006243 65.106084 279.36 69.080467 279.36 73.224 
C 279.36 77.367533 281.006243 81.341916 283.936164 84.271836 
C 286.866084 87.201757 290.840467 88.848 294.984 88.848 
z
" clip-path="url(#pbf345ce946)" style="fill: #9fc3e6; opacity: 0.28"/>
   </g>
   <g id="text_1">
    <!-- $g_1$ -->
    <g style="fill: #404040" transform="translate(53.064 27.5595) scale(0.16 -0.16)">
     <defs>
      <path id="STIXGeneral-Italic-67" d="M 3014 2342 
L 2701 2342 
Q 2758 2227 2758 2016 
Q 2758 1613 2390 1289 
Q 2022 966 1574 966 
Q 1459 966 1376 986 
Q 1357 992 1331 992 
Q 1248 992 1174 909 
Q 1101 826 1101 730 
Q 1101 576 1555 461 
Q 2464 243 2464 -352 
Q 2464 -781 2105 -1049 
Q 1747 -1318 1120 -1318 
Q 621 -1318 336 -1142 
Q 51 -966 51 -627 
Q 51 -378 195 -202 
Q 339 -26 800 250 
Q 627 352 627 499 
Q 627 806 1120 1037 
Q 614 1216 614 1728 
Q 614 2202 1004 2512 
Q 1395 2822 1901 2822 
Q 2272 2822 2528 2643 
Q 2598 2592 2630 2592 
L 3014 2592 
L 3014 2342 
z
M 2253 2227 
Q 2253 2477 2166 2579 
Q 2080 2682 1894 2682 
Q 1587 2682 1350 2362 
Q 1114 2042 1114 1581 
Q 1114 1357 1216 1229 
Q 1318 1101 1498 1101 
Q 1818 1101 2042 1478 
Q 2253 1837 2253 2227 
z
M 2080 -576 
Q 2080 -352 1878 -201 
Q 1677 -51 1165 109 
Q 1011 154 947 179 
Q 902 179 752 57 
Q 602 -64 531 -154 
Q 403 -314 403 -525 
Q 403 -1178 1216 -1178 
Q 1594 -1178 1837 -1002 
Q 2080 -826 2080 -576 
z
" transform="scale(0.015625)"/>
      <path id="STIXGeneral-Regular-31" d="M 2522 0 
L 755 0 
L 755 96 
Q 1107 115 1235 227 
Q 1363 339 1363 608 
L 1363 3482 
Q 1363 3795 1171 3795 
Q 1082 3795 883 3718 
L 710 3654 
L 710 3744 
L 1856 4326 
L 1914 4307 
L 1914 486 
Q 1914 275 2042 185 
Q 2170 96 2522 96 
L 2522 0 
z
" transform="scale(0.015625)"/>
     </defs>
     <use xlink:href="#STIXGeneral-Italic-67" transform="translate(0 0.90625)"/>
     <use xlink:href="#STIXGeneral-Regular-31" transform="translate(49.999985 -12.321875) scale(0.7)"/>
    </g>
   </g>
   <g id="text_2">
    <!-- $g_2$ -->
    <g style="fill: #404040" transform="translate(163.944 27.5595) scale(0.16 -0.16)">
     <defs>
      <path id="STIXGeneral-Regular-32" d="M 3034 877 
L 2688 0 
L 186 0 
L 186 77 
L 1325 1286 
Q 1773 1754 1965 2144 
Q 2157 2534 2157 2950 
Q 2157 3379 1920 3616 
Q 1683 3853 1267 3853 
Q 922 3853 720 3673 
Q 518 3494 326 3021 
L 192 3053 
Q 301 3648 630 3987 
Q 960 4326 1523 4326 
Q 2054 4326 2380 4006 
Q 2707 3686 2707 3200 
Q 2707 2477 1888 1613 
L 832 486 
L 2330 486 
Q 2541 486 2665 569 
Q 2790 653 2944 915 
L 3034 877 
z
" transform="scale(0.015625)"/>
     </defs>
     <use xlink:href="#STIXGeneral-Italic-67" transform="translate(0 0.90625)"/>
     <use xlink:href="#STIXGeneral-Regular-32" transform="translate(49.999985 -12.321875) scale(0.7)"/>
    </g>
   </g>
   <g id="text_3">
    <!-- $g_3$ -->
    <g style="fill: #404040" transform="translate(274.824 27.5595) scale(0.16 -0.16)">
     <defs>
      <path id="STIXGeneral-Regular-33" d="M 390 3264 
L 288 3290 
Q 435 3770 748 4048 
Q 1062 4326 1542 4326 
Q 1990 4326 2265 4083 
Q 2541 3840 2541 3450 
Q 2541 2925 1946 2566 
Q 2298 2413 2477 2227 
Q 2758 1914 2758 1402 
Q 2758 890 2464 506 
Q 2246 211 1840 60 
Q 1434 -90 979 -90 
Q 262 -90 262 275 
Q 262 378 339 442 
Q 416 506 525 506 
Q 685 506 915 339 
Q 1197 141 1466 141 
Q 1818 141 2058 425 
Q 2298 710 2298 1120 
Q 2298 1856 1632 2048 
Q 1434 2112 979 2112 
L 979 2202 
Q 1338 2323 1517 2432 
Q 2035 2726 2035 3290 
Q 2035 3610 1852 3776 
Q 1670 3942 1344 3942 
Q 768 3942 390 3264 
z
" transform="scale(0.015625)"/>
     </defs>
     <use xlink:href="#STIXGeneral-Italic-67" transform="translate(0 0.90625)"/>
     <use xlink:href="#STIXGeneral-Regular-33" transform="translate(49.999985 -12.321875) scale(0.7)"/>
    </g>
   </g>
   <g id="text_4">
    <!-- $J_{12}$ -->
    <g style="fill: #6b5b95" transform="translate(115.525 53.406469) scale(0.17 -0.17)">
     <defs>
      <path id="STIXGeneral-Italic-4a" d="M 3142 4179 
L 3142 4077 
Q 2867 4038 2784 3964 
Q 2701 3891 2618 3603 
L 1958 1254 
Q 1773 589 1504 237 
Q 1235 -115 710 -115 
Q 371 -115 166 38 
Q -38 192 -38 448 
Q -38 602 42 704 
Q 122 806 250 806 
Q 378 806 477 720 
Q 576 634 576 512 
Q 576 474 566 419 
Q 557 365 557 339 
Q 557 90 781 90 
Q 1005 90 1120 499 
L 1933 3405 
Q 2010 3686 2010 3814 
Q 2010 3942 1914 3996 
Q 1818 4051 1517 4077 
L 1517 4179 
L 3142 4179 
z
" transform="scale(0.015625)"/>
     </defs>
     <use xlink:href="#STIXGeneral-Italic-4a" transform="translate(0 0.703125)"/>
     <use xlink:href="#STIXGeneral-Regular-31" transform="translate(44.399994 -12.525) scale(0.7)"/>
     <use xlink:href="#STIXGeneral-Regular-32" transform="translate(79.399983 -12.525) scale(0.7)"/>
    </g>
   </g>
   <g id="text_5">
    <!-- $J_{23}$ -->
    <g style="fill: #6b5b95" transform="translate(226.405 53.406469) scale(0.17 -0.17)">
     <use xlink:href="#STIXGeneral-Italic-4a" transform="translate(0 0.703125)"/>
     <use xlink:href="#STIXGeneral-Regular-32" transform="translate(44.399994 -12.525) scale(0.7)"/>
     <use xlink:href="#STIXGeneral-Regular-33" transform="translate(79.399983 -12.525) scale(0.7)"/>
    </g>
   </g>
   <g id="patch_8">
    <path d="M 64.152 71.712 
C 66.156935 71.712 68.080024 70.915431 69.497727 69.497727 
C 70.915431 68.080024 71.712 66.156935 71.712 64.152 
C 71.712 62.147065 70.915431 60.223976 69.497727 58.806273 
C 68.080024 57.388569 66.156935 56.592 64.152 56.592 
C 62.147065 56.592 60.223976 57.388569 58.806273 58.806273 
C 57.388569 60.223976 56.592 62.147065 56.592 64.152 
C 56.592 66.156935 57.388569 68.080024 58.806273 69.497727 
C 60.223976 70.915431 62.147065 71.712 64.152 71.712 
z
" clip-path="url(#pbf345ce946)" style="fill: #ffffff; opacity: 0.62"/>
   </g>
   <g id="patch_9">
    <path d="M 175.032 71.712 
C 177.036935 71.712 178.960024 70.915431 180.377727 69.497727 
C 181.795431 68.080024 182.592 66.156935 182.592 64.152 
C 182.592 62.147065 181.795431 60.223976 180.377727 58.806273 
C 178.960024 57.388569 177.036935 56.592 175.032 56.592 
C 173.027065 56.592 171.103976 57.388569 169.686273 58.806273 
C 168.268569 60.223976 167.472 62.147065 167.472 64.152 
C 167.472 66.156935 168.268569 68.080024 169.686273 69.497727 
C 171.103976 70.915431 173.027065 71.712 175.032 71.712 
z
" clip-path="url(#pbf345ce946)" style="fill: #ffffff; opacity: 0.62"/>
   </g>
   <g id="patch_10">
    <path d="M 285.912 71.712 
C 287.916935 71.712 289.840024 70.915431 291.257727 69.497727 
C 292.675431 68.080024 293.472 66.156935 293.472 64.152 
C 293.472 62.147065 292.675431 60.223976 291.257727 58.806273 
C 289.840024 57.388569 287.916935 56.592 285.912 56.592 
C 283.907065 56.592 281.983976 57.388569 280.566273 58.806273 
C 279.148569 60.223976 278.352 62.147065 278.352 64.152 
C 278.352 66.156935 279.148569 68.080024 280.566273 69.497727 
C 281.983976 70.915431 283.907065 71.712 285.912 71.712 
z
" clip-path="url(#pbf345ce946)" style="fill: #ffffff; opacity: 0.62"/>
   </g>
   <g id="patch_11">
    <path d="M 95.274702 93.051818 
Q 125.640336 50.865233 156.005988 93.052739 
" style="fill: none; stroke: #6b5b95; stroke-width: 1.9; stroke-linecap: round"/>
    <path d="M 99.234707 90.973751 
L 95.274702 93.051818 
L 95.988252 88.636974 
" style="fill: none; stroke: #6b5b95; stroke-width: 1.9; stroke-linecap: round"/>
    <path d="M 155.292482 88.637888 
L 156.005988 93.052739 
L 152.046004 90.974633 
" style="fill: none; stroke: #6b5b95; stroke-width: 1.9; stroke-linecap: round"/>
   </g>
   <g id="patch_12">
    <path d="M 206.154702 93.051818 
Q 236.520336 50.865233 266.885988 93.052739 
" style="fill: none; stroke: #6b5b95; stroke-width: 1.9; stroke-linecap: round"/>
    <path d="M 210.114707 90.973751 
L 206.154702 93.051818 
L 206.868252 88.636974 
" style="fill: none; stroke: #6b5b95; stroke-width: 1.9; stroke-linecap: round"/>
    <path d="M 266.172482 88.637888 
L 266.885988 93.052739 
L 262.926004 90.974633 
" style="fill: none; stroke: #6b5b95; stroke-width: 1.9; stroke-linecap: round"/>
   </g>
   <g id="patch_13">
    <path d="M 76.459671 27.82684 
Q 70.199867 70.200899 64.332201 109.920485 
" clip-path="url(#pbf345ce946)" style="fill: none; stroke: #b24a3a; stroke-width: 2.4; stroke-linecap: round"/>
    <path d="M 68.433149 104.056849 
L 64.332201 109.920485 
L 62.101861 103.121546 
z
" clip-path="url(#pbf345ce946)" style="fill: #b24a3a; stroke: #b24a3a; stroke-width: 2.4; stroke-linecap: round"/>
   </g>
   <g id="patch_14">
    <path d="M 187.352468 25.810225 
Q 181.08015 70.198942 175.183261 111.930771 
" clip-path="url(#pbf345ce946)" style="fill: none; stroke: #4f7f48; stroke-width: 2.4; stroke-linecap: round"/>
    <path d="M 179.247236 106.041451 
L 175.183261 111.930771 
L 172.910189 105.145998 
z
" clip-path="url(#pbf345ce946)" style="fill: #4f7f48; stroke: #4f7f48; stroke-width: 2.4; stroke-linecap: round"/>
   </g>
   <g id="patch_15">
    <path d="M 285.754315 105.524666 
Q 291.959904 70.200545 297.701216 37.519234 
" clip-path="url(#pbf345ce946)" style="fill: none; stroke: #355e8d; stroke-width: 2.4; stroke-linecap: round"/>
    <path d="M 293.442114 43.269022 
L 297.701216 37.519234 
L 299.745584 44.376388 
z
" clip-path="url(#pbf345ce946)" style="fill: #355e8d; stroke: #355e8d; stroke-width: 2.4; stroke-linecap: round"/>
   </g>
  </g>
 </g>
 <defs>
  <clipPath id="pbf345ce946">
   <rect x="7.2" y="7.2" width="347.76" height="171.36"/>
  </clipPath>
 </defs>
</svg>
