<?xml version="1.0" encoding="utf-8" standalone="no"?>
<!DOCTYPE svg PUBLIC "-//W3C//DTD SVG 1.1//EN"
  "http://www.w3.org/Graphics/SVG/1.1/DTD/svg11.dtd">
<svg xmlns:xlink="http://www.w3.org/1999/xlink" width="650.592pt" height="200.653579pt" viewBox="0 0 650.592 200.653579" xmlns="http://www.w3.org/2000/svg" version="1.1">
 <metadata>
  <rdf:RDF xmlns:dc="http://purl.org/dc/elements/1.1/" xmlns:cc="http://creativecommons.org/ns#" xmlns:rdf="http://www.w3.org/1999/02/22-rdf-syntax-ns#">
   <cc:Work>
    <dc:type rdf:resource="http://purl.org/dc/dcmitype/StillImage"/>
    <dc:date>2026-04-22T00:26:51.646386</dc:date>
    <dc:format>image/svg+xml</dc:format>
    <dc:creator>
     <cc:Agent>
      <dc:title>Matplotlib v3.10.3, https://matplotlib.org/</dc:title>
     </cc:Agent>
    </dc:creator>
   </cc:Work>
  </rdf:RDF>
 </metadata>
 <defs>
  <style type="text/css">*{stroke-linejoin: round; stroke-linecap: butt}</style>
 </defs>
 <g id="figure_1">
  <g id="patch_1">
   <path d="M 0 200.653579 
L 650.592 200.653579 
L 650.592 0 
L 0 0 
L 0 200.653579 
z
" style="fill: none"/>
  </g>
  <g id="axes_1">
   <g id="line2d_1">
    <path d="M 32.312842 101.036929 
L 35.409609 107.645691 
L 38.506375 113.746698 
L 41.603142 119.339949 
L 44.699909 124.425443 
L 47.280548 128.275486 
L 49.861186 131.772921 
L 52.441825 134.917747 
L 55.022464 137.709964 
L 57.603103 140.149574 
L 60.183742 142.236575 
L 62.248253 143.652297 
L 64.312764 144.842351 
L 66.377275 145.806734 
L 68.441786 146.545449 
L 70.506298 147.058494 
L 72.570809 147.34587 
L 74.63532 147.407577 
L 76.699831 147.243614 
L 78.764342 146.853981 
L 80.828853 146.23868 
L 82.893364 145.397709 
L 84.957875 144.331068 
L 87.022386 143.038759 
L 89.086897 141.520779 
L 91.667536 139.305958 
L 94.248175 136.738529 
L 96.828814 133.818492 
L 99.409453 130.545854 
L 101.990092 126.920645 
L 104.570731 122.943029 
L 107.667497 117.706098 
L 110.764264 111.973902 
L 114.893286 103.743165 
L 116.957797 99.808392 
L 117.990053 98.182724 
L 119.022308 97.023894 
L 119.538436 96.683411 
L 120.054564 96.528579 
L 120.570692 96.568277 
L 121.08682 96.800195 
L 121.602947 97.211306 
L 122.635203 98.481962 
L 123.667458 100.177551 
L 125.73197 104.164343 
L 130.893247 114.330311 
L 133.990014 119.866846 
L 137.086781 124.901222 
L 139.66742 128.709282 
L 142.248058 132.164823 
L 144.828697 135.267773 
L 147.409336 138.018118 
L 149.989975 140.415855 
L 152.570614 142.460984 
L 154.635125 143.843208 
L 156.699636 144.999764 
L 158.764147 145.93065 
L 160.828658 146.635867 
L 162.893169 147.115414 
L 164.957681 147.369292 
L 167.022192 147.397501 
L 169.086703 147.20004 
L 171.151214 146.77691 
L 173.215725 146.128111 
L 175.280236 145.253642 
L 177.344747 144.153504 
L 179.409258 142.827696 
L 181.473769 141.276219 
L 184.054408 139.019526 
L 186.635047 136.410224 
L 189.215686 133.448316 
L 191.796325 130.133807 
L 194.376964 126.466737 
L 196.957603 122.447302 
L 200.054369 117.160552 
L 203.151136 111.381272 
L 209.860797 98.481962 
L 210.893053 97.211306 
L 211.40918 96.800195 
L 211.925308 96.568277 
L 212.441436 96.528579 
L 212.957564 96.683411 
L 213.473692 97.023894 
L 214.505947 98.182724 
L 215.538203 99.808392 
L 217.086586 102.715518 
L 223.796247 115.84911 
L 226.893014 121.253441 
L 229.98978 126.153304 
L 232.570419 129.849016 
L 235.151058 133.192172 
L 237.731697 136.18273 
L 240.312336 138.820681 
L 242.892975 141.106024 
L 245.473614 143.038759 
L 247.538125 144.331068 
L 249.602636 145.397709 
L 251.667147 146.23868 
L 253.731658 146.853981 
L 255.796169 147.243614 
L 257.86068 147.407577 
L 259.925191 147.34587 
L 261.989702 147.058494 
L 264.054214 146.545449 
L 266.118725 145.806734 
L 268.183236 144.842351 
L 270.247747 143.652297 
L 272.312258 142.236575 
L 274.376769 140.595182 
L 276.957408 138.226095 
L 279.538047 135.504399 
L 282.118686 132.430094 
L 284.699325 129.003182 
L 287.279963 125.22366 
L 289.860602 121.091531 
L 292.957369 115.667532 
L 296.054136 109.735778 
L 299.150902 103.296267 
L 300.183158 101.036929 
L 300.183158 101.036929 
" clip-path="url(#p48a83f37eb)" style="fill: none; stroke: #6b5b95; stroke-width: 2; stroke-linecap: square"/>
   </g>
   <g id="line2d_2">
    <path d="M 350.408842 101.036929 
L 353.505609 107.645691 
L 356.602375 113.746698 
L 359.699142 119.339949 
L 362.795909 124.425443 
L 365.376548 128.275486 
L 367.957186 131.772921 
L 370.537825 134.917747 
L 373.118464 137.709964 
L 375.699103 140.149574 
L 378.279742 142.236575 
L 380.344253 143.652297 
L 382.408764 144.842351 
L 384.473275 145.806734 
L 386.537786 146.545449 
L 388.602298 147.058494 
L 390.666809 147.34587 
L 392.73132 147.407577 
L 394.795831 147.243614 
L 396.860342 146.853981 
L 398.924853 146.23868 
L 400.989364 145.397709 
L 403.053875 144.331068 
L 405.118386 143.038759 
L 407.182897 141.520779 
L 409.763536 139.305958 
L 412.344175 136.738529 
L 414.924814 133.818492 
L 417.505453 130.545854 
L 420.086092 126.920645 
L 422.666731 122.943029 
L 425.763497 117.706098 
L 428.860264 111.973902 
L 432.989286 103.743165 
L 435.053797 99.808392 
L 436.086053 98.182724 
L 437.118308 97.023894 
L 437.634436 96.683411 
L 438.150564 96.528579 
L 438.666692 96.568277 
L 439.18282 96.800195 
L 439.698947 97.211306 
L 440.731203 98.481962 
L 441.763458 100.177551 
L 443.82797 104.164343 
L 448.989247 114.330311 
L 452.086014 119.866846 
L 455.182781 124.901222 
L 457.76342 128.709282 
L 460.344058 132.164823 
L 462.924697 135.267773 
L 465.505336 138.018118 
L 468.085975 140.415855 
L 470.666614 142.460984 
L 472.731125 143.843208 
L 474.795636 144.999764 
L 476.860147 145.93065 
L 478.924658 146.635867 
L 480.989169 147.115414 
L 483.053681 147.369292 
L 485.118192 147.397501 
L 487.182703 147.20004 
L 489.247214 146.77691 
L 491.311725 146.128111 
L 493.376236 145.253642 
L 495.440747 144.153504 
L 497.505258 142.827696 
L 499.569769 141.276219 
L 502.150408 139.019526 
L 504.731047 136.410224 
L 507.311686 133.448316 
L 509.892325 130.133807 
L 512.472964 126.466737 
L 515.053603 122.447302 
L 518.150369 117.160552 
L 521.247136 111.381272 
L 527.956797 98.481962 
L 528.989053 97.211306 
L 529.50518 96.800195 
L 530.021308 96.568277 
L 530.537436 96.528579 
L 531.053564 96.683411 
L 531.569692 97.023894 
L 532.601947 98.182724 
L 533.634203 99.808392 
L 535.182586 102.715518 
L 541.892247 115.84911 
L 544.989014 121.253441 
L 548.08578 126.153304 
L 550.666419 129.849016 
L 553.247058 133.192172 
L 555.827697 136.18273 
L 558.408336 138.820681 
L 560.988975 141.106024 
L 563.569614 143.038759 
L 565.634125 144.331068 
L 567.698636 145.397709 
L 569.763147 146.23868 
L 571.827658 146.853981 
L 573.892169 147.243614 
L 575.95668 147.407577 
L 578.021191 147.34587 
L 580.085702 147.058494 
L 582.150214 146.545449 
L 584.214725 145.806734 
L 586.279236 144.842351 
L 588.343747 143.652297 
L 590.408258 142.236575 
L 592.472769 140.595182 
L 595.053408 138.226095 
L 597.634047 135.504399 
L 600.214686 132.430094 
L 602.795325 129.003182 
L 605.375963 125.22366 
L 607.956602 121.091531 
L 611.053369 115.667532 
L 614.150136 109.735778 
L 617.246902 103.296267 
L 618.279158 101.036929 
L 618.279158 101.036929 
" clip-path="url(#p48a83f37eb)" style="fill: none; stroke: #6b5b95; stroke-width: 2; stroke-linecap: square"/>
   </g>
   <g id="patch_2">
    <path d="M 72.944238 93.092083 
C 76.16324 93.092083 79.250833 91.81316 81.527011 89.536982 
C 83.803189 87.260804 85.082112 84.173211 85.082112 80.95421 
C 85.082112 77.735208 83.803189 74.647615 81.527011 72.371437 
C 79.250833 70.095259 76.16324 68.816336 72.944238 68.816336 
C 69.725237 68.816336 66.637644 70.095259 64.361466 72.371437 
C 62.085288 74.647615 60.806365 77.735208 60.806365 80.95421 
C 60.806365 84.173211 62.085288 87.260804 64.361466 89.536982 
C 66.637644 91.81316 69.725237 93.092083 72.944238 93.092083 
z
" clip-path="url(#p48a83f37eb)" style="fill: #c8ddf4; opacity: 0.92; stroke: #99b9d8; stroke-width: 0.9; stroke-linejoin: miter"/>
   </g>
   <g id="patch_3">
    <path d="M 75.036975 92.673536 
C 77.589977 92.673536 80.038757 91.659218 81.844002 89.853973 
C 83.649246 88.048728 84.663565 85.599948 84.663565 83.046946 
C 84.663565 80.493945 83.649246 78.045164 81.844002 76.23992 
C 80.038757 74.434675 77.589977 73.420357 75.036975 73.420357 
C 72.483974 73.420357 70.035193 74.434675 68.229949 76.23992 
C 66.424704 78.045164 65.410386 80.493945 65.410386 83.046946 
C 65.410386 85.599948 66.424704 88.048728 68.229949 89.853973 
C 70.035193 91.659218 72.483974 92.673536 75.036975 92.673536 
z
" clip-path="url(#p48a83f37eb)" style="fill: #9fc3e6; opacity: 0.28"/>
   </g>
   <g id="patch_4">
    <path d="M 165.076784 93.084551 
C 168.295785 93.084551 171.383379 91.805628 173.659557 89.52945 
C 175.935734 87.253272 177.214657 84.165679 177.214657 80.946677 
C 177.214657 77.727675 175.935734 74.640082 173.659557 72.363904 
C 171.383379 70.087726 168.295785 68.808803 165.076784 68.808803 
C 161.857782 68.808803 158.770189 70.087726 156.494011 72.363904 
C 154.217833 74.640082 152.93891 77.727675 152.93891 80.946677 
C 152.93891 84.165679 154.217833 87.253272 156.494011 89.52945 
C 158.770189 91.805628 161.857782 93.084551 165.076784 93.084551 
z
" clip-path="url(#p48a83f37eb)" style="fill: #c8ddf4; opacity: 0.92; stroke: #99b9d8; stroke-width: 0.9; stroke-linejoin: miter"/>
   </g>
   <g id="patch_5">
    <path d="M 167.169521 92.666003 
C 169.722522 92.666003 172.171303 91.651685 173.976547 89.84644 
C 175.781792 88.041196 176.79611 85.592415 176.79611 83.039414 
C 176.79611 80.486412 175.781792 78.037632 173.976547 76.232387 
C 172.171303 74.427142 169.722522 73.412824 167.169521 73.412824 
C 164.616519 73.412824 162.167738 74.427142 160.362494 76.232387 
C 158.557249 78.037632 157.542931 80.486412 157.542931 83.039414 
C 157.542931 85.592415 158.557249 88.041196 160.362494 89.84644 
C 162.167738 91.651685 164.616519 92.666003 167.169521 92.666003 
z
" clip-path="url(#p48a83f37eb)" style="fill: #9fc3e6; opacity: 0.28"/>
   </g>
   <g id="patch_6">
    <path d="M 256.880029 93.128467 
C 260.099031 93.128467 263.186624 91.849544 265.462802 89.573366 
C 267.73898 87.297189 269.017903 84.209595 269.017903 80.990594 
C 269.017903 77.771592 267.73898 74.683999 265.462802 72.407821 
C 263.186624 70.131643 260.099031 68.85272 256.880029 68.85272 
C 253.661028 68.85272 250.573435 70.131643 248.297257 72.407821 
C 246.021079 74.683999 244.742156 77.771592 244.742156 80.990594 
C 244.742156 84.209595 246.021079 87.297189 248.297257 89.573366 
C 250.573435 91.849544 253.661028 93.128467 256.880029 93.128467 
z
" clip-path="url(#p48a83f37eb)" style="fill: #c8ddf4; opacity: 0.92; stroke: #99b9d8; stroke-width: 0.9; stroke-linejoin: miter"/>
   </g>
   <g id="patch_7">
    <path d="M 258.972766 92.70992 
C 261.525768 92.70992 263.974548 91.695602 265.779793 89.890357 
C 267.585038 88.085113 268.599356 85.636332 268.599356 83.083331 
C 268.599356 80.530329 267.585038 78.081548 265.779793 76.276304 
C 263.974548 74.471059 261.525768 73.456741 258.972766 73.456741 
C 256.419765 73.456741 253.970984 74.471059 252.16574 76.276304 
C 250.360495 78.081548 249.346177 80.530329 249.346177 83.083331 
C 249.346177 85.636332 250.360495 88.085113 252.16574 89.890357 
C 253.970984 91.695602 256.419765 92.70992 258.972766 92.70992 
z
" clip-path="url(#p48a83f37eb)" style="fill: #9fc3e6; opacity: 0.28"/>
   </g>
   <g id="text_1">
    <!-- $g_1$ -->
    <g style="fill: #404040" transform="translate(69.667579 43.536045) scale(0.1 -0.1)">
     <defs>
      <path id="STIXGeneral-Italic-67" d="M 3014 2342 
L 2701 2342 
Q 2758 2227 2758 2016 
Q 2758 1613 2390 1289 
Q 2022 966 1574 966 
Q 1459 966 1376 986 
Q 1357 992 1331 992 
Q 1248 992 1174 909 
Q 1101 826 1101 730 
Q 1101 576 1555 461 
Q 2464 243 2464 -352 
Q 2464 -781 2105 -1049 
Q 1747 -1318 1120 -1318 
Q 621 -1318 336 -1142 
Q 51 -966 51 -627 
Q 51 -378 195 -202 
Q 339 -26 800 250 
Q 627 352 627 499 
Q 627 806 1120 1037 
Q 614 1216 614 1728 
Q 614 2202 1004 2512 
Q 1395 2822 1901 2822 
Q 2272 2822 2528 2643 
Q 2598 2592 2630 2592 
L 3014 2592 
L 3014 2342 
z
M 2253 2227 
Q 2253 2477 2166 2579 
Q 2080 2682 1894 2682 
Q 1587 2682 1350 2362 
Q 1114 2042 1114 1581 
Q 1114 1357 1216 1229 
Q 1318 1101 1498 1101 
Q 1818 1101 2042 1478 
Q 2253 1837 2253 2227 
z
M 2080 -576 
Q 2080 -352 1878 -201 
Q 1677 -51 1165 109 
Q 1011 154 947 179 
Q 902 179 752 57 
Q 602 -64 531 -154 
Q 403 -314 403 -525 
Q 403 -1178 1216 -1178 
Q 1594 -1178 1837 -1002 
Q 2080 -826 2080 -576 
z
" transform="scale(0.015625)"/>
      <path id="STIXGeneral-Regular-31" d="M 2522 0 
L 755 0 
L 755 96 
Q 1107 115 1235 227 
Q 1363 339 1363 608 
L 1363 3482 
Q 1363 3795 1171 3795 
Q 1082 3795 883 3718 
L 710 3654 
L 710 3744 
L 1856 4326 
L 1914 4307 
L 1914 486 
Q 1914 275 2042 185 
Q 2170 96 2522 96 
L 2522 0 
z
" transform="scale(0.015625)"/>
     </defs>
     <use xlink:href="#STIXGeneral-Italic-67" transform="translate(0 0.90625)"/>
     <use xlink:href="#STIXGeneral-Regular-31" transform="translate(49.999985 -12.321875) scale(0.7)"/>
    </g>
   </g>
   <g id="text_2">
    <!-- $g_2$ -->
    <g style="fill: #404040" transform="translate(161.748 41.861856) scale(0.1 -0.1)">
     <defs>
      <path id="STIXGeneral-Regular-32" d="M 3034 877 
L 2688 0 
L 186 0 
L 186 77 
L 1325 1286 
Q 1773 1754 1965 2144 
Q 2157 2534 2157 2950 
Q 2157 3379 1920 3616 
Q 1683 3853 1267 3853 
Q 922 3853 720 3673 
Q 518 3494 326 3021 
L 192 3053 
Q 301 3648 630 3987 
Q 960 4326 1523 4326 
Q 2054 4326 2380 4006 
Q 2707 3686 2707 3200 
Q 2707 2477 1888 1613 
L 832 486 
L 2330 486 
Q 2541 486 2665 569 
Q 2790 653 2944 915 
L 3034 877 
z
" transform="scale(0.015625)"/>
     </defs>
     <use xlink:href="#STIXGeneral-Italic-67" transform="translate(0 0.90625)"/>
     <use xlink:href="#STIXGeneral-Regular-32" transform="translate(49.999985 -12.321875) scale(0.7)"/>
    </g>
   </g>
   <g id="text_3">
    <!-- $g_3$ -->
    <g style="fill: #404040" transform="translate(253.828421 49.395709) scale(0.1 -0.1)">
     <defs>
      <path id="STIXGeneral-Regular-33" d="M 390 3264 
L 288 3290 
Q 435 3770 748 4048 
Q 1062 4326 1542 4326 
Q 1990 4326 2265 4083 
Q 2541 3840 2541 3450 
Q 2541 2925 1946 2566 
Q 2298 2413 2477 2227 
Q 2758 1914 2758 1402 
Q 2758 890 2464 506 
Q 2246 211 1840 60 
Q 1434 -90 979 -90 
Q 262 -90 262 275 
Q 262 378 339 442 
Q 416 506 525 506 
Q 685 506 915 339 
Q 1197 141 1466 141 
Q 1818 141 2058 425 
Q 2298 710 2298 1120 
Q 2298 1856 1632 2048 
Q 1434 2112 979 2112 
L 979 2202 
Q 1338 2323 1517 2432 
Q 2035 2726 2035 3290 
Q 2035 3610 1852 3776 
Q 1670 3942 1344 3942 
Q 768 3942 390 3264 
z
" transform="scale(0.015625)"/>
     </defs>
     <use xlink:href="#STIXGeneral-Italic-67" transform="translate(0 0.90625)"/>
     <use xlink:href="#STIXGeneral-Regular-33" transform="translate(49.999985 -12.321875) scale(0.7)"/>
    </g>
   </g>
   <g id="text_4">
    <!-- $J_{12}$ -->
    <g style="fill: #6b5b95" transform="translate(114.257789 72.834361) scale(0.1 -0.1)">
     <defs>
      <path id="STIXGeneral-Italic-4a" d="M 3142 4179 
L 3142 4077 
Q 2867 4038 2784 3964 
Q 2701 3891 2618 3603 
L 1958 1254 
Q 1773 589 1504 237 
Q 1235 -115 710 -115 
Q 371 -115 166 38 
Q -38 192 -38 448 
Q -38 602 42 704 
Q 122 806 250 806 
Q 378 806 477 720 
Q 576 634 576 512 
Q 576 474 566 419 
Q 557 365 557 339 
Q 557 90 781 90 
Q 1005 90 1120 499 
L 1933 3405 
Q 2010 3686 2010 3814 
Q 2010 3942 1914 3996 
Q 1818 4051 1517 4077 
L 1517 4179 
L 3142 4179 
z
" transform="scale(0.015625)"/>
     </defs>
     <use xlink:href="#STIXGeneral-Italic-4a" transform="translate(0 0.703125)"/>
     <use xlink:href="#STIXGeneral-Regular-31" transform="translate(44.399994 -12.525) scale(0.7)"/>
     <use xlink:href="#STIXGeneral-Regular-32" transform="translate(79.399983 -12.525) scale(0.7)"/>
    </g>
   </g>
   <g id="text_5">
    <!-- $J_{23}=0$ -->
    <g style="fill: #6b5b95; opacity: 0.75" transform="translate(198.938211 72.834361) scale(0.1 -0.1)">
     <defs>
      <path id="STIXGeneral-Regular-3d" d="M 4077 2048 
L 307 2048 
L 307 2470 
L 4077 2470 
L 4077 2048 
z
M 4077 768 
L 307 768 
L 307 1190 
L 4077 1190 
L 4077 768 
z
" transform="scale(0.015625)"/>
      <path id="STIXGeneral-Regular-30" d="M 3046 2112 
Q 3046 1683 2963 1302 
Q 2880 922 2717 602 
Q 2554 282 2266 96 
Q 1978 -90 1600 -90 
Q 1210 -90 915 108 
Q 621 307 461 640 
Q 301 973 227 1350 
Q 154 1728 154 2150 
Q 154 2746 301 3222 
Q 448 3699 790 4012 
Q 1133 4326 1626 4326 
Q 2253 4326 2649 3712 
Q 3046 3098 3046 2112 
z
M 2432 2080 
Q 2432 3091 2217 3625 
Q 2003 4160 1587 4160 
Q 1190 4160 979 3622 
Q 768 3085 768 2106 
Q 768 1120 979 598 
Q 1190 77 1600 77 
Q 2003 77 2217 598 
Q 2432 1120 2432 2080 
z
" transform="scale(0.015625)"/>
     </defs>
     <use xlink:href="#STIXGeneral-Italic-4a" transform="translate(0 0.40625)"/>
     <use xlink:href="#STIXGeneral-Regular-32" transform="translate(44.399994 -12.821875) scale(0.7)"/>
     <use xlink:href="#STIXGeneral-Regular-33" transform="translate(79.399983 -12.821875) scale(0.7)"/>
     <use xlink:href="#STIXGeneral-Regular-3d" transform="translate(133.249344 0.40625)"/>
     <use xlink:href="#STIXGeneral-Regular-30" transform="translate(216.189325 0.40625)"/>
    </g>
   </g>
   <g id="patch_8">
    <path d="M 390.815187 93.128467 
C 394.034189 93.128467 397.121782 91.849544 399.39796 89.573366 
C 401.674138 87.297189 402.953061 84.209595 402.953061 80.990594 
C 402.953061 77.771592 401.674138 74.683999 399.39796 72.407821 
C 397.121782 70.131643 394.034189 68.85272 390.815187 68.85272 
C 387.596186 68.85272 384.508593 70.131643 382.232415 72.407821 
C 379.956237 74.683999 378.677314 77.771592 378.677314 80.990594 
C 378.677314 84.209595 379.956237 87.297189 382.232415 89.573366 
C 384.508593 91.849544 387.596186 93.128467 390.815187 93.128467 
z
" clip-path="url(#p48a83f37eb)" style="fill: #c8ddf4; opacity: 0.92; stroke: #99b9d8; stroke-width: 0.9; stroke-linejoin: miter"/>
   </g>
   <g id="patch_9">
    <path d="M 392.907924 92.70992 
C 395.460926 92.70992 397.909706 91.695602 399.714951 89.890357 
C 401.520195 88.085113 402.534514 85.636332 402.534514 83.083331 
C 402.534514 80.530329 401.520195 78.081548 399.714951 76.276304 
C 397.909706 74.471059 395.460926 73.456741 392.907924 73.456741 
C 390.354923 73.456741 387.906142 74.471059 386.100898 76.276304 
C 384.295653 78.081548 383.281335 80.530329 383.281335 83.083331 
C 383.281335 85.636332 384.295653 88.085113 386.100898 89.890357 
C 387.906142 91.695602 390.354923 92.70992 392.907924 92.70992 
z
" clip-path="url(#p48a83f37eb)" style="fill: #9fc3e6; opacity: 0.28"/>
   </g>
   <g id="patch_10">
    <path d="M 483.172784 93.084551 
C 486.391785 93.084551 489.479379 91.805628 491.755557 89.52945 
C 494.031734 87.253272 495.310657 84.165679 495.310657 80.946677 
C 495.310657 77.727675 494.031734 74.640082 491.755557 72.363904 
C 489.479379 70.087726 486.391785 68.808803 483.172784 68.808803 
C 479.953782 68.808803 476.866189 70.087726 474.590011 72.363904 
C 472.313833 74.640082 471.03491 77.727675 471.03491 80.946677 
C 471.03491 84.165679 472.313833 87.253272 474.590011 89.52945 
C 476.866189 91.805628 479.953782 93.084551 483.172784 93.084551 
z
" clip-path="url(#p48a83f37eb)" style="fill: #c8ddf4; opacity: 0.92; stroke: #99b9d8; stroke-width: 0.9; stroke-linejoin: miter"/>
   </g>
   <g id="patch_11">
    <path d="M 485.265521 92.666003 
C 487.818522 92.666003 490.267303 91.651685 492.072547 89.84644 
C 493.877792 88.041196 494.89211 85.592415 494.89211 83.039414 
C 494.89211 80.486412 493.877792 78.037632 492.072547 76.232387 
C 490.267303 74.427142 487.818522 73.412824 485.265521 73.412824 
C 482.712519 73.412824 480.263738 74.427142 478.458494 76.232387 
C 476.653249 78.037632 475.638931 80.486412 475.638931 83.039414 
C 475.638931 85.592415 476.653249 88.041196 478.458494 89.84644 
C 480.263738 91.651685 482.712519 92.666003 485.265521 92.666003 
z
" clip-path="url(#p48a83f37eb)" style="fill: #9fc3e6; opacity: 0.28"/>
   </g>
   <g id="patch_12">
    <path d="M 575.20108 93.092083 
C 578.420082 93.092083 581.507675 91.81316 583.783853 89.536982 
C 586.060031 87.260804 587.338954 84.173211 587.338954 80.95421 
C 587.338954 77.735208 586.060031 74.647615 583.783853 72.371437 
C 581.507675 70.095259 578.420082 68.816336 575.20108 68.816336 
C 571.982079 68.816336 568.894486 70.095259 566.618308 72.371437 
C 564.34213 74.647615 563.063207 77.735208 563.063207 80.95421 
C 563.063207 84.173211 564.34213 87.260804 566.618308 89.536982 
C 568.894486 91.81316 571.982079 93.092083 575.20108 93.092083 
z
" clip-path="url(#p48a83f37eb)" style="fill: #c8ddf4; opacity: 0.92; stroke: #99b9d8; stroke-width: 0.9; stroke-linejoin: miter"/>
   </g>
   <g id="patch_13">
    <path d="M 577.293817 92.673536 
C 579.846819 92.673536 582.295599 91.659218 584.100844 89.853973 
C 585.906089 88.048728 586.920407 85.599948 586.920407 83.046946 
C 586.920407 80.493945 585.906089 78.045164 584.100844 76.23992 
C 582.295599 74.434675 579.846819 73.420357 577.293817 73.420357 
C 574.740816 73.420357 572.292035 74.434675 570.486791 76.23992 
C 568.681546 78.045164 567.667228 80.493945 567.667228 83.046946 
C 567.667228 85.599948 568.681546 88.048728 570.486791 89.853973 
C 572.292035 91.659218 574.740816 92.673536 577.293817 92.673536 
z
" clip-path="url(#p48a83f37eb)" style="fill: #9fc3e6; opacity: 0.28"/>
   </g>
   <g id="text_6">
    <!-- $g_3'$ -->
    <g style="fill: #404040" transform="translate(387.763579 48.766021) scale(0.1 -0.1)">
     <defs>
      <path id="STIXGeneral-Regular-2032" d="M 480 2630 
L 909 4045 
Q 934 4141 960 4195 
Q 986 4250 1043 4294 
Q 1101 4339 1190 4339 
Q 1274 4339 1322 4278 
Q 1370 4218 1370 4128 
Q 1370 4058 1280 3878 
L 602 2573 
L 480 2630 
z
" transform="scale(0.015625)"/>
     </defs>
     <use xlink:href="#STIXGeneral-Italic-67" transform="translate(0 0.267188)"/>
     <use xlink:href="#STIXGeneral-Regular-2032" transform="translate(56.17311 35.542188) scale(0.7)"/>
     <use xlink:href="#STIXGeneral-Regular-33" transform="translate(49.999985 -26.189062) scale(0.7)"/>
    </g>
   </g>
   <g id="text_7">
    <!-- $g_2'$ -->
    <g style="fill: #404040" transform="translate(479.844 41.332168) scale(0.1 -0.1)">
     <use xlink:href="#STIXGeneral-Italic-67" transform="translate(0 0.267188)"/>
     <use xlink:href="#STIXGeneral-Regular-2032" transform="translate(56.17311 35.542188) scale(0.7)"/>
     <use xlink:href="#STIXGeneral-Regular-32" transform="translate(49.999985 -26.189062) scale(0.7)"/>
    </g>
   </g>
   <g id="text_8">
    <!-- $g_1'$ -->
    <g style="fill: #404040" transform="translate(571.924421 43.006358) scale(0.1 -0.1)">
     <use xlink:href="#STIXGeneral-Italic-67" transform="translate(0 0.267188)"/>
     <use xlink:href="#STIXGeneral-Regular-2032" transform="translate(56.17311 35.542188) scale(0.7)"/>
     <use xlink:href="#STIXGeneral-Regular-31" transform="translate(49.999985 -26.189062) scale(0.7)"/>
    </g>
   </g>
   <g id="text_9">
    <!-- $J_{23}'=0$ -->
    <g style="fill: #6b5b95; opacity: 0.75" transform="translate(424.953789 72.204674) scale(0.1 -0.1)">
     <use xlink:href="#STIXGeneral-Italic-4a" transform="translate(0 0.267188)"/>
     <use xlink:href="#STIXGeneral-Regular-2032" transform="translate(55.025775 35.542188) scale(0.7)"/>
     <use xlink:href="#STIXGeneral-Regular-32" transform="translate(44.399994 -26.189062) scale(0.7)"/>
     <use xlink:href="#STIXGeneral-Regular-33" transform="translate(79.399983 -26.189062) scale(0.7)"/>
     <use xlink:href="#STIXGeneral-Regular-3d" transform="translate(133.249344 0.267188)"/>
     <use xlink:href="#STIXGeneral-Regular-30" transform="translate(216.189325 0.267188)"/>
    </g>
   </g>
   <g id="text_10">
    <!-- $J_{12}'$ -->
    <g style="fill: #6b5b95" transform="translate(524.434211 72.304674) scale(0.1 -0.1)">
     <use xlink:href="#STIXGeneral-Italic-4a" transform="translate(0 0.267188)"/>
     <use xlink:href="#STIXGeneral-Regular-2032" transform="translate(55.025775 35.542188) scale(0.7)"/>
     <use xlink:href="#STIXGeneral-Regular-31" transform="translate(44.399994 -26.189062) scale(0.7)"/>
     <use xlink:href="#STIXGeneral-Regular-32" transform="translate(79.399983 -26.189062) scale(0.7)"/>
    </g>
   </g>
   <g id="text_11">
    <!-- $J_{\mathrm{int}}$ -->
    <g style="fill: #6b5b95" transform="translate(319.146 28.886888) scale(0.1 -0.1)">
     <defs>
      <path id="STIXGeneral-Regular-69" d="M 1152 4045 
Q 1152 3904 1056 3811 
Q 960 3718 819 3718 
Q 685 3718 592 3811 
Q 499 3904 499 4045 
Q 499 4179 595 4275 
Q 691 4371 826 4371 
Q 966 4371 1059 4275 
Q 1152 4179 1152 4045 
z
M 1619 0 
L 102 0 
L 102 96 
Q 435 115 521 211 
Q 608 307 608 666 
L 608 2118 
Q 608 2342 563 2432 
Q 518 2522 397 2522 
Q 243 2522 128 2490 
L 128 2592 
L 1120 2944 
L 1146 2918 
L 1146 672 
Q 1146 314 1226 218 
Q 1306 122 1619 96 
L 1619 0 
z
" transform="scale(0.015625)"/>
      <path id="STIXGeneral-Regular-6e" d="M 3104 0 
L 1773 0 
L 1779 96 
Q 2016 115 2096 233 
Q 2176 352 2176 672 
L 2176 1946 
Q 2176 2592 1709 2592 
Q 1549 2592 1408 2515 
Q 1267 2438 1050 2227 
L 1050 461 
Q 1050 269 1136 192 
Q 1222 115 1466 96 
L 1466 0 
L 115 0 
L 115 96 
Q 358 115 435 214 
Q 512 314 512 602 
L 512 2157 
Q 512 2394 467 2483 
Q 422 2573 288 2573 
Q 160 2573 102 2547 
L 102 2656 
Q 550 2784 979 2944 
L 1030 2925 
L 1030 2426 
L 1037 2426 
Q 1491 2944 1958 2944 
Q 2323 2944 2518 2688 
Q 2714 2432 2714 1958 
L 2714 544 
Q 2714 288 2790 205 
Q 2867 122 3104 96 
L 3104 0 
z
" transform="scale(0.015625)"/>
      <path id="STIXGeneral-Regular-74" d="M 1702 493 
L 1786 422 
Q 1478 -64 1011 -64 
Q 448 -64 448 749 
L 448 2675 
L 109 2675 
Q 83 2694 83 2720 
Q 83 2771 192 2842 
Q 435 2982 813 3526 
Q 826 3546 874 3606 
Q 922 3667 941 3706 
Q 986 3706 986 3622 
L 986 2880 
L 1632 2880 
L 1632 2675 
L 986 2675 
L 986 845 
Q 986 538 1062 403 
Q 1139 269 1318 269 
Q 1510 269 1702 493 
z
" transform="scale(0.015625)"/>
     </defs>
     <use xlink:href="#STIXGeneral-Italic-4a" transform="translate(0 0.703125)"/>
     <use xlink:href="#STIXGeneral-Regular-69" transform="translate(44.399994 -12.525) scale(0.7)"/>
     <use xlink:href="#STIXGeneral-Regular-6e" transform="translate(63.859985 -12.525) scale(0.7)"/>
     <use xlink:href="#STIXGeneral-Regular-74" transform="translate(98.859975 -12.525) scale(0.7)"/>
    </g>
   </g>
   <g id="patch_14">
    <path d="M 69.177312 81.791304 
C 70.398313 81.791304 71.569469 81.306196 72.432847 80.442818 
C 73.296224 79.57944 73.781333 78.408284 73.781333 77.187283 
C 73.781333 75.966283 73.296224 74.795127 72.432847 73.931749 
C 71.569469 73.068371 70.398313 72.583262 69.177312 72.583262 
C 67.956311 72.583262 66.785155 73.068371 65.921778 73.931749 
C 65.0584 74.795127 64.573291 75.966283 64.573291 77.187283 
C 64.573291 78.408284 65.0584 79.57944 65.921778 80.442818 
C 66.785155 81.306196 67.956311 81.791304 69.177312 81.791304 
z
" clip-path="url(#p48a83f37eb)" style="fill: #ffffff; opacity: 0.62"/>
   </g>
   <g id="patch_15">
    <path d="M 161.309857 81.783772 
C 162.530858 81.783772 163.702014 81.298663 164.565392 80.435285 
C 165.42877 79.571907 165.913878 78.400751 165.913878 77.179751 
C 165.913878 75.95875 165.42877 74.787594 164.565392 73.924216 
C 163.702014 73.060838 162.530858 72.575729 161.309857 72.575729 
C 160.088857 72.575729 158.917701 73.060838 158.054323 73.924216 
C 157.190945 74.787594 156.705836 75.95875 156.705836 77.179751 
C 156.705836 78.400751 157.190945 79.571907 158.054323 80.435285 
C 158.917701 81.298663 160.088857 81.783772 161.309857 81.783772 
z
" clip-path="url(#p48a83f37eb)" style="fill: #ffffff; opacity: 0.62"/>
   </g>
   <g id="patch_16">
    <path d="M 253.113103 81.827688 
C 254.334104 81.827688 255.50526 81.34258 256.368638 80.479202 
C 257.232016 79.615824 257.717124 78.444668 257.717124 77.223667 
C 257.717124 76.002667 257.232016 74.831511 256.368638 73.968133 
C 255.50526 73.104755 254.334104 72.619646 253.113103 72.619646 
C 251.892103 72.619646 250.720946 73.104755 249.857569 73.968133 
C 248.994191 74.831511 248.509082 76.002667 248.509082 77.223667 
C 248.509082 78.444668 248.994191 79.615824 249.857569 80.479202 
C 250.720946 81.34258 251.892103 81.827688 253.113103 81.827688 
z
" clip-path="url(#p48a83f37eb)" style="fill: #ffffff; opacity: 0.62"/>
   </g>
   <g id="patch_17">
    <path d="M 387.048261 81.827688 
C 388.269262 81.827688 389.440418 81.34258 390.303796 80.479202 
C 391.167173 79.615824 391.652282 78.444668 391.652282 77.223667 
C 391.652282 76.002667 391.167173 74.831511 390.303796 73.968133 
C 389.440418 73.104755 388.269262 72.619646 387.048261 72.619646 
C 385.82726 72.619646 384.656104 73.104755 383.792727 73.968133 
C 382.929349 74.831511 382.44424 76.002667 382.44424 77.223667 
C 382.44424 78.444668 382.929349 79.615824 383.792727 80.479202 
C 384.656104 81.34258 385.82726 81.827688 387.048261 81.827688 
z
" clip-path="url(#p48a83f37eb)" style="fill: #ffffff; opacity: 0.62"/>
   </g>
   <g id="patch_18">
    <path d="M 479.405857 81.783772 
C 480.626858 81.783772 481.798014 81.298663 482.661392 80.435285 
C 483.52477 79.571907 484.009878 78.400751 484.009878 77.179751 
C 484.009878 75.95875 483.52477 74.787594 482.661392 73.924216 
C 481.798014 73.060838 480.626858 72.575729 479.405857 72.575729 
C 478.184857 72.575729 477.013701 73.060838 476.150323 73.924216 
C 475.286945 74.787594 474.801836 75.95875 474.801836 77.179751 
C 474.801836 78.400751 475.286945 79.571907 476.150323 80.435285 
C 477.013701 81.298663 478.184857 81.783772 479.405857 81.783772 
z
" clip-path="url(#p48a83f37eb)" style="fill: #ffffff; opacity: 0.62"/>
   </g>
   <g id="patch_19">
    <path d="M 571.434154 81.791304 
C 572.655155 81.791304 573.826311 81.306196 574.689689 80.442818 
C 575.553067 79.57944 576.038175 78.408284 576.038175 77.187283 
C 576.038175 75.966283 575.553067 74.795127 574.689689 73.931749 
C 573.826311 73.068371 572.655155 72.583262 571.434154 72.583262 
C 570.213154 72.583262 569.041997 73.068371 568.17862 73.931749 
C 567.315242 74.795127 566.830133 75.966283 566.830133 77.187283 
C 566.830133 78.408284 567.315242 79.57944 568.17862 80.442818 
C 569.041997 81.306196 570.213154 81.791304 571.434154 81.791304 
z
" clip-path="url(#p48a83f37eb)" style="fill: #ffffff; opacity: 0.62"/>
   </g>
   <g id="patch_20">
    <path d="M 95.406789 104.300629 
Q 120.207097 70.107447 145.007362 104.298752 
" style="fill: none; stroke: #6b5b95; stroke-width: 1.9; stroke-linecap: round"/>
    <path d="M 99.374286 102.236902 
L 95.406789 104.300629 
L 96.136305 99.888396 
" style="fill: none; stroke: #6b5b95; stroke-width: 1.9; stroke-linecap: round"/>
    <path d="M 144.277734 99.886536 
L 145.007362 104.298752 
L 141.039813 102.235125 
" style="fill: none; stroke: #6b5b95; stroke-width: 1.9; stroke-linecap: round"/>
   </g>
   <g id="patch_21">
    <path d="M 187.48721 104.300629 
Q 212.287518 70.107447 237.087783 104.298752 
" style="fill: none; opacity: 0.42; stroke: #6b5b95; stroke-width: 1.9; stroke-linecap: round"/>
    <path d="M 191.454707 102.236902 
L 187.48721 104.300629 
L 188.216726 99.888396 
" style="fill: none; opacity: 0.42; stroke: #6b5b95; stroke-width: 1.9; stroke-linecap: round"/>
    <path d="M 236.358155 99.886536 
L 237.087783 104.298752 
L 233.120234 102.235125 
" style="fill: none; opacity: 0.42; stroke: #6b5b95; stroke-width: 1.9; stroke-linecap: round"/>
   </g>
   <g id="patch_22">
    <path d="M 413.502789 104.300629 
Q 438.303097 70.107447 463.103362 104.298752 
" style="fill: none; opacity: 0.42; stroke: #6b5b95; stroke-width: 1.9; stroke-linecap: round"/>
    <path d="M 417.470286 102.236902 
L 413.502789 104.300629 
L 414.232305 99.888396 
" style="fill: none; opacity: 0.42; stroke: #6b5b95; stroke-width: 1.9; stroke-linecap: round"/>
    <path d="M 462.373734 99.886536 
L 463.103362 104.298752 
L 459.135813 102.235125 
" style="fill: none; opacity: 0.42; stroke: #6b5b95; stroke-width: 1.9; stroke-linecap: round"/>
   </g>
   <g id="patch_23">
    <path d="M 505.58321 104.300629 
Q 530.383518 70.107447 555.183783 104.298752 
" style="fill: none; stroke: #6b5b95; stroke-width: 1.9; stroke-linecap: round"/>
    <path d="M 509.550707 102.236902 
L 505.58321 104.300629 
L 506.312726 99.888396 
" style="fill: none; stroke: #6b5b95; stroke-width: 1.9; stroke-linecap: round"/>
    <path d="M 554.454155 99.886536 
L 555.183783 104.298752 
L 551.216234 102.235125 
" style="fill: none; stroke: #6b5b95; stroke-width: 1.9; stroke-linecap: round"/>
   </g>
   <g id="patch_24">
    <path d="M 280.47604 61.249541 
Q 325.29487 28.320284 370.113671 61.24792 
" style="fill: none; stroke: #6b5b95; stroke-width: 1.9; stroke-linecap: round"/>
    <path d="M 284.883708 60.492926 
L 280.47604 61.249541 
L 282.515349 57.269438 
" style="fill: none; stroke: #6b5b95; stroke-width: 1.9; stroke-linecap: round"/>
    <path d="M 368.07427 57.267864 
L 370.113671 61.24792 
L 365.705986 60.491407 
" style="fill: none; stroke: #6b5b95; stroke-width: 1.9; stroke-linecap: round"/>
   </g>
   <g id="patch_25">
    <path d="M 69.019375 54.385902 
Q 74.167643 89.235718 78.923773 121.431062 
" clip-path="url(#p48a83f37eb)" style="fill: none; stroke: #b24a3a; stroke-width: 2.4; stroke-linecap: round"/>
    <path d="M 81.154113 114.632122 
L 78.923773 121.431062 
L 74.822825 115.567426 
z
" clip-path="url(#p48a83f37eb)" style="fill: #b24a3a; stroke: #b24a3a; stroke-width: 2.4; stroke-linecap: round"/>
   </g>
   <g id="patch_26">
    <path d="M 161.086512 52.70783 
Q 166.24771 89.233231 171.033478 123.101744 
" clip-path="url(#p48a83f37eb)" style="fill: none; stroke: #4f7f48; stroke-width: 2.4; stroke-linecap: round"/>
    <path d="M 173.306549 116.316971 
L 171.033478 123.101744 
L 166.969502 117.212423 
z
" clip-path="url(#p48a83f37eb)" style="fill: #4f7f48; stroke: #4f7f48; stroke-width: 2.4; stroke-linecap: round"/>
   </g>
   <g id="patch_27">
    <path d="M 253.233353 60.232588 
Q 258.328135 89.233658 262.958641 115.591918 
" clip-path="url(#p48a83f37eb)" style="fill: none; stroke: #355e8d; stroke-width: 2.4; stroke-linecap: round"/>
    <path d="M 265.003009 108.734764 
L 262.958641 115.591918 
L 258.699539 109.842131 
z
" clip-path="url(#p48a83f37eb)" style="fill: #355e8d; stroke: #355e8d; stroke-width: 2.4; stroke-linecap: round"/>
   </g>
   <g id="patch_28">
    <path d="M 387.168511 60.232588 
Q 392.263293 89.233658 396.893798 115.591918 
" clip-path="url(#p48a83f37eb)" style="fill: none; stroke: #8d4f7f; stroke-width: 2.4; stroke-linecap: round"/>
    <path d="M 398.938167 108.734764 
L 396.893798 115.591918 
L 392.634697 109.842131 
z
" clip-path="url(#p48a83f37eb)" style="fill: #8d4f7f; stroke: #8d4f7f; stroke-width: 2.4; stroke-linecap: round"/>
   </g>
   <g id="patch_29">
    <path d="M 479.182512 52.70783 
Q 484.34371 89.233231 489.129478 123.101744 
" clip-path="url(#p48a83f37eb)" style="fill: none; stroke: #4d8a6b; stroke-width: 2.4; stroke-linecap: round"/>
    <path d="M 491.402549 116.316971 
L 489.129478 123.101744 
L 485.065502 117.212423 
z
" clip-path="url(#p48a83f37eb)" style="fill: #4d8a6b; stroke: #4d8a6b; stroke-width: 2.4; stroke-linecap: round"/>
   </g>
   <g id="patch_30">
    <path d="M 571.276217 54.385902 
Q 576.424485 89.235718 581.180615 121.431062 
" clip-path="url(#p48a83f37eb)" style="fill: none; stroke: #c7684c; stroke-width: 2.4; stroke-linecap: round"/>
    <path d="M 583.410956 114.632122 
L 581.180615 121.431062 
L 577.079668 115.567426 
z
" clip-path="url(#p48a83f37eb)" style="fill: #c7684c; stroke: #c7684c; stroke-width: 2.4; stroke-linecap: round"/>
   </g>
  </g>
 </g>
 <defs>
  <clipPath id="p48a83f37eb">
   <rect x="7.2" y="7.2" width="636.192" height="186.253579"/>
  </clipPath>
 </defs>
</svg>
